<?xml version="1.0" encoding="utf-8"?>
<!-- Generator: Adobe Illustrator 24.1.2, SVG Export Plug-In . SVG Version: 6.00 Build 0)  -->
<svg version="1.1" id="Layer_1" xmlns="http://www.w3.org/2000/svg" xmlns:xlink="http://www.w3.org/1999/xlink" x="0px" y="0px"
	 viewBox="0 0 967.9 305.1" style="enable-background:new 0 0 967.9 305.1;" xml:space="preserve">
<style type="text/css">
	.st0{fill:none;stroke:#000000;stroke-width:0.7571;}
	.st1{fill:none;stroke:#000000;stroke-width:1.9786;}
	.st2{fill:none;stroke:#000000;stroke-width:1.1429;}
	.st3{fill:none;stroke:#000000;stroke-width:2.2357;}
	.st4{fill:none;stroke:#000000;stroke-width:1.6571;}
	.st5{fill:none;stroke:#000000;stroke-width:0.8857;}
	.st6{fill:none;stroke:#000000;stroke-width:0.5643;}
	.st7{fill:none;stroke:#000000;stroke-width:2.3;}
	.st8{fill:none;stroke:#000000;stroke-width:1.5929;}
	.st9{fill:none;stroke:#000000;stroke-width:4.7429;}
	.st10{fill:none;stroke:#000000;stroke-width:2.1714;}
	.st11{fill:none;stroke:#000000;stroke-width:1.7214;}
	.st12{fill:none;stroke:#000000;stroke-width:1.0143;}
	.st13{fill:none;stroke:#000000;stroke-width:3.0071;}
	.st14{fill:none;stroke:#000000;stroke-width:0.8214;}
	.st15{fill:none;stroke:#000000;stroke-width:1.0786;}
	.st16{fill:none;stroke:#000000;stroke-width:0.6929;}
	.st17{fill:none;stroke:#000000;stroke-width:0.5;}
	.st18{fill:none;stroke:#000000;stroke-width:5;}
	.st19{font-family:'ArialMT';}
	.st20{font-size:24px;}
</style>
<g id="edges">
	<path class="st0" d="M130.8,175.9c50.2-20.5,156.3,24.2,176.7,74.5"/>
	<path class="st1" d="M130.8,175.9c-12.3,17.8-57.5,26-75.3,13.6"/>
	<path class="st0" d="M130.8,175.9C185.7,91,395.4,46.1,480.2,101.1"/>
	<path class="st2" d="M130.8,175.9C132.3,128.1,206.2,58.5,254,60"/>
	<path class="st3" d="M307.5,250.4c-50.2,20.5-156.3-24.2-176.7-74.5"/>
	<path class="st4" d="M307.5,250.4c50.5-96.7,271.3-166.1,368-115.6"/>
	<path class="st5" d="M307.5,250.4C258.7,223,226.7,108.8,254,60"/>
	<path class="st4" d="M836.1,149c-8.7-27.2,18.9-81,46.1-89.7"/>
	<path class="st0" d="M836.1,149c31.4,15.8,54.9,86.7,39.1,118.1"/>
	<path class="st3" d="M836.1,149c-34.9,29.3-131.3,20.8-160.6-14.2"/>
	<path class="st6" d="M836.1,149C701.9,247.6,352.7,194.2,254,60"/>
	<path class="st7" d="M882.2,59.2c8.7,27.2-18.9,81-46.1,89.7"/>
	<path class="st8" d="M882.2,59.2C855.9,115.7,732,161,675.5,134.8"/>
	<path class="st9" d="M55.5,189.6c12.3-17.8,57.5-26,75.3-13.6"/>
	<path class="st10" d="M875.2,267.1c-31.4-15.8-54.9-86.7-39.1-118.1"/>
	<path class="st11" d="M875.2,267.1c-66.4,13.5-186.2-65.9-199.6-132.3"/>
	<path class="st12" d="M480.2,101.1c-54.9,84.9-264.6,129.8-349.4,74.8"/>
	<path class="st13" d="M480.2,101.1c45.8-32.3,163-12.1,195.3,33.7"/>
	<path class="st14" d="M480.2,101.1C426.7,138.1,291,113.5,254,60"/>
	<path class="st6" d="M675.5,134.8c-50.5,96.7-271.3,166.1-368,115.6"/>
	<path class="st1" d="M675.5,134.8c34.9-29.3,131.3-20.8,160.6,14.2"/>
	<path class="st15" d="M675.5,134.8C701.7,78.4,825.7,33,882.1,59.2"/>
	<path class="st16" d="M675.5,134.8c66.4-13.5,186.2,65.9,199.6,132.3"/>
	<path class="st2" d="M675.5,134.8c-45.8,32.3-163,12.1-195.3-33.7"/>
	<path class="st17" d="M675.5,134.8c-16.1-18.3-13-69.9,5.3-86"/>
	<path class="st18" d="M680.8,48.8c16.1,18.3,13,69.9-5.3,86"/>
	<path class="st7" d="M254,60c-1.5,47.8-75.4,117.4-123.2,115.9"/>
	<path class="st16" d="M254,60c48.8,27.4,80.9,141.6,53.5,190.4"/>
	<path class="st5" d="M254,60c134.2-98.6,483.4-45.2,582.1,89"/>
	<path class="st12" d="M254,60c53.5-37,189.2-12.4,226.2,41.1"/>
</g>
<g id="node-labels">
	<text transform="matrix(1 0 0 1 91.1595 175.9031)" class="st19 st20">time_pl</text>
	<text transform="matrix(1 0 0 1 258.8426 256.7617)" class="st19 st20">time_sffx</text>
	<text transform="matrix(1 0 0 1 795.3953 155.3644)" class="st19 st20">definite</text>
	<text transform="matrix(1 0 0 1 804.7068 65.622)" class="st19 st20">demonstrative</text>
	<text transform="matrix(1 0 0 1 11.3943 195.9323)" class="st19 st20">cardinal</text>
	<text transform="matrix(1 0 0 1 837.0516 273.4917)" class="st19 st20">ordinal</text>
	<text transform="matrix(1 0 0 1 437.983 107.4579)" class="st19 st20">genitive</text>
	<text transform="matrix(1 0 0 1 615.8651 141.1982)" class="st19 st20">preposition</text>
	<text transform="matrix(1 0 0 1 654.6951 55.1867)" class="st19 st20">bare</text>
	<text transform="matrix(1 0 0 1 199.0462 66.3747)" class="st19 st20">qualitative</text>
</g>
</svg>
