<?xml version="1.0" encoding="utf-8"?>
<!-- Generator: Adobe Illustrator 24.1.2, SVG Export Plug-In . SVG Version: 6.00 Build 0)  -->
<svg version="1.1" id="Layer_1" xmlns="http://www.w3.org/2000/svg" xmlns:xlink="http://www.w3.org/1999/xlink" x="0px" y="0px"
	 viewBox="0 0 341 215" style="enable-background:new 0 0 341 215;" xml:space="preserve">
<style type="text/css">
	.st0{fill:none;}
	.st1{font-family:'Helvetica';}
	.st2{font-size:12px;}
	.st3{font-family:'Helvetica-Bold';}
	.st4{fill:none;stroke:#000000;stroke-width:2;stroke-miterlimit:10;}
	.st5{font-family:'Helvetica-Oblique';}
</style>
<rect x="13.4" y="31.5" class="st0" width="316.6" height="14.5"/>
<text transform="matrix(1 0 0 1 13.4229 40.1743)"><tspan x="0" y="0" class="st1 st2">“Two weeks ago Frank said he would return </tspan><tspan x="236.1" y="0" class="st3 st2">next Monday</tspan><tspan x="309.5" y="0" class="st1 st2">”</tspan></text>
<rect x="3" y="149.8" class="st0" width="337.8" height="14.2"/>
<text transform="matrix(1 0 0 1 3.0001 158.433)"><tspan x="0" y="0" class="st1 st2">“Two weeks ago Frank said he would return </tspan><tspan x="236.1" y="0" class="st3 st2">the</tspan><tspan x="254.1" y="0" class="st1 st2"> </tspan><tspan x="257.4" y="0" class="st3 st2">next Monday</tspan><tspan x="330.8" y="0" class="st1 st2">”</tspan></text>
<g>
	<circle cx="79" cy="72" r="3"/>
	<g>
		<g>
			<line class="st4" x1="79" y1="72" x2="258.1" y2="72"/>
			<g>
				<polygon points="265,72 255.2,76 257.6,72 255.2,68 				"/>
			</g>
		</g>
	</g>
</g>
<g>
	<circle cx="76" cy="191" r="3"/>
	<g>
		<g>
			<line class="st4" x1="76" y1="191" x2="255.1" y2="191"/>
			<g>
				<polygon points="262,191 252.2,195 254.6,191 252.2,187 				"/>
			</g>
		</g>
	</g>
</g>
<rect x="125.1" y="127.8" class="st0" width="93.9" height="13.2"/>
<text transform="matrix(1 0 0 1 125.1348 136.4551)" class="st5 st2">predicated time</text>
<rect x="137.5" y="6.1" class="st0" width="69.5" height="13.2"/>
<text transform="matrix(1 0 0 1 137.4781 14.7703)" class="st5 st2">coding time</text>
<rect x="57.1" y="79.9" class="st0" width="48" height="9.6"/>
<text transform="matrix(1 0 0 1 57.1274 88.4854)" class="st1 st2">July 15</text>
<rect x="238.1" y="80.1" class="st0" width="48" height="9.6"/>
<text transform="matrix(1 0 0 1 238.1341 88.7703)" class="st1 st2">July 20</text>
<rect x="58.1" y="199.1" class="st0" width="48" height="9.6"/>
<text transform="matrix(1 0 0 1 58.1341 207.7703)" class="st1 st2">July 1</text>
<rect x="238.1" y="201.1" class="st0" width="48" height="9.6"/>
<text transform="matrix(1 0 0 1 238.1341 209.7701)" class="st1 st2">July 5</text>
</svg>
