<?xml version="1.0" encoding="utf-8"?>
<!-- Generator: Adobe Illustrator 24.1.2, SVG Export Plug-In . SVG Version: 6.00 Build 0)  -->
<svg version="1.1" id="Layer_1" xmlns="http://www.w3.org/2000/svg" xmlns:xlink="http://www.w3.org/1999/xlink" x="0px" y="0px"
	 viewBox="0 0 366 195" style="enable-background:new 0 0 366 195;" xml:space="preserve">
<style type="text/css">
	.st0{fill:none;}
	.st1{font-family:'Helvetica';}
	.st2{font-size:12px;}
	.st3{fill:none;stroke:#000000;stroke-miterlimit:10;}
	.st4{font-family:'Helvetica-Oblique';}
	.st5{font-size:10px;}
</style>
<rect x="100.2" y="36.2" class="st0" width="52.8" height="12.3"/>
<text transform="matrix(1 0 0 1 100.1831 44.791)" class="st1 st2">reference</text>
<rect x="191.9" y="36.6" class="st0" width="65.1" height="10.4"/>
<text transform="matrix(1 0 0 1 191.9268 45.1777)" class="st1 st2">modification</text>
<rect x="292.5" y="36" class="st0" width="62.5" height="12"/>
<text transform="matrix(1 0 0 1 292.4829 44.6084)" class="st1 st2">predication</text>
<rect x="42.7" y="67.9" class="st0" width="43.3" height="13.1"/>
<text transform="matrix(1 0 0 1 42.6655 76.478)" class="st1 st2">objects</text>
<rect x="34.8" y="113.8" class="st0" width="58.2" height="11.2"/>
<text transform="matrix(1 0 0 1 34.7915 122.4648)" class="st1 st2">properties</text>
<rect x="43" y="158.2" class="st0" width="42" height="11.8"/>
<text transform="matrix(1 0 0 1 43.0132 166.835)" class="st1 st2">events</text>
<line class="st3" x1="30" y1="48" x2="361.5" y2="47.5"/>
<line class="st3" x1="29.8" y1="188.5" x2="361.2" y2="188.5"/>
<line class="st3" x1="29.8" y1="28.5" x2="361.2" y2="28.5"/>
<rect x="150.1" y="7" class="st0" width="83.9" height="14"/>
<text transform="matrix(1 0 0 1 150.1045 15.6289)" class="st4 st2">pragmatic axis</text>
<rect x="6" y="75" class="st0" width="15.7" height="78.7"/>
<text transform="matrix(4.489659e-11 -1 1 4.489659e-11 14.6298 153.6699)" class="st4 st2">semantic axis</text>
<rect x="104.2" y="67.6" class="st0" width="54" height="21.1"/>
<text transform="matrix(1 0 0 1 104.2104 74.7935)" class="st4 st5">core nouns</text>
<rect x="192.3" y="107" class="st0" width="74.5" height="24.7"/>
<text transform="matrix(1 0 0 1 192.252 114.2275)" class="st4 st5">core adjectives</text>
<rect x="316.5" y="134.5" transform="matrix(8.725049e-03 -1 1 8.725049e-03 159.3031 484.117)" class="st0" width="14.6" height="54.3"/>
<text transform="matrix(1 0 0 1 296.7217 161.3818)" class="st4 st5">core verbs</text>
<rect x="100.1" y="98.8" class="st0" width="61.9" height="42.2"/>
<text transform="matrix(1 0 0 1 100.1021 106)"><tspan x="0" y="0" class="st1 st5">abstract </tspan><tspan x="0" y="12" class="st1 st5">de-adjectival </tspan><tspan x="0" y="24" class="st1 st5">nouns</tspan></text>
<rect x="96.6" y="143.4" class="st0" width="86.4" height="37.6"/>
<text transform="matrix(1 0 0 1 96.5801 150.543)"><tspan x="0" y="0" class="st1 st5">nominalizations, </tspan><tspan x="0" y="12" class="st1 st5">infinitives, gerunds, </tspan><tspan x="0" y="24" class="st1 st5">complements</tspan></text>
<rect x="199.4" y="59.6" class="st0" width="62.6" height="42.4"/>
<text transform="matrix(1 0 0 1 199.3604 66.8057)"><tspan x="0" y="0" class="st1 st5">genitives, </tspan><tspan x="0" y="12" class="st1 st5">adjectivals, </tspan><tspan x="0" y="24" class="st1 st5">PP modifiers</tspan></text>
<rect x="199.5" y="139.1" class="st0" width="59.5" height="45.9"/>
<text transform="matrix(1 0 0 1 199.4692 146.3262)"><tspan x="0" y="0" class="st1 st5">participles, </tspan><tspan x="0" y="12" class="st1 st5">relative </tspan><tspan x="0" y="24" class="st1 st5">clauses</tspan></text>
<rect x="294.4" y="65.6" class="st0" width="47.6" height="24.4"/>
<text transform="matrix(1 0 0 1 294.3584 72.7402)"><tspan x="0" y="0" class="st1 st5">predicate </tspan><tspan x="0" y="12" class="st1 st5">nominals</tspan></text>
<rect x="297.1" y="103.4" class="st0" width="52.9" height="22.6"/>
<text transform="matrix(1 0 0 1 297.1406 110.5869)"><tspan x="0" y="0" class="st1 st5">predicate </tspan><tspan x="0" y="12" class="st1 st5">adjectives</tspan></text>
</svg>
