<?xml version="1.0" encoding="utf-8"?>
<!-- Generator: Adobe Illustrator 24.1.2, SVG Export Plug-In . SVG Version: 6.00 Build 0)  -->
<svg version="1.1" id="Layer_1" xmlns="http://www.w3.org/2000/svg" xmlns:xlink="http://www.w3.org/1999/xlink" x="0px" y="0px"
	 viewBox="0 0 536.3 200.8" style="enable-background:new 0 0 536.3 200.8;" xml:space="preserve">
<style type="text/css">
	.st0{font-family:'Helvetica';}
	.st1{font-size:12px;}
	.st2{fill:none;stroke:#000000;stroke-miterlimit:10;}
	.st3{font-family:'Helvetica-Oblique';}
	.st4{fill:none;}
	.st5{font-size:10px;}
</style>
<text transform="matrix(1 0 0 1 80.5005 38.3497)" class="st0 st1">situating in physical space</text>
<text transform="matrix(1 0 0 1 241.874 38.3498)" class="st0 st1">situating in a mental space</text>
<text transform="matrix(1 0 0 1 39.0957 68.3127)" class="st0 st1">objects</text>
<text transform="matrix(1 0 0 1 39.0954 121.9439)" class="st0 st1">properties</text>
<text transform="matrix(1 0 0 1 39.0954 163.2539)" class="st0 st1">events</text>
<line class="st2" x1="34" y1="41" x2="520.8" y2="40.3"/>
<line class="st2" x1="32.4" y1="184.5" x2="520.8" y2="179.8"/>
<line class="st2" x1="34" y1="21.5" x2="520.8" y2="21.5"/>
<text transform="matrix(1 0 0 1 227.6767 14)" class="st3 st1">pragmatic axis</text>
<text transform="matrix(4.489659e-11 -1 1 4.489659e-11 16.7657 144.6953)" class="st3 st1">semantic axis</text>
<rect x="116.9" y="53.8" class="st4" width="80.9" height="34.1"/>
<text transform="matrix(1 0 0 1 116.8992 60.9585)"><tspan x="0" y="0" class="st0 st5">demonstratives, </tspan><tspan x="0" y="12" class="st0 st5">locative deictics, </tspan><tspan x="0" y="24" class="st0 st5">prepositions</tspan></text>
<rect x="117.9" y="110.8" class="st4" width="77.8" height="22.3"/>
<text transform="matrix(1 0 0 1 117.9329 118.005)"><tspan x="0" y="0" class="st0 st5">core adjectives, </tspan><tspan x="0" y="12" class="st0 st5">diminutives</tspan></text>
<rect x="116.9" y="147.7" class="st4" width="110.8" height="23.8"/>
<text transform="matrix(1 0 0 1 116.899 154.9122)"><tspan x="0" y="0" class="st0 st5">tense, temporal deictics, </tspan><tspan x="0" y="12" class="st0 st5">temporal adcverbials</tspan></text>
<rect x="263.8" y="49.6" class="st4" width="99.7" height="44.7"/>
<text transform="matrix(1 0 0 1 263.7624 56.7533)"><tspan x="0" y="0" class="st0 st5">definite articles, </tspan><tspan x="0" y="12" class="st0 st5">possessive pronouns, </tspan><tspan x="0" y="24" class="st0 st5">names of humans</tspan></text>
<rect x="266" y="110.8" class="st4" width="35.5" height="14.5"/>
<text transform="matrix(1 0 0 1 266.0325 118.0381)" class="st0 st5">N/A?</text>
<rect x="263.8" y="139.7" class="st4" width="112.1" height="36.4"/>
<text transform="matrix(1 0 0 1 263.7628 146.8568)"><tspan x="0" y="0" class="st0 st5">modals, attitude mark</tspan><tspan x="95.6" y="0" class="st0 st5">-</tspan><tspan x="0" y="12" class="st0 st5">ers, sentential adverbs, </tspan><tspan x="0" y="24" class="st0 st5">pronouns, conditionals</tspan></text>
<text transform="matrix(1 0 0 1 417.115 38.3498)" class="st0 st1">selecting entitites</text>
<rect x="416.7" y="51.5" class="st4" width="99.7" height="44.7"/>
<text transform="matrix(1 0 0 1 416.6888 58.6418)"><tspan x="0" y="0" class="st0 st5">unit terms, collectives, </tspan><tspan x="0" y="12" class="st0 st5">parts, numbers, </tspan><tspan x="0" y="24" class="st0 st5">quantifiers, ordinals</tspan></text>
<rect x="416.7" y="141.4" class="st4" width="105" height="32.9"/>
<text transform="matrix(1 0 0 1 416.6888 148.6164)"><tspan x="0" y="0" class="st0 st5">perfective, generic, </tspan><tspan x="0" y="12" class="st0 st5">habituals, duration </tspan><tspan x="0" y="24" class="st0 st5">phrases</tspan></text>
<rect x="417.1" y="107.4" class="st4" width="43.2" height="14.5"/>
<text transform="matrix(1 0 0 1 417.1154 114.6313)" class="st0 st5">generic?</text>
</svg>
