<?xml version="1.0" encoding="utf-8"?>
<!-- Generator: Adobe Illustrator 24.1.2, SVG Export Plug-In . SVG Version: 6.00 Build 0)  -->
<svg version="1.1" id="Layer_1" xmlns="http://www.w3.org/2000/svg" xmlns:xlink="http://www.w3.org/1999/xlink" x="0px" y="0px"
	 viewBox="0 0 1013 687" style="enable-background:new 0 0 1013 687;" xml:space="preserve">
<style type="text/css">
	.st0{font-family:'ArialMT';}
	.st1{font-size:36px;}
	.st2{fill:none;stroke:#000000;stroke-width:2;stroke-miterlimit:10;}
	.st3{font-size:25px;}
	.st4{font-family:'Helvetica';}
	.st5{font-size:20px;}
	.st6{fill:none;stroke:#999999;stroke-width:2;stroke-miterlimit:10;}
	.st7{fill:none;stroke:#999999;stroke-width:2;stroke-miterlimit:10;stroke-dasharray:3.9843,3.9843;}
	.st8{fill:#999999;}
	.st9{fill:none;stroke:#999999;stroke-width:2;stroke-miterlimit:10;stroke-dasharray:4,4;}
	.st10{stroke:#000000;stroke-width:2;stroke-miterlimit:10;}
	.st11{stroke:#000000;stroke-width:5;stroke-miterlimit:10;}
</style>
<text transform="matrix(1 0 0 1 181.0864 80.1963)" class="st0 st1">Observable</text>
<text transform="matrix(1 0 0 1 654.3607 80.1216)" class="st0 st1">Un-observable</text>
<circle class="st2" cx="732" cy="282" r="37"/>
<circle class="st2" cx="732" cy="396" r="37"/>
<text transform="matrix(1 0 0 1 796.5742 337.5376)"><tspan x="0" y="0" class="st0 st3">concept </tspan><tspan x="3.5" y="30" class="st0 st3">network</tspan></text>
<text transform="matrix(1 0 0 1 724.4219 289.9053)" class="st4 st5">A</text>
<text transform="matrix(1 0 0 1 724.4814 403.9778)" class="st0 st5">B</text>
<rect x="305" y="561" class="st2" width="69" height="69"/>
<rect x="190" y="204" class="st2" width="69" height="69"/>
<text transform="matrix(1 0 0 1 217.9579 249.3735)" class="st0 st5">X</text>
<text transform="matrix(1 0 0 1 332.4108 603.3735)" class="st0 st5">Y</text>
<g>
	<line x1="695" y1="282" x2="259" y2="238.5"/>
	<g>
		<line class="st6" x1="695" y1="282" x2="693" y2="281.8"/>
		<line class="st7" x1="689" y1="281.4" x2="270.8" y2="239.7"/>
		<line class="st6" x1="268.8" y1="239.5" x2="266.8" y2="239.3"/>
		<g>
			<path class="st8" d="M259,238.5c3.8-1,8.6-2.9,11.7-5l-2.8,5.9l1.6,6.4C266.9,243,262.5,240.2,259,238.5z"/>
		</g>
	</g>
</g>
<g>
	<line x1="702" y1="418" x2="374" y2="581"/>
	<g>
		<line class="st9" x1="702" y1="418" x2="381" y2="577.5"/>
		<g>
			<path class="st8" d="M374,581c2.7-2.9,5.8-7,7.2-10.5l0.7,6.5l4.8,4.5C383.1,580.6,377.9,580.6,374,581z"/>
		</g>
	</g>
</g>
<text transform="matrix(0.995 0.1003 -0.1003 0.995 340.1189 236.6986)" class="st0 st5">link to construction</text>
<line class="st10" x1="196" y1="273" x2="305" y2="561"/>
<text transform="matrix(1 0 0 1 296.6802 322.251)"><tspan x="0" y="0" class="st0 st5">statistical </tspan><tspan x="-11.1" y="24" class="st0 st5">associations</tspan></text>
<text transform="matrix(1 0 0 1 628.6882 333.1454)"><tspan x="0" y="0" class="st0 st5">logical </tspan><tspan x="-18.6" y="24" class="st0 st5">association</tspan></text>
<text transform="matrix(1 0 0 1 17.1263 350.8722)"><tspan x="0" y="0" class="st0 st3">constructional </tspan><tspan x="36.8" y="30" class="st0 st3">network</tspan></text>
<g>
	<line class="st2" x1="298" y1="428" x2="367" y2="428"/>
	<g>
		<polyline class="st2" points="367,428 367,497 298,497 298,428 		"/>
		<text transform="matrix(1 0 0 1 325.4108 470.3735)" class="st0 st5">Z</text>
	</g>
</g>
<g>
	<line x1="695" y1="401" x2="367" y2="463"/>
	<g>
		<line class="st9" x1="695" y1="401" x2="374.7" y2="461.5"/>
		<g>
			<path class="st8" d="M367,463c3.4-2,7.4-5.2,9.8-8.1l-1,6.5l3.3,5.7C375.8,465.1,370.9,463.7,367,463z"/>
		</g>
	</g>
</g>
<line class="st10" x1="242" y1="273" x2="314" y2="428"/>
<text transform="matrix(0.9894 -0.1452 0.1452 0.9894 377.2668 448.7051)" class="st4 st5">link to construction</text>
<text transform="matrix(0.9007 -0.4344 0.4344 0.9007 392.2508 559.0081)" class="st0 st5">link to construction</text>
<line class="st2" x1="732" y1="359" x2="732" y2="318"/>
<line class="st11" x1="552.5" y1="23.5" x2="551" y2="665"/>
</svg>
