<?xml version="1.0" encoding="utf-8" standalone="no"?>
<!DOCTYPE svg PUBLIC "-//W3C//DTD SVG 1.1//EN"
  "http://www.w3.org/Graphics/SVG/1.1/DTD/svg11.dtd">
<!-- Created with matplotlib (https://matplotlib.org/) -->
<svg height="465.958125pt" version="1.1" viewBox="0 0 492.082812 465.958125" width="492.082812pt" xmlns="http://www.w3.org/2000/svg" xmlns:xlink="http://www.w3.org/1999/xlink">
 <metadata>
  <rdf:RDF xmlns:cc="http://creativecommons.org/ns#" xmlns:dc="http://purl.org/dc/elements/1.1/" xmlns:rdf="http://www.w3.org/1999/02/22-rdf-syntax-ns#">
   <cc:Work>
    <dc:type rdf:resource="http://purl.org/dc/dcmitype/StillImage"/>
    <dc:date>2021-05-07T20:51:55.809531</dc:date>
    <dc:format>image/svg+xml</dc:format>
    <dc:creator>
     <cc:Agent>
      <dc:title>Matplotlib v3.3.3, https://matplotlib.org/</dc:title>
     </cc:Agent>
    </dc:creator>
   </cc:Work>
  </rdf:RDF>
 </metadata>
 <defs>
  <style type="text/css">*{stroke-linecap:butt;stroke-linejoin:round;}</style>
 </defs>
 <g id="figure_1">
  <g id="patch_1">
   <path d="M 0 465.958125 
L 492.082812 465.958125 
L 492.082812 0 
L 0 0 
z
" style="fill:none;"/>
  </g>
  <g id="axes_1">
   <g id="patch_2">
    <path d="M 38.482813 442.08 
L 484.882812 442.08 
L 484.882812 7.2 
L 38.482813 7.2 
z
" style="fill:#ffffff;"/>
   </g>
   <g id="PathCollection_1">
    <defs>
     <path d="M 0 4.1833 
C 1.109424 4.1833 2.173559 3.742521 2.95804 2.95804 
C 3.742521 2.173559 4.1833 1.109424 4.1833 0 
C 4.1833 -1.109424 3.742521 -2.173559 2.95804 -2.95804 
C 2.173559 -3.742521 1.109424 -4.1833 0 -4.1833 
C -1.109424 -4.1833 -2.173559 -3.742521 -2.95804 -2.95804 
C -3.742521 -2.173559 -4.1833 -1.109424 -4.1833 0 
C -4.1833 1.109424 -3.742521 2.173559 -2.95804 2.95804 
C -2.173559 3.742521 -1.109424 4.1833 0 4.1833 
z
" id="ma042ea8597" style="stroke:#000000;"/>
    </defs>
    <g clip-path="url(#pb833eae7f1)">
     <use style="fill:#ff0000;fill-opacity:0.75;stroke:#000000;" x="206.808145" xlink:href="#ma042ea8597" y="261.719123"/>
     <use style="fill:#ff0000;fill-opacity:0.75;stroke:#000000;" x="171.420386" xlink:href="#ma042ea8597" y="266.137834"/>
     <use style="fill:#ff0000;fill-opacity:0.75;stroke:#000000;" x="58.773722" xlink:href="#ma042ea8597" y="74.915365"/>
     <use style="fill:#ff0000;fill-opacity:0.75;stroke:#000000;" x="464.591903" xlink:href="#ma042ea8597" y="104.405288"/>
     <use style="fill:#ff0000;fill-opacity:0.75;stroke:#000000;" x="267.557336" xlink:href="#ma042ea8597" y="311.715986"/>
     <use style="fill:#ff0000;fill-opacity:0.75;stroke:#000000;" x="59.003892" xlink:href="#ma042ea8597" y="422.312727"/>
     <use style="fill:#ff0000;fill-opacity:0.75;stroke:#000000;" x="346.621445" xlink:href="#ma042ea8597" y="383.231129"/>
     <use style="fill:#ff0000;fill-opacity:0.75;stroke:#000000;" x="59.531393" xlink:href="#ma042ea8597" y="139.042137"/>
    </g>
   </g>
   <g id="PathCollection_2">
    <defs>
     <path d="M 0 4.1833 
C 1.109424 4.1833 2.173559 3.742521 2.95804 2.95804 
C 3.742521 2.173559 4.1833 1.109424 4.1833 0 
C 4.1833 -1.109424 3.742521 -2.173559 2.95804 -2.95804 
C 2.173559 -3.742521 1.109424 -4.1833 0 -4.1833 
C -1.109424 -4.1833 -2.173559 -3.742521 -2.95804 -2.95804 
C -3.742521 -2.173559 -4.1833 -1.109424 -4.1833 0 
C -4.1833 1.109424 -3.742521 2.173559 -2.95804 2.95804 
C -2.173559 3.742521 -1.109424 4.1833 0 4.1833 
z
" id="m8dc53f3261" style="stroke:#000000;"/>
    </defs>
    <g clip-path="url(#pb833eae7f1)">
     <use style="fill:#0000ff;fill-opacity:0.75;stroke:#000000;" x="183.456066" xlink:href="#m8dc53f3261" y="380.861282"/>
     <use style="fill:#0000ff;fill-opacity:0.75;stroke:#000000;" x="138.699019" xlink:href="#m8dc53f3261" y="410.194864"/>
     <use style="fill:#0000ff;fill-opacity:0.75;stroke:#000000;" x="294.62219" xlink:href="#m8dc53f3261" y="340.441683"/>
     <use style="fill:#0000ff;fill-opacity:0.75;stroke:#000000;" x="317.105636" xlink:href="#m8dc53f3261" y="179.472046"/>
     <use style="fill:#0000ff;fill-opacity:0.75;stroke:#000000;" x="180.883505" xlink:href="#m8dc53f3261" y="259.10449"/>
     <use style="fill:#0000ff;fill-opacity:0.75;stroke:#000000;" x="188.233964" xlink:href="#m8dc53f3261" y="349.580918"/>
     <use style="fill:#0000ff;fill-opacity:0.75;stroke:#000000;" x="215.837879" xlink:href="#m8dc53f3261" y="116.447833"/>
     <use style="fill:#0000ff;fill-opacity:0.75;stroke:#000000;" x="376.698624" xlink:href="#m8dc53f3261" y="296.396949"/>
     <use style="fill:#0000ff;fill-opacity:0.75;stroke:#000000;" x="296.168741" xlink:href="#m8dc53f3261" y="161.351181"/>
     <use style="fill:#0000ff;fill-opacity:0.75;stroke:#000000;" x="285.006445" xlink:href="#m8dc53f3261" y="124.805481"/>
     <use style="fill:#0000ff;fill-opacity:0.75;stroke:#000000;" x="99.130616" xlink:href="#m8dc53f3261" y="26.967273"/>
     <use style="fill:#0000ff;fill-opacity:0.75;stroke:#000000;" x="184.011559" xlink:href="#m8dc53f3261" y="249.265921"/>
    </g>
   </g>
   <g id="patch_3">
    <path clip-path="url(#pb833eae7f1)" d="M 171.891268 291.037826 
L 171.891268 291.037826 
L 171.865389 291.000451 
L 219.682244 242.8811 
L 219.734003 242.955851 
L 171.917148 291.075201 
L 171.891268 291.037826 
z
" style="fill:#808080;stroke:#808080;stroke-linejoin:miter;"/>
   </g>
   <g id="patch_4">
    <path clip-path="url(#pb833eae7f1)" d="M 153.752698 189.336387 
L 153.752698 189.336387 
L 153.775266 189.296014 
L 219.730692 242.878102 
L 219.685555 242.958849 
L 153.730129 189.376761 
L 153.752698 189.336387 
z
" style="fill:#808080;stroke:#808080;stroke-linejoin:miter;"/>
   </g>
   <g id="patch_5">
    <path clip-path="url(#pb833eae7f1)" d="M 293.25562 205.775608 
L 293.25562 205.775608 
L 293.271224 205.820513 
L 219.723727 242.96338 
L 219.692519 242.873571 
L 293.240016 205.730703 
L 293.25562 205.775608 
z
" style="fill:#808080;stroke:#808080;stroke-linejoin:miter;"/>
   </g>
   <g id="patch_6">
    <path clip-path="url(#pb833eae7f1)" d="M 236.616678 331.551211 
L 236.616678 331.551211 
L 236.577321 331.562123 
L 219.668766 242.929387 
L 219.747481 242.907563 
L 236.656036 331.540299 
L 236.616678 331.551211 
z
" style="fill:#808080;stroke:#808080;stroke-linejoin:miter;"/>
   </g>
   <g id="matplotlib.axis_1">
    <g id="xtick_1">
     <g id="line2d_1">
      <defs>
       <path d="M 0 0 
L 0 3.5 
" id="m2ab58ed540" style="stroke:#000000;stroke-width:0.8;"/>
      </defs>
      <g>
       <use style="stroke:#000000;stroke-width:0.8;" x="58.169228" xlink:href="#m2ab58ed540" y="442.08"/>
      </g>
     </g>
     <g id="text_1">
      <!-- −2 -->
      <g transform="translate(50.798134 456.678437)scale(0.1 -0.1)">
       <defs>
        <path d="M 10.59375 35.5 
L 73.1875 35.5 
L 73.1875 27.203125 
L 10.59375 27.203125 
z
" id="DejaVuSans-8722"/>
        <path d="M 19.1875 8.296875 
L 53.609375 8.296875 
L 53.609375 0 
L 7.328125 0 
L 7.328125 8.296875 
Q 12.9375 14.109375 22.625 23.890625 
Q 32.328125 33.6875 34.8125 36.53125 
Q 39.546875 41.84375 41.421875 45.53125 
Q 43.3125 49.21875 43.3125 52.78125 
Q 43.3125 58.59375 39.234375 62.25 
Q 35.15625 65.921875 28.609375 65.921875 
Q 23.96875 65.921875 18.8125 64.3125 
Q 13.671875 62.703125 7.8125 59.421875 
L 7.8125 69.390625 
Q 13.765625 71.78125 18.9375 73 
Q 24.125 74.21875 28.421875 74.21875 
Q 39.75 74.21875 46.484375 68.546875 
Q 53.21875 62.890625 53.21875 53.421875 
Q 53.21875 48.921875 51.53125 44.890625 
Q 49.859375 40.875 45.40625 35.40625 
Q 44.1875 33.984375 37.640625 27.21875 
Q 31.109375 20.453125 19.1875 8.296875 
z
" id="DejaVuSans-50"/>
       </defs>
       <use xlink:href="#DejaVuSans-8722"/>
       <use x="83.789062" xlink:href="#DejaVuSans-50"/>
      </g>
     </g>
    </g>
    <g id="xtick_2">
     <g id="line2d_2">
      <g>
       <use style="stroke:#000000;stroke-width:0.8;" x="138.938676" xlink:href="#m2ab58ed540" y="442.08"/>
      </g>
     </g>
     <g id="text_2">
      <!-- −1 -->
      <g transform="translate(131.567582 456.678437)scale(0.1 -0.1)">
       <defs>
        <path d="M 12.40625 8.296875 
L 28.515625 8.296875 
L 28.515625 63.921875 
L 10.984375 60.40625 
L 10.984375 69.390625 
L 28.421875 72.90625 
L 38.28125 72.90625 
L 38.28125 8.296875 
L 54.390625 8.296875 
L 54.390625 0 
L 12.40625 0 
z
" id="DejaVuSans-49"/>
       </defs>
       <use xlink:href="#DejaVuSans-8722"/>
       <use x="83.789062" xlink:href="#DejaVuSans-49"/>
      </g>
     </g>
    </g>
    <g id="xtick_3">
     <g id="line2d_3">
      <g>
       <use style="stroke:#000000;stroke-width:0.8;" x="219.708123" xlink:href="#m2ab58ed540" y="442.08"/>
      </g>
     </g>
     <g id="text_3">
      <!-- 0 -->
      <g transform="translate(216.526873 456.678437)scale(0.1 -0.1)">
       <defs>
        <path d="M 31.78125 66.40625 
Q 24.171875 66.40625 20.328125 58.90625 
Q 16.5 51.421875 16.5 36.375 
Q 16.5 21.390625 20.328125 13.890625 
Q 24.171875 6.390625 31.78125 6.390625 
Q 39.453125 6.390625 43.28125 13.890625 
Q 47.125 21.390625 47.125 36.375 
Q 47.125 51.421875 43.28125 58.90625 
Q 39.453125 66.40625 31.78125 66.40625 
z
M 31.78125 74.21875 
Q 44.046875 74.21875 50.515625 64.515625 
Q 56.984375 54.828125 56.984375 36.375 
Q 56.984375 17.96875 50.515625 8.265625 
Q 44.046875 -1.421875 31.78125 -1.421875 
Q 19.53125 -1.421875 13.0625 8.265625 
Q 6.59375 17.96875 6.59375 36.375 
Q 6.59375 54.828125 13.0625 64.515625 
Q 19.53125 74.21875 31.78125 74.21875 
z
" id="DejaVuSans-48"/>
       </defs>
       <use xlink:href="#DejaVuSans-48"/>
      </g>
     </g>
    </g>
    <g id="xtick_4">
     <g id="line2d_4">
      <g>
       <use style="stroke:#000000;stroke-width:0.8;" x="300.477571" xlink:href="#m2ab58ed540" y="442.08"/>
      </g>
     </g>
     <g id="text_4">
      <!-- 1 -->
      <g transform="translate(297.296321 456.678437)scale(0.1 -0.1)">
       <use xlink:href="#DejaVuSans-49"/>
      </g>
     </g>
    </g>
    <g id="xtick_5">
     <g id="line2d_5">
      <g>
       <use style="stroke:#000000;stroke-width:0.8;" x="381.247019" xlink:href="#m2ab58ed540" y="442.08"/>
      </g>
     </g>
     <g id="text_5">
      <!-- 2 -->
      <g transform="translate(378.065769 456.678437)scale(0.1 -0.1)">
       <use xlink:href="#DejaVuSans-50"/>
      </g>
     </g>
    </g>
    <g id="xtick_6">
     <g id="line2d_6">
      <g>
       <use style="stroke:#000000;stroke-width:0.8;" x="462.016466" xlink:href="#m2ab58ed540" y="442.08"/>
      </g>
     </g>
     <g id="text_6">
      <!-- 3 -->
      <g transform="translate(458.835216 456.678437)scale(0.1 -0.1)">
       <defs>
        <path d="M 40.578125 39.3125 
Q 47.65625 37.796875 51.625 33 
Q 55.609375 28.21875 55.609375 21.1875 
Q 55.609375 10.40625 48.1875 4.484375 
Q 40.765625 -1.421875 27.09375 -1.421875 
Q 22.515625 -1.421875 17.65625 -0.515625 
Q 12.796875 0.390625 7.625 2.203125 
L 7.625 11.71875 
Q 11.71875 9.328125 16.59375 8.109375 
Q 21.484375 6.890625 26.8125 6.890625 
Q 36.078125 6.890625 40.9375 10.546875 
Q 45.796875 14.203125 45.796875 21.1875 
Q 45.796875 27.640625 41.28125 31.265625 
Q 36.765625 34.90625 28.71875 34.90625 
L 20.21875 34.90625 
L 20.21875 43.015625 
L 29.109375 43.015625 
Q 36.375 43.015625 40.234375 45.921875 
Q 44.09375 48.828125 44.09375 54.296875 
Q 44.09375 59.90625 40.109375 62.90625 
Q 36.140625 65.921875 28.71875 65.921875 
Q 24.65625 65.921875 20.015625 65.03125 
Q 15.375 64.15625 9.8125 62.3125 
L 9.8125 71.09375 
Q 15.4375 72.65625 20.34375 73.4375 
Q 25.25 74.21875 29.59375 74.21875 
Q 40.828125 74.21875 47.359375 69.109375 
Q 53.90625 64.015625 53.90625 55.328125 
Q 53.90625 49.265625 50.4375 45.09375 
Q 46.96875 40.921875 40.578125 39.3125 
z
" id="DejaVuSans-51"/>
       </defs>
       <use xlink:href="#DejaVuSans-51"/>
      </g>
     </g>
    </g>
   </g>
   <g id="matplotlib.axis_2">
    <g id="ytick_1">
     <g id="line2d_7">
      <defs>
       <path d="M 0 0 
L -3.5 0 
" id="mfbd520a15a" style="stroke:#000000;stroke-width:0.8;"/>
      </defs>
      <g>
       <use style="stroke:#000000;stroke-width:0.8;" x="38.482813" xlink:href="#mfbd520a15a" y="437.660844"/>
      </g>
     </g>
     <g id="text_7">
      <!-- −2.0 -->
      <g transform="translate(7.2 441.460063)scale(0.1 -0.1)">
       <defs>
        <path d="M 10.6875 12.40625 
L 21 12.40625 
L 21 0 
L 10.6875 0 
z
" id="DejaVuSans-46"/>
       </defs>
       <use xlink:href="#DejaVuSans-8722"/>
       <use x="83.789062" xlink:href="#DejaVuSans-50"/>
       <use x="147.412109" xlink:href="#DejaVuSans-46"/>
       <use x="179.199219" xlink:href="#DejaVuSans-48"/>
      </g>
     </g>
    </g>
    <g id="ytick_2">
     <g id="line2d_8">
      <g>
       <use style="stroke:#000000;stroke-width:0.8;" x="38.482813" xlink:href="#mfbd520a15a" y="388.975252"/>
      </g>
     </g>
     <g id="text_8">
      <!-- −1.5 -->
      <g transform="translate(7.2 392.774471)scale(0.1 -0.1)">
       <defs>
        <path d="M 10.796875 72.90625 
L 49.515625 72.90625 
L 49.515625 64.59375 
L 19.828125 64.59375 
L 19.828125 46.734375 
Q 21.96875 47.46875 24.109375 47.828125 
Q 26.265625 48.1875 28.421875 48.1875 
Q 40.625 48.1875 47.75 41.5 
Q 54.890625 34.8125 54.890625 23.390625 
Q 54.890625 11.625 47.5625 5.09375 
Q 40.234375 -1.421875 26.90625 -1.421875 
Q 22.3125 -1.421875 17.546875 -0.640625 
Q 12.796875 0.140625 7.71875 1.703125 
L 7.71875 11.625 
Q 12.109375 9.234375 16.796875 8.0625 
Q 21.484375 6.890625 26.703125 6.890625 
Q 35.15625 6.890625 40.078125 11.328125 
Q 45.015625 15.765625 45.015625 23.390625 
Q 45.015625 31 40.078125 35.4375 
Q 35.15625 39.890625 26.703125 39.890625 
Q 22.75 39.890625 18.8125 39.015625 
Q 14.890625 38.140625 10.796875 36.28125 
z
" id="DejaVuSans-53"/>
       </defs>
       <use xlink:href="#DejaVuSans-8722"/>
       <use x="83.789062" xlink:href="#DejaVuSans-49"/>
       <use x="147.412109" xlink:href="#DejaVuSans-46"/>
       <use x="179.199219" xlink:href="#DejaVuSans-53"/>
      </g>
     </g>
    </g>
    <g id="ytick_3">
     <g id="line2d_9">
      <g>
       <use style="stroke:#000000;stroke-width:0.8;" x="38.482813" xlink:href="#mfbd520a15a" y="340.28966"/>
      </g>
     </g>
     <g id="text_9">
      <!-- −1.0 -->
      <g transform="translate(7.2 344.088878)scale(0.1 -0.1)">
       <use xlink:href="#DejaVuSans-8722"/>
       <use x="83.789062" xlink:href="#DejaVuSans-49"/>
       <use x="147.412109" xlink:href="#DejaVuSans-46"/>
       <use x="179.199219" xlink:href="#DejaVuSans-48"/>
      </g>
     </g>
    </g>
    <g id="ytick_4">
     <g id="line2d_10">
      <g>
       <use style="stroke:#000000;stroke-width:0.8;" x="38.482813" xlink:href="#mfbd520a15a" y="291.604068"/>
      </g>
     </g>
     <g id="text_10">
      <!-- −0.5 -->
      <g transform="translate(7.2 295.403286)scale(0.1 -0.1)">
       <use xlink:href="#DejaVuSans-8722"/>
       <use x="83.789062" xlink:href="#DejaVuSans-48"/>
       <use x="147.412109" xlink:href="#DejaVuSans-46"/>
       <use x="179.199219" xlink:href="#DejaVuSans-53"/>
      </g>
     </g>
    </g>
    <g id="ytick_5">
     <g id="line2d_11">
      <g>
       <use style="stroke:#000000;stroke-width:0.8;" x="38.482813" xlink:href="#mfbd520a15a" y="242.918475"/>
      </g>
     </g>
     <g id="text_11">
      <!-- 0.0 -->
      <g transform="translate(15.579688 246.717694)scale(0.1 -0.1)">
       <use xlink:href="#DejaVuSans-48"/>
       <use x="63.623047" xlink:href="#DejaVuSans-46"/>
       <use x="95.410156" xlink:href="#DejaVuSans-48"/>
      </g>
     </g>
    </g>
    <g id="ytick_6">
     <g id="line2d_12">
      <g>
       <use style="stroke:#000000;stroke-width:0.8;" x="38.482813" xlink:href="#mfbd520a15a" y="194.232883"/>
      </g>
     </g>
     <g id="text_12">
      <!-- 0.5 -->
      <g transform="translate(15.579688 198.032102)scale(0.1 -0.1)">
       <use xlink:href="#DejaVuSans-48"/>
       <use x="63.623047" xlink:href="#DejaVuSans-46"/>
       <use x="95.410156" xlink:href="#DejaVuSans-53"/>
      </g>
     </g>
    </g>
    <g id="ytick_7">
     <g id="line2d_13">
      <g>
       <use style="stroke:#000000;stroke-width:0.8;" x="38.482813" xlink:href="#mfbd520a15a" y="145.547291"/>
      </g>
     </g>
     <g id="text_13">
      <!-- 1.0 -->
      <g transform="translate(15.579688 149.34651)scale(0.1 -0.1)">
       <use xlink:href="#DejaVuSans-49"/>
       <use x="63.623047" xlink:href="#DejaVuSans-46"/>
       <use x="95.410156" xlink:href="#DejaVuSans-48"/>
      </g>
     </g>
    </g>
    <g id="ytick_8">
     <g id="line2d_14">
      <g>
       <use style="stroke:#000000;stroke-width:0.8;" x="38.482813" xlink:href="#mfbd520a15a" y="96.861699"/>
      </g>
     </g>
     <g id="text_14">
      <!-- 1.5 -->
      <g transform="translate(15.579688 100.660918)scale(0.1 -0.1)">
       <use xlink:href="#DejaVuSans-49"/>
       <use x="63.623047" xlink:href="#DejaVuSans-46"/>
       <use x="95.410156" xlink:href="#DejaVuSans-53"/>
      </g>
     </g>
    </g>
    <g id="ytick_9">
     <g id="line2d_15">
      <g>
       <use style="stroke:#000000;stroke-width:0.8;" x="38.482813" xlink:href="#mfbd520a15a" y="48.176107"/>
      </g>
     </g>
     <g id="text_15">
      <!-- 2.0 -->
      <g transform="translate(15.579688 51.975326)scale(0.1 -0.1)">
       <use xlink:href="#DejaVuSans-50"/>
       <use x="63.623047" xlink:href="#DejaVuSans-46"/>
       <use x="95.410156" xlink:href="#DejaVuSans-48"/>
      </g>
     </g>
    </g>
   </g>
   <g id="patch_7">
    <path d="M 38.482813 442.08 
L 38.482813 7.2 
" style="fill:none;stroke:#000000;stroke-linecap:square;stroke-linejoin:miter;stroke-width:0.8;"/>
   </g>
   <g id="patch_8">
    <path d="M 484.882812 442.08 
L 484.882812 7.2 
" style="fill:none;stroke:#000000;stroke-linecap:square;stroke-linejoin:miter;stroke-width:0.8;"/>
   </g>
   <g id="patch_9">
    <path d="M 38.482812 442.08 
L 484.882812 442.08 
" style="fill:none;stroke:#000000;stroke-linecap:square;stroke-linejoin:miter;stroke-width:0.8;"/>
   </g>
   <g id="patch_10">
    <path d="M 38.482812 7.2 
L 484.882812 7.2 
" style="fill:none;stroke:#000000;stroke-linecap:square;stroke-linejoin:miter;stroke-width:0.8;"/>
   </g>
   <g id="text_16">
    <!-- wqtl -->
    <g style="fill:#808080;" transform="translate(171.891268 291.037826)scale(0.15 -0.15)">
     <defs>
      <path d="M 46.1875 -0.53125 
L 36.1875 27.296875 
Q 33.796875 21.734375 30.953125 15.09375 
Q 28.125 8.453125 24.90625 0.484375 
L 20.796875 -0.53125 
L 6.84375 36.328125 
Q 6.25 37.84375 5.6875 38.8125 
Q 5.125 39.796875 4.34375 40.40625 
Q 3.5625 41.015625 2.34375 41.375 
Q 1.125 41.75 -0.828125 42 
Q -1.078125 43.40625 -0.828125 44.921875 
Q 1.953125 44.921875 4.59375 44.828125 
Q 7.234375 44.734375 10.359375 44.734375 
Q 12.984375 44.734375 15.796875 44.828125 
Q 18.609375 44.921875 20.796875 44.921875 
Q 21 43.5625 20.796875 42.046875 
Q 17.71875 41.796875 16.5 41.328125 
Q 15.28125 40.875 15.28125 39.5 
Q 15.28125 38.8125 15.515625 37.8125 
Q 15.765625 36.8125 16.265625 35.453125 
Q 18.40625 29.390625 20.59375 23.328125 
Q 22.796875 17.28125 25.296875 11.078125 
L 34.328125 32.46875 
L 32.953125 36.328125 
Q 32.421875 37.84375 31.90625 38.8125 
Q 31.390625 39.796875 30.6875 40.40625 
Q 29.984375 41.015625 28.875 41.375 
Q 27.78125 41.75 26.03125 42 
Q 25.78125 43.40625 26.03125 44.921875 
Q 28.71875 44.921875 31.25 44.828125 
Q 33.796875 44.734375 36.625 44.734375 
Q 39.0625 44.734375 41.71875 44.828125 
Q 44.390625 44.921875 46.4375 44.921875 
Q 46.625 43.5625 46.4375 42.046875 
Q 43.3125 41.796875 42.0625 41.328125 
Q 40.828125 40.875 40.828125 39.5 
Q 40.828125 38.8125 41.0625 37.8125 
Q 41.3125 36.8125 41.796875 35.453125 
Q 43.796875 29.390625 45.84375 23.328125 
Q 47.90625 17.28125 50.203125 11.078125 
Q 52.828125 17.234375 55.296875 23.140625 
Q 57.765625 29.046875 60.015625 35.15625 
Q 60.5 36.53125 60.84375 37.546875 
Q 61.1875 38.578125 61.1875 39.3125 
Q 61.1875 40.53125 59.9375 41.140625 
Q 58.6875 41.75 55.515625 42.046875 
Q 55.28125 43.5625 55.515625 44.921875 
Q 57.765625 44.921875 60.109375 44.828125 
Q 62.453125 44.734375 65.140625 44.734375 
Q 67.671875 44.734375 69.28125 44.828125 
Q 70.90625 44.921875 72.75 44.921875 
Q 72.953125 43.5625 72.75 42 
Q 70.84375 41.84375 69.59375 41.421875 
Q 68.359375 41.015625 67.484375 40.25 
Q 66.609375 39.5 65.984375 38.40625 
Q 65.375 37.3125 64.75 35.84375 
L 49.859375 0.390625 
z
" id="SBLBibLit-119"/>
      <path d="M 36.859375 5.171875 
Q 30.21875 -0.875 21.96875 -0.875 
Q 13.765625 -0.875 8.546875 5.390625 
Q 3.328125 11.671875 3.328125 20.953125 
Q 3.328125 31.9375 9.9375 39.0625 
Q 16.546875 46.1875 26.953125 46.1875 
Q 33.15625 46.1875 38.671875 43.265625 
Q 41.265625 44.4375 43.5625 45.953125 
Q 44.671875 45.75 45.5625 45.265625 
Q 45.359375 41.5 45.359375 34.078125 
L 45.359375 -14.109375 
Q 45.359375 -16.84375 45.578125 -18.359375 
Q 45.796875 -19.875 46.53125 -20.625 
Q 47.265625 -21.390625 48.734375 -21.609375 
Q 50.203125 -21.828125 52.6875 -21.96875 
Q 52.875 -23.4375 52.6875 -24.90625 
Q 49.75 -24.90625 46.8125 -24.796875 
Q 43.890625 -24.703125 40.484375 -24.703125 
Q 37.15625 -24.703125 34.375 -24.796875 
Q 31.59375 -24.90625 28.609375 -24.90625 
Q 28.375 -23.484375 28.609375 -22.015625 
Q 31.390625 -21.875 33.03125 -21.625 
Q 34.671875 -21.390625 35.5 -20.703125 
Q 36.328125 -20.015625 36.59375 -18.703125 
Q 36.859375 -17.390625 36.859375 -15.09375 
z
M 36.96875 36.234375 
Q 32.8125 42.4375 26.078125 42.4375 
Q 19.046875 42.4375 15.578125 37.640625 
Q 12.109375 32.859375 12.109375 24.46875 
Q 12.109375 15.828125 15.71875 10.40625 
Q 19.34375 4.984375 26.265625 4.984375 
Q 33.109375 4.984375 36.96875 8.890625 
z
" id="SBLBibLit-113"/>
      <path d="M 32.28125 3.265625 
Q 26.703125 -0.875 19.828125 -0.875 
Q 14.59375 -0.875 11.515625 1.828125 
Q 8.453125 4.546875 8.453125 9.578125 
Q 8.453125 15.28125 8.59375 23.234375 
Q 8.734375 31.203125 8.9375 39.703125 
L 1.953125 39.703125 
Q 1.703125 41.015625 1.953125 42.1875 
Q 10.890625 46.1875 14.84375 55.03125 
Q 16.546875 55.03125 17.671875 54.78125 
Q 17.390625 48.875 17.390625 44 
L 31.6875 44 
Q 31.984375 41.890625 31.6875 39.703125 
L 17.4375 39.703125 
Q 17.28125 33.203125 17.203125 27.90625 
Q 17.140625 22.609375 17.140625 11.921875 
Q 17.140625 8.203125 19.328125 6.265625 
Q 21.53125 4.34375 25.296875 4.34375 
Q 28.609375 4.34375 31.453125 5.859375 
Q 32.03125 4.640625 32.28125 3.265625 
z
" id="SBLBibLit-116"/>
      <path d="M 24.703125 -0.046875 
Q 22.015625 -0.046875 19.3125 0.046875 
Q 16.609375 0.140625 13.484375 0.140625 
Q 10.25 0.140625 7.609375 0.046875 
Q 4.984375 -0.046875 2.15625 -0.046875 
Q 1.90625 1.375 2.15625 2.828125 
Q 4.546875 2.984375 5.953125 3.21875 
Q 7.375 3.46875 8.109375 4.140625 
Q 8.84375 4.828125 9.0625 6.140625 
Q 9.28125 7.46875 9.28125 9.765625 
L 9.28125 58.203125 
Q 9.28125 60.9375 9.15625 62.5625 
Q 9.03125 64.203125 8.328125 65.15625 
Q 7.625 66.109375 6.171875 66.546875 
Q 4.734375 67 1.703125 67.328125 
Q 1.46875 68.5625 1.703125 69.828125 
Q 9.125 70.84375 17.09375 73.96875 
L 18.0625 73.578125 
Q 17.875 69.4375 17.875 63.28125 
L 17.875 10.75 
Q 17.875 8.015625 18.0625 6.5 
Q 18.265625 4.984375 18.9375 4.21875 
Q 19.625 3.46875 20.984375 3.25 
Q 22.359375 3.03125 24.703125 2.875 
Q 24.90625 1.421875 24.703125 -0.046875 
z
" id="SBLBibLit-108"/>
     </defs>
     <use xlink:href="#SBLBibLit-119"/>
     <use x="71.240234" xlink:href="#SBLBibLit-113"/>
     <use x="124.804688" xlink:href="#SBLBibLit-116"/>
     <use x="157.8125" xlink:href="#SBLBibLit-108"/>
    </g>
   </g>
   <g id="text_17">
    <!-- yqtl -->
    <g style="fill:#808080;" transform="translate(153.752698 189.336387)scale(0.15 -0.15)">
     <defs>
      <path d="M 6.15625 38.8125 
Q 5.609375 39.796875 4.796875 40.421875 
Q 4 41.0625 2.78125 41.40625 
Q 1.5625 41.75 -0.390625 42 
Q -0.59375 43.359375 -0.390625 44.875 
Q 2.390625 44.875 5.03125 44.765625 
Q 7.671875 44.671875 10.796875 44.671875 
Q 13.484375 44.671875 16.359375 44.765625 
Q 19.234375 44.875 21.484375 44.875 
Q 21.6875 43.5 21.484375 42.046875 
Q 18.359375 41.796875 17.0625 41.328125 
Q 15.765625 40.875 15.765625 39.5 
Q 15.765625 38.8125 16.015625 37.78125 
Q 16.265625 36.765625 16.75 35.359375 
Q 18.84375 29.15625 21.046875 23 
Q 23.09375 17.28125 25.734375 10.5 
Q 29.046875 18.265625 30.953125 22.859375 
Q 33.453125 28.859375 35.796875 35.15625 
Q 36.328125 36.625 36.59375 37.59375 
Q 36.859375 38.578125 36.859375 39.3125 
Q 36.859375 40.625 35.4375 41.15625 
Q 34.03125 41.703125 30.46875 42.046875 
Q 30.28125 43.5 30.46875 44.875 
Q 32.8125 44.875 35.25 44.765625 
Q 37.703125 44.671875 40.484375 44.671875 
Q 42.328125 44.671875 44.578125 44.765625 
Q 46.828125 44.875 48.578125 44.875 
Q 48.78125 43.5 48.578125 42 
Q 46.6875 41.84375 45.4375 41.421875 
Q 44.1875 41.015625 43.328125 40.25 
Q 42.484375 39.5 41.875 38.40625 
Q 41.265625 37.3125 40.625 35.84375 
L 29.828125 10.203125 
Q 26.703125 2.875 24.703125 -1.734375 
Q 22.703125 -6.34375 18.265625 -15.4375 
Q 15.765625 -20.515625 13 -23.09375 
Q 10.25 -25.6875 7.5625 -25.6875 
Q 5.609375 -25.6875 4.34375 -24.515625 
Q 3.078125 -23.34375 3.078125 -21.484375 
Q 3.078125 -18.703125 6.125 -16.53125 
Q 9.1875 -14.359375 14.203125 -14.359375 
Q 15.53125 -12.203125 17.28125 -8.609375 
Q 19.046875 -5.03125 21.046875 -0.4375 
L 7.28125 36.328125 
Q 6.6875 37.84375 6.15625 38.8125 
z
" id="SBLBibLit-121"/>
     </defs>
     <use xlink:href="#SBLBibLit-121"/>
     <use x="47.509766" xlink:href="#SBLBibLit-113"/>
     <use x="101.074219" xlink:href="#SBLBibLit-116"/>
     <use x="134.082031" xlink:href="#SBLBibLit-108"/>
    </g>
   </g>
   <g id="text_18">
    <!-- qtl -->
    <g style="fill:#808080;" transform="translate(293.25562 205.775608)scale(0.15 -0.15)">
     <use xlink:href="#SBLBibLit-113"/>
     <use x="53.564453" xlink:href="#SBLBibLit-116"/>
     <use x="86.572266" xlink:href="#SBLBibLit-108"/>
    </g>
   </g>
   <g id="text_19">
    <!-- wayq -->
    <g style="fill:#808080;" transform="translate(236.616678 331.551211)scale(0.15 -0.15)">
     <defs>
      <path d="M 44.484375 6.15625 
Q 45.125 5.171875 45.265625 4.25 
Q 43.015625 1.609375 40.375 0.4375 
Q 37.75 -0.734375 35.25 -0.734375 
Q 29.6875 -0.734375 28.265625 5.515625 
Q 21.828125 -0.875 14.796875 -0.875 
Q 9.90625 -0.875 6.75 1.96875 
Q 3.609375 4.828125 3.609375 9.515625 
Q 3.609375 16.015625 9.640625 19.84375 
Q 15.671875 23.6875 28.421875 25.25 
L 28.515625 34.765625 
Q 28.515625 38.140625 26.078125 39.96875 
Q 23.640625 41.796875 19.921875 41.796875 
Q 17.28125 41.796875 15.578125 41.015625 
Q 15.578125 37.015625 13.5 34.25 
Q 11.421875 31.5 8.59375 31.5 
Q 6.9375 31.5 5.875 32.5625 
Q 4.828125 33.640625 4.828125 35.25 
Q 4.828125 39.3125 11.28125 42.828125 
Q 14.59375 44.625 18.109375 45.40625 
Q 21.625 46.1875 24.46875 46.1875 
Q 30.28125 46.1875 33.734375 43.1875 
Q 37.203125 40.1875 37.15625 34.96875 
L 36.71875 8.0625 
Q 36.625 4.984375 39.359375 4.984375 
Q 41.109375 4.984375 44.484375 6.15625 
z
M 28.375 21.921875 
Q 19.390625 20.75 16.09375 18.234375 
Q 12.796875 15.71875 12.796875 11.625 
Q 12.796875 8.40625 14.5 6.78125 
Q 16.21875 5.171875 19.140625 5.171875 
Q 22.46875 5.171875 28.21875 7.90625 
z
" id="SBLBibLit-97"/>
     </defs>
     <use xlink:href="#SBLBibLit-119"/>
     <use x="71.240234" xlink:href="#SBLBibLit-97"/>
     <use x="116.992188" xlink:href="#SBLBibLit-121"/>
     <use x="164.501953" xlink:href="#SBLBibLit-113"/>
    </g>
   </g>
  </g>
 </g>
 <defs>
  <clipPath id="pb833eae7f1">
   <rect height="434.88" width="446.4" x="38.482813" y="7.2"/>
  </clipPath>
 </defs>
</svg>
