<?xml version="1.0" encoding="utf-8" standalone="no"?>
<!DOCTYPE svg PUBLIC "-//W3C//DTD SVG 1.1//EN"
  "http://www.w3.org/Graphics/SVG/1.1/DTD/svg11.dtd">
<!-- Created with matplotlib (https://matplotlib.org/) -->
<svg height="351.496562pt" version="1.1" viewBox="0 0 1168.916875 351.496562" width="1168.916875pt" xmlns="http://www.w3.org/2000/svg" xmlns:xlink="http://www.w3.org/1999/xlink">
 <defs>
  <style type="text/css">
*{stroke-linecap:butt;stroke-linejoin:round;}
  </style>
 </defs>
 <g id="figure_1">
  <g id="patch_1">
   <path d="M 0 351.496562 
L 1168.916875 351.496562 
L 1168.916875 0 
L 0 0 
z
" style="fill:#ffffff;"/>
  </g>
  <g id="axes_1">
   <g id="patch_2">
    <path d="M 45.716875 292.598437 
L 288.325571 292.598437 
L 288.325571 20.798437 
L 45.716875 20.798437 
z
" style="fill:#ffffff;"/>
   </g>
   <g id="matplotlib.axis_1">
    <g id="xtick_1">
     <g id="line2d_1">
      <defs>
       <path d="M 0 0 
L 0 3.5 
" id="ma2298a9859" style="stroke:#000000;stroke-width:0.8;"/>
      </defs>
      <g>
       <use style="stroke:#000000;stroke-width:0.8;" x="69.195136" xlink:href="#ma2298a9859" y="292.598437"/>
      </g>
     </g>
     <g id="text_1">
      <!-- Adju -->
      <defs>
       <path d="M 34.1875 63.1875 
L 20.796875 26.90625 
L 47.609375 26.90625 
z
M 28.609375 72.90625 
L 39.796875 72.90625 
L 67.578125 0 
L 57.328125 0 
L 50.6875 18.703125 
L 17.828125 18.703125 
L 11.1875 0 
L 0.78125 0 
z
" id="DejaVuSans-65"/>
       <path d="M 45.40625 46.390625 
L 45.40625 75.984375 
L 54.390625 75.984375 
L 54.390625 0 
L 45.40625 0 
L 45.40625 8.203125 
Q 42.578125 3.328125 38.25 0.953125 
Q 33.9375 -1.421875 27.875 -1.421875 
Q 17.96875 -1.421875 11.734375 6.484375 
Q 5.515625 14.40625 5.515625 27.296875 
Q 5.515625 40.1875 11.734375 48.09375 
Q 17.96875 56 27.875 56 
Q 33.9375 56 38.25 53.625 
Q 42.578125 51.265625 45.40625 46.390625 
z
M 14.796875 27.296875 
Q 14.796875 17.390625 18.875 11.75 
Q 22.953125 6.109375 30.078125 6.109375 
Q 37.203125 6.109375 41.296875 11.75 
Q 45.40625 17.390625 45.40625 27.296875 
Q 45.40625 37.203125 41.296875 42.84375 
Q 37.203125 48.484375 30.078125 48.484375 
Q 22.953125 48.484375 18.875 42.84375 
Q 14.796875 37.203125 14.796875 27.296875 
z
" id="DejaVuSans-100"/>
       <path d="M 9.421875 54.6875 
L 18.40625 54.6875 
L 18.40625 -0.984375 
Q 18.40625 -11.421875 14.421875 -16.109375 
Q 10.453125 -20.796875 1.609375 -20.796875 
L -1.8125 -20.796875 
L -1.8125 -13.1875 
L 0.59375 -13.1875 
Q 5.71875 -13.1875 7.5625 -10.8125 
Q 9.421875 -8.453125 9.421875 -0.984375 
z
M 9.421875 75.984375 
L 18.40625 75.984375 
L 18.40625 64.59375 
L 9.421875 64.59375 
z
" id="DejaVuSans-106"/>
       <path d="M 8.5 21.578125 
L 8.5 54.6875 
L 17.484375 54.6875 
L 17.484375 21.921875 
Q 17.484375 14.15625 20.5 10.265625 
Q 23.53125 6.390625 29.59375 6.390625 
Q 36.859375 6.390625 41.078125 11.03125 
Q 45.3125 15.671875 45.3125 23.6875 
L 45.3125 54.6875 
L 54.296875 54.6875 
L 54.296875 0 
L 45.3125 0 
L 45.3125 8.40625 
Q 42.046875 3.421875 37.71875 1 
Q 33.40625 -1.421875 27.6875 -1.421875 
Q 18.265625 -1.421875 13.375 4.4375 
Q 8.5 10.296875 8.5 21.578125 
z
M 31.109375 56 
z
" id="DejaVuSans-117"/>
      </defs>
      <g transform="translate(72.506386 326.362188)rotate(-90)scale(0.12 -0.12)">
       <use xlink:href="#DejaVuSans-65"/>
       <use x="68.392578" xlink:href="#DejaVuSans-100"/>
       <use x="131.869141" xlink:href="#DejaVuSans-106"/>
       <use x="159.652344" xlink:href="#DejaVuSans-117"/>
      </g>
     </g>
    </g>
    <g id="xtick_2">
     <g id="line2d_2">
      <g>
       <use style="stroke:#000000;stroke-width:0.8;" x="108.325571" xlink:href="#ma2298a9859" y="292.598437"/>
      </g>
     </g>
     <g id="text_2">
      <!-- Cmpl -->
      <defs>
       <path d="M 64.40625 67.28125 
L 64.40625 56.890625 
Q 59.421875 61.53125 53.78125 63.8125 
Q 48.140625 66.109375 41.796875 66.109375 
Q 29.296875 66.109375 22.65625 58.46875 
Q 16.015625 50.828125 16.015625 36.375 
Q 16.015625 21.96875 22.65625 14.328125 
Q 29.296875 6.6875 41.796875 6.6875 
Q 48.140625 6.6875 53.78125 8.984375 
Q 59.421875 11.28125 64.40625 15.921875 
L 64.40625 5.609375 
Q 59.234375 2.09375 53.4375 0.328125 
Q 47.65625 -1.421875 41.21875 -1.421875 
Q 24.65625 -1.421875 15.125 8.703125 
Q 5.609375 18.84375 5.609375 36.375 
Q 5.609375 53.953125 15.125 64.078125 
Q 24.65625 74.21875 41.21875 74.21875 
Q 47.75 74.21875 53.53125 72.484375 
Q 59.328125 70.75 64.40625 67.28125 
z
" id="DejaVuSans-67"/>
       <path d="M 52 44.1875 
Q 55.375 50.25 60.0625 53.125 
Q 64.75 56 71.09375 56 
Q 79.640625 56 84.28125 50.015625 
Q 88.921875 44.046875 88.921875 33.015625 
L 88.921875 0 
L 79.890625 0 
L 79.890625 32.71875 
Q 79.890625 40.578125 77.09375 44.375 
Q 74.3125 48.1875 68.609375 48.1875 
Q 61.625 48.1875 57.5625 43.546875 
Q 53.515625 38.921875 53.515625 30.90625 
L 53.515625 0 
L 44.484375 0 
L 44.484375 32.71875 
Q 44.484375 40.625 41.703125 44.40625 
Q 38.921875 48.1875 33.109375 48.1875 
Q 26.21875 48.1875 22.15625 43.53125 
Q 18.109375 38.875 18.109375 30.90625 
L 18.109375 0 
L 9.078125 0 
L 9.078125 54.6875 
L 18.109375 54.6875 
L 18.109375 46.1875 
Q 21.1875 51.21875 25.484375 53.609375 
Q 29.78125 56 35.6875 56 
Q 41.65625 56 45.828125 52.96875 
Q 50 49.953125 52 44.1875 
z
" id="DejaVuSans-109"/>
       <path d="M 18.109375 8.203125 
L 18.109375 -20.796875 
L 9.078125 -20.796875 
L 9.078125 54.6875 
L 18.109375 54.6875 
L 18.109375 46.390625 
Q 20.953125 51.265625 25.265625 53.625 
Q 29.59375 56 35.59375 56 
Q 45.5625 56 51.78125 48.09375 
Q 58.015625 40.1875 58.015625 27.296875 
Q 58.015625 14.40625 51.78125 6.484375 
Q 45.5625 -1.421875 35.59375 -1.421875 
Q 29.59375 -1.421875 25.265625 0.953125 
Q 20.953125 3.328125 18.109375 8.203125 
z
M 48.6875 27.296875 
Q 48.6875 37.203125 44.609375 42.84375 
Q 40.53125 48.484375 33.40625 48.484375 
Q 26.265625 48.484375 22.1875 42.84375 
Q 18.109375 37.203125 18.109375 27.296875 
Q 18.109375 17.390625 22.1875 11.75 
Q 26.265625 6.109375 33.40625 6.109375 
Q 40.53125 6.109375 44.609375 11.75 
Q 48.6875 17.390625 48.6875 27.296875 
z
" id="DejaVuSans-112"/>
       <path d="M 9.421875 75.984375 
L 18.40625 75.984375 
L 18.40625 0 
L 9.421875 0 
z
" id="DejaVuSans-108"/>
      </defs>
      <g transform="translate(111.636821 330.618437)rotate(-90)scale(0.12 -0.12)">
       <use xlink:href="#DejaVuSans-67"/>
       <use x="69.824219" xlink:href="#DejaVuSans-109"/>
       <use x="167.236328" xlink:href="#DejaVuSans-112"/>
       <use x="230.712891" xlink:href="#DejaVuSans-108"/>
      </g>
     </g>
    </g>
    <g id="xtick_3">
     <g id="line2d_3">
      <g>
       <use style="stroke:#000000;stroke-width:0.8;" x="147.456005" xlink:href="#ma2298a9859" y="292.598437"/>
      </g>
     </g>
     <g id="text_3">
      <!-- Loca -->
      <defs>
       <path d="M 9.8125 72.90625 
L 19.671875 72.90625 
L 19.671875 8.296875 
L 55.171875 8.296875 
L 55.171875 0 
L 9.8125 0 
z
" id="DejaVuSans-76"/>
       <path d="M 30.609375 48.390625 
Q 23.390625 48.390625 19.1875 42.75 
Q 14.984375 37.109375 14.984375 27.296875 
Q 14.984375 17.484375 19.15625 11.84375 
Q 23.34375 6.203125 30.609375 6.203125 
Q 37.796875 6.203125 41.984375 11.859375 
Q 46.1875 17.53125 46.1875 27.296875 
Q 46.1875 37.015625 41.984375 42.703125 
Q 37.796875 48.390625 30.609375 48.390625 
z
M 30.609375 56 
Q 42.328125 56 49.015625 48.375 
Q 55.71875 40.765625 55.71875 27.296875 
Q 55.71875 13.875 49.015625 6.21875 
Q 42.328125 -1.421875 30.609375 -1.421875 
Q 18.84375 -1.421875 12.171875 6.21875 
Q 5.515625 13.875 5.515625 27.296875 
Q 5.515625 40.765625 12.171875 48.375 
Q 18.84375 56 30.609375 56 
z
" id="DejaVuSans-111"/>
       <path d="M 48.78125 52.59375 
L 48.78125 44.1875 
Q 44.96875 46.296875 41.140625 47.34375 
Q 37.3125 48.390625 33.40625 48.390625 
Q 24.65625 48.390625 19.8125 42.84375 
Q 14.984375 37.3125 14.984375 27.296875 
Q 14.984375 17.28125 19.8125 11.734375 
Q 24.65625 6.203125 33.40625 6.203125 
Q 37.3125 6.203125 41.140625 7.25 
Q 44.96875 8.296875 48.78125 10.40625 
L 48.78125 2.09375 
Q 45.015625 0.34375 40.984375 -0.53125 
Q 36.96875 -1.421875 32.421875 -1.421875 
Q 20.0625 -1.421875 12.78125 6.34375 
Q 5.515625 14.109375 5.515625 27.296875 
Q 5.515625 40.671875 12.859375 48.328125 
Q 20.21875 56 33.015625 56 
Q 37.15625 56 41.109375 55.140625 
Q 45.0625 54.296875 48.78125 52.59375 
z
" id="DejaVuSans-99"/>
       <path d="M 34.28125 27.484375 
Q 23.390625 27.484375 19.1875 25 
Q 14.984375 22.515625 14.984375 16.5 
Q 14.984375 11.71875 18.140625 8.90625 
Q 21.296875 6.109375 26.703125 6.109375 
Q 34.1875 6.109375 38.703125 11.40625 
Q 43.21875 16.703125 43.21875 25.484375 
L 43.21875 27.484375 
z
M 52.203125 31.203125 
L 52.203125 0 
L 43.21875 0 
L 43.21875 8.296875 
Q 40.140625 3.328125 35.546875 0.953125 
Q 30.953125 -1.421875 24.3125 -1.421875 
Q 15.921875 -1.421875 10.953125 3.296875 
Q 6 8.015625 6 15.921875 
Q 6 25.140625 12.171875 29.828125 
Q 18.359375 34.515625 30.609375 34.515625 
L 43.21875 34.515625 
L 43.21875 35.40625 
Q 43.21875 41.609375 39.140625 45 
Q 35.0625 48.390625 27.6875 48.390625 
Q 23 48.390625 18.546875 47.265625 
Q 14.109375 46.140625 10.015625 43.890625 
L 10.015625 52.203125 
Q 14.9375 54.109375 19.578125 55.046875 
Q 24.21875 56 28.609375 56 
Q 40.484375 56 46.34375 49.84375 
Q 52.203125 43.703125 52.203125 31.203125 
z
" id="DejaVuSans-97"/>
      </defs>
      <g transform="translate(150.767255 327.577187)rotate(-90)scale(0.12 -0.12)">
       <use xlink:href="#DejaVuSans-76"/>
       <use x="55.697266" xlink:href="#DejaVuSans-111"/>
       <use x="116.878906" xlink:href="#DejaVuSans-99"/>
       <use x="171.859375" xlink:href="#DejaVuSans-97"/>
      </g>
     </g>
    </g>
    <g id="xtick_4">
     <g id="line2d_4">
      <g>
       <use style="stroke:#000000;stroke-width:0.8;" x="186.58644" xlink:href="#ma2298a9859" y="292.598437"/>
      </g>
     </g>
     <g id="text_4">
      <!-- Objc -->
      <defs>
       <path d="M 39.40625 66.21875 
Q 28.65625 66.21875 22.328125 58.203125 
Q 16.015625 50.203125 16.015625 36.375 
Q 16.015625 22.609375 22.328125 14.59375 
Q 28.65625 6.59375 39.40625 6.59375 
Q 50.140625 6.59375 56.421875 14.59375 
Q 62.703125 22.609375 62.703125 36.375 
Q 62.703125 50.203125 56.421875 58.203125 
Q 50.140625 66.21875 39.40625 66.21875 
z
M 39.40625 74.21875 
Q 54.734375 74.21875 63.90625 63.9375 
Q 73.09375 53.65625 73.09375 36.375 
Q 73.09375 19.140625 63.90625 8.859375 
Q 54.734375 -1.421875 39.40625 -1.421875 
Q 24.03125 -1.421875 14.8125 8.828125 
Q 5.609375 19.09375 5.609375 36.375 
Q 5.609375 53.65625 14.8125 63.9375 
Q 24.03125 74.21875 39.40625 74.21875 
z
" id="DejaVuSans-79"/>
       <path d="M 48.6875 27.296875 
Q 48.6875 37.203125 44.609375 42.84375 
Q 40.53125 48.484375 33.40625 48.484375 
Q 26.265625 48.484375 22.1875 42.84375 
Q 18.109375 37.203125 18.109375 27.296875 
Q 18.109375 17.390625 22.1875 11.75 
Q 26.265625 6.109375 33.40625 6.109375 
Q 40.53125 6.109375 44.609375 11.75 
Q 48.6875 17.390625 48.6875 27.296875 
z
M 18.109375 46.390625 
Q 20.953125 51.265625 25.265625 53.625 
Q 29.59375 56 35.59375 56 
Q 45.5625 56 51.78125 48.09375 
Q 58.015625 40.1875 58.015625 27.296875 
Q 58.015625 14.40625 51.78125 6.484375 
Q 45.5625 -1.421875 35.59375 -1.421875 
Q 29.59375 -1.421875 25.265625 0.953125 
Q 20.953125 3.328125 18.109375 8.203125 
L 18.109375 0 
L 9.078125 0 
L 9.078125 75.984375 
L 18.109375 75.984375 
z
" id="DejaVuSans-98"/>
      </defs>
      <g transform="translate(189.89769 326.594687)rotate(-90)scale(0.12 -0.12)">
       <use xlink:href="#DejaVuSans-79"/>
       <use x="78.710938" xlink:href="#DejaVuSans-98"/>
       <use x="142.1875" xlink:href="#DejaVuSans-106"/>
       <use x="169.970703" xlink:href="#DejaVuSans-99"/>
      </g>
     </g>
    </g>
    <g id="xtick_5">
     <g id="line2d_5">
      <g>
       <use style="stroke:#000000;stroke-width:0.8;" x="225.716875" xlink:href="#ma2298a9859" y="292.598437"/>
      </g>
     </g>
     <g id="text_5">
      <!-- Subj -->
      <defs>
       <path d="M 53.515625 70.515625 
L 53.515625 60.890625 
Q 47.90625 63.578125 42.921875 64.890625 
Q 37.9375 66.21875 33.296875 66.21875 
Q 25.25 66.21875 20.875 63.09375 
Q 16.5 59.96875 16.5 54.203125 
Q 16.5 49.359375 19.40625 46.890625 
Q 22.3125 44.4375 30.421875 42.921875 
L 36.375 41.703125 
Q 47.40625 39.59375 52.65625 34.296875 
Q 57.90625 29 57.90625 20.125 
Q 57.90625 9.515625 50.796875 4.046875 
Q 43.703125 -1.421875 29.984375 -1.421875 
Q 24.8125 -1.421875 18.96875 -0.25 
Q 13.140625 0.921875 6.890625 3.21875 
L 6.890625 13.375 
Q 12.890625 10.015625 18.65625 8.296875 
Q 24.421875 6.59375 29.984375 6.59375 
Q 38.421875 6.59375 43.015625 9.90625 
Q 47.609375 13.234375 47.609375 19.390625 
Q 47.609375 24.75 44.3125 27.78125 
Q 41.015625 30.8125 33.5 32.328125 
L 27.484375 33.5 
Q 16.453125 35.6875 11.515625 40.375 
Q 6.59375 45.0625 6.59375 53.421875 
Q 6.59375 63.09375 13.40625 68.65625 
Q 20.21875 74.21875 32.171875 74.21875 
Q 37.3125 74.21875 42.625 73.28125 
Q 47.953125 72.359375 53.515625 70.515625 
z
" id="DejaVuSans-83"/>
      </defs>
      <g transform="translate(229.028125 325.773438)rotate(-90)scale(0.12 -0.12)">
       <use xlink:href="#DejaVuSans-83"/>
       <use x="63.476562" xlink:href="#DejaVuSans-117"/>
       <use x="126.855469" xlink:href="#DejaVuSans-98"/>
       <use x="190.332031" xlink:href="#DejaVuSans-106"/>
      </g>
     </g>
    </g>
    <g id="xtick_6">
     <g id="line2d_6">
      <g>
       <use style="stroke:#000000;stroke-width:0.8;" x="264.84731" xlink:href="#ma2298a9859" y="292.598437"/>
      </g>
     </g>
     <g id="text_6">
      <!-- Time -->
      <defs>
       <path d="M -0.296875 72.90625 
L 61.375 72.90625 
L 61.375 64.59375 
L 35.5 64.59375 
L 35.5 0 
L 25.59375 0 
L 25.59375 64.59375 
L -0.296875 64.59375 
z
" id="DejaVuSans-84"/>
       <path d="M 9.421875 54.6875 
L 18.40625 54.6875 
L 18.40625 0 
L 9.421875 0 
z
M 9.421875 75.984375 
L 18.40625 75.984375 
L 18.40625 64.59375 
L 9.421875 64.59375 
z
" id="DejaVuSans-105"/>
       <path d="M 56.203125 29.59375 
L 56.203125 25.203125 
L 14.890625 25.203125 
Q 15.484375 15.921875 20.484375 11.0625 
Q 25.484375 6.203125 34.421875 6.203125 
Q 39.59375 6.203125 44.453125 7.46875 
Q 49.3125 8.734375 54.109375 11.28125 
L 54.109375 2.78125 
Q 49.265625 0.734375 44.1875 -0.34375 
Q 39.109375 -1.421875 33.890625 -1.421875 
Q 20.796875 -1.421875 13.15625 6.1875 
Q 5.515625 13.8125 5.515625 26.8125 
Q 5.515625 40.234375 12.765625 48.109375 
Q 20.015625 56 32.328125 56 
Q 43.359375 56 49.78125 48.890625 
Q 56.203125 41.796875 56.203125 29.59375 
z
M 47.21875 32.234375 
Q 47.125 39.59375 43.09375 43.984375 
Q 39.0625 48.390625 32.421875 48.390625 
Q 24.90625 48.390625 20.390625 44.140625 
Q 15.875 39.890625 15.1875 32.171875 
z
" id="DejaVuSans-101"/>
      </defs>
      <g transform="translate(268.15856 329.328438)rotate(-90)scale(0.12 -0.12)">
       <use xlink:href="#DejaVuSans-84"/>
       <use x="61.037109" xlink:href="#DejaVuSans-105"/>
       <use x="88.820312" xlink:href="#DejaVuSans-109"/>
       <use x="186.232422" xlink:href="#DejaVuSans-101"/>
      </g>
     </g>
    </g>
    <g id="text_7">
     <!-- function -->
     <defs>
      <path d="M 37.109375 75.984375 
L 37.109375 68.5 
L 28.515625 68.5 
Q 23.6875 68.5 21.796875 66.546875 
Q 19.921875 64.59375 19.921875 59.515625 
L 19.921875 54.6875 
L 34.71875 54.6875 
L 34.71875 47.703125 
L 19.921875 47.703125 
L 19.921875 0 
L 10.890625 0 
L 10.890625 47.703125 
L 2.296875 47.703125 
L 2.296875 54.6875 
L 10.890625 54.6875 
L 10.890625 58.5 
Q 10.890625 67.625 15.140625 71.796875 
Q 19.390625 75.984375 28.609375 75.984375 
z
" id="DejaVuSans-102"/>
      <path d="M 54.890625 33.015625 
L 54.890625 0 
L 45.90625 0 
L 45.90625 32.71875 
Q 45.90625 40.484375 42.875 44.328125 
Q 39.84375 48.1875 33.796875 48.1875 
Q 26.515625 48.1875 22.3125 43.546875 
Q 18.109375 38.921875 18.109375 30.90625 
L 18.109375 0 
L 9.078125 0 
L 9.078125 54.6875 
L 18.109375 54.6875 
L 18.109375 46.1875 
Q 21.34375 51.125 25.703125 53.5625 
Q 30.078125 56 35.796875 56 
Q 45.21875 56 50.046875 50.171875 
Q 54.890625 44.34375 54.890625 33.015625 
z
" id="DejaVuSans-110"/>
      <path d="M 18.3125 70.21875 
L 18.3125 54.6875 
L 36.8125 54.6875 
L 36.8125 47.703125 
L 18.3125 47.703125 
L 18.3125 18.015625 
Q 18.3125 11.328125 20.140625 9.421875 
Q 21.96875 7.515625 27.59375 7.515625 
L 36.8125 7.515625 
L 36.8125 0 
L 27.59375 0 
Q 17.1875 0 13.234375 3.875 
Q 9.28125 7.765625 9.28125 18.015625 
L 9.28125 47.703125 
L 2.6875 47.703125 
L 2.6875 54.6875 
L 9.28125 54.6875 
L 9.28125 70.21875 
z
" id="DejaVuSans-116"/>
     </defs>
     <g transform="translate(146.597004 342.216875)scale(0.1 -0.1)">
      <use xlink:href="#DejaVuSans-102"/>
      <use x="35.205078" xlink:href="#DejaVuSans-117"/>
      <use x="98.583984" xlink:href="#DejaVuSans-110"/>
      <use x="161.962891" xlink:href="#DejaVuSans-99"/>
      <use x="216.943359" xlink:href="#DejaVuSans-116"/>
      <use x="256.152344" xlink:href="#DejaVuSans-105"/>
      <use x="283.935547" xlink:href="#DejaVuSans-111"/>
      <use x="345.117188" xlink:href="#DejaVuSans-110"/>
     </g>
    </g>
   </g>
   <g id="matplotlib.axis_2">
    <g id="ytick_1">
     <g id="line2d_7">
      <path clip-path="url(#pcc0155b6ab)" d="M 45.716875 292.598437 
L 288.325571 292.598437 
" style="fill:none;stroke:#b0b0b0;stroke-linecap:square;stroke-width:0.8;"/>
     </g>
     <g id="line2d_8">
      <defs>
       <path d="M 0 0 
L -3.5 0 
" id="m31a9815c0d" style="stroke:#000000;stroke-width:0.8;"/>
      </defs>
      <g>
       <use style="stroke:#000000;stroke-width:0.8;" x="45.716875" xlink:href="#m31a9815c0d" y="292.598437"/>
      </g>
     </g>
     <g id="text_8">
      <!-- 0.0 -->
      <defs>
       <path d="M 31.78125 66.40625 
Q 24.171875 66.40625 20.328125 58.90625 
Q 16.5 51.421875 16.5 36.375 
Q 16.5 21.390625 20.328125 13.890625 
Q 24.171875 6.390625 31.78125 6.390625 
Q 39.453125 6.390625 43.28125 13.890625 
Q 47.125 21.390625 47.125 36.375 
Q 47.125 51.421875 43.28125 58.90625 
Q 39.453125 66.40625 31.78125 66.40625 
z
M 31.78125 74.21875 
Q 44.046875 74.21875 50.515625 64.515625 
Q 56.984375 54.828125 56.984375 36.375 
Q 56.984375 17.96875 50.515625 8.265625 
Q 44.046875 -1.421875 31.78125 -1.421875 
Q 19.53125 -1.421875 13.0625 8.265625 
Q 6.59375 17.96875 6.59375 36.375 
Q 6.59375 54.828125 13.0625 64.515625 
Q 19.53125 74.21875 31.78125 74.21875 
z
" id="DejaVuSans-48"/>
       <path d="M 10.6875 12.40625 
L 21 12.40625 
L 21 0 
L 10.6875 0 
z
" id="DejaVuSans-46"/>
      </defs>
      <g transform="translate(22.81375 296.397656)scale(0.1 -0.1)">
       <use xlink:href="#DejaVuSans-48"/>
       <use x="63.623047" xlink:href="#DejaVuSans-46"/>
       <use x="95.410156" xlink:href="#DejaVuSans-48"/>
      </g>
     </g>
    </g>
    <g id="ytick_2">
     <g id="line2d_9">
      <path clip-path="url(#pcc0155b6ab)" d="M 45.716875 247.298437 
L 288.325571 247.298437 
" style="fill:none;stroke:#b0b0b0;stroke-linecap:square;stroke-width:0.8;"/>
     </g>
     <g id="line2d_10">
      <g>
       <use style="stroke:#000000;stroke-width:0.8;" x="45.716875" xlink:href="#m31a9815c0d" y="247.298437"/>
      </g>
     </g>
     <g id="text_9">
      <!-- 0.2 -->
      <defs>
       <path d="M 19.1875 8.296875 
L 53.609375 8.296875 
L 53.609375 0 
L 7.328125 0 
L 7.328125 8.296875 
Q 12.9375 14.109375 22.625 23.890625 
Q 32.328125 33.6875 34.8125 36.53125 
Q 39.546875 41.84375 41.421875 45.53125 
Q 43.3125 49.21875 43.3125 52.78125 
Q 43.3125 58.59375 39.234375 62.25 
Q 35.15625 65.921875 28.609375 65.921875 
Q 23.96875 65.921875 18.8125 64.3125 
Q 13.671875 62.703125 7.8125 59.421875 
L 7.8125 69.390625 
Q 13.765625 71.78125 18.9375 73 
Q 24.125 74.21875 28.421875 74.21875 
Q 39.75 74.21875 46.484375 68.546875 
Q 53.21875 62.890625 53.21875 53.421875 
Q 53.21875 48.921875 51.53125 44.890625 
Q 49.859375 40.875 45.40625 35.40625 
Q 44.1875 33.984375 37.640625 27.21875 
Q 31.109375 20.453125 19.1875 8.296875 
z
" id="DejaVuSans-50"/>
      </defs>
      <g transform="translate(22.81375 251.097656)scale(0.1 -0.1)">
       <use xlink:href="#DejaVuSans-48"/>
       <use x="63.623047" xlink:href="#DejaVuSans-46"/>
       <use x="95.410156" xlink:href="#DejaVuSans-50"/>
      </g>
     </g>
    </g>
    <g id="ytick_3">
     <g id="line2d_11">
      <path clip-path="url(#pcc0155b6ab)" d="M 45.716875 201.998437 
L 288.325571 201.998437 
" style="fill:none;stroke:#b0b0b0;stroke-linecap:square;stroke-width:0.8;"/>
     </g>
     <g id="line2d_12">
      <g>
       <use style="stroke:#000000;stroke-width:0.8;" x="45.716875" xlink:href="#m31a9815c0d" y="201.998437"/>
      </g>
     </g>
     <g id="text_10">
      <!-- 0.4 -->
      <defs>
       <path d="M 37.796875 64.3125 
L 12.890625 25.390625 
L 37.796875 25.390625 
z
M 35.203125 72.90625 
L 47.609375 72.90625 
L 47.609375 25.390625 
L 58.015625 25.390625 
L 58.015625 17.1875 
L 47.609375 17.1875 
L 47.609375 0 
L 37.796875 0 
L 37.796875 17.1875 
L 4.890625 17.1875 
L 4.890625 26.703125 
z
" id="DejaVuSans-52"/>
      </defs>
      <g transform="translate(22.81375 205.797656)scale(0.1 -0.1)">
       <use xlink:href="#DejaVuSans-48"/>
       <use x="63.623047" xlink:href="#DejaVuSans-46"/>
       <use x="95.410156" xlink:href="#DejaVuSans-52"/>
      </g>
     </g>
    </g>
    <g id="ytick_4">
     <g id="line2d_13">
      <path clip-path="url(#pcc0155b6ab)" d="M 45.716875 156.698437 
L 288.325571 156.698437 
" style="fill:none;stroke:#b0b0b0;stroke-linecap:square;stroke-width:0.8;"/>
     </g>
     <g id="line2d_14">
      <g>
       <use style="stroke:#000000;stroke-width:0.8;" x="45.716875" xlink:href="#m31a9815c0d" y="156.698437"/>
      </g>
     </g>
     <g id="text_11">
      <!-- 0.6 -->
      <defs>
       <path d="M 33.015625 40.375 
Q 26.375 40.375 22.484375 35.828125 
Q 18.609375 31.296875 18.609375 23.390625 
Q 18.609375 15.53125 22.484375 10.953125 
Q 26.375 6.390625 33.015625 6.390625 
Q 39.65625 6.390625 43.53125 10.953125 
Q 47.40625 15.53125 47.40625 23.390625 
Q 47.40625 31.296875 43.53125 35.828125 
Q 39.65625 40.375 33.015625 40.375 
z
M 52.59375 71.296875 
L 52.59375 62.3125 
Q 48.875 64.0625 45.09375 64.984375 
Q 41.3125 65.921875 37.59375 65.921875 
Q 27.828125 65.921875 22.671875 59.328125 
Q 17.53125 52.734375 16.796875 39.40625 
Q 19.671875 43.65625 24.015625 45.921875 
Q 28.375 48.1875 33.59375 48.1875 
Q 44.578125 48.1875 50.953125 41.515625 
Q 57.328125 34.859375 57.328125 23.390625 
Q 57.328125 12.15625 50.6875 5.359375 
Q 44.046875 -1.421875 33.015625 -1.421875 
Q 20.359375 -1.421875 13.671875 8.265625 
Q 6.984375 17.96875 6.984375 36.375 
Q 6.984375 53.65625 15.1875 63.9375 
Q 23.390625 74.21875 37.203125 74.21875 
Q 40.921875 74.21875 44.703125 73.484375 
Q 48.484375 72.75 52.59375 71.296875 
z
" id="DejaVuSans-54"/>
      </defs>
      <g transform="translate(22.81375 160.497656)scale(0.1 -0.1)">
       <use xlink:href="#DejaVuSans-48"/>
       <use x="63.623047" xlink:href="#DejaVuSans-46"/>
       <use x="95.410156" xlink:href="#DejaVuSans-54"/>
      </g>
     </g>
    </g>
    <g id="ytick_5">
     <g id="line2d_15">
      <path clip-path="url(#pcc0155b6ab)" d="M 45.716875 111.398437 
L 288.325571 111.398437 
" style="fill:none;stroke:#b0b0b0;stroke-linecap:square;stroke-width:0.8;"/>
     </g>
     <g id="line2d_16">
      <g>
       <use style="stroke:#000000;stroke-width:0.8;" x="45.716875" xlink:href="#m31a9815c0d" y="111.398437"/>
      </g>
     </g>
     <g id="text_12">
      <!-- 0.8 -->
      <defs>
       <path d="M 31.78125 34.625 
Q 24.75 34.625 20.71875 30.859375 
Q 16.703125 27.09375 16.703125 20.515625 
Q 16.703125 13.921875 20.71875 10.15625 
Q 24.75 6.390625 31.78125 6.390625 
Q 38.8125 6.390625 42.859375 10.171875 
Q 46.921875 13.96875 46.921875 20.515625 
Q 46.921875 27.09375 42.890625 30.859375 
Q 38.875 34.625 31.78125 34.625 
z
M 21.921875 38.8125 
Q 15.578125 40.375 12.03125 44.71875 
Q 8.5 49.078125 8.5 55.328125 
Q 8.5 64.0625 14.71875 69.140625 
Q 20.953125 74.21875 31.78125 74.21875 
Q 42.671875 74.21875 48.875 69.140625 
Q 55.078125 64.0625 55.078125 55.328125 
Q 55.078125 49.078125 51.53125 44.71875 
Q 48 40.375 41.703125 38.8125 
Q 48.828125 37.15625 52.796875 32.3125 
Q 56.78125 27.484375 56.78125 20.515625 
Q 56.78125 9.90625 50.3125 4.234375 
Q 43.84375 -1.421875 31.78125 -1.421875 
Q 19.734375 -1.421875 13.25 4.234375 
Q 6.78125 9.90625 6.78125 20.515625 
Q 6.78125 27.484375 10.78125 32.3125 
Q 14.796875 37.15625 21.921875 38.8125 
z
M 18.3125 54.390625 
Q 18.3125 48.734375 21.84375 45.5625 
Q 25.390625 42.390625 31.78125 42.390625 
Q 38.140625 42.390625 41.71875 45.5625 
Q 45.3125 48.734375 45.3125 54.390625 
Q 45.3125 60.0625 41.71875 63.234375 
Q 38.140625 66.40625 31.78125 66.40625 
Q 25.390625 66.40625 21.84375 63.234375 
Q 18.3125 60.0625 18.3125 54.390625 
z
" id="DejaVuSans-56"/>
      </defs>
      <g transform="translate(22.81375 115.197656)scale(0.1 -0.1)">
       <use xlink:href="#DejaVuSans-48"/>
       <use x="63.623047" xlink:href="#DejaVuSans-46"/>
       <use x="95.410156" xlink:href="#DejaVuSans-56"/>
      </g>
     </g>
    </g>
    <g id="ytick_6">
     <g id="line2d_17">
      <path clip-path="url(#pcc0155b6ab)" d="M 45.716875 66.098437 
L 288.325571 66.098437 
" style="fill:none;stroke:#b0b0b0;stroke-linecap:square;stroke-width:0.8;"/>
     </g>
     <g id="line2d_18">
      <g>
       <use style="stroke:#000000;stroke-width:0.8;" x="45.716875" xlink:href="#m31a9815c0d" y="66.098437"/>
      </g>
     </g>
     <g id="text_13">
      <!-- 1 -->
      <defs>
       <path d="M 12.40625 8.296875 
L 28.515625 8.296875 
L 28.515625 63.921875 
L 10.984375 60.40625 
L 10.984375 69.390625 
L 28.421875 72.90625 
L 38.28125 72.90625 
L 38.28125 8.296875 
L 54.390625 8.296875 
L 54.390625 0 
L 12.40625 0 
z
" id="DejaVuSans-49"/>
      </defs>
      <g transform="translate(32.354375 69.897656)scale(0.1 -0.1)">
       <use xlink:href="#DejaVuSans-49"/>
      </g>
     </g>
    </g>
    <g id="ytick_7">
     <g id="line2d_19">
      <path clip-path="url(#pcc0155b6ab)" d="M 45.716875 20.798437 
L 288.325571 20.798437 
" style="fill:none;stroke:#b0b0b0;stroke-linecap:square;stroke-width:0.8;"/>
     </g>
     <g id="line2d_20">
      <g>
       <use style="stroke:#000000;stroke-width:0.8;" x="45.716875" xlink:href="#m31a9815c0d" y="20.798437"/>
      </g>
     </g>
    </g>
    <g id="text_14">
     <!-- percentage % of total occurrences -->
     <defs>
      <path d="M 41.109375 46.296875 
Q 39.59375 47.171875 37.8125 47.578125 
Q 36.03125 48 33.890625 48 
Q 26.265625 48 22.1875 43.046875 
Q 18.109375 38.09375 18.109375 28.8125 
L 18.109375 0 
L 9.078125 0 
L 9.078125 54.6875 
L 18.109375 54.6875 
L 18.109375 46.1875 
Q 20.953125 51.171875 25.484375 53.578125 
Q 30.03125 56 36.53125 56 
Q 37.453125 56 38.578125 55.875 
Q 39.703125 55.765625 41.0625 55.515625 
z
" id="DejaVuSans-114"/>
      <path d="M 45.40625 27.984375 
Q 45.40625 37.75 41.375 43.109375 
Q 37.359375 48.484375 30.078125 48.484375 
Q 22.859375 48.484375 18.828125 43.109375 
Q 14.796875 37.75 14.796875 27.984375 
Q 14.796875 18.265625 18.828125 12.890625 
Q 22.859375 7.515625 30.078125 7.515625 
Q 37.359375 7.515625 41.375 12.890625 
Q 45.40625 18.265625 45.40625 27.984375 
z
M 54.390625 6.78125 
Q 54.390625 -7.171875 48.1875 -13.984375 
Q 42 -20.796875 29.203125 -20.796875 
Q 24.46875 -20.796875 20.265625 -20.09375 
Q 16.0625 -19.390625 12.109375 -17.921875 
L 12.109375 -9.1875 
Q 16.0625 -11.328125 19.921875 -12.34375 
Q 23.78125 -13.375 27.78125 -13.375 
Q 36.625 -13.375 41.015625 -8.765625 
Q 45.40625 -4.15625 45.40625 5.171875 
L 45.40625 9.625 
Q 42.625 4.78125 38.28125 2.390625 
Q 33.9375 0 27.875 0 
Q 17.828125 0 11.671875 7.65625 
Q 5.515625 15.328125 5.515625 27.984375 
Q 5.515625 40.671875 11.671875 48.328125 
Q 17.828125 56 27.875 56 
Q 33.9375 56 38.28125 53.609375 
Q 42.625 51.21875 45.40625 46.390625 
L 45.40625 54.6875 
L 54.390625 54.6875 
z
" id="DejaVuSans-103"/>
      <path id="DejaVuSans-32"/>
      <path d="M 72.703125 32.078125 
Q 68.453125 32.078125 66.03125 28.46875 
Q 63.625 24.859375 63.625 18.40625 
Q 63.625 12.0625 66.03125 8.421875 
Q 68.453125 4.78125 72.703125 4.78125 
Q 76.859375 4.78125 79.265625 8.421875 
Q 81.6875 12.0625 81.6875 18.40625 
Q 81.6875 24.8125 79.265625 28.4375 
Q 76.859375 32.078125 72.703125 32.078125 
z
M 72.703125 38.28125 
Q 80.421875 38.28125 84.953125 32.90625 
Q 89.5 27.546875 89.5 18.40625 
Q 89.5 9.28125 84.9375 3.921875 
Q 80.375 -1.421875 72.703125 -1.421875 
Q 64.890625 -1.421875 60.34375 3.921875 
Q 55.8125 9.28125 55.8125 18.40625 
Q 55.8125 27.59375 60.375 32.9375 
Q 64.9375 38.28125 72.703125 38.28125 
z
M 22.3125 68.015625 
Q 18.109375 68.015625 15.6875 64.375 
Q 13.28125 60.75 13.28125 54.390625 
Q 13.28125 47.953125 15.671875 44.328125 
Q 18.0625 40.71875 22.3125 40.71875 
Q 26.5625 40.71875 28.96875 44.328125 
Q 31.390625 47.953125 31.390625 54.390625 
Q 31.390625 60.6875 28.953125 64.34375 
Q 26.515625 68.015625 22.3125 68.015625 
z
M 66.40625 74.21875 
L 74.21875 74.21875 
L 28.609375 -1.421875 
L 20.796875 -1.421875 
z
M 22.3125 74.21875 
Q 30.03125 74.21875 34.609375 68.875 
Q 39.203125 63.53125 39.203125 54.390625 
Q 39.203125 45.171875 34.640625 39.84375 
Q 30.078125 34.515625 22.3125 34.515625 
Q 14.546875 34.515625 10.03125 39.859375 
Q 5.515625 45.21875 5.515625 54.390625 
Q 5.515625 63.484375 10.046875 68.84375 
Q 14.59375 74.21875 22.3125 74.21875 
z
" id="DejaVuSans-37"/>
      <path d="M 44.28125 53.078125 
L 44.28125 44.578125 
Q 40.484375 46.53125 36.375 47.5 
Q 32.28125 48.484375 27.875 48.484375 
Q 21.1875 48.484375 17.84375 46.4375 
Q 14.5 44.390625 14.5 40.28125 
Q 14.5 37.15625 16.890625 35.375 
Q 19.28125 33.59375 26.515625 31.984375 
L 29.59375 31.296875 
Q 39.15625 29.25 43.1875 25.515625 
Q 47.21875 21.78125 47.21875 15.09375 
Q 47.21875 7.46875 41.1875 3.015625 
Q 35.15625 -1.421875 24.609375 -1.421875 
Q 20.21875 -1.421875 15.453125 -0.5625 
Q 10.6875 0.296875 5.421875 2 
L 5.421875 11.28125 
Q 10.40625 8.6875 15.234375 7.390625 
Q 20.0625 6.109375 24.8125 6.109375 
Q 31.15625 6.109375 34.5625 8.28125 
Q 37.984375 10.453125 37.984375 14.40625 
Q 37.984375 18.0625 35.515625 20.015625 
Q 33.0625 21.96875 24.703125 23.78125 
L 21.578125 24.515625 
Q 13.234375 26.265625 9.515625 29.90625 
Q 5.8125 33.546875 5.8125 39.890625 
Q 5.8125 47.609375 11.28125 51.796875 
Q 16.75 56 26.8125 56 
Q 31.78125 56 36.171875 55.265625 
Q 40.578125 54.546875 44.28125 53.078125 
z
" id="DejaVuSans-115"/>
     </defs>
     <g transform="translate(16.318125 260.431875)rotate(-90)scale(0.12 -0.12)">
      <use xlink:href="#DejaVuSans-112"/>
      <use x="63.476562" xlink:href="#DejaVuSans-101"/>
      <use x="125" xlink:href="#DejaVuSans-114"/>
      <use x="166.082031" xlink:href="#DejaVuSans-99"/>
      <use x="221.0625" xlink:href="#DejaVuSans-101"/>
      <use x="282.585938" xlink:href="#DejaVuSans-110"/>
      <use x="345.964844" xlink:href="#DejaVuSans-116"/>
      <use x="385.173828" xlink:href="#DejaVuSans-97"/>
      <use x="446.453125" xlink:href="#DejaVuSans-103"/>
      <use x="509.929688" xlink:href="#DejaVuSans-101"/>
      <use x="571.453125" xlink:href="#DejaVuSans-32"/>
      <use x="603.240234" xlink:href="#DejaVuSans-37"/>
      <use x="698.259766" xlink:href="#DejaVuSans-32"/>
      <use x="730.046875" xlink:href="#DejaVuSans-111"/>
      <use x="791.228516" xlink:href="#DejaVuSans-102"/>
      <use x="826.433594" xlink:href="#DejaVuSans-32"/>
      <use x="858.220703" xlink:href="#DejaVuSans-116"/>
      <use x="897.429688" xlink:href="#DejaVuSans-111"/>
      <use x="958.611328" xlink:href="#DejaVuSans-116"/>
      <use x="997.820312" xlink:href="#DejaVuSans-97"/>
      <use x="1059.099609" xlink:href="#DejaVuSans-108"/>
      <use x="1086.882812" xlink:href="#DejaVuSans-32"/>
      <use x="1118.669922" xlink:href="#DejaVuSans-111"/>
      <use x="1179.851562" xlink:href="#DejaVuSans-99"/>
      <use x="1234.832031" xlink:href="#DejaVuSans-99"/>
      <use x="1289.8125" xlink:href="#DejaVuSans-117"/>
      <use x="1353.191406" xlink:href="#DejaVuSans-114"/>
      <use x="1394.289062" xlink:href="#DejaVuSans-114"/>
      <use x="1435.371094" xlink:href="#DejaVuSans-101"/>
      <use x="1496.894531" xlink:href="#DejaVuSans-110"/>
      <use x="1560.273438" xlink:href="#DejaVuSans-99"/>
      <use x="1615.253906" xlink:href="#DejaVuSans-101"/>
      <use x="1676.777344" xlink:href="#DejaVuSans-115"/>
     </g>
    </g>
   </g>
   <g id="patch_3">
    <path clip-path="url(#pcc0155b6ab)" d="M 55.499484 292.598437 
L 69.195136 292.598437 
L 69.195136 84.596098 
L 55.499484 84.596098 
z
" style="fill:#d3d3d3;stroke:#000000;stroke-linejoin:miter;"/>
   </g>
   <g id="patch_4">
    <path clip-path="url(#pcc0155b6ab)" d="M 94.629918 292.598437 
L 108.325571 292.598437 
L 108.325571 81.212226 
L 94.629918 81.212226 
z
" style="fill:#d3d3d3;stroke:#000000;stroke-linejoin:miter;"/>
   </g>
   <g id="patch_5">
    <path clip-path="url(#pcc0155b6ab)" d="M 133.760353 292.598437 
L 147.456005 292.598437 
L 147.456005 86.927025 
L 133.760353 86.927025 
z
" style="fill:#d3d3d3;stroke:#000000;stroke-linejoin:miter;"/>
   </g>
   <g id="patch_6">
    <path clip-path="url(#pcc0155b6ab)" d="M 172.890788 292.598437 
L 186.58644 292.598437 
L 186.58644 83.080375 
L 172.890788 83.080375 
z
" style="fill:#d3d3d3;stroke:#000000;stroke-linejoin:miter;"/>
   </g>
   <g id="patch_7">
    <path clip-path="url(#pcc0155b6ab)" d="M 212.021223 292.598437 
L 225.716875 292.598437 
L 225.716875 86.439684 
L 212.021223 86.439684 
z
" style="fill:#d3d3d3;stroke:#000000;stroke-linejoin:miter;"/>
   </g>
   <g id="patch_8">
    <path clip-path="url(#pcc0155b6ab)" d="M 251.151658 292.598437 
L 264.84731 292.598437 
L 264.84731 83.143084 
L 251.151658 83.143084 
z
" style="fill:#d3d3d3;stroke:#000000;stroke-linejoin:miter;"/>
   </g>
   <g id="patch_9">
    <path clip-path="url(#pcc0155b6ab)" d="M 69.195136 292.598437 
L 82.890788 292.598437 
L 82.890788 274.100777 
L 69.195136 274.100777 
z
" style="fill:#ffffff;stroke:#000000;stroke-linejoin:miter;"/>
   </g>
   <g id="patch_10">
    <path clip-path="url(#pcc0155b6ab)" d="M 108.325571 292.598437 
L 122.021223 292.598437 
L 122.021223 277.484649 
L 108.325571 277.484649 
z
" style="fill:#ffffff;stroke:#000000;stroke-linejoin:miter;"/>
   </g>
   <g id="patch_11">
    <path clip-path="url(#pcc0155b6ab)" d="M 147.456005 292.598437 
L 161.151658 292.598437 
L 161.151658 271.76985 
L 147.456005 271.76985 
z
" style="fill:#ffffff;stroke:#000000;stroke-linejoin:miter;"/>
   </g>
   <g id="patch_12">
    <path clip-path="url(#pcc0155b6ab)" d="M 186.58644 292.598437 
L 200.282092 292.598437 
L 200.282092 275.6165 
L 186.58644 275.6165 
z
" style="fill:#ffffff;stroke:#000000;stroke-linejoin:miter;"/>
   </g>
   <g id="patch_13">
    <path clip-path="url(#pcc0155b6ab)" d="M 225.716875 292.598437 
L 239.412527 292.598437 
L 239.412527 272.257191 
L 225.716875 272.257191 
z
" style="fill:#ffffff;stroke:#000000;stroke-linejoin:miter;"/>
   </g>
   <g id="patch_14">
    <path clip-path="url(#pcc0155b6ab)" d="M 264.84731 292.598437 
L 278.542962 292.598437 
L 278.542962 275.553791 
L 264.84731 275.553791 
z
" style="fill:#ffffff;stroke:#000000;stroke-linejoin:miter;"/>
   </g>
   <g id="line2d_21">
    <path clip-path="url(#pcc0155b6ab)" d="M 45.716875 86.927025 
L 288.325571 86.927025 
" style="fill:none;stroke:#1f77b4;stroke-linecap:square;stroke-opacity:0.8;stroke-width:1.5;"/>
   </g>
   <g id="patch_15">
    <path d="M 45.716875 292.598437 
L 45.716875 20.798437 
" style="fill:none;stroke:#000000;stroke-linecap:square;stroke-linejoin:miter;stroke-width:0.8;"/>
   </g>
   <g id="patch_16">
    <path d="M 288.325571 292.598437 
L 288.325571 20.798437 
" style="fill:none;stroke:#000000;stroke-linecap:square;stroke-linejoin:miter;stroke-width:0.8;"/>
   </g>
   <g id="patch_17">
    <path d="M 45.716875 292.598437 
L 288.325571 292.598437 
" style="fill:none;stroke:#000000;stroke-linecap:square;stroke-linejoin:miter;stroke-width:0.8;"/>
   </g>
   <g id="patch_18">
    <path d="M 45.716875 20.798437 
L 288.325571 20.798437 
" style="fill:none;stroke:#000000;stroke-linecap:square;stroke-linejoin:miter;stroke-width:0.8;"/>
   </g>
   <g id="text_15">
    <!-- number (n) of atoms (a) per phrase function -->
    <defs>
     <path d="M 31 75.875 
Q 24.46875 64.65625 21.28125 53.65625 
Q 18.109375 42.671875 18.109375 31.390625 
Q 18.109375 20.125 21.3125 9.0625 
Q 24.515625 -2 31 -13.1875 
L 23.1875 -13.1875 
Q 15.875 -1.703125 12.234375 9.375 
Q 8.59375 20.453125 8.59375 31.390625 
Q 8.59375 42.28125 12.203125 53.3125 
Q 15.828125 64.359375 23.1875 75.875 
z
" id="DejaVuSans-40"/>
     <path d="M 8.015625 75.875 
L 15.828125 75.875 
Q 23.140625 64.359375 26.78125 53.3125 
Q 30.421875 42.28125 30.421875 31.390625 
Q 30.421875 20.453125 26.78125 9.375 
Q 23.140625 -1.703125 15.828125 -13.1875 
L 8.015625 -13.1875 
Q 14.5 -2 17.703125 9.0625 
Q 20.90625 20.125 20.90625 31.390625 
Q 20.90625 42.671875 17.703125 53.65625 
Q 14.5 64.65625 8.015625 75.875 
z
" id="DejaVuSans-41"/>
     <path d="M 54.890625 33.015625 
L 54.890625 0 
L 45.90625 0 
L 45.90625 32.71875 
Q 45.90625 40.484375 42.875 44.328125 
Q 39.84375 48.1875 33.796875 48.1875 
Q 26.515625 48.1875 22.3125 43.546875 
Q 18.109375 38.921875 18.109375 30.90625 
L 18.109375 0 
L 9.078125 0 
L 9.078125 75.984375 
L 18.109375 75.984375 
L 18.109375 46.1875 
Q 21.34375 51.125 25.703125 53.5625 
Q 30.078125 56 35.796875 56 
Q 45.21875 56 50.046875 50.171875 
Q 54.890625 44.34375 54.890625 33.015625 
z
" id="DejaVuSans-104"/>
    </defs>
    <g transform="translate(56.095442 14.798437)scale(0.1 -0.1)">
     <use xlink:href="#DejaVuSans-110"/>
     <use x="63.378906" xlink:href="#DejaVuSans-117"/>
     <use x="126.757812" xlink:href="#DejaVuSans-109"/>
     <use x="224.169922" xlink:href="#DejaVuSans-98"/>
     <use x="287.646484" xlink:href="#DejaVuSans-101"/>
     <use x="349.169922" xlink:href="#DejaVuSans-114"/>
     <use x="390.283203" xlink:href="#DejaVuSans-32"/>
     <use x="422.070312" xlink:href="#DejaVuSans-40"/>
     <use x="461.083984" xlink:href="#DejaVuSans-110"/>
     <use x="524.462891" xlink:href="#DejaVuSans-41"/>
     <use x="563.476562" xlink:href="#DejaVuSans-32"/>
     <use x="595.263672" xlink:href="#DejaVuSans-111"/>
     <use x="656.445312" xlink:href="#DejaVuSans-102"/>
     <use x="691.650391" xlink:href="#DejaVuSans-32"/>
     <use x="723.4375" xlink:href="#DejaVuSans-97"/>
     <use x="784.716797" xlink:href="#DejaVuSans-116"/>
     <use x="823.925781" xlink:href="#DejaVuSans-111"/>
     <use x="885.107422" xlink:href="#DejaVuSans-109"/>
     <use x="982.519531" xlink:href="#DejaVuSans-115"/>
     <use x="1034.619141" xlink:href="#DejaVuSans-32"/>
     <use x="1066.40625" xlink:href="#DejaVuSans-40"/>
     <use x="1105.419922" xlink:href="#DejaVuSans-97"/>
     <use x="1166.699219" xlink:href="#DejaVuSans-41"/>
     <use x="1205.712891" xlink:href="#DejaVuSans-32"/>
     <use x="1237.5" xlink:href="#DejaVuSans-112"/>
     <use x="1300.976562" xlink:href="#DejaVuSans-101"/>
     <use x="1362.5" xlink:href="#DejaVuSans-114"/>
     <use x="1403.613281" xlink:href="#DejaVuSans-32"/>
     <use x="1435.400391" xlink:href="#DejaVuSans-112"/>
     <use x="1498.876953" xlink:href="#DejaVuSans-104"/>
     <use x="1562.255859" xlink:href="#DejaVuSans-114"/>
     <use x="1603.369141" xlink:href="#DejaVuSans-97"/>
     <use x="1664.648438" xlink:href="#DejaVuSans-115"/>
     <use x="1716.748047" xlink:href="#DejaVuSans-101"/>
     <use x="1778.271484" xlink:href="#DejaVuSans-32"/>
     <use x="1810.058594" xlink:href="#DejaVuSans-102"/>
     <use x="1845.263672" xlink:href="#DejaVuSans-117"/>
     <use x="1908.642578" xlink:href="#DejaVuSans-110"/>
     <use x="1972.021484" xlink:href="#DejaVuSans-99"/>
     <use x="2027.001953" xlink:href="#DejaVuSans-116"/>
     <use x="2066.210938" xlink:href="#DejaVuSans-105"/>
     <use x="2093.994141" xlink:href="#DejaVuSans-111"/>
     <use x="2155.175781" xlink:href="#DejaVuSans-110"/>
    </g>
   </g>
   <g id="legend_1">
    <g id="patch_19">
     <path d="M 215.761508 58.154687 
L 281.325571 58.154687 
Q 283.325571 58.154687 283.325571 56.154687 
L 283.325571 27.798437 
Q 283.325571 25.798437 281.325571 25.798437 
L 215.761508 25.798437 
Q 213.761508 25.798437 213.761508 27.798437 
L 213.761508 56.154687 
Q 213.761508 58.154687 215.761508 58.154687 
z
" style="fill:#ffffff;opacity:0.8;stroke:#cccccc;stroke-linejoin:miter;"/>
    </g>
    <g id="patch_20">
     <path d="M 217.761508 37.396875 
L 237.761508 37.396875 
L 237.761508 30.396875 
L 217.761508 30.396875 
z
" style="fill:#d3d3d3;stroke:#000000;stroke-linejoin:miter;"/>
    </g>
    <g id="text_16">
     <!-- na = 1 -->
     <defs>
      <path d="M 10.59375 45.40625 
L 73.1875 45.40625 
L 73.1875 37.203125 
L 10.59375 37.203125 
z
M 10.59375 25.484375 
L 73.1875 25.484375 
L 73.1875 17.1875 
L 10.59375 17.1875 
z
" id="DejaVuSans-61"/>
     </defs>
     <g transform="translate(245.761508 37.396875)scale(0.1 -0.1)">
      <use xlink:href="#DejaVuSans-110"/>
      <use x="63.378906" xlink:href="#DejaVuSans-97"/>
      <use x="124.658203" xlink:href="#DejaVuSans-32"/>
      <use x="156.445312" xlink:href="#DejaVuSans-61"/>
      <use x="240.234375" xlink:href="#DejaVuSans-32"/>
      <use x="272.021484" xlink:href="#DejaVuSans-49"/>
     </g>
    </g>
    <g id="patch_21">
     <path d="M 217.761508 52.075 
L 237.761508 52.075 
L 237.761508 45.075 
L 217.761508 45.075 
z
" style="fill:#ffffff;stroke:#000000;stroke-linejoin:miter;"/>
    </g>
    <g id="text_17">
     <!-- na &gt; 1 -->
     <defs>
      <path d="M 10.59375 49.21875 
L 10.59375 58.109375 
L 73.1875 35.40625 
L 73.1875 27.296875 
L 10.59375 4.59375 
L 10.59375 13.484375 
L 60.890625 31.296875 
z
" id="DejaVuSans-62"/>
     </defs>
     <g transform="translate(245.761508 52.075)scale(0.1 -0.1)">
      <use xlink:href="#DejaVuSans-110"/>
      <use x="63.378906" xlink:href="#DejaVuSans-97"/>
      <use x="124.658203" xlink:href="#DejaVuSans-32"/>
      <use x="156.445312" xlink:href="#DejaVuSans-62"/>
      <use x="240.234375" xlink:href="#DejaVuSans-32"/>
      <use x="272.021484" xlink:href="#DejaVuSans-49"/>
     </g>
    </g>
   </g>
  </g>
  <g id="axes_2">
   <g id="patch_22">
    <path d="M 336.84731 292.598437 
L 579.456005 292.598437 
L 579.456005 20.798437 
L 336.84731 20.798437 
z
" style="fill:#ffffff;"/>
   </g>
   <g id="matplotlib.axis_3">
    <g id="xtick_7">
     <g id="line2d_22">
      <g>
       <use style="stroke:#000000;stroke-width:0.8;" x="360.325571" xlink:href="#ma2298a9859" y="292.598437"/>
      </g>
     </g>
     <g id="text_18">
      <!-- Adju -->
      <g transform="translate(363.636821 326.362188)rotate(-90)scale(0.12 -0.12)">
       <use xlink:href="#DejaVuSans-65"/>
       <use x="68.392578" xlink:href="#DejaVuSans-100"/>
       <use x="131.869141" xlink:href="#DejaVuSans-106"/>
       <use x="159.652344" xlink:href="#DejaVuSans-117"/>
      </g>
     </g>
    </g>
    <g id="xtick_8">
     <g id="line2d_23">
      <g>
       <use style="stroke:#000000;stroke-width:0.8;" x="399.456005" xlink:href="#ma2298a9859" y="292.598437"/>
      </g>
     </g>
     <g id="text_19">
      <!-- Cmpl -->
      <g transform="translate(402.767255 330.618437)rotate(-90)scale(0.12 -0.12)">
       <use xlink:href="#DejaVuSans-67"/>
       <use x="69.824219" xlink:href="#DejaVuSans-109"/>
       <use x="167.236328" xlink:href="#DejaVuSans-112"/>
       <use x="230.712891" xlink:href="#DejaVuSans-108"/>
      </g>
     </g>
    </g>
    <g id="xtick_9">
     <g id="line2d_24">
      <g>
       <use style="stroke:#000000;stroke-width:0.8;" x="438.58644" xlink:href="#ma2298a9859" y="292.598437"/>
      </g>
     </g>
     <g id="text_20">
      <!-- Loca -->
      <g transform="translate(441.89769 327.577187)rotate(-90)scale(0.12 -0.12)">
       <use xlink:href="#DejaVuSans-76"/>
       <use x="55.697266" xlink:href="#DejaVuSans-111"/>
       <use x="116.878906" xlink:href="#DejaVuSans-99"/>
       <use x="171.859375" xlink:href="#DejaVuSans-97"/>
      </g>
     </g>
    </g>
    <g id="xtick_10">
     <g id="line2d_25">
      <g>
       <use style="stroke:#000000;stroke-width:0.8;" x="477.716875" xlink:href="#ma2298a9859" y="292.598437"/>
      </g>
     </g>
     <g id="text_21">
      <!-- Objc -->
      <g transform="translate(481.028125 326.594687)rotate(-90)scale(0.12 -0.12)">
       <use xlink:href="#DejaVuSans-79"/>
       <use x="78.710938" xlink:href="#DejaVuSans-98"/>
       <use x="142.1875" xlink:href="#DejaVuSans-106"/>
       <use x="169.970703" xlink:href="#DejaVuSans-99"/>
      </g>
     </g>
    </g>
    <g id="xtick_11">
     <g id="line2d_26">
      <g>
       <use style="stroke:#000000;stroke-width:0.8;" x="516.84731" xlink:href="#ma2298a9859" y="292.598437"/>
      </g>
     </g>
     <g id="text_22">
      <!-- Subj -->
      <g transform="translate(520.15856 325.773438)rotate(-90)scale(0.12 -0.12)">
       <use xlink:href="#DejaVuSans-83"/>
       <use x="63.476562" xlink:href="#DejaVuSans-117"/>
       <use x="126.855469" xlink:href="#DejaVuSans-98"/>
       <use x="190.332031" xlink:href="#DejaVuSans-106"/>
      </g>
     </g>
    </g>
    <g id="xtick_12">
     <g id="line2d_27">
      <g>
       <use style="stroke:#000000;stroke-width:0.8;" x="555.977745" xlink:href="#ma2298a9859" y="292.598437"/>
      </g>
     </g>
     <g id="text_23">
      <!-- Time -->
      <g transform="translate(559.288995 329.328438)rotate(-90)scale(0.12 -0.12)">
       <use xlink:href="#DejaVuSans-84"/>
       <use x="61.037109" xlink:href="#DejaVuSans-105"/>
       <use x="88.820312" xlink:href="#DejaVuSans-109"/>
       <use x="186.232422" xlink:href="#DejaVuSans-101"/>
      </g>
     </g>
    </g>
    <g id="text_24">
     <!-- function -->
     <g transform="translate(437.727439 342.216875)scale(0.1 -0.1)">
      <use xlink:href="#DejaVuSans-102"/>
      <use x="35.205078" xlink:href="#DejaVuSans-117"/>
      <use x="98.583984" xlink:href="#DejaVuSans-110"/>
      <use x="161.962891" xlink:href="#DejaVuSans-99"/>
      <use x="216.943359" xlink:href="#DejaVuSans-116"/>
      <use x="256.152344" xlink:href="#DejaVuSans-105"/>
      <use x="283.935547" xlink:href="#DejaVuSans-111"/>
      <use x="345.117188" xlink:href="#DejaVuSans-110"/>
     </g>
    </g>
   </g>
   <g id="matplotlib.axis_4">
    <g id="ytick_8">
     <g id="line2d_28">
      <path clip-path="url(#pd59a889418)" d="M 336.84731 292.598437 
L 579.456005 292.598437 
" style="fill:none;stroke:#b0b0b0;stroke-linecap:square;stroke-width:0.8;"/>
     </g>
     <g id="line2d_29">
      <g>
       <use style="stroke:#000000;stroke-width:0.8;" x="336.84731" xlink:href="#m31a9815c0d" y="292.598437"/>
      </g>
     </g>
     <g id="text_25">
      <!-- 0.0 -->
      <g transform="translate(313.944185 296.397656)scale(0.1 -0.1)">
       <use xlink:href="#DejaVuSans-48"/>
       <use x="63.623047" xlink:href="#DejaVuSans-46"/>
       <use x="95.410156" xlink:href="#DejaVuSans-48"/>
      </g>
     </g>
    </g>
    <g id="ytick_9">
     <g id="line2d_30">
      <path clip-path="url(#pd59a889418)" d="M 336.84731 247.298437 
L 579.456005 247.298437 
" style="fill:none;stroke:#b0b0b0;stroke-linecap:square;stroke-width:0.8;"/>
     </g>
     <g id="line2d_31">
      <g>
       <use style="stroke:#000000;stroke-width:0.8;" x="336.84731" xlink:href="#m31a9815c0d" y="247.298437"/>
      </g>
     </g>
     <g id="text_26">
      <!-- 0.2 -->
      <g transform="translate(313.944185 251.097656)scale(0.1 -0.1)">
       <use xlink:href="#DejaVuSans-48"/>
       <use x="63.623047" xlink:href="#DejaVuSans-46"/>
       <use x="95.410156" xlink:href="#DejaVuSans-50"/>
      </g>
     </g>
    </g>
    <g id="ytick_10">
     <g id="line2d_32">
      <path clip-path="url(#pd59a889418)" d="M 336.84731 201.998437 
L 579.456005 201.998437 
" style="fill:none;stroke:#b0b0b0;stroke-linecap:square;stroke-width:0.8;"/>
     </g>
     <g id="line2d_33">
      <g>
       <use style="stroke:#000000;stroke-width:0.8;" x="336.84731" xlink:href="#m31a9815c0d" y="201.998437"/>
      </g>
     </g>
     <g id="text_27">
      <!-- 0.4 -->
      <g transform="translate(313.944185 205.797656)scale(0.1 -0.1)">
       <use xlink:href="#DejaVuSans-48"/>
       <use x="63.623047" xlink:href="#DejaVuSans-46"/>
       <use x="95.410156" xlink:href="#DejaVuSans-52"/>
      </g>
     </g>
    </g>
    <g id="ytick_11">
     <g id="line2d_34">
      <path clip-path="url(#pd59a889418)" d="M 336.84731 156.698437 
L 579.456005 156.698437 
" style="fill:none;stroke:#b0b0b0;stroke-linecap:square;stroke-width:0.8;"/>
     </g>
     <g id="line2d_35">
      <g>
       <use style="stroke:#000000;stroke-width:0.8;" x="336.84731" xlink:href="#m31a9815c0d" y="156.698437"/>
      </g>
     </g>
     <g id="text_28">
      <!-- 0.6 -->
      <g transform="translate(313.944185 160.497656)scale(0.1 -0.1)">
       <use xlink:href="#DejaVuSans-48"/>
       <use x="63.623047" xlink:href="#DejaVuSans-46"/>
       <use x="95.410156" xlink:href="#DejaVuSans-54"/>
      </g>
     </g>
    </g>
    <g id="ytick_12">
     <g id="line2d_36">
      <path clip-path="url(#pd59a889418)" d="M 336.84731 111.398437 
L 579.456005 111.398437 
" style="fill:none;stroke:#b0b0b0;stroke-linecap:square;stroke-width:0.8;"/>
     </g>
     <g id="line2d_37">
      <g>
       <use style="stroke:#000000;stroke-width:0.8;" x="336.84731" xlink:href="#m31a9815c0d" y="111.398437"/>
      </g>
     </g>
     <g id="text_29">
      <!-- 0.8 -->
      <g transform="translate(313.944185 115.197656)scale(0.1 -0.1)">
       <use xlink:href="#DejaVuSans-48"/>
       <use x="63.623047" xlink:href="#DejaVuSans-46"/>
       <use x="95.410156" xlink:href="#DejaVuSans-56"/>
      </g>
     </g>
    </g>
    <g id="ytick_13">
     <g id="line2d_38">
      <path clip-path="url(#pd59a889418)" d="M 336.84731 66.098437 
L 579.456005 66.098437 
" style="fill:none;stroke:#b0b0b0;stroke-linecap:square;stroke-width:0.8;"/>
     </g>
     <g id="line2d_39">
      <g>
       <use style="stroke:#000000;stroke-width:0.8;" x="336.84731" xlink:href="#m31a9815c0d" y="66.098437"/>
      </g>
     </g>
     <g id="text_30">
      <!-- 1 -->
      <g transform="translate(323.48481 69.897656)scale(0.1 -0.1)">
       <use xlink:href="#DejaVuSans-49"/>
      </g>
     </g>
    </g>
    <g id="ytick_14">
     <g id="line2d_40">
      <path clip-path="url(#pd59a889418)" d="M 336.84731 20.798437 
L 579.456005 20.798437 
" style="fill:none;stroke:#b0b0b0;stroke-linecap:square;stroke-width:0.8;"/>
     </g>
     <g id="line2d_41">
      <g>
       <use style="stroke:#000000;stroke-width:0.8;" x="336.84731" xlink:href="#m31a9815c0d" y="20.798437"/>
      </g>
     </g>
    </g>
   </g>
   <g id="patch_23">
    <path clip-path="url(#pd59a889418)" d="M 346.629918 292.598437 
L 360.325571 292.598437 
L 360.325571 82.404318 
L 346.629918 82.404318 
z
" style="fill:#d3d3d3;stroke:#000000;stroke-linejoin:miter;"/>
   </g>
   <g id="patch_24">
    <path clip-path="url(#pd59a889418)" d="M 385.760353 292.598437 
L 399.456005 292.598437 
L 399.456005 75.581899 
L 385.760353 75.581899 
z
" style="fill:#d3d3d3;stroke:#000000;stroke-linejoin:miter;"/>
   </g>
   <g id="patch_25">
    <path clip-path="url(#pd59a889418)" d="M 424.890788 292.598437 
L 438.58644 292.598437 
L 438.58644 75.42337 
L 424.890788 75.42337 
z
" style="fill:#d3d3d3;stroke:#000000;stroke-linejoin:miter;"/>
   </g>
   <g id="patch_26">
    <path clip-path="url(#pd59a889418)" d="M 464.021223 292.598437 
L 477.716875 292.598437 
L 477.716875 87.540788 
L 464.021223 87.540788 
z
" style="fill:#d3d3d3;stroke:#000000;stroke-linejoin:miter;"/>
   </g>
   <g id="patch_27">
    <path clip-path="url(#pd59a889418)" d="M 503.151658 292.598437 
L 516.84731 292.598437 
L 516.84731 78.669357 
L 503.151658 78.669357 
z
" style="fill:#d3d3d3;stroke:#000000;stroke-linejoin:miter;"/>
   </g>
   <g id="patch_28">
    <path clip-path="url(#pd59a889418)" d="M 542.282092 292.598437 
L 555.977745 292.598437 
L 555.977745 77.030864 
L 542.282092 77.030864 
z
" style="fill:#d3d3d3;stroke:#000000;stroke-linejoin:miter;"/>
   </g>
   <g id="patch_29">
    <path clip-path="url(#pd59a889418)" d="M 360.325571 292.598437 
L 374.021223 292.598437 
L 374.021223 276.292557 
L 360.325571 276.292557 
z
" style="fill:#ffffff;stroke:#000000;stroke-linejoin:miter;"/>
   </g>
   <g id="patch_30">
    <path clip-path="url(#pd59a889418)" d="M 399.456005 292.598437 
L 413.151658 292.598437 
L 413.151658 283.114976 
L 399.456005 283.114976 
z
" style="fill:#ffffff;stroke:#000000;stroke-linejoin:miter;"/>
   </g>
   <g id="patch_31">
    <path clip-path="url(#pd59a889418)" d="M 438.58644 292.598437 
L 452.282092 292.598437 
L 452.282092 283.273505 
L 438.58644 283.273505 
z
" style="fill:#ffffff;stroke:#000000;stroke-linejoin:miter;"/>
   </g>
   <g id="patch_32">
    <path clip-path="url(#pd59a889418)" d="M 477.716875 292.598437 
L 491.412527 292.598437 
L 491.412527 271.156087 
L 477.716875 271.156087 
z
" style="fill:#ffffff;stroke:#000000;stroke-linejoin:miter;"/>
   </g>
   <g id="patch_33">
    <path clip-path="url(#pd59a889418)" d="M 516.84731 292.598437 
L 530.542962 292.598437 
L 530.542962 280.027518 
L 516.84731 280.027518 
z
" style="fill:#ffffff;stroke:#000000;stroke-linejoin:miter;"/>
   </g>
   <g id="patch_34">
    <path clip-path="url(#pd59a889418)" d="M 555.977745 292.598437 
L 569.673397 292.598437 
L 569.673397 281.666011 
L 555.977745 281.666011 
z
" style="fill:#ffffff;stroke:#000000;stroke-linejoin:miter;"/>
   </g>
   <g id="line2d_42">
    <path clip-path="url(#pd59a889418)" d="M 336.84731 87.540788 
L 579.456005 87.540788 
" style="fill:none;stroke:#1f77b4;stroke-linecap:square;stroke-opacity:0.8;stroke-width:1.5;"/>
   </g>
   <g id="patch_35">
    <path d="M 336.84731 292.598437 
L 336.84731 20.798437 
" style="fill:none;stroke:#000000;stroke-linecap:square;stroke-linejoin:miter;stroke-width:0.8;"/>
   </g>
   <g id="patch_36">
    <path d="M 579.456005 292.598437 
L 579.456005 20.798437 
" style="fill:none;stroke:#000000;stroke-linecap:square;stroke-linejoin:miter;stroke-width:0.8;"/>
   </g>
   <g id="patch_37">
    <path d="M 336.84731 292.598437 
L 579.456005 292.598437 
" style="fill:none;stroke:#000000;stroke-linecap:square;stroke-linejoin:miter;stroke-width:0.8;"/>
   </g>
   <g id="patch_38">
    <path d="M 336.84731 20.798437 
L 579.456005 20.798437 
" style="fill:none;stroke:#000000;stroke-linecap:square;stroke-linejoin:miter;stroke-width:0.8;"/>
   </g>
   <g id="text_31">
    <!-- number (n) of heads (h) per phrase function -->
    <g transform="translate(347.591501 14.798437)scale(0.1 -0.1)">
     <use xlink:href="#DejaVuSans-110"/>
     <use x="63.378906" xlink:href="#DejaVuSans-117"/>
     <use x="126.757812" xlink:href="#DejaVuSans-109"/>
     <use x="224.169922" xlink:href="#DejaVuSans-98"/>
     <use x="287.646484" xlink:href="#DejaVuSans-101"/>
     <use x="349.169922" xlink:href="#DejaVuSans-114"/>
     <use x="390.283203" xlink:href="#DejaVuSans-32"/>
     <use x="422.070312" xlink:href="#DejaVuSans-40"/>
     <use x="461.083984" xlink:href="#DejaVuSans-110"/>
     <use x="524.462891" xlink:href="#DejaVuSans-41"/>
     <use x="563.476562" xlink:href="#DejaVuSans-32"/>
     <use x="595.263672" xlink:href="#DejaVuSans-111"/>
     <use x="656.445312" xlink:href="#DejaVuSans-102"/>
     <use x="691.650391" xlink:href="#DejaVuSans-32"/>
     <use x="723.4375" xlink:href="#DejaVuSans-104"/>
     <use x="786.816406" xlink:href="#DejaVuSans-101"/>
     <use x="848.339844" xlink:href="#DejaVuSans-97"/>
     <use x="909.619141" xlink:href="#DejaVuSans-100"/>
     <use x="973.095703" xlink:href="#DejaVuSans-115"/>
     <use x="1025.195312" xlink:href="#DejaVuSans-32"/>
     <use x="1056.982422" xlink:href="#DejaVuSans-40"/>
     <use x="1095.996094" xlink:href="#DejaVuSans-104"/>
     <use x="1159.375" xlink:href="#DejaVuSans-41"/>
     <use x="1198.388672" xlink:href="#DejaVuSans-32"/>
     <use x="1230.175781" xlink:href="#DejaVuSans-112"/>
     <use x="1293.652344" xlink:href="#DejaVuSans-101"/>
     <use x="1355.175781" xlink:href="#DejaVuSans-114"/>
     <use x="1396.289062" xlink:href="#DejaVuSans-32"/>
     <use x="1428.076172" xlink:href="#DejaVuSans-112"/>
     <use x="1491.552734" xlink:href="#DejaVuSans-104"/>
     <use x="1554.931641" xlink:href="#DejaVuSans-114"/>
     <use x="1596.044922" xlink:href="#DejaVuSans-97"/>
     <use x="1657.324219" xlink:href="#DejaVuSans-115"/>
     <use x="1709.423828" xlink:href="#DejaVuSans-101"/>
     <use x="1770.947266" xlink:href="#DejaVuSans-32"/>
     <use x="1802.734375" xlink:href="#DejaVuSans-102"/>
     <use x="1837.939453" xlink:href="#DejaVuSans-117"/>
     <use x="1901.318359" xlink:href="#DejaVuSans-110"/>
     <use x="1964.697266" xlink:href="#DejaVuSans-99"/>
     <use x="2019.677734" xlink:href="#DejaVuSans-116"/>
     <use x="2058.886719" xlink:href="#DejaVuSans-105"/>
     <use x="2086.669922" xlink:href="#DejaVuSans-111"/>
     <use x="2147.851562" xlink:href="#DejaVuSans-110"/>
    </g>
   </g>
   <g id="legend_2">
    <g id="patch_39">
     <path d="M 506.682568 58.154687 
L 572.456005 58.154687 
Q 574.456005 58.154687 574.456005 56.154687 
L 574.456005 27.798437 
Q 574.456005 25.798437 572.456005 25.798437 
L 506.682568 25.798437 
Q 504.682568 25.798437 504.682568 27.798437 
L 504.682568 56.154687 
Q 504.682568 58.154687 506.682568 58.154687 
z
" style="fill:#ffffff;opacity:0.8;stroke:#cccccc;stroke-linejoin:miter;"/>
    </g>
    <g id="patch_40">
     <path d="M 508.682568 37.396875 
L 528.682568 37.396875 
L 528.682568 30.396875 
L 508.682568 30.396875 
z
" style="fill:#d3d3d3;stroke:#000000;stroke-linejoin:miter;"/>
    </g>
    <g id="text_32">
     <!-- nh = 1 -->
     <g transform="translate(536.682568 37.396875)scale(0.1 -0.1)">
      <use xlink:href="#DejaVuSans-110"/>
      <use x="63.378906" xlink:href="#DejaVuSans-104"/>
      <use x="126.757812" xlink:href="#DejaVuSans-32"/>
      <use x="158.544922" xlink:href="#DejaVuSans-61"/>
      <use x="242.333984" xlink:href="#DejaVuSans-32"/>
      <use x="274.121094" xlink:href="#DejaVuSans-49"/>
     </g>
    </g>
    <g id="patch_41">
     <path d="M 508.682568 52.075 
L 528.682568 52.075 
L 528.682568 45.075 
L 508.682568 45.075 
z
" style="fill:#ffffff;stroke:#000000;stroke-linejoin:miter;"/>
    </g>
    <g id="text_33">
     <!-- nh &gt; 1 -->
     <g transform="translate(536.682568 52.075)scale(0.1 -0.1)">
      <use xlink:href="#DejaVuSans-110"/>
      <use x="63.378906" xlink:href="#DejaVuSans-104"/>
      <use x="126.757812" xlink:href="#DejaVuSans-32"/>
      <use x="158.544922" xlink:href="#DejaVuSans-62"/>
      <use x="242.333984" xlink:href="#DejaVuSans-32"/>
      <use x="274.121094" xlink:href="#DejaVuSans-49"/>
     </g>
    </g>
   </g>
  </g>
  <g id="axes_3">
   <g id="patch_42">
    <path d="M 627.977745 292.598437 
L 870.58644 292.598437 
L 870.58644 20.798437 
L 627.977745 20.798437 
z
" style="fill:#ffffff;"/>
   </g>
   <g id="matplotlib.axis_5">
    <g id="xtick_13">
     <g id="line2d_43">
      <g>
       <use style="stroke:#000000;stroke-width:0.8;" x="651.456005" xlink:href="#ma2298a9859" y="292.598437"/>
      </g>
     </g>
     <g id="text_34">
      <!-- Adju -->
      <g transform="translate(654.767255 326.362188)rotate(-90)scale(0.12 -0.12)">
       <use xlink:href="#DejaVuSans-65"/>
       <use x="68.392578" xlink:href="#DejaVuSans-100"/>
       <use x="131.869141" xlink:href="#DejaVuSans-106"/>
       <use x="159.652344" xlink:href="#DejaVuSans-117"/>
      </g>
     </g>
    </g>
    <g id="xtick_14">
     <g id="line2d_44">
      <g>
       <use style="stroke:#000000;stroke-width:0.8;" x="690.58644" xlink:href="#ma2298a9859" y="292.598437"/>
      </g>
     </g>
     <g id="text_35">
      <!-- Cmpl -->
      <g transform="translate(693.89769 330.618437)rotate(-90)scale(0.12 -0.12)">
       <use xlink:href="#DejaVuSans-67"/>
       <use x="69.824219" xlink:href="#DejaVuSans-109"/>
       <use x="167.236328" xlink:href="#DejaVuSans-112"/>
       <use x="230.712891" xlink:href="#DejaVuSans-108"/>
      </g>
     </g>
    </g>
    <g id="xtick_15">
     <g id="line2d_45">
      <g>
       <use style="stroke:#000000;stroke-width:0.8;" x="729.716875" xlink:href="#ma2298a9859" y="292.598437"/>
      </g>
     </g>
     <g id="text_36">
      <!-- Loca -->
      <g transform="translate(733.028125 327.577187)rotate(-90)scale(0.12 -0.12)">
       <use xlink:href="#DejaVuSans-76"/>
       <use x="55.697266" xlink:href="#DejaVuSans-111"/>
       <use x="116.878906" xlink:href="#DejaVuSans-99"/>
       <use x="171.859375" xlink:href="#DejaVuSans-97"/>
      </g>
     </g>
    </g>
    <g id="xtick_16">
     <g id="line2d_46">
      <g>
       <use style="stroke:#000000;stroke-width:0.8;" x="768.84731" xlink:href="#ma2298a9859" y="292.598437"/>
      </g>
     </g>
     <g id="text_37">
      <!-- Objc -->
      <g transform="translate(772.15856 326.594687)rotate(-90)scale(0.12 -0.12)">
       <use xlink:href="#DejaVuSans-79"/>
       <use x="78.710938" xlink:href="#DejaVuSans-98"/>
       <use x="142.1875" xlink:href="#DejaVuSans-106"/>
       <use x="169.970703" xlink:href="#DejaVuSans-99"/>
      </g>
     </g>
    </g>
    <g id="xtick_17">
     <g id="line2d_47">
      <g>
       <use style="stroke:#000000;stroke-width:0.8;" x="807.977745" xlink:href="#ma2298a9859" y="292.598437"/>
      </g>
     </g>
     <g id="text_38">
      <!-- Subj -->
      <g transform="translate(811.288995 325.773438)rotate(-90)scale(0.12 -0.12)">
       <use xlink:href="#DejaVuSans-83"/>
       <use x="63.476562" xlink:href="#DejaVuSans-117"/>
       <use x="126.855469" xlink:href="#DejaVuSans-98"/>
       <use x="190.332031" xlink:href="#DejaVuSans-106"/>
      </g>
     </g>
    </g>
    <g id="xtick_18">
     <g id="line2d_48">
      <g>
       <use style="stroke:#000000;stroke-width:0.8;" x="847.108179" xlink:href="#ma2298a9859" y="292.598437"/>
      </g>
     </g>
     <g id="text_39">
      <!-- Time -->
      <g transform="translate(850.419429 329.328438)rotate(-90)scale(0.12 -0.12)">
       <use xlink:href="#DejaVuSans-84"/>
       <use x="61.037109" xlink:href="#DejaVuSans-105"/>
       <use x="88.820312" xlink:href="#DejaVuSans-109"/>
       <use x="186.232422" xlink:href="#DejaVuSans-101"/>
      </g>
     </g>
    </g>
    <g id="text_40">
     <!-- function -->
     <g transform="translate(728.857874 342.216875)scale(0.1 -0.1)">
      <use xlink:href="#DejaVuSans-102"/>
      <use x="35.205078" xlink:href="#DejaVuSans-117"/>
      <use x="98.583984" xlink:href="#DejaVuSans-110"/>
      <use x="161.962891" xlink:href="#DejaVuSans-99"/>
      <use x="216.943359" xlink:href="#DejaVuSans-116"/>
      <use x="256.152344" xlink:href="#DejaVuSans-105"/>
      <use x="283.935547" xlink:href="#DejaVuSans-111"/>
      <use x="345.117188" xlink:href="#DejaVuSans-110"/>
     </g>
    </g>
   </g>
   <g id="matplotlib.axis_6">
    <g id="ytick_15">
     <g id="line2d_49">
      <path clip-path="url(#p70fed96be3)" d="M 627.977745 292.598437 
L 870.58644 292.598437 
" style="fill:none;stroke:#b0b0b0;stroke-linecap:square;stroke-width:0.8;"/>
     </g>
     <g id="line2d_50">
      <g>
       <use style="stroke:#000000;stroke-width:0.8;" x="627.977745" xlink:href="#m31a9815c0d" y="292.598437"/>
      </g>
     </g>
     <g id="text_41">
      <!-- 0.0 -->
      <g transform="translate(605.07462 296.397656)scale(0.1 -0.1)">
       <use xlink:href="#DejaVuSans-48"/>
       <use x="63.623047" xlink:href="#DejaVuSans-46"/>
       <use x="95.410156" xlink:href="#DejaVuSans-48"/>
      </g>
     </g>
    </g>
    <g id="ytick_16">
     <g id="line2d_51">
      <path clip-path="url(#p70fed96be3)" d="M 627.977745 247.298437 
L 870.58644 247.298437 
" style="fill:none;stroke:#b0b0b0;stroke-linecap:square;stroke-width:0.8;"/>
     </g>
     <g id="line2d_52">
      <g>
       <use style="stroke:#000000;stroke-width:0.8;" x="627.977745" xlink:href="#m31a9815c0d" y="247.298437"/>
      </g>
     </g>
     <g id="text_42">
      <!-- 0.2 -->
      <g transform="translate(605.07462 251.097656)scale(0.1 -0.1)">
       <use xlink:href="#DejaVuSans-48"/>
       <use x="63.623047" xlink:href="#DejaVuSans-46"/>
       <use x="95.410156" xlink:href="#DejaVuSans-50"/>
      </g>
     </g>
    </g>
    <g id="ytick_17">
     <g id="line2d_53">
      <path clip-path="url(#p70fed96be3)" d="M 627.977745 201.998437 
L 870.58644 201.998437 
" style="fill:none;stroke:#b0b0b0;stroke-linecap:square;stroke-width:0.8;"/>
     </g>
     <g id="line2d_54">
      <g>
       <use style="stroke:#000000;stroke-width:0.8;" x="627.977745" xlink:href="#m31a9815c0d" y="201.998437"/>
      </g>
     </g>
     <g id="text_43">
      <!-- 0.4 -->
      <g transform="translate(605.07462 205.797656)scale(0.1 -0.1)">
       <use xlink:href="#DejaVuSans-48"/>
       <use x="63.623047" xlink:href="#DejaVuSans-46"/>
       <use x="95.410156" xlink:href="#DejaVuSans-52"/>
      </g>
     </g>
    </g>
    <g id="ytick_18">
     <g id="line2d_55">
      <path clip-path="url(#p70fed96be3)" d="M 627.977745 156.698437 
L 870.58644 156.698437 
" style="fill:none;stroke:#b0b0b0;stroke-linecap:square;stroke-width:0.8;"/>
     </g>
     <g id="line2d_56">
      <g>
       <use style="stroke:#000000;stroke-width:0.8;" x="627.977745" xlink:href="#m31a9815c0d" y="156.698437"/>
      </g>
     </g>
     <g id="text_44">
      <!-- 0.6 -->
      <g transform="translate(605.07462 160.497656)scale(0.1 -0.1)">
       <use xlink:href="#DejaVuSans-48"/>
       <use x="63.623047" xlink:href="#DejaVuSans-46"/>
       <use x="95.410156" xlink:href="#DejaVuSans-54"/>
      </g>
     </g>
    </g>
    <g id="ytick_19">
     <g id="line2d_57">
      <path clip-path="url(#p70fed96be3)" d="M 627.977745 111.398437 
L 870.58644 111.398437 
" style="fill:none;stroke:#b0b0b0;stroke-linecap:square;stroke-width:0.8;"/>
     </g>
     <g id="line2d_58">
      <g>
       <use style="stroke:#000000;stroke-width:0.8;" x="627.977745" xlink:href="#m31a9815c0d" y="111.398437"/>
      </g>
     </g>
     <g id="text_45">
      <!-- 0.8 -->
      <g transform="translate(605.07462 115.197656)scale(0.1 -0.1)">
       <use xlink:href="#DejaVuSans-48"/>
       <use x="63.623047" xlink:href="#DejaVuSans-46"/>
       <use x="95.410156" xlink:href="#DejaVuSans-56"/>
      </g>
     </g>
    </g>
    <g id="ytick_20">
     <g id="line2d_59">
      <path clip-path="url(#p70fed96be3)" d="M 627.977745 66.098437 
L 870.58644 66.098437 
" style="fill:none;stroke:#b0b0b0;stroke-linecap:square;stroke-width:0.8;"/>
     </g>
     <g id="line2d_60">
      <g>
       <use style="stroke:#000000;stroke-width:0.8;" x="627.977745" xlink:href="#m31a9815c0d" y="66.098437"/>
      </g>
     </g>
     <g id="text_46">
      <!-- 1 -->
      <g transform="translate(614.615245 69.897656)scale(0.1 -0.1)">
       <use xlink:href="#DejaVuSans-49"/>
      </g>
     </g>
    </g>
    <g id="ytick_21">
     <g id="line2d_61">
      <path clip-path="url(#p70fed96be3)" d="M 627.977745 20.798437 
L 870.58644 20.798437 
" style="fill:none;stroke:#b0b0b0;stroke-linecap:square;stroke-width:0.8;"/>
     </g>
     <g id="line2d_62">
      <g>
       <use style="stroke:#000000;stroke-width:0.8;" x="627.977745" xlink:href="#m31a9815c0d" y="20.798437"/>
      </g>
     </g>
    </g>
   </g>
   <g id="patch_43">
    <path clip-path="url(#p70fed96be3)" d="M 637.760353 292.598437 
L 651.456005 292.598437 
L 651.456005 74.576532 
L 637.760353 74.576532 
z
" style="fill:#d3d3d3;stroke:#000000;stroke-linejoin:miter;"/>
   </g>
   <g id="patch_44">
    <path clip-path="url(#p70fed96be3)" d="M 676.890788 292.598437 
L 690.58644 292.598437 
L 690.58644 74.10346 
L 676.890788 74.10346 
z
" style="fill:#d3d3d3;stroke:#000000;stroke-linejoin:miter;"/>
   </g>
   <g id="patch_45">
    <path clip-path="url(#p70fed96be3)" d="M 716.021223 292.598437 
L 729.716875 292.598437 
L 729.716875 78.124986 
L 716.021223 78.124986 
z
" style="fill:#d3d3d3;stroke:#000000;stroke-linejoin:miter;"/>
   </g>
   <g id="patch_46">
    <path clip-path="url(#p70fed96be3)" d="M 755.151658 292.598437 
L 768.84731 292.598437 
L 768.84731 79.15602 
L 755.151658 79.15602 
z
" style="fill:#d3d3d3;stroke:#000000;stroke-linejoin:miter;"/>
   </g>
   <g id="patch_47">
    <path clip-path="url(#p70fed96be3)" d="M 794.282092 292.598437 
L 807.977745 292.598437 
L 807.977745 75.418506 
L 794.282092 75.418506 
z
" style="fill:#d3d3d3;stroke:#000000;stroke-linejoin:miter;"/>
   </g>
   <g id="patch_48">
    <path clip-path="url(#p70fed96be3)" d="M 833.412527 292.598437 
L 847.108179 292.598437 
L 847.108179 69.825401 
L 833.412527 69.825401 
z
" style="fill:#d3d3d3;stroke:#000000;stroke-linejoin:miter;"/>
   </g>
   <g id="patch_49">
    <path clip-path="url(#p70fed96be3)" d="M 651.456005 292.598437 
L 665.151658 292.598437 
L 665.151658 284.120343 
L 651.456005 284.120343 
z
" style="fill:#ffffff;stroke:#000000;stroke-linejoin:miter;"/>
   </g>
   <g id="patch_50">
    <path clip-path="url(#p70fed96be3)" d="M 690.58644 292.598437 
L 704.282092 292.598437 
L 704.282092 284.593415 
L 690.58644 284.593415 
z
" style="fill:#ffffff;stroke:#000000;stroke-linejoin:miter;"/>
   </g>
   <g id="patch_51">
    <path clip-path="url(#p70fed96be3)" d="M 729.716875 292.598437 
L 743.412527 292.598437 
L 743.412527 280.571889 
L 729.716875 280.571889 
z
" style="fill:#ffffff;stroke:#000000;stroke-linejoin:miter;"/>
   </g>
   <g id="patch_52">
    <path clip-path="url(#p70fed96be3)" d="M 768.84731 292.598437 
L 782.542962 292.598437 
L 782.542962 279.540855 
L 768.84731 279.540855 
z
" style="fill:#ffffff;stroke:#000000;stroke-linejoin:miter;"/>
   </g>
   <g id="patch_53">
    <path clip-path="url(#p70fed96be3)" d="M 807.977745 292.598437 
L 821.673397 292.598437 
L 821.673397 283.278369 
L 807.977745 283.278369 
z
" style="fill:#ffffff;stroke:#000000;stroke-linejoin:miter;"/>
   </g>
   <g id="patch_54">
    <path clip-path="url(#p70fed96be3)" d="M 847.108179 292.598437 
L 860.803832 292.598437 
L 860.803832 288.871474 
L 847.108179 288.871474 
z
" style="fill:#ffffff;stroke:#000000;stroke-linejoin:miter;"/>
   </g>
   <g id="line2d_63">
    <path clip-path="url(#p70fed96be3)" d="M 627.977745 79.15602 
L 870.58644 79.15602 
" style="fill:none;stroke:#1f77b4;stroke-linecap:square;stroke-opacity:0.8;stroke-width:1.5;"/>
   </g>
   <g id="patch_55">
    <path d="M 627.977745 292.598437 
L 627.977745 20.798437 
" style="fill:none;stroke:#000000;stroke-linecap:square;stroke-linejoin:miter;stroke-width:0.8;"/>
   </g>
   <g id="patch_56">
    <path d="M 870.58644 292.598437 
L 870.58644 20.798437 
" style="fill:none;stroke:#000000;stroke-linecap:square;stroke-linejoin:miter;stroke-width:0.8;"/>
   </g>
   <g id="patch_57">
    <path d="M 627.977745 292.598437 
L 870.58644 292.598437 
" style="fill:none;stroke:#000000;stroke-linecap:square;stroke-linejoin:miter;stroke-width:0.8;"/>
   </g>
   <g id="patch_58">
    <path d="M 627.977745 20.798437 
L 870.58644 20.798437 
" style="fill:none;stroke:#000000;stroke-linecap:square;stroke-linejoin:miter;stroke-width:0.8;"/>
   </g>
   <g id="text_47">
    <!-- number (n) of external relations (r) per phrase function -->
    <defs>
     <path d="M 54.890625 54.6875 
L 35.109375 28.078125 
L 55.90625 0 
L 45.3125 0 
L 29.390625 21.484375 
L 13.484375 0 
L 2.875 0 
L 24.125 28.609375 
L 4.6875 54.6875 
L 15.28125 54.6875 
L 29.78125 35.203125 
L 44.28125 54.6875 
z
" id="DejaVuSans-120"/>
    </defs>
    <g transform="translate(610.820374 14.798437)scale(0.1 -0.1)">
     <use xlink:href="#DejaVuSans-110"/>
     <use x="63.378906" xlink:href="#DejaVuSans-117"/>
     <use x="126.757812" xlink:href="#DejaVuSans-109"/>
     <use x="224.169922" xlink:href="#DejaVuSans-98"/>
     <use x="287.646484" xlink:href="#DejaVuSans-101"/>
     <use x="349.169922" xlink:href="#DejaVuSans-114"/>
     <use x="390.283203" xlink:href="#DejaVuSans-32"/>
     <use x="422.070312" xlink:href="#DejaVuSans-40"/>
     <use x="461.083984" xlink:href="#DejaVuSans-110"/>
     <use x="524.462891" xlink:href="#DejaVuSans-41"/>
     <use x="563.476562" xlink:href="#DejaVuSans-32"/>
     <use x="595.263672" xlink:href="#DejaVuSans-111"/>
     <use x="656.445312" xlink:href="#DejaVuSans-102"/>
     <use x="691.650391" xlink:href="#DejaVuSans-32"/>
     <use x="723.4375" xlink:href="#DejaVuSans-101"/>
     <use x="784.945312" xlink:href="#DejaVuSans-120"/>
     <use x="844.125" xlink:href="#DejaVuSans-116"/>
     <use x="883.333984" xlink:href="#DejaVuSans-101"/>
     <use x="944.857422" xlink:href="#DejaVuSans-114"/>
     <use x="985.955078" xlink:href="#DejaVuSans-110"/>
     <use x="1049.333984" xlink:href="#DejaVuSans-97"/>
     <use x="1110.613281" xlink:href="#DejaVuSans-108"/>
     <use x="1138.396484" xlink:href="#DejaVuSans-32"/>
     <use x="1170.183594" xlink:href="#DejaVuSans-114"/>
     <use x="1211.265625" xlink:href="#DejaVuSans-101"/>
     <use x="1272.789062" xlink:href="#DejaVuSans-108"/>
     <use x="1300.572266" xlink:href="#DejaVuSans-97"/>
     <use x="1361.851562" xlink:href="#DejaVuSans-116"/>
     <use x="1401.060547" xlink:href="#DejaVuSans-105"/>
     <use x="1428.84375" xlink:href="#DejaVuSans-111"/>
     <use x="1490.025391" xlink:href="#DejaVuSans-110"/>
     <use x="1553.404297" xlink:href="#DejaVuSans-115"/>
     <use x="1605.503906" xlink:href="#DejaVuSans-32"/>
     <use x="1637.291016" xlink:href="#DejaVuSans-40"/>
     <use x="1676.304688" xlink:href="#DejaVuSans-114"/>
     <use x="1717.417969" xlink:href="#DejaVuSans-41"/>
     <use x="1756.431641" xlink:href="#DejaVuSans-32"/>
     <use x="1788.21875" xlink:href="#DejaVuSans-112"/>
     <use x="1851.695312" xlink:href="#DejaVuSans-101"/>
     <use x="1913.21875" xlink:href="#DejaVuSans-114"/>
     <use x="1954.332031" xlink:href="#DejaVuSans-32"/>
     <use x="1986.119141" xlink:href="#DejaVuSans-112"/>
     <use x="2049.595703" xlink:href="#DejaVuSans-104"/>
     <use x="2112.974609" xlink:href="#DejaVuSans-114"/>
     <use x="2154.087891" xlink:href="#DejaVuSans-97"/>
     <use x="2215.367188" xlink:href="#DejaVuSans-115"/>
     <use x="2267.466797" xlink:href="#DejaVuSans-101"/>
     <use x="2328.990234" xlink:href="#DejaVuSans-32"/>
     <use x="2360.777344" xlink:href="#DejaVuSans-102"/>
     <use x="2395.982422" xlink:href="#DejaVuSans-117"/>
     <use x="2459.361328" xlink:href="#DejaVuSans-110"/>
     <use x="2522.740234" xlink:href="#DejaVuSans-99"/>
     <use x="2577.720703" xlink:href="#DejaVuSans-116"/>
     <use x="2616.929688" xlink:href="#DejaVuSans-105"/>
     <use x="2644.712891" xlink:href="#DejaVuSans-111"/>
     <use x="2705.894531" xlink:href="#DejaVuSans-110"/>
    </g>
   </g>
   <g id="legend_3">
    <g id="patch_59">
     <path d="M 800.039565 58.154687 
L 863.58644 58.154687 
Q 865.58644 58.154687 865.58644 56.154687 
L 865.58644 27.798437 
Q 865.58644 25.798437 863.58644 25.798437 
L 800.039565 25.798437 
Q 798.039565 25.798437 798.039565 27.798437 
L 798.039565 56.154687 
Q 798.039565 58.154687 800.039565 58.154687 
z
" style="fill:#ffffff;opacity:0.8;stroke:#cccccc;stroke-linejoin:miter;"/>
    </g>
    <g id="patch_60">
     <path d="M 802.039565 37.396875 
L 822.039565 37.396875 
L 822.039565 30.396875 
L 802.039565 30.396875 
z
" style="fill:#d3d3d3;stroke:#000000;stroke-linejoin:miter;"/>
    </g>
    <g id="text_48">
     <!-- nr = 0 -->
     <g transform="translate(830.039565 37.396875)scale(0.1 -0.1)">
      <use xlink:href="#DejaVuSans-110"/>
      <use x="63.378906" xlink:href="#DejaVuSans-114"/>
      <use x="104.492188" xlink:href="#DejaVuSans-32"/>
      <use x="136.279297" xlink:href="#DejaVuSans-61"/>
      <use x="220.068359" xlink:href="#DejaVuSans-32"/>
      <use x="251.855469" xlink:href="#DejaVuSans-48"/>
     </g>
    </g>
    <g id="patch_61">
     <path d="M 802.039565 52.075 
L 822.039565 52.075 
L 822.039565 45.075 
L 802.039565 45.075 
z
" style="fill:#ffffff;stroke:#000000;stroke-linejoin:miter;"/>
    </g>
    <g id="text_49">
     <!-- nr &gt; 0 -->
     <g transform="translate(830.039565 52.075)scale(0.1 -0.1)">
      <use xlink:href="#DejaVuSans-110"/>
      <use x="63.378906" xlink:href="#DejaVuSans-114"/>
      <use x="104.492188" xlink:href="#DejaVuSans-32"/>
      <use x="136.279297" xlink:href="#DejaVuSans-62"/>
      <use x="220.068359" xlink:href="#DejaVuSans-32"/>
      <use x="251.855469" xlink:href="#DejaVuSans-48"/>
     </g>
    </g>
   </g>
  </g>
  <g id="axes_4">
   <g id="patch_62">
    <path d="M 919.108179 292.598437 
L 1161.716875 292.598437 
L 1161.716875 20.798437 
L 919.108179 20.798437 
z
" style="fill:#ffffff;"/>
   </g>
   <g id="matplotlib.axis_7">
    <g id="xtick_19">
     <g id="line2d_64">
      <g>
       <use style="stroke:#000000;stroke-width:0.8;" x="942.58644" xlink:href="#ma2298a9859" y="292.598437"/>
      </g>
     </g>
     <g id="text_50">
      <!-- Adju -->
      <g transform="translate(945.89769 326.362188)rotate(-90)scale(0.12 -0.12)">
       <use xlink:href="#DejaVuSans-65"/>
       <use x="68.392578" xlink:href="#DejaVuSans-100"/>
       <use x="131.869141" xlink:href="#DejaVuSans-106"/>
       <use x="159.652344" xlink:href="#DejaVuSans-117"/>
      </g>
     </g>
    </g>
    <g id="xtick_20">
     <g id="line2d_65">
      <g>
       <use style="stroke:#000000;stroke-width:0.8;" x="981.716875" xlink:href="#ma2298a9859" y="292.598437"/>
      </g>
     </g>
     <g id="text_51">
      <!-- Cmpl -->
      <g transform="translate(985.028125 330.618437)rotate(-90)scale(0.12 -0.12)">
       <use xlink:href="#DejaVuSans-67"/>
       <use x="69.824219" xlink:href="#DejaVuSans-109"/>
       <use x="167.236328" xlink:href="#DejaVuSans-112"/>
       <use x="230.712891" xlink:href="#DejaVuSans-108"/>
      </g>
     </g>
    </g>
    <g id="xtick_21">
     <g id="line2d_66">
      <g>
       <use style="stroke:#000000;stroke-width:0.8;" x="1020.84731" xlink:href="#ma2298a9859" y="292.598437"/>
      </g>
     </g>
     <g id="text_52">
      <!-- Loca -->
      <g transform="translate(1024.15856 327.577187)rotate(-90)scale(0.12 -0.12)">
       <use xlink:href="#DejaVuSans-76"/>
       <use x="55.697266" xlink:href="#DejaVuSans-111"/>
       <use x="116.878906" xlink:href="#DejaVuSans-99"/>
       <use x="171.859375" xlink:href="#DejaVuSans-97"/>
      </g>
     </g>
    </g>
    <g id="xtick_22">
     <g id="line2d_67">
      <g>
       <use style="stroke:#000000;stroke-width:0.8;" x="1059.977745" xlink:href="#ma2298a9859" y="292.598437"/>
      </g>
     </g>
     <g id="text_53">
      <!-- Objc -->
      <g transform="translate(1063.288995 326.594687)rotate(-90)scale(0.12 -0.12)">
       <use xlink:href="#DejaVuSans-79"/>
       <use x="78.710938" xlink:href="#DejaVuSans-98"/>
       <use x="142.1875" xlink:href="#DejaVuSans-106"/>
       <use x="169.970703" xlink:href="#DejaVuSans-99"/>
      </g>
     </g>
    </g>
    <g id="xtick_23">
     <g id="line2d_68">
      <g>
       <use style="stroke:#000000;stroke-width:0.8;" x="1099.108179" xlink:href="#ma2298a9859" y="292.598437"/>
      </g>
     </g>
     <g id="text_54">
      <!-- Subj -->
      <g transform="translate(1102.419429 325.773438)rotate(-90)scale(0.12 -0.12)">
       <use xlink:href="#DejaVuSans-83"/>
       <use x="63.476562" xlink:href="#DejaVuSans-117"/>
       <use x="126.855469" xlink:href="#DejaVuSans-98"/>
       <use x="190.332031" xlink:href="#DejaVuSans-106"/>
      </g>
     </g>
    </g>
    <g id="xtick_24">
     <g id="line2d_69">
      <g>
       <use style="stroke:#000000;stroke-width:0.8;" x="1138.238614" xlink:href="#ma2298a9859" y="292.598437"/>
      </g>
     </g>
     <g id="text_55">
      <!-- Time -->
      <g transform="translate(1141.549864 329.328438)rotate(-90)scale(0.12 -0.12)">
       <use xlink:href="#DejaVuSans-84"/>
       <use x="61.037109" xlink:href="#DejaVuSans-105"/>
       <use x="88.820312" xlink:href="#DejaVuSans-109"/>
       <use x="186.232422" xlink:href="#DejaVuSans-101"/>
      </g>
     </g>
    </g>
    <g id="text_56">
     <!-- function -->
     <g transform="translate(1019.988308 342.216875)scale(0.1 -0.1)">
      <use xlink:href="#DejaVuSans-102"/>
      <use x="35.205078" xlink:href="#DejaVuSans-117"/>
      <use x="98.583984" xlink:href="#DejaVuSans-110"/>
      <use x="161.962891" xlink:href="#DejaVuSans-99"/>
      <use x="216.943359" xlink:href="#DejaVuSans-116"/>
      <use x="256.152344" xlink:href="#DejaVuSans-105"/>
      <use x="283.935547" xlink:href="#DejaVuSans-111"/>
      <use x="345.117188" xlink:href="#DejaVuSans-110"/>
     </g>
    </g>
   </g>
   <g id="matplotlib.axis_8">
    <g id="ytick_22">
     <g id="line2d_70">
      <path clip-path="url(#pd577012035)" d="M 919.108179 292.598437 
L 1161.716875 292.598437 
" style="fill:none;stroke:#b0b0b0;stroke-linecap:square;stroke-width:0.8;"/>
     </g>
     <g id="line2d_71">
      <g>
       <use style="stroke:#000000;stroke-width:0.8;" x="919.108179" xlink:href="#m31a9815c0d" y="292.598437"/>
      </g>
     </g>
     <g id="text_57">
      <!-- 0.0 -->
      <g transform="translate(896.205054 296.397656)scale(0.1 -0.1)">
       <use xlink:href="#DejaVuSans-48"/>
       <use x="63.623047" xlink:href="#DejaVuSans-46"/>
       <use x="95.410156" xlink:href="#DejaVuSans-48"/>
      </g>
     </g>
    </g>
    <g id="ytick_23">
     <g id="line2d_72">
      <path clip-path="url(#pd577012035)" d="M 919.108179 247.298437 
L 1161.716875 247.298437 
" style="fill:none;stroke:#b0b0b0;stroke-linecap:square;stroke-width:0.8;"/>
     </g>
     <g id="line2d_73">
      <g>
       <use style="stroke:#000000;stroke-width:0.8;" x="919.108179" xlink:href="#m31a9815c0d" y="247.298437"/>
      </g>
     </g>
     <g id="text_58">
      <!-- 0.2 -->
      <g transform="translate(896.205054 251.097656)scale(0.1 -0.1)">
       <use xlink:href="#DejaVuSans-48"/>
       <use x="63.623047" xlink:href="#DejaVuSans-46"/>
       <use x="95.410156" xlink:href="#DejaVuSans-50"/>
      </g>
     </g>
    </g>
    <g id="ytick_24">
     <g id="line2d_74">
      <path clip-path="url(#pd577012035)" d="M 919.108179 201.998437 
L 1161.716875 201.998437 
" style="fill:none;stroke:#b0b0b0;stroke-linecap:square;stroke-width:0.8;"/>
     </g>
     <g id="line2d_75">
      <g>
       <use style="stroke:#000000;stroke-width:0.8;" x="919.108179" xlink:href="#m31a9815c0d" y="201.998437"/>
      </g>
     </g>
     <g id="text_59">
      <!-- 0.4 -->
      <g transform="translate(896.205054 205.797656)scale(0.1 -0.1)">
       <use xlink:href="#DejaVuSans-48"/>
       <use x="63.623047" xlink:href="#DejaVuSans-46"/>
       <use x="95.410156" xlink:href="#DejaVuSans-52"/>
      </g>
     </g>
    </g>
    <g id="ytick_25">
     <g id="line2d_76">
      <path clip-path="url(#pd577012035)" d="M 919.108179 156.698437 
L 1161.716875 156.698437 
" style="fill:none;stroke:#b0b0b0;stroke-linecap:square;stroke-width:0.8;"/>
     </g>
     <g id="line2d_77">
      <g>
       <use style="stroke:#000000;stroke-width:0.8;" x="919.108179" xlink:href="#m31a9815c0d" y="156.698437"/>
      </g>
     </g>
     <g id="text_60">
      <!-- 0.6 -->
      <g transform="translate(896.205054 160.497656)scale(0.1 -0.1)">
       <use xlink:href="#DejaVuSans-48"/>
       <use x="63.623047" xlink:href="#DejaVuSans-46"/>
       <use x="95.410156" xlink:href="#DejaVuSans-54"/>
      </g>
     </g>
    </g>
    <g id="ytick_26">
     <g id="line2d_78">
      <path clip-path="url(#pd577012035)" d="M 919.108179 111.398437 
L 1161.716875 111.398437 
" style="fill:none;stroke:#b0b0b0;stroke-linecap:square;stroke-width:0.8;"/>
     </g>
     <g id="line2d_79">
      <g>
       <use style="stroke:#000000;stroke-width:0.8;" x="919.108179" xlink:href="#m31a9815c0d" y="111.398437"/>
      </g>
     </g>
     <g id="text_61">
      <!-- 0.8 -->
      <g transform="translate(896.205054 115.197656)scale(0.1 -0.1)">
       <use xlink:href="#DejaVuSans-48"/>
       <use x="63.623047" xlink:href="#DejaVuSans-46"/>
       <use x="95.410156" xlink:href="#DejaVuSans-56"/>
      </g>
     </g>
    </g>
    <g id="ytick_27">
     <g id="line2d_80">
      <path clip-path="url(#pd577012035)" d="M 919.108179 66.098437 
L 1161.716875 66.098437 
" style="fill:none;stroke:#b0b0b0;stroke-linecap:square;stroke-width:0.8;"/>
     </g>
     <g id="line2d_81">
      <g>
       <use style="stroke:#000000;stroke-width:0.8;" x="919.108179" xlink:href="#m31a9815c0d" y="66.098437"/>
      </g>
     </g>
     <g id="text_62">
      <!-- 1 -->
      <g transform="translate(905.745679 69.897656)scale(0.1 -0.1)">
       <use xlink:href="#DejaVuSans-49"/>
      </g>
     </g>
    </g>
    <g id="ytick_28">
     <g id="line2d_82">
      <path clip-path="url(#pd577012035)" d="M 919.108179 20.798437 
L 1161.716875 20.798437 
" style="fill:none;stroke:#b0b0b0;stroke-linecap:square;stroke-width:0.8;"/>
     </g>
     <g id="line2d_83">
      <g>
       <use style="stroke:#000000;stroke-width:0.8;" x="919.108179" xlink:href="#m31a9815c0d" y="20.798437"/>
      </g>
     </g>
    </g>
   </g>
   <g id="patch_63">
    <path clip-path="url(#pd577012035)" d="M 928.890788 292.598437 
L 942.58644 292.598437 
L 942.58644 104.37029 
L 928.890788 104.37029 
z
" style="fill:#d3d3d3;stroke:#000000;stroke-linejoin:miter;"/>
   </g>
   <g id="patch_64">
    <path clip-path="url(#pd577012035)" d="M 968.021223 292.598437 
L 981.716875 292.598437 
L 981.716875 94.71735 
L 968.021223 94.71735 
z
" style="fill:#d3d3d3;stroke:#000000;stroke-linejoin:miter;"/>
   </g>
   <g id="patch_65">
    <path clip-path="url(#pd577012035)" d="M 1007.151658 292.598437 
L 1020.84731 292.598437 
L 1020.84731 103.659615 
L 1007.151658 103.659615 
z
" style="fill:#d3d3d3;stroke:#000000;stroke-linejoin:miter;"/>
   </g>
   <g id="patch_66">
    <path clip-path="url(#pd577012035)" d="M 1046.282092 292.598437 
L 1059.977745 292.598437 
L 1059.977745 109.832741 
L 1046.282092 109.832741 
z
" style="fill:#d3d3d3;stroke:#000000;stroke-linejoin:miter;"/>
   </g>
   <g id="patch_67">
    <path clip-path="url(#pd577012035)" d="M 1085.412527 292.598437 
L 1099.108179 292.598437 
L 1099.108179 103.948149 
L 1085.412527 103.948149 
z
" style="fill:#d3d3d3;stroke:#000000;stroke-linejoin:miter;"/>
   </g>
   <g id="patch_68">
    <path clip-path="url(#pd577012035)" d="M 1124.542962 292.598437 
L 1138.238614 292.598437 
L 1138.238614 94.473054 
L 1124.542962 94.473054 
z
" style="fill:#d3d3d3;stroke:#000000;stroke-linejoin:miter;"/>
   </g>
   <g id="patch_69">
    <path clip-path="url(#pd577012035)" d="M 942.58644 292.598437 
L 956.282092 292.598437 
L 956.282092 254.326585 
L 942.58644 254.326585 
z
" style="fill:#ffffff;stroke:#000000;stroke-linejoin:miter;"/>
   </g>
   <g id="patch_70">
    <path clip-path="url(#pd577012035)" d="M 981.716875 292.598437 
L 995.412527 292.598437 
L 995.412527 263.979525 
L 981.716875 263.979525 
z
" style="fill:#ffffff;stroke:#000000;stroke-linejoin:miter;"/>
   </g>
   <g id="patch_71">
    <path clip-path="url(#pd577012035)" d="M 1020.84731 292.598437 
L 1034.542962 292.598437 
L 1034.542962 255.03726 
L 1020.84731 255.03726 
z
" style="fill:#ffffff;stroke:#000000;stroke-linejoin:miter;"/>
   </g>
   <g id="patch_72">
    <path clip-path="url(#pd577012035)" d="M 1059.977745 292.598437 
L 1073.673397 292.598437 
L 1073.673397 248.864134 
L 1059.977745 248.864134 
z
" style="fill:#ffffff;stroke:#000000;stroke-linejoin:miter;"/>
   </g>
   <g id="patch_73">
    <path clip-path="url(#pd577012035)" d="M 1099.108179 292.598437 
L 1112.803832 292.598437 
L 1112.803832 254.748726 
L 1099.108179 254.748726 
z
" style="fill:#ffffff;stroke:#000000;stroke-linejoin:miter;"/>
   </g>
   <g id="patch_74">
    <path clip-path="url(#pd577012035)" d="M 1138.238614 292.598437 
L 1151.934266 292.598437 
L 1151.934266 264.223821 
L 1138.238614 264.223821 
z
" style="fill:#ffffff;stroke:#000000;stroke-linejoin:miter;"/>
   </g>
   <g id="line2d_84">
    <path clip-path="url(#pd577012035)" d="M 919.108179 109.832741 
L 1161.716875 109.832741 
" style="fill:none;stroke:#1f77b4;stroke-linecap:square;stroke-opacity:0.8;stroke-width:1.5;"/>
   </g>
   <g id="patch_75">
    <path d="M 919.108179 292.598437 
L 919.108179 20.798437 
" style="fill:none;stroke:#000000;stroke-linecap:square;stroke-linejoin:miter;stroke-width:0.8;"/>
   </g>
   <g id="patch_76">
    <path d="M 1161.716875 292.598437 
L 1161.716875 20.798437 
" style="fill:none;stroke:#000000;stroke-linecap:square;stroke-linejoin:miter;stroke-width:0.8;"/>
   </g>
   <g id="patch_77">
    <path d="M 919.108179 292.598437 
L 1161.716875 292.598437 
" style="fill:none;stroke:#000000;stroke-linecap:square;stroke-linejoin:miter;stroke-width:0.8;"/>
   </g>
   <g id="patch_78">
    <path d="M 919.108179 20.798437 
L 1161.716875 20.798437 
" style="fill:none;stroke:#000000;stroke-linecap:square;stroke-linejoin:miter;stroke-width:0.8;"/>
   </g>
   <g id="text_63">
    <!-- number of sample phrases parsed (y or n) -->
    <defs>
     <path d="M 32.171875 -5.078125 
Q 28.375 -14.84375 24.75 -17.8125 
Q 21.140625 -20.796875 15.09375 -20.796875 
L 7.90625 -20.796875 
L 7.90625 -13.28125 
L 13.1875 -13.28125 
Q 16.890625 -13.28125 18.9375 -11.515625 
Q 21 -9.765625 23.484375 -3.21875 
L 25.09375 0.875 
L 2.984375 54.6875 
L 12.5 54.6875 
L 29.59375 11.921875 
L 46.6875 54.6875 
L 56.203125 54.6875 
z
" id="DejaVuSans-121"/>
    </defs>
    <g transform="translate(934.734402 14.798437)scale(0.1 -0.1)">
     <use xlink:href="#DejaVuSans-110"/>
     <use x="63.378906" xlink:href="#DejaVuSans-117"/>
     <use x="126.757812" xlink:href="#DejaVuSans-109"/>
     <use x="224.169922" xlink:href="#DejaVuSans-98"/>
     <use x="287.646484" xlink:href="#DejaVuSans-101"/>
     <use x="349.169922" xlink:href="#DejaVuSans-114"/>
     <use x="390.283203" xlink:href="#DejaVuSans-32"/>
     <use x="422.070312" xlink:href="#DejaVuSans-111"/>
     <use x="483.251953" xlink:href="#DejaVuSans-102"/>
     <use x="518.457031" xlink:href="#DejaVuSans-32"/>
     <use x="550.244141" xlink:href="#DejaVuSans-115"/>
     <use x="602.34375" xlink:href="#DejaVuSans-97"/>
     <use x="663.623047" xlink:href="#DejaVuSans-109"/>
     <use x="761.035156" xlink:href="#DejaVuSans-112"/>
     <use x="824.511719" xlink:href="#DejaVuSans-108"/>
     <use x="852.294922" xlink:href="#DejaVuSans-101"/>
     <use x="913.818359" xlink:href="#DejaVuSans-32"/>
     <use x="945.605469" xlink:href="#DejaVuSans-112"/>
     <use x="1009.082031" xlink:href="#DejaVuSans-104"/>
     <use x="1072.460938" xlink:href="#DejaVuSans-114"/>
     <use x="1113.574219" xlink:href="#DejaVuSans-97"/>
     <use x="1174.853516" xlink:href="#DejaVuSans-115"/>
     <use x="1226.953125" xlink:href="#DejaVuSans-101"/>
     <use x="1288.476562" xlink:href="#DejaVuSans-115"/>
     <use x="1340.576172" xlink:href="#DejaVuSans-32"/>
     <use x="1372.363281" xlink:href="#DejaVuSans-112"/>
     <use x="1435.839844" xlink:href="#DejaVuSans-97"/>
     <use x="1497.119141" xlink:href="#DejaVuSans-114"/>
     <use x="1538.232422" xlink:href="#DejaVuSans-115"/>
     <use x="1590.332031" xlink:href="#DejaVuSans-101"/>
     <use x="1651.855469" xlink:href="#DejaVuSans-100"/>
     <use x="1715.332031" xlink:href="#DejaVuSans-32"/>
     <use x="1747.119141" xlink:href="#DejaVuSans-40"/>
     <use x="1786.132812" xlink:href="#DejaVuSans-121"/>
     <use x="1845.3125" xlink:href="#DejaVuSans-32"/>
     <use x="1877.099609" xlink:href="#DejaVuSans-111"/>
     <use x="1938.28125" xlink:href="#DejaVuSans-114"/>
     <use x="1979.394531" xlink:href="#DejaVuSans-32"/>
     <use x="2011.181641" xlink:href="#DejaVuSans-110"/>
     <use x="2074.560547" xlink:href="#DejaVuSans-41"/>
    </g>
   </g>
   <g id="legend_4">
    <g id="patch_79">
     <path d="M 1116.379375 58.154687 
L 1154.716875 58.154687 
Q 1156.716875 58.154687 1156.716875 56.154687 
L 1156.716875 27.798437 
Q 1156.716875 25.798437 1154.716875 25.798437 
L 1116.379375 25.798437 
Q 1114.379375 25.798437 1114.379375 27.798437 
L 1114.379375 56.154687 
Q 1114.379375 58.154687 1116.379375 58.154687 
z
" style="fill:#ffffff;opacity:0.8;stroke:#cccccc;stroke-linejoin:miter;"/>
    </g>
    <g id="patch_80">
     <path d="M 1118.379375 37.396875 
L 1138.379375 37.396875 
L 1138.379375 30.396875 
L 1118.379375 30.396875 
z
" style="fill:#d3d3d3;stroke:#000000;stroke-linejoin:miter;"/>
    </g>
    <g id="text_64">
     <!-- y -->
     <g transform="translate(1146.379375 37.396875)scale(0.1 -0.1)">
      <use xlink:href="#DejaVuSans-121"/>
     </g>
    </g>
    <g id="patch_81">
     <path d="M 1118.379375 52.075 
L 1138.379375 52.075 
L 1138.379375 45.075 
L 1118.379375 45.075 
z
" style="fill:#ffffff;stroke:#000000;stroke-linejoin:miter;"/>
    </g>
    <g id="text_65">
     <!-- n -->
     <g transform="translate(1146.379375 52.075)scale(0.1 -0.1)">
      <use xlink:href="#DejaVuSans-110"/>
     </g>
    </g>
   </g>
  </g>
 </g>
 <defs>
  <clipPath id="pcc0155b6ab">
   <rect height="271.8" width="242.608696" x="45.716875" y="20.798437"/>
  </clipPath>
  <clipPath id="pd59a889418">
   <rect height="271.8" width="242.608696" x="336.84731" y="20.798437"/>
  </clipPath>
  <clipPath id="p70fed96be3">
   <rect height="271.8" width="242.608696" x="627.977745" y="20.798437"/>
  </clipPath>
  <clipPath id="pd577012035">
   <rect height="271.8" width="242.608696" x="919.108179" y="20.798437"/>
  </clipPath>
 </defs>
</svg>
