<?xml version="1.0" encoding="utf-8" standalone="no"?>
<!DOCTYPE svg PUBLIC "-//W3C//DTD SVG 1.1//EN"
  "http://www.w3.org/Graphics/SVG/1.1/DTD/svg11.dtd">
<!-- Created with matplotlib (https://matplotlib.org/) -->
<svg height="494.754375pt" version="1.1" viewBox="0 0 1053.581648 494.754375" width="1053.581648pt" xmlns="http://www.w3.org/2000/svg" xmlns:xlink="http://www.w3.org/1999/xlink">
 <defs>
  <style type="text/css">
*{stroke-linecap:butt;stroke-linejoin:round;}
  </style>
 </defs>
 <g id="figure_1">
  <g id="patch_1">
   <path d="M -0 494.754375 
L 1053.581648 494.754375 
L 1053.581648 0 
L -0 0 
z
" style="fill:#ffffff;"/>
  </g>
  <g id="axes_1">
   <g id="patch_2">
    <path d="M 38.482813 457.198125 
L 495.028267 457.198125 
L 495.028267 22.318125 
L 38.482813 22.318125 
z
" style="fill:#ffffff;"/>
   </g>
   <g id="PathCollection_1">
    <defs>
     <path d="M 0 3.535534 
C 0.937635 3.535534 1.836992 3.163008 2.5 2.5 
C 3.163008 1.836992 3.535534 0.937635 3.535534 0 
C 3.535534 -0.937635 3.163008 -1.836992 2.5 -2.5 
C 1.836992 -3.163008 0.937635 -3.535534 0 -3.535534 
C -0.937635 -3.535534 -1.836992 -3.163008 -2.5 -2.5 
C -3.163008 -1.836992 -3.535534 -0.937635 -3.535534 0 
C -3.535534 0.937635 -3.163008 1.836992 -2.5 2.5 
C -1.836992 3.163008 -0.937635 3.535534 0 3.535534 
z
" id="C0_0_763bfe9f12"/>
    </defs>
    <g clip-path="url(#p7823fb7d99)">
     <use style="fill:none;stroke:#000000;stroke-opacity:0.75;stroke-width:1.5;" x="430.479279" xlink:href="#C0_0_763bfe9f12" y="225.600423"/>
    </g>
    <g clip-path="url(#p7823fb7d99)">
     <use style="fill:none;stroke:#000000;stroke-opacity:0.75;stroke-width:1.5;" x="415.016194" xlink:href="#C0_0_763bfe9f12" y="292.985717"/>
    </g>
    <g clip-path="url(#p7823fb7d99)">
     <use style="fill:none;stroke:#000000;stroke-opacity:0.75;stroke-width:1.5;" x="425.427675" xlink:href="#C0_0_763bfe9f12" y="206.815905"/>
    </g>
    <g clip-path="url(#p7823fb7d99)">
     <use style="fill:none;stroke:#000000;stroke-opacity:0.75;stroke-width:1.5;" x="83.374067" xlink:href="#C0_0_763bfe9f12" y="238.829202"/>
    </g>
    <g clip-path="url(#p7823fb7d99)">
     <use style="fill:none;stroke:#000000;stroke-opacity:0.75;stroke-width:1.5;" x="346.927737" xlink:href="#C0_0_763bfe9f12" y="155.312897"/>
    </g>
    <g clip-path="url(#p7823fb7d99)">
     <use style="fill:none;stroke:#000000;stroke-opacity:0.75;stroke-width:1.5;" x="421.356461" xlink:href="#C0_0_763bfe9f12" y="250.014198"/>
    </g>
    <g clip-path="url(#p7823fb7d99)">
     <use style="fill:none;stroke:#000000;stroke-opacity:0.75;stroke-width:1.5;" x="421.007099" xlink:href="#C0_0_763bfe9f12" y="73.797613"/>
    </g>
    <g clip-path="url(#p7823fb7d99)">
     <use style="fill:none;stroke:#000000;stroke-opacity:0.75;stroke-width:1.5;" x="461.249868" xlink:href="#C0_0_763bfe9f12" y="69.639741"/>
    </g>
    <g clip-path="url(#p7823fb7d99)">
     <use style="fill:none;stroke:#000000;stroke-opacity:0.75;stroke-width:1.5;" x="64.234538" xlink:href="#C0_0_763bfe9f12" y="236.102735"/>
    </g>
    <g clip-path="url(#p7823fb7d99)">
     <use style="fill:none;stroke:#000000;stroke-opacity:0.75;stroke-width:1.5;" x="64.234538" xlink:href="#C0_0_763bfe9f12" y="236.102735"/>
    </g>
    <g clip-path="url(#p7823fb7d99)">
     <use style="fill:none;stroke:#000000;stroke-opacity:0.75;stroke-width:1.5;" x="433.004275" xlink:href="#C0_0_763bfe9f12" y="242.038552"/>
    </g>
    <g clip-path="url(#p7823fb7d99)">
     <use style="fill:none;stroke:#000000;stroke-opacity:0.75;stroke-width:1.5;" x="64.234538" xlink:href="#C0_0_763bfe9f12" y="236.102735"/>
    </g>
    <g clip-path="url(#p7823fb7d99)">
     <use style="fill:none;stroke:#000000;stroke-opacity:0.75;stroke-width:1.5;" x="76.958071" xlink:href="#C0_0_763bfe9f12" y="239.677113"/>
    </g>
    <g clip-path="url(#p7823fb7d99)">
     <use style="fill:none;stroke:#000000;stroke-opacity:0.75;stroke-width:1.5;" x="414.617843" xlink:href="#C0_0_763bfe9f12" y="351.587402"/>
    </g>
    <g clip-path="url(#p7823fb7d99)">
     <use style="fill:none;stroke:#000000;stroke-opacity:0.75;stroke-width:1.5;" x="148.907631" xlink:href="#C0_0_763bfe9f12" y="247.58186"/>
    </g>
    <g clip-path="url(#p7823fb7d99)">
     <use style="fill:none;stroke:#000000;stroke-opacity:0.75;stroke-width:1.5;" x="439.399208" xlink:href="#C0_0_763bfe9f12" y="169.963693"/>
    </g>
    <g clip-path="url(#p7823fb7d99)">
     <use style="fill:none;stroke:#000000;stroke-opacity:0.75;stroke-width:1.5;" x="64.234538" xlink:href="#C0_0_763bfe9f12" y="236.102735"/>
    </g>
    <g clip-path="url(#p7823fb7d99)">
     <use style="fill:none;stroke:#000000;stroke-opacity:0.75;stroke-width:1.5;" x="64.234538" xlink:href="#C0_0_763bfe9f12" y="236.102735"/>
    </g>
    <g clip-path="url(#p7823fb7d99)">
     <use style="fill:none;stroke:#000000;stroke-opacity:0.75;stroke-width:1.5;" x="426.054355" xlink:href="#C0_0_763bfe9f12" y="434.867101"/>
    </g>
    <g clip-path="url(#p7823fb7d99)">
     <use style="fill:none;stroke:#000000;stroke-opacity:0.75;stroke-width:1.5;" x="64.234538" xlink:href="#C0_0_763bfe9f12" y="236.102735"/>
    </g>
    <g clip-path="url(#p7823fb7d99)">
     <use style="fill:none;stroke:#000000;stroke-opacity:0.75;stroke-width:1.5;" x="419.763537" xlink:href="#C0_0_763bfe9f12" y="299.982974"/>
    </g>
    <g clip-path="url(#p7823fb7d99)">
     <use style="fill:none;stroke:#000000;stroke-opacity:0.75;stroke-width:1.5;" x="387.834205" xlink:href="#C0_0_763bfe9f12" y="382.824391"/>
    </g>
    <g clip-path="url(#p7823fb7d99)">
     <use style="fill:none;stroke:#000000;stroke-opacity:0.75;stroke-width:1.5;" x="415.341834" xlink:href="#C0_0_763bfe9f12" y="406.319029"/>
    </g>
    <g clip-path="url(#p7823fb7d99)">
     <use style="fill:none;stroke:#000000;stroke-opacity:0.75;stroke-width:1.5;" x="415.341834" xlink:href="#C0_0_763bfe9f12" y="406.319029"/>
    </g>
    <g clip-path="url(#p7823fb7d99)">
     <use style="fill:none;stroke:#000000;stroke-opacity:0.75;stroke-width:1.5;" x="447.181397" xlink:href="#C0_0_763bfe9f12" y="215.427319"/>
    </g>
    <g clip-path="url(#p7823fb7d99)">
     <use style="fill:none;stroke:#000000;stroke-opacity:0.75;stroke-width:1.5;" x="414.724672" xlink:href="#C0_0_763bfe9f12" y="351.307364"/>
    </g>
    <g clip-path="url(#p7823fb7d99)">
     <use style="fill:none;stroke:#000000;stroke-opacity:0.75;stroke-width:1.5;" x="64.234538" xlink:href="#C0_0_763bfe9f12" y="236.102735"/>
    </g>
    <g clip-path="url(#p7823fb7d99)">
     <use style="fill:none;stroke:#000000;stroke-opacity:0.75;stroke-width:1.5;" x="435.888526" xlink:href="#C0_0_763bfe9f12" y="149.992363"/>
    </g>
    <g clip-path="url(#p7823fb7d99)">
     <use style="fill:none;stroke:#000000;stroke-opacity:0.75;stroke-width:1.5;" x="252.860379" xlink:href="#C0_0_763bfe9f12" y="284.894903"/>
    </g>
    <g clip-path="url(#p7823fb7d99)">
     <use style="fill:none;stroke:#000000;stroke-opacity:0.75;stroke-width:1.5;" x="417.665433" xlink:href="#C0_0_763bfe9f12" y="345.960188"/>
    </g>
    <g clip-path="url(#p7823fb7d99)">
     <use style="fill:none;stroke:#000000;stroke-opacity:0.75;stroke-width:1.5;" x="446.072233" xlink:href="#C0_0_763bfe9f12" y="215.370031"/>
    </g>
    <g clip-path="url(#p7823fb7d99)">
     <use style="fill:none;stroke:#000000;stroke-opacity:0.75;stroke-width:1.5;" x="471.651017" xlink:href="#C0_0_763bfe9f12" y="94.554751"/>
    </g>
    <g clip-path="url(#p7823fb7d99)">
     <use style="fill:none;stroke:#000000;stroke-opacity:0.75;stroke-width:1.5;" x="64.234538" xlink:href="#C0_0_763bfe9f12" y="236.102735"/>
    </g>
   </g>
   <g id="PathCollection_2">
    <defs>
     <path d="M -5 5 
L 5 -5 
M -5 -5 
L 5 5 
" id="mc3132d4cd3" style="stroke:#000000;stroke-opacity:0.75;stroke-width:1.5;"/>
    </defs>
    <g clip-path="url(#p7823fb7d99)">
     <use style="fill-opacity:0.75;stroke:#000000;stroke-opacity:0.75;stroke-width:1.5;" x="64.234538" xlink:href="#mc3132d4cd3" y="236.102735"/>
     <use style="fill-opacity:0.75;stroke:#000000;stroke-opacity:0.75;stroke-width:1.5;" x="64.234538" xlink:href="#mc3132d4cd3" y="236.102735"/>
    </g>
   </g>
   <g id="PathCollection_3">
    <path clip-path="url(#p7823fb7d99)" d="M 458.177542 41.769338 
L 453.177542 51.769338 
L 463.177542 51.769338 
z
" style="fill:none;stroke:#000000;stroke-opacity:0.75;stroke-width:1.5;"/>
   </g>
   <g id="PathCollection_4">
    <defs>
     <path d="M -5 0 
L 5 0 
M 0 5 
L 0 -5 
" id="m1805b1c532" style="stroke:#000000;stroke-opacity:0.75;stroke-width:1.5;"/>
    </defs>
    <g clip-path="url(#p7823fb7d99)">
     <use style="fill-opacity:0.75;stroke:#000000;stroke-opacity:0.75;stroke-width:1.5;" x="66.066386" xlink:href="#m1805b1c532" y="236.247436"/>
     <use style="fill-opacity:0.75;stroke:#000000;stroke-opacity:0.75;stroke-width:1.5;" x="67.06199" xlink:href="#m1805b1c532" y="236.897041"/>
     <use style="fill-opacity:0.75;stroke:#000000;stroke-opacity:0.75;stroke-width:1.5;" x="64.234538" xlink:href="#m1805b1c532" y="236.102735"/>
     <use style="fill-opacity:0.75;stroke:#000000;stroke-opacity:0.75;stroke-width:1.5;" x="64.234538" xlink:href="#m1805b1c532" y="236.102735"/>
     <use style="fill-opacity:0.75;stroke:#000000;stroke-opacity:0.75;stroke-width:1.5;" x="64.234538" xlink:href="#m1805b1c532" y="236.102735"/>
    </g>
   </g>
   <g id="matplotlib.axis_1">
    <g id="xtick_1">
     <g id="line2d_1">
      <defs>
       <path d="M 0 0 
L 0 3.5 
" id="md030a4f9b6" style="stroke:#000000;stroke-width:0.8;"/>
      </defs>
      <g>
       <use style="stroke:#000000;stroke-width:0.8;" x="62.323632" xlink:href="#md030a4f9b6" y="457.198125"/>
      </g>
     </g>
     <g id="text_1">
      <!-- −0.6 -->
      <defs>
       <path d="M 10.59375 35.5 
L 73.1875 35.5 
L 73.1875 27.203125 
L 10.59375 27.203125 
z
" id="DejaVuSans-8722"/>
       <path d="M 31.78125 66.40625 
Q 24.171875 66.40625 20.328125 58.90625 
Q 16.5 51.421875 16.5 36.375 
Q 16.5 21.390625 20.328125 13.890625 
Q 24.171875 6.390625 31.78125 6.390625 
Q 39.453125 6.390625 43.28125 13.890625 
Q 47.125 21.390625 47.125 36.375 
Q 47.125 51.421875 43.28125 58.90625 
Q 39.453125 66.40625 31.78125 66.40625 
z
M 31.78125 74.21875 
Q 44.046875 74.21875 50.515625 64.515625 
Q 56.984375 54.828125 56.984375 36.375 
Q 56.984375 17.96875 50.515625 8.265625 
Q 44.046875 -1.421875 31.78125 -1.421875 
Q 19.53125 -1.421875 13.0625 8.265625 
Q 6.59375 17.96875 6.59375 36.375 
Q 6.59375 54.828125 13.0625 64.515625 
Q 19.53125 74.21875 31.78125 74.21875 
z
" id="DejaVuSans-48"/>
       <path d="M 10.6875 12.40625 
L 21 12.40625 
L 21 0 
L 10.6875 0 
z
" id="DejaVuSans-46"/>
       <path d="M 33.015625 40.375 
Q 26.375 40.375 22.484375 35.828125 
Q 18.609375 31.296875 18.609375 23.390625 
Q 18.609375 15.53125 22.484375 10.953125 
Q 26.375 6.390625 33.015625 6.390625 
Q 39.65625 6.390625 43.53125 10.953125 
Q 47.40625 15.53125 47.40625 23.390625 
Q 47.40625 31.296875 43.53125 35.828125 
Q 39.65625 40.375 33.015625 40.375 
z
M 52.59375 71.296875 
L 52.59375 62.3125 
Q 48.875 64.0625 45.09375 64.984375 
Q 41.3125 65.921875 37.59375 65.921875 
Q 27.828125 65.921875 22.671875 59.328125 
Q 17.53125 52.734375 16.796875 39.40625 
Q 19.671875 43.65625 24.015625 45.921875 
Q 28.375 48.1875 33.59375 48.1875 
Q 44.578125 48.1875 50.953125 41.515625 
Q 57.328125 34.859375 57.328125 23.390625 
Q 57.328125 12.15625 50.6875 5.359375 
Q 44.046875 -1.421875 33.015625 -1.421875 
Q 20.359375 -1.421875 13.671875 8.265625 
Q 6.984375 17.96875 6.984375 36.375 
Q 6.984375 53.65625 15.1875 63.9375 
Q 23.390625 74.21875 37.203125 74.21875 
Q 40.921875 74.21875 44.703125 73.484375 
Q 48.484375 72.75 52.59375 71.296875 
z
" id="DejaVuSans-54"/>
      </defs>
      <g transform="translate(50.182226 471.796562)scale(0.1 -0.1)">
       <use xlink:href="#DejaVuSans-8722"/>
       <use x="83.789062" xlink:href="#DejaVuSans-48"/>
       <use x="147.412109" xlink:href="#DejaVuSans-46"/>
       <use x="179.199219" xlink:href="#DejaVuSans-54"/>
      </g>
     </g>
    </g>
    <g id="xtick_2">
     <g id="line2d_2">
      <g>
       <use style="stroke:#000000;stroke-width:0.8;" x="130.121931" xlink:href="#md030a4f9b6" y="457.198125"/>
      </g>
     </g>
     <g id="text_2">
      <!-- −0.4 -->
      <defs>
       <path d="M 37.796875 64.3125 
L 12.890625 25.390625 
L 37.796875 25.390625 
z
M 35.203125 72.90625 
L 47.609375 72.90625 
L 47.609375 25.390625 
L 58.015625 25.390625 
L 58.015625 17.1875 
L 47.609375 17.1875 
L 47.609375 0 
L 37.796875 0 
L 37.796875 17.1875 
L 4.890625 17.1875 
L 4.890625 26.703125 
z
" id="DejaVuSans-52"/>
      </defs>
      <g transform="translate(117.980525 471.796562)scale(0.1 -0.1)">
       <use xlink:href="#DejaVuSans-8722"/>
       <use x="83.789062" xlink:href="#DejaVuSans-48"/>
       <use x="147.412109" xlink:href="#DejaVuSans-46"/>
       <use x="179.199219" xlink:href="#DejaVuSans-52"/>
      </g>
     </g>
    </g>
    <g id="xtick_3">
     <g id="line2d_3">
      <g>
       <use style="stroke:#000000;stroke-width:0.8;" x="197.920231" xlink:href="#md030a4f9b6" y="457.198125"/>
      </g>
     </g>
     <g id="text_3">
      <!-- −0.2 -->
      <defs>
       <path d="M 19.1875 8.296875 
L 53.609375 8.296875 
L 53.609375 0 
L 7.328125 0 
L 7.328125 8.296875 
Q 12.9375 14.109375 22.625 23.890625 
Q 32.328125 33.6875 34.8125 36.53125 
Q 39.546875 41.84375 41.421875 45.53125 
Q 43.3125 49.21875 43.3125 52.78125 
Q 43.3125 58.59375 39.234375 62.25 
Q 35.15625 65.921875 28.609375 65.921875 
Q 23.96875 65.921875 18.8125 64.3125 
Q 13.671875 62.703125 7.8125 59.421875 
L 7.8125 69.390625 
Q 13.765625 71.78125 18.9375 73 
Q 24.125 74.21875 28.421875 74.21875 
Q 39.75 74.21875 46.484375 68.546875 
Q 53.21875 62.890625 53.21875 53.421875 
Q 53.21875 48.921875 51.53125 44.890625 
Q 49.859375 40.875 45.40625 35.40625 
Q 44.1875 33.984375 37.640625 27.21875 
Q 31.109375 20.453125 19.1875 8.296875 
z
" id="DejaVuSans-50"/>
      </defs>
      <g transform="translate(185.778825 471.796562)scale(0.1 -0.1)">
       <use xlink:href="#DejaVuSans-8722"/>
       <use x="83.789062" xlink:href="#DejaVuSans-48"/>
       <use x="147.412109" xlink:href="#DejaVuSans-46"/>
       <use x="179.199219" xlink:href="#DejaVuSans-50"/>
      </g>
     </g>
    </g>
    <g id="xtick_4">
     <g id="line2d_4">
      <g>
       <use style="stroke:#000000;stroke-width:0.8;" x="265.71853" xlink:href="#md030a4f9b6" y="457.198125"/>
      </g>
     </g>
     <g id="text_4">
      <!-- 0.0 -->
      <g transform="translate(257.766968 471.796562)scale(0.1 -0.1)">
       <use xlink:href="#DejaVuSans-48"/>
       <use x="63.623047" xlink:href="#DejaVuSans-46"/>
       <use x="95.410156" xlink:href="#DejaVuSans-48"/>
      </g>
     </g>
    </g>
    <g id="xtick_5">
     <g id="line2d_5">
      <g>
       <use style="stroke:#000000;stroke-width:0.8;" x="333.51683" xlink:href="#md030a4f9b6" y="457.198125"/>
      </g>
     </g>
     <g id="text_5">
      <!-- 0.2 -->
      <g transform="translate(325.565267 471.796562)scale(0.1 -0.1)">
       <use xlink:href="#DejaVuSans-48"/>
       <use x="63.623047" xlink:href="#DejaVuSans-46"/>
       <use x="95.410156" xlink:href="#DejaVuSans-50"/>
      </g>
     </g>
    </g>
    <g id="xtick_6">
     <g id="line2d_6">
      <g>
       <use style="stroke:#000000;stroke-width:0.8;" x="401.315129" xlink:href="#md030a4f9b6" y="457.198125"/>
      </g>
     </g>
     <g id="text_6">
      <!-- 0.4 -->
      <g transform="translate(393.363567 471.796562)scale(0.1 -0.1)">
       <use xlink:href="#DejaVuSans-48"/>
       <use x="63.623047" xlink:href="#DejaVuSans-46"/>
       <use x="95.410156" xlink:href="#DejaVuSans-52"/>
      </g>
     </g>
    </g>
    <g id="xtick_7">
     <g id="line2d_7">
      <g>
       <use style="stroke:#000000;stroke-width:0.8;" x="469.113429" xlink:href="#md030a4f9b6" y="457.198125"/>
      </g>
     </g>
     <g id="text_7">
      <!-- 0.6 -->
      <g transform="translate(461.161866 471.796562)scale(0.1 -0.1)">
       <use xlink:href="#DejaVuSans-48"/>
       <use x="63.623047" xlink:href="#DejaVuSans-46"/>
       <use x="95.410156" xlink:href="#DejaVuSans-54"/>
      </g>
     </g>
    </g>
   </g>
   <g id="matplotlib.axis_2">
    <g id="ytick_1">
     <g id="line2d_8">
      <defs>
       <path d="M 0 0 
L -3.5 0 
" id="m0d1722a935" style="stroke:#000000;stroke-width:0.8;"/>
      </defs>
      <g>
       <use style="stroke:#000000;stroke-width:0.8;" x="38.482813" xlink:href="#m0d1722a935" y="431.670231"/>
      </g>
     </g>
     <g id="text_8">
      <!-- −0.6 -->
      <g transform="translate(7.2 435.469449)scale(0.1 -0.1)">
       <use xlink:href="#DejaVuSans-8722"/>
       <use x="83.789062" xlink:href="#DejaVuSans-48"/>
       <use x="147.412109" xlink:href="#DejaVuSans-46"/>
       <use x="179.199219" xlink:href="#DejaVuSans-54"/>
      </g>
     </g>
    </g>
    <g id="ytick_2">
     <g id="line2d_9">
      <g>
       <use style="stroke:#000000;stroke-width:0.8;" x="38.482813" xlink:href="#m0d1722a935" y="368.600586"/>
      </g>
     </g>
     <g id="text_9">
      <!-- −0.4 -->
      <g transform="translate(7.2 372.399805)scale(0.1 -0.1)">
       <use xlink:href="#DejaVuSans-8722"/>
       <use x="83.789062" xlink:href="#DejaVuSans-48"/>
       <use x="147.412109" xlink:href="#DejaVuSans-46"/>
       <use x="179.199219" xlink:href="#DejaVuSans-52"/>
      </g>
     </g>
    </g>
    <g id="ytick_3">
     <g id="line2d_10">
      <g>
       <use style="stroke:#000000;stroke-width:0.8;" x="38.482813" xlink:href="#m0d1722a935" y="305.530941"/>
      </g>
     </g>
     <g id="text_10">
      <!-- −0.2 -->
      <g transform="translate(7.2 309.33016)scale(0.1 -0.1)">
       <use xlink:href="#DejaVuSans-8722"/>
       <use x="83.789062" xlink:href="#DejaVuSans-48"/>
       <use x="147.412109" xlink:href="#DejaVuSans-46"/>
       <use x="179.199219" xlink:href="#DejaVuSans-50"/>
      </g>
     </g>
    </g>
    <g id="ytick_4">
     <g id="line2d_11">
      <g>
       <use style="stroke:#000000;stroke-width:0.8;" x="38.482813" xlink:href="#m0d1722a935" y="242.461296"/>
      </g>
     </g>
     <g id="text_11">
      <!-- 0.0 -->
      <g transform="translate(15.579688 246.260515)scale(0.1 -0.1)">
       <use xlink:href="#DejaVuSans-48"/>
       <use x="63.623047" xlink:href="#DejaVuSans-46"/>
       <use x="95.410156" xlink:href="#DejaVuSans-48"/>
      </g>
     </g>
    </g>
    <g id="ytick_5">
     <g id="line2d_12">
      <g>
       <use style="stroke:#000000;stroke-width:0.8;" x="38.482813" xlink:href="#m0d1722a935" y="179.391651"/>
      </g>
     </g>
     <g id="text_12">
      <!-- 0.2 -->
      <g transform="translate(15.579688 183.19087)scale(0.1 -0.1)">
       <use xlink:href="#DejaVuSans-48"/>
       <use x="63.623047" xlink:href="#DejaVuSans-46"/>
       <use x="95.410156" xlink:href="#DejaVuSans-50"/>
      </g>
     </g>
    </g>
    <g id="ytick_6">
     <g id="line2d_13">
      <g>
       <use style="stroke:#000000;stroke-width:0.8;" x="38.482813" xlink:href="#m0d1722a935" y="116.322006"/>
      </g>
     </g>
     <g id="text_13">
      <!-- 0.4 -->
      <g transform="translate(15.579688 120.121225)scale(0.1 -0.1)">
       <use xlink:href="#DejaVuSans-48"/>
       <use x="63.623047" xlink:href="#DejaVuSans-46"/>
       <use x="95.410156" xlink:href="#DejaVuSans-52"/>
      </g>
     </g>
    </g>
    <g id="ytick_7">
     <g id="line2d_14">
      <g>
       <use style="stroke:#000000;stroke-width:0.8;" x="38.482813" xlink:href="#m0d1722a935" y="53.252361"/>
      </g>
     </g>
     <g id="text_14">
      <!-- 0.6 -->
      <g transform="translate(15.579688 57.05158)scale(0.1 -0.1)">
       <use xlink:href="#DejaVuSans-48"/>
       <use x="63.623047" xlink:href="#DejaVuSans-46"/>
       <use x="95.410156" xlink:href="#DejaVuSans-54"/>
      </g>
     </g>
    </g>
   </g>
   <g id="line2d_15">
    <path clip-path="url(#p7823fb7d99)" d="M 38.482813 242.461296 
L 495.028267 242.461296 
" style="fill:none;stroke:#000000;stroke-linecap:square;stroke-width:0.5;"/>
   </g>
   <g id="line2d_16">
    <path clip-path="url(#p7823fb7d99)" d="M 265.71853 457.198125 
L 265.71853 22.318125 
" style="fill:none;stroke:#000000;stroke-linecap:square;stroke-width:0.5;"/>
   </g>
   <g id="patch_3">
    <path d="M 38.482813 457.198125 
L 38.482813 22.318125 
" style="fill:none;stroke:#000000;stroke-linecap:square;stroke-linejoin:miter;stroke-width:0.8;"/>
   </g>
   <g id="patch_4">
    <path d="M 495.028267 457.198125 
L 495.028267 22.318125 
" style="fill:none;stroke:#000000;stroke-linecap:square;stroke-linejoin:miter;stroke-width:0.8;"/>
   </g>
   <g id="patch_5">
    <path d="M 38.482813 457.198125 
L 495.028267 457.198125 
" style="fill:none;stroke:#000000;stroke-linecap:square;stroke-linejoin:miter;stroke-width:0.8;"/>
   </g>
   <g id="patch_6">
    <path d="M 38.482813 22.318125 
L 495.028267 22.318125 
" style="fill:none;stroke:#000000;stroke-linecap:square;stroke-linejoin:miter;stroke-width:0.8;"/>
   </g>
   <g id="text_15">
    <!-- PCA analysis of head collocations (exact coordinates) -->
    <defs>
     <path d="M 19.671875 64.796875 
L 19.671875 37.40625 
L 32.078125 37.40625 
Q 38.96875 37.40625 42.71875 40.96875 
Q 46.484375 44.53125 46.484375 51.125 
Q 46.484375 57.671875 42.71875 61.234375 
Q 38.96875 64.796875 32.078125 64.796875 
z
M 9.8125 72.90625 
L 32.078125 72.90625 
Q 44.34375 72.90625 50.609375 67.359375 
Q 56.890625 61.8125 56.890625 51.125 
Q 56.890625 40.328125 50.609375 34.8125 
Q 44.34375 29.296875 32.078125 29.296875 
L 19.671875 29.296875 
L 19.671875 0 
L 9.8125 0 
z
" id="DejaVuSans-80"/>
     <path d="M 64.40625 67.28125 
L 64.40625 56.890625 
Q 59.421875 61.53125 53.78125 63.8125 
Q 48.140625 66.109375 41.796875 66.109375 
Q 29.296875 66.109375 22.65625 58.46875 
Q 16.015625 50.828125 16.015625 36.375 
Q 16.015625 21.96875 22.65625 14.328125 
Q 29.296875 6.6875 41.796875 6.6875 
Q 48.140625 6.6875 53.78125 8.984375 
Q 59.421875 11.28125 64.40625 15.921875 
L 64.40625 5.609375 
Q 59.234375 2.09375 53.4375 0.328125 
Q 47.65625 -1.421875 41.21875 -1.421875 
Q 24.65625 -1.421875 15.125 8.703125 
Q 5.609375 18.84375 5.609375 36.375 
Q 5.609375 53.953125 15.125 64.078125 
Q 24.65625 74.21875 41.21875 74.21875 
Q 47.75 74.21875 53.53125 72.484375 
Q 59.328125 70.75 64.40625 67.28125 
z
" id="DejaVuSans-67"/>
     <path d="M 34.1875 63.1875 
L 20.796875 26.90625 
L 47.609375 26.90625 
z
M 28.609375 72.90625 
L 39.796875 72.90625 
L 67.578125 0 
L 57.328125 0 
L 50.6875 18.703125 
L 17.828125 18.703125 
L 11.1875 0 
L 0.78125 0 
z
" id="DejaVuSans-65"/>
     <path id="DejaVuSans-32"/>
     <path d="M 34.28125 27.484375 
Q 23.390625 27.484375 19.1875 25 
Q 14.984375 22.515625 14.984375 16.5 
Q 14.984375 11.71875 18.140625 8.90625 
Q 21.296875 6.109375 26.703125 6.109375 
Q 34.1875 6.109375 38.703125 11.40625 
Q 43.21875 16.703125 43.21875 25.484375 
L 43.21875 27.484375 
z
M 52.203125 31.203125 
L 52.203125 0 
L 43.21875 0 
L 43.21875 8.296875 
Q 40.140625 3.328125 35.546875 0.953125 
Q 30.953125 -1.421875 24.3125 -1.421875 
Q 15.921875 -1.421875 10.953125 3.296875 
Q 6 8.015625 6 15.921875 
Q 6 25.140625 12.171875 29.828125 
Q 18.359375 34.515625 30.609375 34.515625 
L 43.21875 34.515625 
L 43.21875 35.40625 
Q 43.21875 41.609375 39.140625 45 
Q 35.0625 48.390625 27.6875 48.390625 
Q 23 48.390625 18.546875 47.265625 
Q 14.109375 46.140625 10.015625 43.890625 
L 10.015625 52.203125 
Q 14.9375 54.109375 19.578125 55.046875 
Q 24.21875 56 28.609375 56 
Q 40.484375 56 46.34375 49.84375 
Q 52.203125 43.703125 52.203125 31.203125 
z
" id="DejaVuSans-97"/>
     <path d="M 54.890625 33.015625 
L 54.890625 0 
L 45.90625 0 
L 45.90625 32.71875 
Q 45.90625 40.484375 42.875 44.328125 
Q 39.84375 48.1875 33.796875 48.1875 
Q 26.515625 48.1875 22.3125 43.546875 
Q 18.109375 38.921875 18.109375 30.90625 
L 18.109375 0 
L 9.078125 0 
L 9.078125 54.6875 
L 18.109375 54.6875 
L 18.109375 46.1875 
Q 21.34375 51.125 25.703125 53.5625 
Q 30.078125 56 35.796875 56 
Q 45.21875 56 50.046875 50.171875 
Q 54.890625 44.34375 54.890625 33.015625 
z
" id="DejaVuSans-110"/>
     <path d="M 9.421875 75.984375 
L 18.40625 75.984375 
L 18.40625 0 
L 9.421875 0 
z
" id="DejaVuSans-108"/>
     <path d="M 32.171875 -5.078125 
Q 28.375 -14.84375 24.75 -17.8125 
Q 21.140625 -20.796875 15.09375 -20.796875 
L 7.90625 -20.796875 
L 7.90625 -13.28125 
L 13.1875 -13.28125 
Q 16.890625 -13.28125 18.9375 -11.515625 
Q 21 -9.765625 23.484375 -3.21875 
L 25.09375 0.875 
L 2.984375 54.6875 
L 12.5 54.6875 
L 29.59375 11.921875 
L 46.6875 54.6875 
L 56.203125 54.6875 
z
" id="DejaVuSans-121"/>
     <path d="M 44.28125 53.078125 
L 44.28125 44.578125 
Q 40.484375 46.53125 36.375 47.5 
Q 32.28125 48.484375 27.875 48.484375 
Q 21.1875 48.484375 17.84375 46.4375 
Q 14.5 44.390625 14.5 40.28125 
Q 14.5 37.15625 16.890625 35.375 
Q 19.28125 33.59375 26.515625 31.984375 
L 29.59375 31.296875 
Q 39.15625 29.25 43.1875 25.515625 
Q 47.21875 21.78125 47.21875 15.09375 
Q 47.21875 7.46875 41.1875 3.015625 
Q 35.15625 -1.421875 24.609375 -1.421875 
Q 20.21875 -1.421875 15.453125 -0.5625 
Q 10.6875 0.296875 5.421875 2 
L 5.421875 11.28125 
Q 10.40625 8.6875 15.234375 7.390625 
Q 20.0625 6.109375 24.8125 6.109375 
Q 31.15625 6.109375 34.5625 8.28125 
Q 37.984375 10.453125 37.984375 14.40625 
Q 37.984375 18.0625 35.515625 20.015625 
Q 33.0625 21.96875 24.703125 23.78125 
L 21.578125 24.515625 
Q 13.234375 26.265625 9.515625 29.90625 
Q 5.8125 33.546875 5.8125 39.890625 
Q 5.8125 47.609375 11.28125 51.796875 
Q 16.75 56 26.8125 56 
Q 31.78125 56 36.171875 55.265625 
Q 40.578125 54.546875 44.28125 53.078125 
z
" id="DejaVuSans-115"/>
     <path d="M 9.421875 54.6875 
L 18.40625 54.6875 
L 18.40625 0 
L 9.421875 0 
z
M 9.421875 75.984375 
L 18.40625 75.984375 
L 18.40625 64.59375 
L 9.421875 64.59375 
z
" id="DejaVuSans-105"/>
     <path d="M 30.609375 48.390625 
Q 23.390625 48.390625 19.1875 42.75 
Q 14.984375 37.109375 14.984375 27.296875 
Q 14.984375 17.484375 19.15625 11.84375 
Q 23.34375 6.203125 30.609375 6.203125 
Q 37.796875 6.203125 41.984375 11.859375 
Q 46.1875 17.53125 46.1875 27.296875 
Q 46.1875 37.015625 41.984375 42.703125 
Q 37.796875 48.390625 30.609375 48.390625 
z
M 30.609375 56 
Q 42.328125 56 49.015625 48.375 
Q 55.71875 40.765625 55.71875 27.296875 
Q 55.71875 13.875 49.015625 6.21875 
Q 42.328125 -1.421875 30.609375 -1.421875 
Q 18.84375 -1.421875 12.171875 6.21875 
Q 5.515625 13.875 5.515625 27.296875 
Q 5.515625 40.765625 12.171875 48.375 
Q 18.84375 56 30.609375 56 
z
" id="DejaVuSans-111"/>
     <path d="M 37.109375 75.984375 
L 37.109375 68.5 
L 28.515625 68.5 
Q 23.6875 68.5 21.796875 66.546875 
Q 19.921875 64.59375 19.921875 59.515625 
L 19.921875 54.6875 
L 34.71875 54.6875 
L 34.71875 47.703125 
L 19.921875 47.703125 
L 19.921875 0 
L 10.890625 0 
L 10.890625 47.703125 
L 2.296875 47.703125 
L 2.296875 54.6875 
L 10.890625 54.6875 
L 10.890625 58.5 
Q 10.890625 67.625 15.140625 71.796875 
Q 19.390625 75.984375 28.609375 75.984375 
z
" id="DejaVuSans-102"/>
     <path d="M 54.890625 33.015625 
L 54.890625 0 
L 45.90625 0 
L 45.90625 32.71875 
Q 45.90625 40.484375 42.875 44.328125 
Q 39.84375 48.1875 33.796875 48.1875 
Q 26.515625 48.1875 22.3125 43.546875 
Q 18.109375 38.921875 18.109375 30.90625 
L 18.109375 0 
L 9.078125 0 
L 9.078125 75.984375 
L 18.109375 75.984375 
L 18.109375 46.1875 
Q 21.34375 51.125 25.703125 53.5625 
Q 30.078125 56 35.796875 56 
Q 45.21875 56 50.046875 50.171875 
Q 54.890625 44.34375 54.890625 33.015625 
z
" id="DejaVuSans-104"/>
     <path d="M 56.203125 29.59375 
L 56.203125 25.203125 
L 14.890625 25.203125 
Q 15.484375 15.921875 20.484375 11.0625 
Q 25.484375 6.203125 34.421875 6.203125 
Q 39.59375 6.203125 44.453125 7.46875 
Q 49.3125 8.734375 54.109375 11.28125 
L 54.109375 2.78125 
Q 49.265625 0.734375 44.1875 -0.34375 
Q 39.109375 -1.421875 33.890625 -1.421875 
Q 20.796875 -1.421875 13.15625 6.1875 
Q 5.515625 13.8125 5.515625 26.8125 
Q 5.515625 40.234375 12.765625 48.109375 
Q 20.015625 56 32.328125 56 
Q 43.359375 56 49.78125 48.890625 
Q 56.203125 41.796875 56.203125 29.59375 
z
M 47.21875 32.234375 
Q 47.125 39.59375 43.09375 43.984375 
Q 39.0625 48.390625 32.421875 48.390625 
Q 24.90625 48.390625 20.390625 44.140625 
Q 15.875 39.890625 15.1875 32.171875 
z
" id="DejaVuSans-101"/>
     <path d="M 45.40625 46.390625 
L 45.40625 75.984375 
L 54.390625 75.984375 
L 54.390625 0 
L 45.40625 0 
L 45.40625 8.203125 
Q 42.578125 3.328125 38.25 0.953125 
Q 33.9375 -1.421875 27.875 -1.421875 
Q 17.96875 -1.421875 11.734375 6.484375 
Q 5.515625 14.40625 5.515625 27.296875 
Q 5.515625 40.1875 11.734375 48.09375 
Q 17.96875 56 27.875 56 
Q 33.9375 56 38.25 53.625 
Q 42.578125 51.265625 45.40625 46.390625 
z
M 14.796875 27.296875 
Q 14.796875 17.390625 18.875 11.75 
Q 22.953125 6.109375 30.078125 6.109375 
Q 37.203125 6.109375 41.296875 11.75 
Q 45.40625 17.390625 45.40625 27.296875 
Q 45.40625 37.203125 41.296875 42.84375 
Q 37.203125 48.484375 30.078125 48.484375 
Q 22.953125 48.484375 18.875 42.84375 
Q 14.796875 37.203125 14.796875 27.296875 
z
" id="DejaVuSans-100"/>
     <path d="M 48.78125 52.59375 
L 48.78125 44.1875 
Q 44.96875 46.296875 41.140625 47.34375 
Q 37.3125 48.390625 33.40625 48.390625 
Q 24.65625 48.390625 19.8125 42.84375 
Q 14.984375 37.3125 14.984375 27.296875 
Q 14.984375 17.28125 19.8125 11.734375 
Q 24.65625 6.203125 33.40625 6.203125 
Q 37.3125 6.203125 41.140625 7.25 
Q 44.96875 8.296875 48.78125 10.40625 
L 48.78125 2.09375 
Q 45.015625 0.34375 40.984375 -0.53125 
Q 36.96875 -1.421875 32.421875 -1.421875 
Q 20.0625 -1.421875 12.78125 6.34375 
Q 5.515625 14.109375 5.515625 27.296875 
Q 5.515625 40.671875 12.859375 48.328125 
Q 20.21875 56 33.015625 56 
Q 37.15625 56 41.109375 55.140625 
Q 45.0625 54.296875 48.78125 52.59375 
z
" id="DejaVuSans-99"/>
     <path d="M 18.3125 70.21875 
L 18.3125 54.6875 
L 36.8125 54.6875 
L 36.8125 47.703125 
L 18.3125 47.703125 
L 18.3125 18.015625 
Q 18.3125 11.328125 20.140625 9.421875 
Q 21.96875 7.515625 27.59375 7.515625 
L 36.8125 7.515625 
L 36.8125 0 
L 27.59375 0 
Q 17.1875 0 13.234375 3.875 
Q 9.28125 7.765625 9.28125 18.015625 
L 9.28125 47.703125 
L 2.6875 47.703125 
L 2.6875 54.6875 
L 9.28125 54.6875 
L 9.28125 70.21875 
z
" id="DejaVuSans-116"/>
     <path d="M 31 75.875 
Q 24.46875 64.65625 21.28125 53.65625 
Q 18.109375 42.671875 18.109375 31.390625 
Q 18.109375 20.125 21.3125 9.0625 
Q 24.515625 -2 31 -13.1875 
L 23.1875 -13.1875 
Q 15.875 -1.703125 12.234375 9.375 
Q 8.59375 20.453125 8.59375 31.390625 
Q 8.59375 42.28125 12.203125 53.3125 
Q 15.828125 64.359375 23.1875 75.875 
z
" id="DejaVuSans-40"/>
     <path d="M 54.890625 54.6875 
L 35.109375 28.078125 
L 55.90625 0 
L 45.3125 0 
L 29.390625 21.484375 
L 13.484375 0 
L 2.875 0 
L 24.125 28.609375 
L 4.6875 54.6875 
L 15.28125 54.6875 
L 29.78125 35.203125 
L 44.28125 54.6875 
z
" id="DejaVuSans-120"/>
     <path d="M 41.109375 46.296875 
Q 39.59375 47.171875 37.8125 47.578125 
Q 36.03125 48 33.890625 48 
Q 26.265625 48 22.1875 43.046875 
Q 18.109375 38.09375 18.109375 28.8125 
L 18.109375 0 
L 9.078125 0 
L 9.078125 54.6875 
L 18.109375 54.6875 
L 18.109375 46.1875 
Q 20.953125 51.171875 25.484375 53.578125 
Q 30.03125 56 36.53125 56 
Q 37.453125 56 38.578125 55.875 
Q 39.703125 55.765625 41.0625 55.515625 
z
" id="DejaVuSans-114"/>
     <path d="M 8.015625 75.875 
L 15.828125 75.875 
Q 23.140625 64.359375 26.78125 53.3125 
Q 30.421875 42.28125 30.421875 31.390625 
Q 30.421875 20.453125 26.78125 9.375 
Q 23.140625 -1.703125 15.828125 -13.1875 
L 8.015625 -13.1875 
Q 14.5 -2 17.703125 9.0625 
Q 20.90625 20.125 20.90625 31.390625 
Q 20.90625 42.671875 17.703125 53.65625 
Q 14.5 64.65625 8.015625 75.875 
z
" id="DejaVuSans-41"/>
    </defs>
    <g transform="translate(106.292102 16.318125)scale(0.12 -0.12)">
     <use xlink:href="#DejaVuSans-80"/>
     <use x="60.302734" xlink:href="#DejaVuSans-67"/>
     <use x="130.126953" xlink:href="#DejaVuSans-65"/>
     <use x="198.535156" xlink:href="#DejaVuSans-32"/>
     <use x="230.322266" xlink:href="#DejaVuSans-97"/>
     <use x="291.601562" xlink:href="#DejaVuSans-110"/>
     <use x="354.980469" xlink:href="#DejaVuSans-97"/>
     <use x="416.259766" xlink:href="#DejaVuSans-108"/>
     <use x="444.042969" xlink:href="#DejaVuSans-121"/>
     <use x="503.222656" xlink:href="#DejaVuSans-115"/>
     <use x="555.322266" xlink:href="#DejaVuSans-105"/>
     <use x="583.105469" xlink:href="#DejaVuSans-115"/>
     <use x="635.205078" xlink:href="#DejaVuSans-32"/>
     <use x="666.992188" xlink:href="#DejaVuSans-111"/>
     <use x="728.173828" xlink:href="#DejaVuSans-102"/>
     <use x="763.378906" xlink:href="#DejaVuSans-32"/>
     <use x="795.166016" xlink:href="#DejaVuSans-104"/>
     <use x="858.544922" xlink:href="#DejaVuSans-101"/>
     <use x="920.068359" xlink:href="#DejaVuSans-97"/>
     <use x="981.347656" xlink:href="#DejaVuSans-100"/>
     <use x="1044.824219" xlink:href="#DejaVuSans-32"/>
     <use x="1076.611328" xlink:href="#DejaVuSans-99"/>
     <use x="1131.591797" xlink:href="#DejaVuSans-111"/>
     <use x="1192.773438" xlink:href="#DejaVuSans-108"/>
     <use x="1220.556641" xlink:href="#DejaVuSans-108"/>
     <use x="1248.339844" xlink:href="#DejaVuSans-111"/>
     <use x="1309.521484" xlink:href="#DejaVuSans-99"/>
     <use x="1364.501953" xlink:href="#DejaVuSans-97"/>
     <use x="1425.78125" xlink:href="#DejaVuSans-116"/>
     <use x="1464.990234" xlink:href="#DejaVuSans-105"/>
     <use x="1492.773438" xlink:href="#DejaVuSans-111"/>
     <use x="1553.955078" xlink:href="#DejaVuSans-110"/>
     <use x="1617.333984" xlink:href="#DejaVuSans-115"/>
     <use x="1669.433594" xlink:href="#DejaVuSans-32"/>
     <use x="1701.220703" xlink:href="#DejaVuSans-40"/>
     <use x="1740.234375" xlink:href="#DejaVuSans-101"/>
     <use x="1801.742188" xlink:href="#DejaVuSans-120"/>
     <use x="1860.921875" xlink:href="#DejaVuSans-97"/>
     <use x="1922.201172" xlink:href="#DejaVuSans-99"/>
     <use x="1977.181641" xlink:href="#DejaVuSans-116"/>
     <use x="2016.390625" xlink:href="#DejaVuSans-32"/>
     <use x="2048.177734" xlink:href="#DejaVuSans-99"/>
     <use x="2103.158203" xlink:href="#DejaVuSans-111"/>
     <use x="2164.339844" xlink:href="#DejaVuSans-111"/>
     <use x="2225.521484" xlink:href="#DejaVuSans-114"/>
     <use x="2266.619141" xlink:href="#DejaVuSans-100"/>
     <use x="2330.095703" xlink:href="#DejaVuSans-105"/>
     <use x="2357.878906" xlink:href="#DejaVuSans-110"/>
     <use x="2421.257812" xlink:href="#DejaVuSans-97"/>
     <use x="2482.537109" xlink:href="#DejaVuSans-116"/>
     <use x="2521.746094" xlink:href="#DejaVuSans-101"/>
     <use x="2583.269531" xlink:href="#DejaVuSans-115"/>
     <use x="2635.369141" xlink:href="#DejaVuSans-41"/>
    </g>
   </g>
   <g id="legend_1">
    <g id="patch_7">
     <path d="M 45.482813 103.70875 
L 102.226563 103.70875 
Q 104.226563 103.70875 104.226563 101.70875 
L 104.226563 29.318125 
Q 104.226563 27.318125 102.226563 27.318125 
L 45.482813 27.318125 
Q 43.482813 27.318125 43.482813 29.318125 
L 43.482813 101.70875 
Q 43.482813 103.70875 45.482813 103.70875 
z
" style="fill:#ffffff;opacity:0.8;stroke:#cccccc;stroke-linejoin:miter;"/>
    </g>
    <g id="text_16">
     <!-- pos labels -->
     <defs>
      <path d="M 18.109375 8.203125 
L 18.109375 -20.796875 
L 9.078125 -20.796875 
L 9.078125 54.6875 
L 18.109375 54.6875 
L 18.109375 46.390625 
Q 20.953125 51.265625 25.265625 53.625 
Q 29.59375 56 35.59375 56 
Q 45.5625 56 51.78125 48.09375 
Q 58.015625 40.1875 58.015625 27.296875 
Q 58.015625 14.40625 51.78125 6.484375 
Q 45.5625 -1.421875 35.59375 -1.421875 
Q 29.59375 -1.421875 25.265625 0.953125 
Q 20.953125 3.328125 18.109375 8.203125 
z
M 48.6875 27.296875 
Q 48.6875 37.203125 44.609375 42.84375 
Q 40.53125 48.484375 33.40625 48.484375 
Q 26.265625 48.484375 22.1875 42.84375 
Q 18.109375 37.203125 18.109375 27.296875 
Q 18.109375 17.390625 22.1875 11.75 
Q 26.265625 6.109375 33.40625 6.109375 
Q 40.53125 6.109375 44.609375 11.75 
Q 48.6875 17.390625 48.6875 27.296875 
z
" id="DejaVuSans-112"/>
      <path d="M 48.6875 27.296875 
Q 48.6875 37.203125 44.609375 42.84375 
Q 40.53125 48.484375 33.40625 48.484375 
Q 26.265625 48.484375 22.1875 42.84375 
Q 18.109375 37.203125 18.109375 27.296875 
Q 18.109375 17.390625 22.1875 11.75 
Q 26.265625 6.109375 33.40625 6.109375 
Q 40.53125 6.109375 44.609375 11.75 
Q 48.6875 17.390625 48.6875 27.296875 
z
M 18.109375 46.390625 
Q 20.953125 51.265625 25.265625 53.625 
Q 29.59375 56 35.59375 56 
Q 45.5625 56 51.78125 48.09375 
Q 58.015625 40.1875 58.015625 27.296875 
Q 58.015625 14.40625 51.78125 6.484375 
Q 45.5625 -1.421875 35.59375 -1.421875 
Q 29.59375 -1.421875 25.265625 0.953125 
Q 20.953125 3.328125 18.109375 8.203125 
L 18.109375 0 
L 9.078125 0 
L 9.078125 75.984375 
L 18.109375 75.984375 
z
" id="DejaVuSans-98"/>
     </defs>
     <g transform="translate(48.729688 38.916562)scale(0.1 -0.1)">
      <use xlink:href="#DejaVuSans-112"/>
      <use x="63.476562" xlink:href="#DejaVuSans-111"/>
      <use x="124.658203" xlink:href="#DejaVuSans-115"/>
      <use x="176.757812" xlink:href="#DejaVuSans-32"/>
      <use x="208.544922" xlink:href="#DejaVuSans-108"/>
      <use x="236.328125" xlink:href="#DejaVuSans-97"/>
      <use x="297.607422" xlink:href="#DejaVuSans-98"/>
      <use x="361.083984" xlink:href="#DejaVuSans-101"/>
      <use x="422.607422" xlink:href="#DejaVuSans-108"/>
      <use x="450.390625" xlink:href="#DejaVuSans-115"/>
     </g>
    </g>
    <g id="PathCollection_5">
     <path d="M 57.482813 54.505221 
C 58.420447 54.505221 59.319805 54.132695 59.982813 53.469687 
C 60.64582 52.80668 61.018346 51.907322 61.018346 50.969687 
C 61.018346 50.032053 60.64582 49.132695 59.982813 48.469687 
C 59.319805 47.80668 58.420447 47.434154 57.482813 47.434154 
C 56.545178 47.434154 55.64582 47.80668 54.982813 48.469687 
C 54.319805 49.132695 53.947279 50.032053 53.947279 50.969687 
C 53.947279 51.907322 54.319805 52.80668 54.982813 53.469687 
C 55.64582 54.132695 56.545178 54.505221 57.482813 54.505221 
z
" style="fill:none;stroke:#000000;stroke-opacity:0.75;stroke-width:1.5;"/>
    </g>
    <g id="text_17">
     <!-- subs -->
     <defs>
      <path d="M 8.5 21.578125 
L 8.5 54.6875 
L 17.484375 54.6875 
L 17.484375 21.921875 
Q 17.484375 14.15625 20.5 10.265625 
Q 23.53125 6.390625 29.59375 6.390625 
Q 36.859375 6.390625 41.078125 11.03125 
Q 45.3125 15.671875 45.3125 23.6875 
L 45.3125 54.6875 
L 54.296875 54.6875 
L 54.296875 0 
L 45.3125 0 
L 45.3125 8.40625 
Q 42.046875 3.421875 37.71875 1 
Q 33.40625 -1.421875 27.6875 -1.421875 
Q 18.265625 -1.421875 13.375 4.4375 
Q 8.5 10.296875 8.5 21.578125 
z
M 31.109375 56 
z
" id="DejaVuSans-117"/>
     </defs>
     <g transform="translate(75.482813 53.594687)scale(0.1 -0.1)">
      <use xlink:href="#DejaVuSans-115"/>
      <use x="52.099609" xlink:href="#DejaVuSans-117"/>
      <use x="115.478516" xlink:href="#DejaVuSans-98"/>
      <use x="178.955078" xlink:href="#DejaVuSans-115"/>
     </g>
    </g>
    <g id="PathCollection_6">
     <g>
      <use style="fill-opacity:0.75;stroke:#000000;stroke-opacity:0.75;stroke-width:1.5;" x="57.482813" xlink:href="#mc3132d4cd3" y="65.647812"/>
     </g>
    </g>
    <g id="text_18">
     <!-- inrg -->
     <defs>
      <path d="M 45.40625 27.984375 
Q 45.40625 37.75 41.375 43.109375 
Q 37.359375 48.484375 30.078125 48.484375 
Q 22.859375 48.484375 18.828125 43.109375 
Q 14.796875 37.75 14.796875 27.984375 
Q 14.796875 18.265625 18.828125 12.890625 
Q 22.859375 7.515625 30.078125 7.515625 
Q 37.359375 7.515625 41.375 12.890625 
Q 45.40625 18.265625 45.40625 27.984375 
z
M 54.390625 6.78125 
Q 54.390625 -7.171875 48.1875 -13.984375 
Q 42 -20.796875 29.203125 -20.796875 
Q 24.46875 -20.796875 20.265625 -20.09375 
Q 16.0625 -19.390625 12.109375 -17.921875 
L 12.109375 -9.1875 
Q 16.0625 -11.328125 19.921875 -12.34375 
Q 23.78125 -13.375 27.78125 -13.375 
Q 36.625 -13.375 41.015625 -8.765625 
Q 45.40625 -4.15625 45.40625 5.171875 
L 45.40625 9.625 
Q 42.625 4.78125 38.28125 2.390625 
Q 33.9375 0 27.875 0 
Q 17.828125 0 11.671875 7.65625 
Q 5.515625 15.328125 5.515625 27.984375 
Q 5.515625 40.671875 11.671875 48.328125 
Q 17.828125 56 27.875 56 
Q 33.9375 56 38.28125 53.609375 
Q 42.625 51.21875 45.40625 46.390625 
L 45.40625 54.6875 
L 54.390625 54.6875 
z
" id="DejaVuSans-103"/>
     </defs>
     <g transform="translate(75.482813 68.272812)scale(0.1 -0.1)">
      <use xlink:href="#DejaVuSans-105"/>
      <use x="27.783203" xlink:href="#DejaVuSans-110"/>
      <use x="91.162109" xlink:href="#DejaVuSans-114"/>
      <use x="132.259766" xlink:href="#DejaVuSans-103"/>
     </g>
    </g>
    <g id="PathCollection_7">
     <path d="M 57.482813 75.325937 
L 52.482813 85.325937 
L 62.482813 85.325937 
z
" style="fill:none;stroke:#000000;stroke-opacity:0.75;stroke-width:1.5;"/>
    </g>
    <g id="text_19">
     <!-- adjv -->
     <defs>
      <path d="M 9.421875 54.6875 
L 18.40625 54.6875 
L 18.40625 -0.984375 
Q 18.40625 -11.421875 14.421875 -16.109375 
Q 10.453125 -20.796875 1.609375 -20.796875 
L -1.8125 -20.796875 
L -1.8125 -13.1875 
L 0.59375 -13.1875 
Q 5.71875 -13.1875 7.5625 -10.8125 
Q 9.421875 -8.453125 9.421875 -0.984375 
z
M 9.421875 75.984375 
L 18.40625 75.984375 
L 18.40625 64.59375 
L 9.421875 64.59375 
z
" id="DejaVuSans-106"/>
      <path d="M 2.984375 54.6875 
L 12.5 54.6875 
L 29.59375 8.796875 
L 46.6875 54.6875 
L 56.203125 54.6875 
L 35.6875 0 
L 23.484375 0 
z
" id="DejaVuSans-118"/>
     </defs>
     <g transform="translate(75.482813 82.950937)scale(0.1 -0.1)">
      <use xlink:href="#DejaVuSans-97"/>
      <use x="61.279297" xlink:href="#DejaVuSans-100"/>
      <use x="124.755859" xlink:href="#DejaVuSans-106"/>
      <use x="152.539062" xlink:href="#DejaVuSans-118"/>
     </g>
    </g>
    <g id="PathCollection_8">
     <g>
      <use style="fill-opacity:0.75;stroke:#000000;stroke-opacity:0.75;stroke-width:1.5;" x="57.482813" xlink:href="#m1805b1c532" y="95.004062"/>
     </g>
    </g>
    <g id="text_20">
     <!-- advb -->
     <g transform="translate(75.482813 97.629062)scale(0.1 -0.1)">
      <use xlink:href="#DejaVuSans-97"/>
      <use x="61.279297" xlink:href="#DejaVuSans-100"/>
      <use x="124.755859" xlink:href="#DejaVuSans-118"/>
      <use x="183.935547" xlink:href="#DejaVuSans-98"/>
     </g>
    </g>
   </g>
  </g>
  <g id="axes_2">
   <g id="patch_8">
    <path d="M 586.337358 457.198125 
L 1042.882812 457.198125 
L 1042.882812 22.318125 
L 586.337358 22.318125 
z
" style="fill:#ffffff;"/>
   </g>
   <g id="PathCollection_9"/>
   <g id="patch_9">
    <path clip-path="url(#p0d15246056)" d="M 872.04175 173.607391 
L 872.04175 173.607391 
L 872.173927 173.707991 
L 812.500897 241.51393 
L 812.236544 241.31273 
L 871.909574 173.506791 
L 872.04175 173.607391 
z
" style="fill:#0000ff;stroke:#0000ff;stroke-linejoin:miter;"/>
   </g>
   <g id="patch_10">
    <path clip-path="url(#p0d15246056)" d="M 822.248823 236.199777 
L 822.248823 236.199777 
L 822.333115 236.337924 
L 812.453012 241.551478 
L 812.284429 241.275182 
L 822.164532 236.061629 
L 822.248823 236.199777 
z
" style="fill:#0000ff;stroke:#0000ff;stroke-linejoin:miter;"/>
   </g>
   <g id="patch_11">
    <path clip-path="url(#p0d15246056)" d="M 838.21755 256.630081 
L 838.21755 256.630081 
L 838.126195 256.764289 
L 812.277366 241.547539 
L 812.460075 241.279122 
L 838.308904 256.495872 
L 838.21755 256.630081 
z
" style="fill:#0000ff;stroke:#0000ff;stroke-linejoin:miter;"/>
   </g>
   <g id="patch_12">
    <path clip-path="url(#p0d15246056)" d="M 841.158944 283.755218 
L 841.158944 283.755218 
L 841.014583 283.840108 
L 812.224359 241.49822 
L 812.513081 241.32844 
L 841.303305 283.670328 
L 841.158944 283.755218 
z
" style="fill:#0000ff;stroke:#0000ff;stroke-linejoin:miter;"/>
   </g>
   <g id="patch_13">
    <path clip-path="url(#p0d15246056)" d="M 829.82635 268.060927 
L 829.82635 268.060927 
L 829.680489 268.143569 
L 812.222859 241.495972 
L 812.514582 241.330688 
L 829.972212 267.978285 
L 829.82635 268.060927 
z
" style="fill:#0000ff;stroke:#0000ff;stroke-linejoin:miter;"/>
   </g>
   <g id="patch_14">
    <path clip-path="url(#p0d15246056)" d="M 649.777429 229.119903 
L 649.777429 229.119903 
L 649.79127 228.961587 
L 812.382561 241.255015 
L 812.354879 241.571646 
L 649.763588 229.278218 
L 649.777429 229.119903 
z
" style="fill:#0000ff;stroke:#0000ff;stroke-linejoin:miter;"/>
   </g>
   <g id="matplotlib.axis_3">
    <g id="xtick_8">
     <g id="line2d_17">
      <g>
       <use style="stroke:#000000;stroke-width:0.8;" x="607.408497" xlink:href="#md030a4f9b6" y="457.198125"/>
      </g>
     </g>
     <g id="text_21">
      <!-- −0.6 -->
      <g transform="translate(595.267091 471.796562)scale(0.1 -0.1)">
       <use xlink:href="#DejaVuSans-8722"/>
       <use x="83.789062" xlink:href="#DejaVuSans-48"/>
       <use x="147.412109" xlink:href="#DejaVuSans-46"/>
       <use x="179.199219" xlink:href="#DejaVuSans-54"/>
      </g>
     </g>
    </g>
    <g id="xtick_9">
     <g id="line2d_18">
      <g>
       <use style="stroke:#000000;stroke-width:0.8;" x="675.728572" xlink:href="#md030a4f9b6" y="457.198125"/>
      </g>
     </g>
     <g id="text_22">
      <!-- −0.4 -->
      <g transform="translate(663.587165 471.796562)scale(0.1 -0.1)">
       <use xlink:href="#DejaVuSans-8722"/>
       <use x="83.789062" xlink:href="#DejaVuSans-48"/>
       <use x="147.412109" xlink:href="#DejaVuSans-46"/>
       <use x="179.199219" xlink:href="#DejaVuSans-52"/>
      </g>
     </g>
    </g>
    <g id="xtick_10">
     <g id="line2d_19">
      <g>
       <use style="stroke:#000000;stroke-width:0.8;" x="744.048646" xlink:href="#md030a4f9b6" y="457.198125"/>
      </g>
     </g>
     <g id="text_23">
      <!-- −0.2 -->
      <g transform="translate(731.90724 471.796562)scale(0.1 -0.1)">
       <use xlink:href="#DejaVuSans-8722"/>
       <use x="83.789062" xlink:href="#DejaVuSans-48"/>
       <use x="147.412109" xlink:href="#DejaVuSans-46"/>
       <use x="179.199219" xlink:href="#DejaVuSans-50"/>
      </g>
     </g>
    </g>
    <g id="xtick_11">
     <g id="line2d_20">
      <g>
       <use style="stroke:#000000;stroke-width:0.8;" x="812.36872" xlink:href="#md030a4f9b6" y="457.198125"/>
      </g>
     </g>
     <g id="text_24">
      <!-- 0.0 -->
      <g transform="translate(804.417158 471.796562)scale(0.1 -0.1)">
       <use xlink:href="#DejaVuSans-48"/>
       <use x="63.623047" xlink:href="#DejaVuSans-46"/>
       <use x="95.410156" xlink:href="#DejaVuSans-48"/>
      </g>
     </g>
    </g>
    <g id="xtick_12">
     <g id="line2d_21">
      <g>
       <use style="stroke:#000000;stroke-width:0.8;" x="880.688795" xlink:href="#md030a4f9b6" y="457.198125"/>
      </g>
     </g>
     <g id="text_25">
      <!-- 0.2 -->
      <g transform="translate(872.737232 471.796562)scale(0.1 -0.1)">
       <use xlink:href="#DejaVuSans-48"/>
       <use x="63.623047" xlink:href="#DejaVuSans-46"/>
       <use x="95.410156" xlink:href="#DejaVuSans-50"/>
      </g>
     </g>
    </g>
    <g id="xtick_13">
     <g id="line2d_22">
      <g>
       <use style="stroke:#000000;stroke-width:0.8;" x="949.008869" xlink:href="#md030a4f9b6" y="457.198125"/>
      </g>
     </g>
     <g id="text_26">
      <!-- 0.4 -->
      <g transform="translate(941.057307 471.796562)scale(0.1 -0.1)">
       <use xlink:href="#DejaVuSans-48"/>
       <use x="63.623047" xlink:href="#DejaVuSans-46"/>
       <use x="95.410156" xlink:href="#DejaVuSans-52"/>
      </g>
     </g>
    </g>
    <g id="xtick_14">
     <g id="line2d_23">
      <g>
       <use style="stroke:#000000;stroke-width:0.8;" x="1017.328943" xlink:href="#md030a4f9b6" y="457.198125"/>
      </g>
     </g>
     <g id="text_27">
      <!-- 0.6 -->
      <g transform="translate(1009.377381 471.796562)scale(0.1 -0.1)">
       <use xlink:href="#DejaVuSans-48"/>
       <use x="63.623047" xlink:href="#DejaVuSans-46"/>
       <use x="95.410156" xlink:href="#DejaVuSans-54"/>
      </g>
     </g>
    </g>
    <g id="text_28">
     <!-- PC1 -->
     <defs>
      <path d="M 12.40625 8.296875 
L 28.515625 8.296875 
L 28.515625 63.921875 
L 10.984375 60.40625 
L 10.984375 69.390625 
L 28.421875 72.90625 
L 38.28125 72.90625 
L 38.28125 8.296875 
L 54.390625 8.296875 
L 54.390625 0 
L 12.40625 0 
z
" id="DejaVuSans-49"/>
     </defs>
     <g transform="translate(804.922585 485.474687)scale(0.1 -0.1)">
      <use xlink:href="#DejaVuSans-80"/>
      <use x="60.302734" xlink:href="#DejaVuSans-67"/>
      <use x="130.126953" xlink:href="#DejaVuSans-49"/>
     </g>
    </g>
   </g>
   <g id="matplotlib.axis_4">
    <g id="ytick_8">
     <g id="line2d_24">
      <g>
       <use style="stroke:#000000;stroke-width:0.8;" x="586.337358" xlink:href="#m0d1722a935" y="432.018911"/>
      </g>
     </g>
     <g id="text_29">
      <!-- −0.6 -->
      <g transform="translate(555.054545 435.81813)scale(0.1 -0.1)">
       <use xlink:href="#DejaVuSans-8722"/>
       <use x="83.789062" xlink:href="#DejaVuSans-48"/>
       <use x="147.412109" xlink:href="#DejaVuSans-46"/>
       <use x="179.199219" xlink:href="#DejaVuSans-54"/>
      </g>
     </g>
    </g>
    <g id="ytick_9">
     <g id="line2d_25">
      <g>
       <use style="stroke:#000000;stroke-width:0.8;" x="586.337358" xlink:href="#m0d1722a935" y="368.483718"/>
      </g>
     </g>
     <g id="text_30">
      <!-- −0.4 -->
      <g transform="translate(555.054545 372.282936)scale(0.1 -0.1)">
       <use xlink:href="#DejaVuSans-8722"/>
       <use x="83.789062" xlink:href="#DejaVuSans-48"/>
       <use x="147.412109" xlink:href="#DejaVuSans-46"/>
       <use x="179.199219" xlink:href="#DejaVuSans-52"/>
      </g>
     </g>
    </g>
    <g id="ytick_10">
     <g id="line2d_26">
      <g>
       <use style="stroke:#000000;stroke-width:0.8;" x="586.337358" xlink:href="#m0d1722a935" y="304.948524"/>
      </g>
     </g>
     <g id="text_31">
      <!-- −0.2 -->
      <g transform="translate(555.054545 308.747743)scale(0.1 -0.1)">
       <use xlink:href="#DejaVuSans-8722"/>
       <use x="83.789062" xlink:href="#DejaVuSans-48"/>
       <use x="147.412109" xlink:href="#DejaVuSans-46"/>
       <use x="179.199219" xlink:href="#DejaVuSans-50"/>
      </g>
     </g>
    </g>
    <g id="ytick_11">
     <g id="line2d_27">
      <g>
       <use style="stroke:#000000;stroke-width:0.8;" x="586.337358" xlink:href="#m0d1722a935" y="241.41333"/>
      </g>
     </g>
     <g id="text_32">
      <!-- 0.0 -->
      <g transform="translate(563.434233 245.212549)scale(0.1 -0.1)">
       <use xlink:href="#DejaVuSans-48"/>
       <use x="63.623047" xlink:href="#DejaVuSans-46"/>
       <use x="95.410156" xlink:href="#DejaVuSans-48"/>
      </g>
     </g>
    </g>
    <g id="ytick_12">
     <g id="line2d_28">
      <g>
       <use style="stroke:#000000;stroke-width:0.8;" x="586.337358" xlink:href="#m0d1722a935" y="177.878136"/>
      </g>
     </g>
     <g id="text_33">
      <!-- 0.2 -->
      <g transform="translate(563.434233 181.677355)scale(0.1 -0.1)">
       <use xlink:href="#DejaVuSans-48"/>
       <use x="63.623047" xlink:href="#DejaVuSans-46"/>
       <use x="95.410156" xlink:href="#DejaVuSans-50"/>
      </g>
     </g>
    </g>
    <g id="ytick_13">
     <g id="line2d_29">
      <g>
       <use style="stroke:#000000;stroke-width:0.8;" x="586.337358" xlink:href="#m0d1722a935" y="114.342943"/>
      </g>
     </g>
     <g id="text_34">
      <!-- 0.4 -->
      <g transform="translate(563.434233 118.142162)scale(0.1 -0.1)">
       <use xlink:href="#DejaVuSans-48"/>
       <use x="63.623047" xlink:href="#DejaVuSans-46"/>
       <use x="95.410156" xlink:href="#DejaVuSans-52"/>
      </g>
     </g>
    </g>
    <g id="ytick_14">
     <g id="line2d_30">
      <g>
       <use style="stroke:#000000;stroke-width:0.8;" x="586.337358" xlink:href="#m0d1722a935" y="50.807749"/>
      </g>
     </g>
     <g id="text_35">
      <!-- 0.6 -->
      <g transform="translate(563.434233 54.606968)scale(0.1 -0.1)">
       <use xlink:href="#DejaVuSans-48"/>
       <use x="63.623047" xlink:href="#DejaVuSans-46"/>
       <use x="95.410156" xlink:href="#DejaVuSans-54"/>
      </g>
     </g>
    </g>
    <g id="text_36">
     <!-- PC2 -->
     <g transform="translate(548.974858 249.445625)rotate(-90)scale(0.1 -0.1)">
      <use xlink:href="#DejaVuSans-80"/>
      <use x="60.302734" xlink:href="#DejaVuSans-67"/>
      <use x="130.126953" xlink:href="#DejaVuSans-50"/>
     </g>
    </g>
   </g>
   <g id="line2d_31">
    <path clip-path="url(#p0d15246056)" d="M 586.337358 241.41333 
L 1042.882812 241.41333 
" style="fill:none;stroke:#000000;stroke-linecap:square;stroke-width:0.5;"/>
   </g>
   <g id="line2d_32">
    <path clip-path="url(#p0d15246056)" d="M 812.36872 457.198125 
L 812.36872 22.318125 
" style="fill:none;stroke:#000000;stroke-linecap:square;stroke-width:0.5;"/>
   </g>
   <g id="patch_15">
    <path d="M 586.337358 457.198125 
L 586.337358 22.318125 
" style="fill:none;stroke:#000000;stroke-linecap:square;stroke-linejoin:miter;stroke-width:0.8;"/>
   </g>
   <g id="patch_16">
    <path d="M 1042.882812 457.198125 
L 1042.882812 22.318125 
" style="fill:none;stroke:#000000;stroke-linecap:square;stroke-linejoin:miter;stroke-width:0.8;"/>
   </g>
   <g id="patch_17">
    <path d="M 586.337358 457.198125 
L 1042.882812 457.198125 
" style="fill:none;stroke:#000000;stroke-linecap:square;stroke-linejoin:miter;stroke-width:0.8;"/>
   </g>
   <g id="patch_18">
    <path d="M 586.337358 22.318125 
L 1042.882812 22.318125 
" style="fill:none;stroke:#000000;stroke-linecap:square;stroke-linejoin:miter;stroke-width:0.8;"/>
   </g>
   <g id="text_37">
    <!-- םוי -->
    <defs>
     <path d="M 57.28125 0 
L 9.078125 0 
L 9.078125 54.6875 
L 32.671875 54.6875 
Q 39.546875 54.6875 44.234375 53.265625 
Q 48.921875 51.859375 51.828125 48.703125 
Q 54.734375 45.5625 56 40.9375 
Q 57.28125 36.328125 57.28125 29.59375 
z
M 18.171875 47.703125 
L 18.171875 6.984375 
L 48.1875 6.984375 
L 48.1875 30.90625 
Q 48.1875 40.578125 45.015625 44.140625 
Q 41.84375 47.703125 32.8125 47.703125 
z
" id="DejaVuSans-1501"/>
     <path d="M 18.171875 54.6875 
L 18.171875 0 
L 9.078125 0 
L 9.078125 54.6875 
z
" id="DejaVuSans-1493"/>
     <path d="M 15.71875 54.6875 
L 15.71875 24.125 
L 6.640625 20.40625 
L 6.640625 54.6875 
z
" id="DejaVuSans-1497"/>
    </defs>
    <g transform="translate(965.322162 233.78628)scale(0.11 -0.11)">
     <use xlink:href="#DejaVuSans-1501"/>
     <use x="66.357422" xlink:href="#DejaVuSans-1493"/>
     <use x="93.603516" xlink:href="#DejaVuSans-1497"/>
    </g>
   </g>
   <g id="text_38">
    <!-- הנׁש -->
    <defs>
     <path d="M 19.140625 33.40625 
L 19.140625 0 
L 10.109375 0 
L 10.109375 29.6875 
z
M 56.25 27.828125 
L 56.25 0 
L 47.21875 0 
L 47.21875 29.6875 
Q 47.21875 40.234375 44.0625 43.96875 
Q 40.921875 47.703125 31.84375 47.703125 
L 9.078125 47.703125 
L 9.078125 54.6875 
L 31.734375 54.6875 
Q 45.265625 54.6875 50.75 48.578125 
Q 56.25 42.484375 56.25 27.828125 
z
" id="DejaVuSans-1492"/>
     <path d="M 21.78125 6.984375 
L 21.78125 36.28125 
Q 21.78125 42.28125 19.328125 44.984375 
Q 16.890625 47.703125 11.71875 47.703125 
L 5.5625 47.703125 
L 5.5625 54.6875 
L 11.71875 54.6875 
Q 21.734375 54.6875 26.296875 50.359375 
Q 30.859375 46.046875 30.859375 35.25 
L 30.859375 0 
L 4.296875 0 
L 4.296875 6.984375 
z
" id="DejaVuSans-1504"/>
     <path d="M 63.71875 69.828125 
L 71.046875 69.828125 
L 71.046875 62.5 
L 63.71875 62.5 
z
" id="DejaVuSans-1473"/>
     <path d="M 21 0 
L 11.8125 0 
L 4.296875 54.6875 
L 13.328125 54.6875 
L 16.890625 28.953125 
Q 19.234375 29 21.0625 29.359375 
Q 22.90625 29.734375 24.265625 30.53125 
Q 25.640625 31.34375 26.609375 32.203125 
Q 27.59375 33.0625 28.296875 34.625 
Q 29 36.1875 29.40625 37.46875 
Q 29.828125 38.765625 30.1875 41.03125 
Q 30.5625 43.3125 30.75 45 
Q 30.953125 46.6875 31.265625 49.640625 
Q 31.59375 52.59375 31.890625 54.6875 
L 39.9375 54.6875 
Q 39.0625 42 37.890625 36.96875 
Q 35.890625 28.609375 30.609375 25.25 
Q 25.984375 22.265625 17.828125 21.96875 
L 19.921875 6.984375 
Q 24.703125 6.984375 28.390625 7.34375 
Q 32.078125 7.71875 35.640625 8.6875 
Q 39.203125 9.671875 41.8125 11.296875 
Q 44.4375 12.9375 46.84375 15.5 
Q 49.265625 18.0625 50.953125 21.625 
Q 52.640625 25.203125 54 30 
Q 55.375 34.8125 56.203125 40.90625 
Q 57.03125 47.015625 57.515625 54.6875 
L 66.546875 54.6875 
Q 65.671875 46.578125 64.640625 40.421875 
Q 63.625 34.28125 62.125 28.703125 
Q 60.640625 23.140625 58.8125 19.15625 
Q 56.984375 15.1875 54.421875 11.84375 
Q 51.859375 8.5 48.703125 6.375 
Q 45.5625 4.25 41.375 2.75 
Q 37.203125 1.265625 32.25 0.625 
Q 27.296875 0 21 0 
z
" id="DejaVuSans-1513"/>
    </defs>
    <g transform="translate(963.299735 289.023041)scale(0.11 -0.11)">
     <use xlink:href="#DejaVuSans-1492"/>
     <use x="65.332031" xlink:href="#DejaVuSans-1504"/>
     <use x="105.371094" xlink:href="#DejaVuSans-1473"/>
     <use x="105.371094" xlink:href="#DejaVuSans-1513"/>
    </g>
   </g>
   <g id="text_39">
    <!-- התע -->
    <defs>
     <path d="M 56.640625 29.59375 
L 56.640625 0 
L 47.5625 0 
L 47.5625 29.6875 
Q 47.5625 33.296875 47.3125 35.71875 
Q 47.078125 38.140625 46.1875 40.59375 
Q 45.3125 43.0625 43.75 44.484375 
Q 42.1875 45.90625 39.453125 46.796875 
Q 36.71875 47.703125 32.8125 47.703125 
L 20.796875 47.703125 
L 20.796875 20.21875 
Q 20.796875 9.765625 17.796875 4.6875 
Q 14.796875 -0.390625 7.375 -0.390625 
Q 4.78125 -0.390625 0.984375 0.390625 
L 0.984375 7.375 
Q 4.15625 6.6875 6 6.6875 
Q 9.46875 6.6875 10.59375 9.46875 
Q 11.71875 12.25 11.71875 20.21875 
L 11.71875 47.703125 
L 3.265625 47.703125 
L 3.265625 54.6875 
L 32.8125 54.6875 
Q 39.796875 54.6875 44.5 53.046875 
Q 49.21875 51.421875 51.859375 48.046875 
Q 54.5 44.671875 55.5625 40.28125 
Q 56.640625 35.890625 56.640625 29.59375 
z
" id="DejaVuSans-1514"/>
     <path d="M 44.140625 40.828125 
L 44.140625 54.6875 
L 53.515625 54.6875 
L 53.515625 40.828125 
Q 53.515625 35.0625 53.046875 30.71875 
Q 52.59375 26.375 51.390625 22.09375 
Q 50.203125 17.828125 48.046875 14.5 
Q 45.90625 11.1875 42.578125 8.078125 
Q 39.265625 4.984375 34.515625 2.390625 
Q 29.78125 -0.203125 23.4375 -2.484375 
L 4.6875 -9.28125 
L 4.6875 -1.03125 
L 18.953125 4.046875 
L 4.296875 54.6875 
L 13.765625 54.6875 
L 27.25 7.125 
Q 33.6875 9.90625 37.203125 13.5625 
Q 40.71875 17.234375 42.421875 23.671875 
Q 44.140625 30.125 44.140625 40.828125 
z
" id="DejaVuSans-1506"/>
    </defs>
    <g transform="translate(601.06218 222.1162)scale(0.11 -0.11)">
     <use xlink:href="#DejaVuSans-1492"/>
     <use x="65.332031" xlink:href="#DejaVuSans-1514"/>
     <use x="131.054688" xlink:href="#DejaVuSans-1506"/>
    </g>
   </g>
   <g id="text_40">
    <!-- תע -->
    <g transform="translate(973.660105 202.217166)scale(0.11 -0.11)">
     <use xlink:href="#DejaVuSans-1514"/>
     <use x="65.722656" xlink:href="#DejaVuSans-1506"/>
    </g>
   </g>
   <g id="text_41">
    <!-- םלוע -->
    <defs>
     <path d="M 18.796875 0 
L 38.53125 47.703125 
L 4.296875 47.703125 
L 4.296875 72.90625 
L 13.421875 72.90625 
L 13.421875 54.6875 
L 49.21875 54.640625 
L 49.078125 49.265625 
L 28.328125 0 
z
" id="DejaVuSans-1500"/>
    </defs>
    <g transform="translate(629.205298 247.112707)scale(0.11 -0.11)">
     <use xlink:href="#DejaVuSans-1501"/>
     <use x="66.357422" xlink:href="#DejaVuSans-1500"/>
     <use x="123.193359" xlink:href="#DejaVuSans-1493"/>
     <use x="150.439453" xlink:href="#DejaVuSans-1506"/>
    </g>
   </g>
   <g id="text_42">
    <!-- הליל -->
    <g transform="translate(894.759153 150.333989)scale(0.11 -0.11)">
     <use xlink:href="#DejaVuSans-1492"/>
     <use x="65.332031" xlink:href="#DejaVuSans-1500"/>
     <use x="122.167969" xlink:href="#DejaVuSans-1497"/>
     <use x="144.53125" xlink:href="#DejaVuSans-1500"/>
    </g>
   </g>
   <g id="text_43">
    <!-- זא -->
    <defs>
     <path d="M 30.328125 54.6875 
L 30.328125 47.703125 
L 26.421875 47.703125 
Q 22.171875 47.703125 20.578125 43.921875 
Q 19 40.140625 19 30.90625 
L 19 0 
L 9.90625 0 
L 9.90625 30.90625 
Q 9.90625 37.109375 11.78125 41.453125 
Q 13.671875 45.796875 16.40625 47.703125 
L 4.296875 47.703125 
L 4.296875 54.6875 
z
" id="DejaVuSans-1494"/>
     <path d="M 43.75 20.0625 
L 57.671875 0 
L 47.078125 0 
L 26.765625 29.296875 
Q 25.390625 28.609375 24.53125 28.09375 
Q 23.6875 27.59375 22.3125 26.296875 
Q 20.953125 25 20.140625 23.40625 
Q 19.34375 21.828125 18.703125 19.140625 
Q 18.0625 16.453125 18.0625 13.09375 
L 18.0625 0 
L 9.078125 0 
L 9.078125 9.03125 
Q 9.078125 12.984375 9.5625 16.359375 
Q 10.0625 19.734375 10.8125 22.078125 
Q 11.578125 24.421875 12.796875 26.390625 
Q 14.015625 28.375 15.109375 29.59375 
Q 16.21875 30.8125 17.796875 31.875 
Q 19.390625 32.953125 20.453125 33.46875 
Q 21.53125 33.984375 23.046875 34.625 
L 9.1875 54.6875 
L 19.78125 54.6875 
L 40.09375 25.390625 
Q 41.40625 26.03125 42.25 26.53125 
Q 43.109375 27.046875 44.46875 28.359375 
Q 45.84375 29.6875 46.671875 31.265625 
Q 47.515625 32.859375 48.140625 35.546875 
Q 48.78125 38.234375 48.78125 41.609375 
L 48.78125 54.6875 
L 57.765625 54.6875 
L 57.765625 45.65625 
Q 57.765625 41.65625 57.265625 38.3125 
Q 56.78125 34.96875 56.03125 32.59375 
Q 55.28125 30.21875 54.046875 28.234375 
Q 52.828125 26.265625 51.703125 25.0625 
Q 50.59375 23.875 49.03125 22.796875 
Q 47.46875 21.734375 46.390625 21.21875 
Q 45.3125 20.703125 43.75 20.0625 
z
" id="DejaVuSans-1488"/>
    </defs>
    <g transform="translate(613.484173 232.980181)scale(0.11 -0.11)">
     <use xlink:href="#DejaVuSans-1494"/>
     <use x="34.619141" xlink:href="#DejaVuSans-1488"/>
    </g>
   </g>
   <g id="text_44">
    <!-- ׁשדח -->
    <defs>
     <path d="M 51.125 47.703125 
L 41.453125 47.703125 
L 41.453125 0 
L 32.375 0 
L 32.375 47.703125 
L 4.296875 47.703125 
L 4.296875 54.6875 
L 51.125 54.6875 
z
" id="DejaVuSans-1491"/>
     <path d="M 56.25 29.59375 
L 56.25 0 
L 47.171875 0 
L 47.171875 30.90625 
Q 47.171875 40.578125 44 44.140625 
Q 40.828125 47.703125 31.84375 47.703125 
L 18.109375 47.703125 
L 18.109375 0 
L 9.078125 0 
L 9.078125 54.6875 
L 31.734375 54.6875 
Q 45.21875 54.6875 50.734375 48.828125 
Q 56.25 42.96875 56.25 29.59375 
z
" id="DejaVuSans-1495"/>
    </defs>
    <g transform="translate(969.729421 258.380266)scale(0.11 -0.11)">
     <use xlink:href="#DejaVuSans-1473"/>
     <use xlink:href="#DejaVuSans-1513"/>
     <use x="70.849609" xlink:href="#DejaVuSans-1491"/>
     <use x="125.439453" xlink:href="#DejaVuSans-1495"/>
    </g>
   </g>
   <g id="text_45">
    <!-- רקב -->
    <defs>
     <path d="M 47.359375 27.828125 
L 47.359375 0 
L 38.28125 0 
L 38.28125 27.828125 
Q 38.28125 31.390625 37.765625 34.265625 
Q 37.25 37.15625 36 39.71875 
Q 34.765625 42.28125 32.8125 43.984375 
Q 30.859375 45.703125 27.78125 46.703125 
Q 24.703125 47.703125 20.703125 47.703125 
L 4.296875 47.703125 
L 4.296875 54.6875 
L 20.65625 54.6875 
Q 26.8125 54.6875 31.46875 53.390625 
Q 36.140625 52.09375 39.109375 49.828125 
Q 42.09375 47.5625 43.96875 44.109375 
Q 45.84375 40.671875 46.59375 36.734375 
Q 47.359375 32.8125 47.359375 27.828125 
z
" id="DejaVuSans-1512"/>
     <path d="M 19.34375 -20.796875 
L 19.34375 33.40625 
L 10.25 29.6875 
L 10.25 -20.796875 
z
M 33.0625 0 
L 52.78125 47.703125 
L 9.078125 47.703125 
L 9.078125 54.640625 
L 63.328125 54.640625 
L 63.328125 49.265625 
L 42.578125 0 
z
" id="DejaVuSans-1511"/>
     <path d="M 36.328125 6.984375 
L 36.328125 29.59375 
Q 36.328125 33.25 36.0625 35.671875 
Q 35.796875 38.09375 34.859375 40.578125 
Q 33.9375 43.0625 32.25 44.484375 
Q 30.5625 45.90625 27.609375 46.796875 
Q 24.65625 47.703125 20.40625 47.703125 
L 4.296875 47.703125 
L 4.296875 54.6875 
L 20.40625 54.6875 
Q 26.421875 54.6875 30.734375 53.5625 
Q 35.0625 52.4375 37.890625 50.359375 
Q 40.71875 48.296875 42.40625 44.890625 
Q 44.09375 41.5 44.75 37.453125 
Q 45.40625 33.40625 45.40625 27.828125 
L 45.40625 6.984375 
L 53.515625 6.984375 
L 53.515625 0 
L 4.296875 0 
L 4.296875 6.984375 
z
" id="DejaVuSans-1489"/>
    </defs>
    <g transform="translate(969.361763 68.216999)scale(0.11 -0.11)">
     <use xlink:href="#DejaVuSans-1512"/>
     <use x="56.445312" xlink:href="#DejaVuSans-1511"/>
     <use x="127.392578" xlink:href="#DejaVuSans-1489"/>
    </g>
   </g>
   <g id="text_46">
    <!-- ברע -->
    <g transform="translate(1009.892344 64.028436)scale(0.11 -0.11)">
     <use xlink:href="#DejaVuSans-1489"/>
     <use x="57.8125" xlink:href="#DejaVuSans-1512"/>
     <use x="114.257812" xlink:href="#DejaVuSans-1506"/>
    </g>
   </g>
   <g id="text_47">
    <!-- דימת -->
    <defs>
     <path d="M 4.296875 54.6875 
L 14.890625 54.6875 
Q 15.09375 54.15625 16.703125 50.3125 
Q 18.3125 46.484375 19.390625 42.671875 
Q 20.75 46.09375 22.625 48.53125 
Q 24.515625 50.984375 26.359375 52.296875 
Q 28.21875 53.609375 30.609375 54.34375 
Q 33.015625 55.078125 34.859375 55.265625 
Q 36.71875 55.46875 39.203125 55.46875 
Q 58.84375 55.46875 58.84375 29.59375 
L 58.84375 0 
L 31.390625 0 
L 31.390625 6.9375 
L 49.75 6.9375 
L 49.75 29.59375 
Q 49.75 39.109375 46.765625 43.671875 
Q 43.796875 48.25 39.0625 48.25 
Q 30.28125 48.25 26.078125 40.4375 
Q 23.734375 35.984375 21.6875 25.921875 
Q 21.578125 25.25 21.34375 24.125 
L 16.546875 0 
L 7.46875 0 
L 11.375 20.40625 
Q 11.53125 21.1875 11.890625 22.96875 
Q 12.25 24.75 12.375 25.40625 
Q 12.5 26.078125 12.671875 27.3125 
Q 12.84375 28.5625 12.90625 29.515625 
Q 12.984375 30.46875 12.984375 31.546875 
Q 12.984375 34.671875 10.71875 41.09375 
Q 8.453125 47.515625 4.296875 54.6875 
z
" id="DejaVuSans-1502"/>
    </defs>
    <g transform="translate(619.017699 187.932924)scale(0.11 -0.11)">
     <use xlink:href="#DejaVuSans-1491"/>
     <use x="54.589844" xlink:href="#DejaVuSans-1497"/>
     <use x="76.953125" xlink:href="#DejaVuSans-1502"/>
     <use x="144.873047" xlink:href="#DejaVuSans-1514"/>
    </g>
   </g>
   <g id="text_48">
    <!-- ןכ -->
    <defs>
     <path d="M 18.171875 54.6875 
L 18.171875 -20.796875 
L 9.078125 -20.796875 
L 9.078125 54.6875 
z
" id="DejaVuSans-1503"/>
     <path d="M 4.296875 54.6875 
L 21.09375 54.6875 
Q 26.8125 54.6875 31.375 53.125 
Q 35.9375 51.5625 38.859375 48.953125 
Q 41.796875 46.34375 43.75 42.765625 
Q 45.703125 39.203125 46.53125 35.375 
Q 47.359375 31.546875 47.359375 27.34375 
Q 47.359375 23.140625 46.53125 19.3125 
Q 45.703125 15.484375 43.75 11.90625 
Q 41.796875 8.34375 38.859375 5.734375 
Q 35.9375 3.125 31.375 1.5625 
Q 26.8125 0 21.09375 0 
L 4.296875 0 
L 4.296875 6.9375 
L 21.09375 6.9375 
Q 25.984375 6.9375 29.421875 8.453125 
Q 32.859375 9.96875 34.765625 12.8125 
Q 36.671875 15.671875 37.5 19.203125 
Q 38.328125 22.75 38.328125 27.34375 
Q 38.328125 31.9375 37.5 35.46875 
Q 36.671875 39.015625 34.765625 41.875 
Q 32.859375 44.734375 29.421875 46.234375 
Q 25.984375 47.75 21.09375 47.75 
L 4.296875 47.75 
z
" id="DejaVuSans-1499"/>
    </defs>
    <g transform="translate(592.344311 244.915148)scale(0.11 -0.11)">
     <use xlink:href="#DejaVuSans-1503"/>
     <use x="27.246094" xlink:href="#DejaVuSans-1499"/>
    </g>
   </g>
   <g id="text_49">
    <!-- רחמ -->
    <g transform="translate(586.475756 187.932922)scale(0.11 -0.11)">
     <use xlink:href="#DejaVuSans-1512"/>
     <use x="56.445312" xlink:href="#DejaVuSans-1495"/>
     <use x="121.777344" xlink:href="#DejaVuSans-1502"/>
    </g>
   </g>
   <g id="text_50">
    <!-- רבד -->
    <g transform="translate(981.407517 237.69981)scale(0.11 -0.11)">
     <use xlink:href="#DejaVuSans-1512"/>
     <use x="56.445312" xlink:href="#DejaVuSans-1489"/>
     <use x="114.257812" xlink:href="#DejaVuSans-1491"/>
    </g>
   </g>
   <g id="text_51">
    <!-- רחא -->
    <g transform="translate(606.420989 268.803381)scale(0.11 -0.11)">
     <use xlink:href="#DejaVuSans-1512"/>
     <use x="56.445312" xlink:href="#DejaVuSans-1495"/>
     <use x="121.777344" xlink:href="#DejaVuSans-1488"/>
    </g>
   </g>
   <g id="text_52">
    <!-- חצנ -->
    <defs>
     <path d="M 36.921875 6.9375 
L 4.296875 54.6875 
L 14.9375 54.6875 
L 33.84375 27 
Q 34.03125 27.15625 34.375 27.390625 
Q 35.546875 28.21875 36.171875 28.75 
Q 36.8125 29.296875 37.890625 30.5625 
Q 38.96875 31.84375 39.546875 33.171875 
Q 40.140625 34.515625 40.59375 36.71875 
Q 41.0625 38.921875 41.0625 41.609375 
L 41.0625 54.6875 
L 50.046875 54.6875 
L 50.046875 45.65625 
Q 50.046875 42.046875 49.609375 38.984375 
Q 49.171875 35.9375 48.53125 33.78125 
Q 47.90625 31.640625 46.78125 29.75 
Q 45.65625 27.875 44.71875 26.75 
Q 43.796875 25.640625 42.3125 24.484375 
Q 40.828125 23.34375 39.9375 22.828125 
Q 39.0625 22.3125 37.59375 21.53125 
L 50.25 3.46875 
L 50.25 0 
L 4.296875 0 
L 4.296875 6.9375 
z
" id="DejaVuSans-1510"/>
    </defs>
    <g transform="translate(651.2076 292.715864)scale(0.11 -0.11)">
     <use xlink:href="#DejaVuSans-1495"/>
     <use x="65.332031" xlink:href="#DejaVuSans-1510"/>
     <use x="124.658203" xlink:href="#DejaVuSans-1504"/>
    </g>
   </g>
   <g id="text_53">
    <!-- תומ -->
    <g transform="translate(944.486724 347.345716)scale(0.11 -0.11)">
     <use xlink:href="#DejaVuSans-1514"/>
     <use x="65.722656" xlink:href="#DejaVuSans-1493"/>
     <use x="92.96875" xlink:href="#DejaVuSans-1502"/>
    </g>
   </g>
   <g id="text_54">
    <!-- תרחמ -->
    <g transform="translate(695.365096 243.284036)scale(0.11 -0.11)">
     <use xlink:href="#DejaVuSans-1514"/>
     <use x="65.722656" xlink:href="#DejaVuSans-1512"/>
     <use x="122.167969" xlink:href="#DejaVuSans-1495"/>
     <use x="187.5" xlink:href="#DejaVuSans-1502"/>
    </g>
   </g>
   <g id="text_55">
    <!-- םירהצ -->
    <g transform="translate(988.129771 165.09293)scale(0.11 -0.11)">
     <use xlink:href="#DejaVuSans-1501"/>
     <use x="66.357422" xlink:href="#DejaVuSans-1497"/>
     <use x="88.720703" xlink:href="#DejaVuSans-1512"/>
     <use x="145.166016" xlink:href="#DejaVuSans-1492"/>
     <use x="210.498047" xlink:href="#DejaVuSans-1510"/>
    </g>
   </g>
   <g id="text_56">
    <!-- יתמ -->
    <g transform="translate(586.489947 234.51333)scale(0.11 -0.11)">
     <use xlink:href="#DejaVuSans-1497"/>
     <use x="22.363281" xlink:href="#DejaVuSans-1514"/>
     <use x="88.085938" xlink:href="#DejaVuSans-1502"/>
    </g>
   </g>
   <g id="text_57">
    <!-- םמוי -->
    <g transform="translate(587.520642 253.862892)scale(0.11 -0.11)">
     <use xlink:href="#DejaVuSans-1501"/>
     <use x="66.357422" xlink:href="#DejaVuSans-1502"/>
     <use x="134.277344" xlink:href="#DejaVuSans-1493"/>
     <use x="161.523438" xlink:href="#DejaVuSans-1497"/>
    </g>
   </g>
   <g id="text_58">
    <!-- דע -->
    <g transform="translate(586.53121 224.693085)scale(0.11 -0.11)">
     <use xlink:href="#DejaVuSans-1491"/>
     <use x="54.589844" xlink:href="#DejaVuSans-1506"/>
    </g>
   </g>
   <g id="text_59">
    <!-- םוׁשלׁש -->
    <g transform="translate(625.364463 211.205129)scale(0.11 -0.11)">
     <use xlink:href="#DejaVuSans-1501"/>
     <use x="66.357422" xlink:href="#DejaVuSans-1493"/>
     <use x="93.603516" xlink:href="#DejaVuSans-1473"/>
     <use x="93.603516" xlink:href="#DejaVuSans-1513"/>
     <use x="164.453125" xlink:href="#DejaVuSans-1500"/>
     <use x="221.289062" xlink:href="#DejaVuSans-1473"/>
     <use x="221.289062" xlink:href="#DejaVuSans-1513"/>
    </g>
   </g>
   <g id="text_60">
    <!-- ןוׁשאר -->
    <g transform="translate(1006.993269 40.989215)scale(0.11 -0.11)">
     <use xlink:href="#DejaVuSans-1503"/>
     <use x="27.246094" xlink:href="#DejaVuSans-1493"/>
     <use x="54.492188" xlink:href="#DejaVuSans-1473"/>
     <use x="54.492188" xlink:href="#DejaVuSans-1513"/>
     <use x="125.341797" xlink:href="#DejaVuSans-1488"/>
     <use x="192.1875" xlink:href="#DejaVuSans-1512"/>
    </g>
   </g>
   <g id="text_61">
    <!-- הנפ -->
    <defs>
     <path d="M 9.078125 54.6875 
L 29.890625 54.6875 
Q 42.484375 54.6875 49.703125 47.5625 
Q 56.9375 40.4375 56.9375 27.34375 
Q 56.9375 14.265625 49.6875 7.125 
Q 42.4375 0 29.890625 0 
L 9.078125 0 
L 9.078125 6.9375 
L 26.171875 6.9375 
Q 37.703125 6.9375 42.796875 11.625 
Q 47.90625 16.3125 47.90625 27.9375 
Q 47.90625 38.625 42.625 43.15625 
Q 37.359375 47.703125 26.21875 47.703125 
L 18.171875 47.703125 
L 18.109375 36.859375 
Q 18.0625 33.296875 19.8125 31.609375 
Q 21.578125 29.9375 25.203125 29.9375 
Q 27.203125 29.9375 30.46875 30.5625 
L 30.46875 23.140625 
Q 26.46875 22.359375 23.1875 22.359375 
Q 16.65625 22.359375 12.859375 25.96875 
Q 9.078125 29.59375 9.078125 38.1875 
z
" id="DejaVuSans-1508"/>
    </defs>
    <g transform="translate(974.400971 431.951723)scale(0.11 -0.11)">
     <use xlink:href="#DejaVuSans-1492"/>
     <use x="65.332031" xlink:href="#DejaVuSans-1504"/>
     <use x="105.371094" xlink:href="#DejaVuSans-1508"/>
    </g>
   </g>
   <g id="text_62">
    <!-- ןא -->
    <g transform="translate(607.985939 199.769324)scale(0.11 -0.11)">
     <use xlink:href="#DejaVuSans-1503"/>
     <use x="27.246094" xlink:href="#DejaVuSans-1488"/>
    </g>
   </g>
   <g id="text_63">
    <!-- לומת -->
    <g transform="translate(626.954797 280.750086)scale(0.11 -0.11)">
     <use xlink:href="#DejaVuSans-1500"/>
     <use x="56.835938" xlink:href="#DejaVuSans-1493"/>
     <use x="84.082031" xlink:href="#DejaVuSans-1502"/>
     <use x="152.001953" xlink:href="#DejaVuSans-1514"/>
    </g>
   </g>
   <g id="text_64">
    <!-- עובׁש -->
    <g transform="translate(968.199239 308.717886)scale(0.11 -0.11)">
     <use xlink:href="#DejaVuSans-1506"/>
     <use x="62.597656" xlink:href="#DejaVuSans-1493"/>
     <use x="89.84375" xlink:href="#DejaVuSans-1489"/>
     <use x="147.65625" xlink:href="#DejaVuSans-1473"/>
     <use x="147.65625" xlink:href="#DejaVuSans-1513"/>
    </g>
   </g>
   <g id="text_65">
    <!-- רוד -->
    <g transform="translate(935.805446 379.52486)scale(0.11 -0.11)">
     <use xlink:href="#DejaVuSans-1512"/>
     <use x="56.445312" xlink:href="#DejaVuSans-1493"/>
     <use x="83.691406" xlink:href="#DejaVuSans-1491"/>
    </g>
   </g>
   <g id="text_66">
    <!-- םירוענ -->
    <g transform="translate(963.570398 402.692924)scale(0.11 -0.11)">
     <use xlink:href="#DejaVuSans-1501"/>
     <use x="66.357422" xlink:href="#DejaVuSans-1497"/>
     <use x="88.720703" xlink:href="#DejaVuSans-1512"/>
     <use x="145.166016" xlink:href="#DejaVuSans-1493"/>
     <use x="172.412109" xlink:href="#DejaVuSans-1506"/>
     <use x="235.009766" xlink:href="#DejaVuSans-1504"/>
    </g>
   </g>
   <g id="text_67">
    <!-- םייח -->
    <g transform="translate(943.419461 416.338861)scale(0.11 -0.11)">
     <use xlink:href="#DejaVuSans-1501"/>
     <use x="66.357422" xlink:href="#DejaVuSans-1497"/>
     <use x="88.720703" xlink:href="#DejaVuSans-1497"/>
     <use x="111.083984" xlink:href="#DejaVuSans-1495"/>
    </g>
   </g>
   <g id="text_68">
    <!-- דעומ -->
    <g transform="translate(995.361666 224.773655)scale(0.11 -0.11)">
     <use xlink:href="#DejaVuSans-1491"/>
     <use x="54.589844" xlink:href="#DejaVuSans-1506"/>
     <use x="117.1875" xlink:href="#DejaVuSans-1493"/>
     <use x="144.433594" xlink:href="#DejaVuSans-1502"/>
    </g>
   </g>
   <g id="text_69">
    <!-- דוע -->
    <g transform="translate(962.732129 361.132706)scale(0.11 -0.11)">
     <use xlink:href="#DejaVuSans-1491"/>
     <use x="54.589844" xlink:href="#DejaVuSans-1493"/>
     <use x="81.835938" xlink:href="#DejaVuSans-1506"/>
    </g>
   </g>
   <g id="text_70">
    <!-- םרט -->
    <defs>
     <path d="M 18.0625 54.6875 
L 18.0625 25.984375 
Q 18.0625 20.3125 19.15625 16.359375 
Q 20.265625 12.40625 22.4375 10.171875 
Q 24.609375 7.953125 27.4375 6.96875 
Q 30.28125 6 34.1875 6 
Q 38.09375 6 40.921875 6.96875 
Q 43.75 7.953125 45.921875 10.171875 
Q 48.09375 12.40625 49.1875 16.359375 
Q 50.296875 20.3125 50.296875 25.984375 
Q 50.296875 31.5 49.828125 35.328125 
Q 49.359375 39.15625 48.1875 42.203125 
Q 47.015625 45.265625 44.8125 46.75 
Q 42.625 48.25 39.359375 48.25 
Q 36.140625 48.25 31.59375 46.78125 
L 31.59375 53.765625 
Q 37.15625 55.21875 41.40625 55.21875 
Q 46.390625 55.21875 49.90625 53.234375 
Q 53.421875 51.265625 55.46875 47.375 
Q 57.515625 43.5 58.421875 38.375 
Q 59.328125 33.25 59.328125 26.375 
Q 59.328125 11.71875 53.171875 5.140625 
Q 47.015625 -1.421875 34.171875 -1.421875 
Q 21.34375 -1.421875 15.1875 5.140625 
Q 9.03125 11.71875 9.03125 26.375 
L 9.03125 54.6875 
z
" id="DejaVuSans-1496"/>
    </defs>
    <g transform="translate(586.602951 211.182016)scale(0.11 -0.11)">
     <use xlink:href="#DejaVuSans-1501"/>
     <use x="66.357422" xlink:href="#DejaVuSans-1512"/>
     <use x="122.802734" xlink:href="#DejaVuSans-1496"/>
    </g>
   </g>
   <g id="text_71">
    <!-- םעפ -->
    <g transform="translate(984.373314 144.974181)scale(0.11 -0.11)">
     <use xlink:href="#DejaVuSans-1501"/>
     <use x="66.357422" xlink:href="#DejaVuSans-1506"/>
     <use x="128.955078" xlink:href="#DejaVuSans-1508"/>
    </g>
   </g>
   <g id="text_72">
    <!-- עגר -->
    <defs>
     <path d="M 31.203125 29.59375 
Q 31.203125 22.5625 32.890625 14.75 
Q 34.578125 6.9375 38.328125 0 
L 28.609375 0 
Q 25.78125 6.59375 24.5625 12.0625 
Q 22.953125 8.109375 21.234375 5.59375 
Q 19.53125 3.078125 17.578125 1.75 
Q 15.625 0.4375 13.671875 -0.015625 
Q 11.71875 -0.484375 9.03125 -0.484375 
Q 6.78125 -0.484375 4.296875 0.203125 
L 4.296875 8.453125 
Q 5.953125 7.953125 7.71875 7.953125 
Q 9.859375 7.953125 11.546875 8.265625 
Q 13.234375 8.59375 15.328125 9.859375 
Q 17.4375 11.140625 18.796875 13.359375 
Q 20.171875 15.578125 21.140625 19.71875 
Q 22.125 23.875 22.125 29.59375 
Q 22.125 36.96875 20.875 40.890625 
Q 19.625 44.828125 17.15625 46.265625 
Q 14.703125 47.703125 10.203125 47.703125 
L 5.8125 47.703125 
L 5.8125 54.6875 
L 10.5 54.6875 
Q 21.296875 54.6875 26.25 48.734375 
Q 31.203125 42.78125 31.203125 29.59375 
z
" id="DejaVuSans-1490"/>
    </defs>
    <g transform="translate(799.852226 280.872505)scale(0.11 -0.11)">
     <use xlink:href="#DejaVuSans-1506"/>
     <use x="62.597656" xlink:href="#DejaVuSans-1490"/>
     <use x="103.808594" xlink:href="#DejaVuSans-1512"/>
    </g>
   </g>
   <g id="text_73">
    <!-- הנה -->
    <g transform="translate(586.459342 259.879887)scale(0.11 -0.11)">
     <use xlink:href="#DejaVuSans-1492"/>
     <use x="65.332031" xlink:href="#DejaVuSans-1504"/>
     <use x="105.371094" xlink:href="#DejaVuSans-1492"/>
    </g>
   </g>
   <g id="text_74">
    <!-- חרי -->
    <g transform="translate(965.884993 342.388543)scale(0.11 -0.11)">
     <use xlink:href="#DejaVuSans-1495"/>
     <use x="65.332031" xlink:href="#DejaVuSans-1512"/>
     <use x="121.777344" xlink:href="#DejaVuSans-1497"/>
    </g>
   </g>
   <g id="text_75">
    <!-- הלחת -->
    <g transform="translate(966.146828 213.187042)scale(0.11 -0.11)">
     <use xlink:href="#DejaVuSans-1492"/>
     <use x="65.332031" xlink:href="#DejaVuSans-1500"/>
     <use x="122.167969" xlink:href="#DejaVuSans-1495"/>
     <use x="187.5" xlink:href="#DejaVuSans-1514"/>
    </g>
   </g>
   <g id="text_76">
    <!-- תבׁש -->
    <g transform="translate(1020.420406 89.127356)scale(0.11 -0.11)">
     <use xlink:href="#DejaVuSans-1514"/>
     <use x="65.722656" xlink:href="#DejaVuSans-1489"/>
     <use x="123.535156" xlink:href="#DejaVuSans-1473"/>
     <use x="123.535156" xlink:href="#DejaVuSans-1513"/>
    </g>
   </g>
   <g id="text_77">
    <!-- לומתא -->
    <g transform="translate(625.348837 211.205129)scale(0.11 -0.11)">
     <use xlink:href="#DejaVuSans-1500"/>
     <use x="56.835938" xlink:href="#DejaVuSans-1493"/>
     <use x="84.082031" xlink:href="#DejaVuSans-1502"/>
     <use x="152.001953" xlink:href="#DejaVuSans-1514"/>
     <use x="217.724609" xlink:href="#DejaVuSans-1488"/>
    </g>
   </g>
   <g id="text_78">
    <!-- definite -->
    <g style="fill:#0000ff;" transform="translate(861.793739 170.112955)scale(0.08 -0.08)">
     <use xlink:href="#DejaVuSans-100"/>
     <use x="63.476562" xlink:href="#DejaVuSans-101"/>
     <use x="125" xlink:href="#DejaVuSans-102"/>
     <use x="160.205078" xlink:href="#DejaVuSans-105"/>
     <use x="187.988281" xlink:href="#DejaVuSans-110"/>
     <use x="251.367188" xlink:href="#DejaVuSans-105"/>
     <use x="279.150391" xlink:href="#DejaVuSans-116"/>
     <use x="318.359375" xlink:href="#DejaVuSans-101"/>
    </g>
   </g>
   <g id="text_79">
    <!-- demonstrative -->
    <defs>
     <path d="M 52 44.1875 
Q 55.375 50.25 60.0625 53.125 
Q 64.75 56 71.09375 56 
Q 79.640625 56 84.28125 50.015625 
Q 88.921875 44.046875 88.921875 33.015625 
L 88.921875 0 
L 79.890625 0 
L 79.890625 32.71875 
Q 79.890625 40.578125 77.09375 44.375 
Q 74.3125 48.1875 68.609375 48.1875 
Q 61.625 48.1875 57.5625 43.546875 
Q 53.515625 38.921875 53.515625 30.90625 
L 53.515625 0 
L 44.484375 0 
L 44.484375 32.71875 
Q 44.484375 40.625 41.703125 44.40625 
Q 38.921875 48.1875 33.109375 48.1875 
Q 26.21875 48.1875 22.15625 43.53125 
Q 18.109375 38.875 18.109375 30.90625 
L 18.109375 0 
L 9.078125 0 
L 9.078125 54.6875 
L 18.109375 54.6875 
L 18.109375 46.1875 
Q 21.1875 51.21875 25.484375 53.609375 
Q 29.78125 56 35.6875 56 
Q 41.65625 56 45.828125 52.96875 
Q 50 49.953125 52 44.1875 
z
" id="DejaVuSans-109"/>
    </defs>
    <g style="fill:#0000ff;" transform="translate(822.248823 236.199777)scale(0.08 -0.08)">
     <use xlink:href="#DejaVuSans-100"/>
     <use x="63.476562" xlink:href="#DejaVuSans-101"/>
     <use x="125" xlink:href="#DejaVuSans-109"/>
     <use x="222.412109" xlink:href="#DejaVuSans-111"/>
     <use x="283.59375" xlink:href="#DejaVuSans-110"/>
     <use x="346.972656" xlink:href="#DejaVuSans-115"/>
     <use x="399.072266" xlink:href="#DejaVuSans-116"/>
     <use x="438.28125" xlink:href="#DejaVuSans-114"/>
     <use x="479.394531" xlink:href="#DejaVuSans-97"/>
     <use x="540.673828" xlink:href="#DejaVuSans-116"/>
     <use x="579.882812" xlink:href="#DejaVuSans-105"/>
     <use x="607.666016" xlink:href="#DejaVuSans-118"/>
     <use x="666.845703" xlink:href="#DejaVuSans-101"/>
    </g>
   </g>
   <g id="text_80">
    <!-- genitive -->
    <g style="fill:#0000ff;" transform="translate(838.21755 256.630081)scale(0.08 -0.08)">
     <use xlink:href="#DejaVuSans-103"/>
     <use x="63.476562" xlink:href="#DejaVuSans-101"/>
     <use x="125" xlink:href="#DejaVuSans-110"/>
     <use x="188.378906" xlink:href="#DejaVuSans-105"/>
     <use x="216.162109" xlink:href="#DejaVuSans-116"/>
     <use x="255.371094" xlink:href="#DejaVuSans-105"/>
     <use x="283.154297" xlink:href="#DejaVuSans-118"/>
     <use x="342.333984" xlink:href="#DejaVuSans-101"/>
    </g>
   </g>
   <g id="text_81">
    <!-- plural -->
    <g style="fill:#0000ff;" transform="translate(841.158944 283.755218)scale(0.08 -0.08)">
     <use xlink:href="#DejaVuSans-112"/>
     <use x="63.476562" xlink:href="#DejaVuSans-108"/>
     <use x="91.259766" xlink:href="#DejaVuSans-117"/>
     <use x="154.638672" xlink:href="#DejaVuSans-114"/>
     <use x="195.751953" xlink:href="#DejaVuSans-97"/>
     <use x="257.03125" xlink:href="#DejaVuSans-108"/>
    </g>
   </g>
   <g id="text_82">
    <!-- suffix -->
    <g style="fill:#0000ff;" transform="translate(807.280726 271.237687)scale(0.08 -0.08)">
     <use xlink:href="#DejaVuSans-115"/>
     <use x="52.099609" xlink:href="#DejaVuSans-117"/>
     <use x="115.478516" xlink:href="#DejaVuSans-102"/>
     <use x="150.683594" xlink:href="#DejaVuSans-102"/>
     <use x="185.888672" xlink:href="#DejaVuSans-105"/>
     <use x="213.671875" xlink:href="#DejaVuSans-120"/>
    </g>
   </g>
   <g id="text_83">
    <!-- ø -->
    <defs>
     <path d="M 44.1875 39.109375 
L 20.40625 10.203125 
Q 22.40625 8.15625 24.921875 7.171875 
Q 27.4375 6.203125 30.609375 6.203125 
Q 37.796875 6.203125 41.984375 11.859375 
Q 46.1875 17.53125 46.1875 27.296875 
Q 46.1875 31.15625 45.703125 34 
Q 45.21875 36.859375 44.1875 39.109375 
z
M 40.71875 44.390625 
Q 38.671875 46.390625 36.15625 47.390625 
Q 33.640625 48.390625 30.609375 48.390625 
Q 23.25 48.390625 19.109375 42.65625 
Q 14.984375 36.921875 14.984375 26.609375 
Q 14.984375 23.09375 15.453125 20.40625 
Q 15.921875 17.71875 16.890625 15.484375 
z
M 10.796875 8.109375 
Q 8.15625 11.859375 6.828125 16.671875 
Q 5.515625 21.484375 5.515625 27.296875 
Q 5.515625 40.765625 12.171875 48.375 
Q 18.84375 56 30.609375 56 
Q 35.15625 56 39.03125 54.75 
Q 42.921875 53.515625 46.1875 50.984375 
L 52.984375 59.1875 
L 57.625 55.328125 
L 50.484375 46.578125 
Q 53.078125 42.828125 54.390625 37.984375 
Q 55.71875 33.15625 55.71875 27.296875 
Q 55.71875 13.875 49.015625 6.21875 
Q 42.328125 -1.421875 30.609375 -1.421875 
Q 25.921875 -1.421875 21.984375 -0.140625 
Q 18.0625 1.125 14.984375 3.609375 
L 8.203125 -4.59375 
L 3.515625 -0.78125 
z
" id="DejaVuSans-248"/>
    </defs>
    <g style="fill:#0000ff;" transform="translate(639.529418 229.119903)scale(0.14 -0.14)">
     <use xlink:href="#DejaVuSans-248"/>
    </g>
   </g>
   <g id="text_84">
    <!-- PCA analysis of head tendencies with text and loadings (coordinates jittered) -->
    <defs>
     <path d="M 4.203125 54.6875 
L 13.1875 54.6875 
L 24.421875 12.015625 
L 35.59375 54.6875 
L 46.1875 54.6875 
L 57.421875 12.015625 
L 68.609375 54.6875 
L 77.59375 54.6875 
L 63.28125 0 
L 52.6875 0 
L 40.921875 44.828125 
L 29.109375 0 
L 18.5 0 
z
" id="DejaVuSans-119"/>
    </defs>
    <g transform="translate(582.838523 16.318125)scale(0.12 -0.12)">
     <use xlink:href="#DejaVuSans-80"/>
     <use x="60.302734" xlink:href="#DejaVuSans-67"/>
     <use x="130.126953" xlink:href="#DejaVuSans-65"/>
     <use x="198.535156" xlink:href="#DejaVuSans-32"/>
     <use x="230.322266" xlink:href="#DejaVuSans-97"/>
     <use x="291.601562" xlink:href="#DejaVuSans-110"/>
     <use x="354.980469" xlink:href="#DejaVuSans-97"/>
     <use x="416.259766" xlink:href="#DejaVuSans-108"/>
     <use x="444.042969" xlink:href="#DejaVuSans-121"/>
     <use x="503.222656" xlink:href="#DejaVuSans-115"/>
     <use x="555.322266" xlink:href="#DejaVuSans-105"/>
     <use x="583.105469" xlink:href="#DejaVuSans-115"/>
     <use x="635.205078" xlink:href="#DejaVuSans-32"/>
     <use x="666.992188" xlink:href="#DejaVuSans-111"/>
     <use x="728.173828" xlink:href="#DejaVuSans-102"/>
     <use x="763.378906" xlink:href="#DejaVuSans-32"/>
     <use x="795.166016" xlink:href="#DejaVuSans-104"/>
     <use x="858.544922" xlink:href="#DejaVuSans-101"/>
     <use x="920.068359" xlink:href="#DejaVuSans-97"/>
     <use x="981.347656" xlink:href="#DejaVuSans-100"/>
     <use x="1044.824219" xlink:href="#DejaVuSans-32"/>
     <use x="1076.611328" xlink:href="#DejaVuSans-116"/>
     <use x="1115.820312" xlink:href="#DejaVuSans-101"/>
     <use x="1177.34375" xlink:href="#DejaVuSans-110"/>
     <use x="1240.722656" xlink:href="#DejaVuSans-100"/>
     <use x="1304.199219" xlink:href="#DejaVuSans-101"/>
     <use x="1365.722656" xlink:href="#DejaVuSans-110"/>
     <use x="1429.101562" xlink:href="#DejaVuSans-99"/>
     <use x="1484.082031" xlink:href="#DejaVuSans-105"/>
     <use x="1511.865234" xlink:href="#DejaVuSans-101"/>
     <use x="1573.388672" xlink:href="#DejaVuSans-115"/>
     <use x="1625.488281" xlink:href="#DejaVuSans-32"/>
     <use x="1657.275391" xlink:href="#DejaVuSans-119"/>
     <use x="1739.0625" xlink:href="#DejaVuSans-105"/>
     <use x="1766.845703" xlink:href="#DejaVuSans-116"/>
     <use x="1806.054688" xlink:href="#DejaVuSans-104"/>
     <use x="1869.433594" xlink:href="#DejaVuSans-32"/>
     <use x="1901.220703" xlink:href="#DejaVuSans-116"/>
     <use x="1940.429688" xlink:href="#DejaVuSans-101"/>
     <use x="2001.9375" xlink:href="#DejaVuSans-120"/>
     <use x="2061.117188" xlink:href="#DejaVuSans-116"/>
     <use x="2100.326172" xlink:href="#DejaVuSans-32"/>
     <use x="2132.113281" xlink:href="#DejaVuSans-97"/>
     <use x="2193.392578" xlink:href="#DejaVuSans-110"/>
     <use x="2256.771484" xlink:href="#DejaVuSans-100"/>
     <use x="2320.248047" xlink:href="#DejaVuSans-32"/>
     <use x="2352.035156" xlink:href="#DejaVuSans-108"/>
     <use x="2379.818359" xlink:href="#DejaVuSans-111"/>
     <use x="2441" xlink:href="#DejaVuSans-97"/>
     <use x="2502.279297" xlink:href="#DejaVuSans-100"/>
     <use x="2565.755859" xlink:href="#DejaVuSans-105"/>
     <use x="2593.539062" xlink:href="#DejaVuSans-110"/>
     <use x="2656.917969" xlink:href="#DejaVuSans-103"/>
     <use x="2720.394531" xlink:href="#DejaVuSans-115"/>
     <use x="2772.494141" xlink:href="#DejaVuSans-32"/>
     <use x="2804.28125" xlink:href="#DejaVuSans-40"/>
     <use x="2843.294922" xlink:href="#DejaVuSans-99"/>
     <use x="2898.275391" xlink:href="#DejaVuSans-111"/>
     <use x="2959.457031" xlink:href="#DejaVuSans-111"/>
     <use x="3020.638672" xlink:href="#DejaVuSans-114"/>
     <use x="3061.736328" xlink:href="#DejaVuSans-100"/>
     <use x="3125.212891" xlink:href="#DejaVuSans-105"/>
     <use x="3152.996094" xlink:href="#DejaVuSans-110"/>
     <use x="3216.375" xlink:href="#DejaVuSans-97"/>
     <use x="3277.654297" xlink:href="#DejaVuSans-116"/>
     <use x="3316.863281" xlink:href="#DejaVuSans-101"/>
     <use x="3378.386719" xlink:href="#DejaVuSans-115"/>
     <use x="3430.486328" xlink:href="#DejaVuSans-32"/>
     <use x="3462.273438" xlink:href="#DejaVuSans-106"/>
     <use x="3490.056641" xlink:href="#DejaVuSans-105"/>
     <use x="3517.839844" xlink:href="#DejaVuSans-116"/>
     <use x="3557.048828" xlink:href="#DejaVuSans-116"/>
     <use x="3596.257812" xlink:href="#DejaVuSans-101"/>
     <use x="3657.78125" xlink:href="#DejaVuSans-114"/>
     <use x="3698.863281" xlink:href="#DejaVuSans-101"/>
     <use x="3760.386719" xlink:href="#DejaVuSans-100"/>
     <use x="3823.863281" xlink:href="#DejaVuSans-41"/>
    </g>
   </g>
  </g>
 </g>
 <defs>
  <clipPath id="p7823fb7d99">
   <rect height="434.88" width="456.545455" x="38.482813" y="22.318125"/>
  </clipPath>
  <clipPath id="p0d15246056">
   <rect height="434.88" width="456.545455" x="586.337358" y="22.318125"/>
  </clipPath>
 </defs>
</svg>
