<?xml version="1.0" encoding="utf-8" standalone="no"?>
<!DOCTYPE svg PUBLIC "-//W3C//DTD SVG 1.1//EN"
  "http://www.w3.org/Graphics/SVG/1.1/DTD/svg11.dtd">
<!-- Created with matplotlib (https://matplotlib.org/) -->
<svg height="402.467188pt" version="1.1" viewBox="0 0 1166.98125 402.467188" width="1166.98125pt" xmlns="http://www.w3.org/2000/svg" xmlns:xlink="http://www.w3.org/1999/xlink">
 <defs>
  <style type="text/css">
*{stroke-linecap:butt;stroke-linejoin:round;}
  </style>
 </defs>
 <g id="figure_1">
  <g id="patch_1">
   <path d="M 0 402.467188 
L 1166.98125 402.467188 
L 1166.98125 0 
L 0 0 
z
" style="fill:#ffffff;"/>
  </g>
  <g id="axes_1">
   <g id="patch_2">
    <path d="M 43.78125 348.478125 
L 372.016544 348.478125 
L 372.016544 22.318125 
L 43.78125 22.318125 
z
" style="fill:#ffffff;"/>
   </g>
   <g id="matplotlib.axis_1">
    <g id="xtick_1">
     <g id="line2d_1">
      <defs>
       <path d="M 0 0 
L 0 3.5 
" id="mcf694a3ebb" style="stroke:#000000;stroke-width:0.8;"/>
      </defs>
      <g>
       <use style="stroke:#000000;stroke-width:0.8;" x="59.923969" xlink:href="#mcf694a3ebb" y="348.478125"/>
      </g>
     </g>
     <g id="text_1">
      <!-- Adju -->
      <defs>
       <path d="M 34.1875 63.1875 
L 20.796875 26.90625 
L 47.609375 26.90625 
z
M 28.609375 72.90625 
L 39.796875 72.90625 
L 67.578125 0 
L 57.328125 0 
L 50.6875 18.703125 
L 17.828125 18.703125 
L 11.1875 0 
L 0.78125 0 
z
" id="DejaVuSans-65"/>
       <path d="M 45.40625 46.390625 
L 45.40625 75.984375 
L 54.390625 75.984375 
L 54.390625 0 
L 45.40625 0 
L 45.40625 8.203125 
Q 42.578125 3.328125 38.25 0.953125 
Q 33.9375 -1.421875 27.875 -1.421875 
Q 17.96875 -1.421875 11.734375 6.484375 
Q 5.515625 14.40625 5.515625 27.296875 
Q 5.515625 40.1875 11.734375 48.09375 
Q 17.96875 56 27.875 56 
Q 33.9375 56 38.25 53.625 
Q 42.578125 51.265625 45.40625 46.390625 
z
M 14.796875 27.296875 
Q 14.796875 17.390625 18.875 11.75 
Q 22.953125 6.109375 30.078125 6.109375 
Q 37.203125 6.109375 41.296875 11.75 
Q 45.40625 17.390625 45.40625 27.296875 
Q 45.40625 37.203125 41.296875 42.84375 
Q 37.203125 48.484375 30.078125 48.484375 
Q 22.953125 48.484375 18.875 42.84375 
Q 14.796875 37.203125 14.796875 27.296875 
z
" id="DejaVuSans-100"/>
       <path d="M 9.421875 54.6875 
L 18.40625 54.6875 
L 18.40625 -0.984375 
Q 18.40625 -11.421875 14.421875 -16.109375 
Q 10.453125 -20.796875 1.609375 -20.796875 
L -1.8125 -20.796875 
L -1.8125 -13.1875 
L 0.59375 -13.1875 
Q 5.71875 -13.1875 7.5625 -10.8125 
Q 9.421875 -8.453125 9.421875 -0.984375 
z
M 9.421875 75.984375 
L 18.40625 75.984375 
L 18.40625 64.59375 
L 9.421875 64.59375 
z
" id="DejaVuSans-106"/>
       <path d="M 8.5 21.578125 
L 8.5 54.6875 
L 17.484375 54.6875 
L 17.484375 21.921875 
Q 17.484375 14.15625 20.5 10.265625 
Q 23.53125 6.390625 29.59375 6.390625 
Q 36.859375 6.390625 41.078125 11.03125 
Q 45.3125 15.671875 45.3125 23.6875 
L 45.3125 54.6875 
L 54.296875 54.6875 
L 54.296875 0 
L 45.3125 0 
L 45.3125 8.40625 
Q 42.046875 3.421875 37.71875 1 
Q 33.40625 -1.421875 27.6875 -1.421875 
Q 18.265625 -1.421875 13.375 4.4375 
Q 8.5 10.296875 8.5 21.578125 
z
M 31.109375 56 
z
" id="DejaVuSans-117"/>
      </defs>
      <g transform="translate(62.683344 377.78125)rotate(-90)scale(0.1 -0.1)">
       <use xlink:href="#DejaVuSans-65"/>
       <use x="68.392578" xlink:href="#DejaVuSans-100"/>
       <use x="131.869141" xlink:href="#DejaVuSans-106"/>
       <use x="159.652344" xlink:href="#DejaVuSans-117"/>
      </g>
     </g>
    </g>
    <g id="xtick_2">
     <g id="line2d_2">
      <g>
       <use style="stroke:#000000;stroke-width:0.8;" x="86.828502" xlink:href="#mcf694a3ebb" y="348.478125"/>
      </g>
     </g>
     <g id="text_2">
      <!-- Cmpl -->
      <defs>
       <path d="M 64.40625 67.28125 
L 64.40625 56.890625 
Q 59.421875 61.53125 53.78125 63.8125 
Q 48.140625 66.109375 41.796875 66.109375 
Q 29.296875 66.109375 22.65625 58.46875 
Q 16.015625 50.828125 16.015625 36.375 
Q 16.015625 21.96875 22.65625 14.328125 
Q 29.296875 6.6875 41.796875 6.6875 
Q 48.140625 6.6875 53.78125 8.984375 
Q 59.421875 11.28125 64.40625 15.921875 
L 64.40625 5.609375 
Q 59.234375 2.09375 53.4375 0.328125 
Q 47.65625 -1.421875 41.21875 -1.421875 
Q 24.65625 -1.421875 15.125 8.703125 
Q 5.609375 18.84375 5.609375 36.375 
Q 5.609375 53.953125 15.125 64.078125 
Q 24.65625 74.21875 41.21875 74.21875 
Q 47.75 74.21875 53.53125 72.484375 
Q 59.328125 70.75 64.40625 67.28125 
z
" id="DejaVuSans-67"/>
       <path d="M 52 44.1875 
Q 55.375 50.25 60.0625 53.125 
Q 64.75 56 71.09375 56 
Q 79.640625 56 84.28125 50.015625 
Q 88.921875 44.046875 88.921875 33.015625 
L 88.921875 0 
L 79.890625 0 
L 79.890625 32.71875 
Q 79.890625 40.578125 77.09375 44.375 
Q 74.3125 48.1875 68.609375 48.1875 
Q 61.625 48.1875 57.5625 43.546875 
Q 53.515625 38.921875 53.515625 30.90625 
L 53.515625 0 
L 44.484375 0 
L 44.484375 32.71875 
Q 44.484375 40.625 41.703125 44.40625 
Q 38.921875 48.1875 33.109375 48.1875 
Q 26.21875 48.1875 22.15625 43.53125 
Q 18.109375 38.875 18.109375 30.90625 
L 18.109375 0 
L 9.078125 0 
L 9.078125 54.6875 
L 18.109375 54.6875 
L 18.109375 46.1875 
Q 21.1875 51.21875 25.484375 53.609375 
Q 29.78125 56 35.6875 56 
Q 41.65625 56 45.828125 52.96875 
Q 50 49.953125 52 44.1875 
z
" id="DejaVuSans-109"/>
       <path d="M 18.109375 8.203125 
L 18.109375 -20.796875 
L 9.078125 -20.796875 
L 9.078125 54.6875 
L 18.109375 54.6875 
L 18.109375 46.390625 
Q 20.953125 51.265625 25.265625 53.625 
Q 29.59375 56 35.59375 56 
Q 45.5625 56 51.78125 48.09375 
Q 58.015625 40.1875 58.015625 27.296875 
Q 58.015625 14.40625 51.78125 6.484375 
Q 45.5625 -1.421875 35.59375 -1.421875 
Q 29.59375 -1.421875 25.265625 0.953125 
Q 20.953125 3.328125 18.109375 8.203125 
z
M 48.6875 27.296875 
Q 48.6875 37.203125 44.609375 42.84375 
Q 40.53125 48.484375 33.40625 48.484375 
Q 26.265625 48.484375 22.1875 42.84375 
Q 18.109375 37.203125 18.109375 27.296875 
Q 18.109375 17.390625 22.1875 11.75 
Q 26.265625 6.109375 33.40625 6.109375 
Q 40.53125 6.109375 44.609375 11.75 
Q 48.6875 17.390625 48.6875 27.296875 
z
" id="DejaVuSans-112"/>
       <path d="M 9.421875 75.984375 
L 18.40625 75.984375 
L 18.40625 0 
L 9.421875 0 
z
" id="DejaVuSans-108"/>
      </defs>
      <g transform="translate(89.587877 381.328125)rotate(-90)scale(0.1 -0.1)">
       <use xlink:href="#DejaVuSans-67"/>
       <use x="69.824219" xlink:href="#DejaVuSans-109"/>
       <use x="167.236328" xlink:href="#DejaVuSans-112"/>
       <use x="230.712891" xlink:href="#DejaVuSans-108"/>
      </g>
     </g>
    </g>
    <g id="xtick_3">
     <g id="line2d_3">
      <g>
       <use style="stroke:#000000;stroke-width:0.8;" x="113.733034" xlink:href="#mcf694a3ebb" y="348.478125"/>
      </g>
     </g>
     <g id="text_3">
      <!-- Conj -->
      <defs>
       <path d="M 30.609375 48.390625 
Q 23.390625 48.390625 19.1875 42.75 
Q 14.984375 37.109375 14.984375 27.296875 
Q 14.984375 17.484375 19.15625 11.84375 
Q 23.34375 6.203125 30.609375 6.203125 
Q 37.796875 6.203125 41.984375 11.859375 
Q 46.1875 17.53125 46.1875 27.296875 
Q 46.1875 37.015625 41.984375 42.703125 
Q 37.796875 48.390625 30.609375 48.390625 
z
M 30.609375 56 
Q 42.328125 56 49.015625 48.375 
Q 55.71875 40.765625 55.71875 27.296875 
Q 55.71875 13.875 49.015625 6.21875 
Q 42.328125 -1.421875 30.609375 -1.421875 
Q 18.84375 -1.421875 12.171875 6.21875 
Q 5.515625 13.875 5.515625 27.296875 
Q 5.515625 40.765625 12.171875 48.375 
Q 18.84375 56 30.609375 56 
z
" id="DejaVuSans-111"/>
       <path d="M 54.890625 33.015625 
L 54.890625 0 
L 45.90625 0 
L 45.90625 32.71875 
Q 45.90625 40.484375 42.875 44.328125 
Q 39.84375 48.1875 33.796875 48.1875 
Q 26.515625 48.1875 22.3125 43.546875 
Q 18.109375 38.921875 18.109375 30.90625 
L 18.109375 0 
L 9.078125 0 
L 9.078125 54.6875 
L 18.109375 54.6875 
L 18.109375 46.1875 
Q 21.34375 51.125 25.703125 53.5625 
Q 30.078125 56 35.796875 56 
Q 45.21875 56 50.046875 50.171875 
Q 54.890625 44.34375 54.890625 33.015625 
z
" id="DejaVuSans-110"/>
      </defs>
      <g transform="translate(116.492409 377.695312)rotate(-90)scale(0.1 -0.1)">
       <use xlink:href="#DejaVuSans-67"/>
       <use x="69.824219" xlink:href="#DejaVuSans-111"/>
       <use x="131.005859" xlink:href="#DejaVuSans-110"/>
       <use x="194.384766" xlink:href="#DejaVuSans-106"/>
      </g>
     </g>
    </g>
    <g id="xtick_4">
     <g id="line2d_4">
      <g>
       <use style="stroke:#000000;stroke-width:0.8;" x="140.637566" xlink:href="#mcf694a3ebb" y="348.478125"/>
      </g>
     </g>
     <g id="text_4">
      <!-- Loca -->
      <defs>
       <path d="M 9.8125 72.90625 
L 19.671875 72.90625 
L 19.671875 8.296875 
L 55.171875 8.296875 
L 55.171875 0 
L 9.8125 0 
z
" id="DejaVuSans-76"/>
       <path d="M 48.78125 52.59375 
L 48.78125 44.1875 
Q 44.96875 46.296875 41.140625 47.34375 
Q 37.3125 48.390625 33.40625 48.390625 
Q 24.65625 48.390625 19.8125 42.84375 
Q 14.984375 37.3125 14.984375 27.296875 
Q 14.984375 17.28125 19.8125 11.734375 
Q 24.65625 6.203125 33.40625 6.203125 
Q 37.3125 6.203125 41.140625 7.25 
Q 44.96875 8.296875 48.78125 10.40625 
L 48.78125 2.09375 
Q 45.015625 0.34375 40.984375 -0.53125 
Q 36.96875 -1.421875 32.421875 -1.421875 
Q 20.0625 -1.421875 12.78125 6.34375 
Q 5.515625 14.109375 5.515625 27.296875 
Q 5.515625 40.671875 12.859375 48.328125 
Q 20.21875 56 33.015625 56 
Q 37.15625 56 41.109375 55.140625 
Q 45.0625 54.296875 48.78125 52.59375 
z
" id="DejaVuSans-99"/>
       <path d="M 34.28125 27.484375 
Q 23.390625 27.484375 19.1875 25 
Q 14.984375 22.515625 14.984375 16.5 
Q 14.984375 11.71875 18.140625 8.90625 
Q 21.296875 6.109375 26.703125 6.109375 
Q 34.1875 6.109375 38.703125 11.40625 
Q 43.21875 16.703125 43.21875 25.484375 
L 43.21875 27.484375 
z
M 52.203125 31.203125 
L 52.203125 0 
L 43.21875 0 
L 43.21875 8.296875 
Q 40.140625 3.328125 35.546875 0.953125 
Q 30.953125 -1.421875 24.3125 -1.421875 
Q 15.921875 -1.421875 10.953125 3.296875 
Q 6 8.015625 6 15.921875 
Q 6 25.140625 12.171875 29.828125 
Q 18.359375 34.515625 30.609375 34.515625 
L 43.21875 34.515625 
L 43.21875 35.40625 
Q 43.21875 41.609375 39.140625 45 
Q 35.0625 48.390625 27.6875 48.390625 
Q 23 48.390625 18.546875 47.265625 
Q 14.109375 46.140625 10.015625 43.890625 
L 10.015625 52.203125 
Q 14.9375 54.109375 19.578125 55.046875 
Q 24.21875 56 28.609375 56 
Q 40.484375 56 46.34375 49.84375 
Q 52.203125 43.703125 52.203125 31.203125 
z
" id="DejaVuSans-97"/>
      </defs>
      <g transform="translate(143.396941 378.79375)rotate(-90)scale(0.1 -0.1)">
       <use xlink:href="#DejaVuSans-76"/>
       <use x="55.697266" xlink:href="#DejaVuSans-111"/>
       <use x="116.878906" xlink:href="#DejaVuSans-99"/>
       <use x="171.859375" xlink:href="#DejaVuSans-97"/>
      </g>
     </g>
    </g>
    <g id="xtick_5">
     <g id="line2d_5">
      <g>
       <use style="stroke:#000000;stroke-width:0.8;" x="167.542099" xlink:href="#mcf694a3ebb" y="348.478125"/>
      </g>
     </g>
     <g id="text_5">
      <!-- Modi -->
      <defs>
       <path d="M 9.8125 72.90625 
L 24.515625 72.90625 
L 43.109375 23.296875 
L 61.8125 72.90625 
L 76.515625 72.90625 
L 76.515625 0 
L 66.890625 0 
L 66.890625 64.015625 
L 48.09375 14.015625 
L 38.1875 14.015625 
L 19.390625 64.015625 
L 19.390625 0 
L 9.8125 0 
z
" id="DejaVuSans-77"/>
       <path d="M 9.421875 54.6875 
L 18.40625 54.6875 
L 18.40625 0 
L 9.421875 0 
z
M 9.421875 75.984375 
L 18.40625 75.984375 
L 18.40625 64.59375 
L 9.421875 64.59375 
z
" id="DejaVuSans-105"/>
      </defs>
      <g transform="translate(170.301474 379.351562)rotate(-90)scale(0.1 -0.1)">
       <use xlink:href="#DejaVuSans-77"/>
       <use x="86.279297" xlink:href="#DejaVuSans-111"/>
       <use x="147.460938" xlink:href="#DejaVuSans-100"/>
       <use x="210.9375" xlink:href="#DejaVuSans-105"/>
      </g>
     </g>
    </g>
    <g id="xtick_6">
     <g id="line2d_6">
      <g>
       <use style="stroke:#000000;stroke-width:0.8;" x="194.446631" xlink:href="#mcf694a3ebb" y="348.478125"/>
      </g>
     </g>
     <g id="text_6">
      <!-- Nega -->
      <defs>
       <path d="M 9.8125 72.90625 
L 23.09375 72.90625 
L 55.421875 11.921875 
L 55.421875 72.90625 
L 64.984375 72.90625 
L 64.984375 0 
L 51.703125 0 
L 19.390625 60.984375 
L 19.390625 0 
L 9.8125 0 
z
" id="DejaVuSans-78"/>
       <path d="M 56.203125 29.59375 
L 56.203125 25.203125 
L 14.890625 25.203125 
Q 15.484375 15.921875 20.484375 11.0625 
Q 25.484375 6.203125 34.421875 6.203125 
Q 39.59375 6.203125 44.453125 7.46875 
Q 49.3125 8.734375 54.109375 11.28125 
L 54.109375 2.78125 
Q 49.265625 0.734375 44.1875 -0.34375 
Q 39.109375 -1.421875 33.890625 -1.421875 
Q 20.796875 -1.421875 13.15625 6.1875 
Q 5.515625 13.8125 5.515625 26.8125 
Q 5.515625 40.234375 12.765625 48.109375 
Q 20.015625 56 32.328125 56 
Q 43.359375 56 49.78125 48.890625 
Q 56.203125 41.796875 56.203125 29.59375 
z
M 47.21875 32.234375 
Q 47.125 39.59375 43.09375 43.984375 
Q 39.0625 48.390625 32.421875 48.390625 
Q 24.90625 48.390625 20.390625 44.140625 
Q 15.875 39.890625 15.1875 32.171875 
z
" id="DejaVuSans-101"/>
       <path d="M 45.40625 27.984375 
Q 45.40625 37.75 41.375 43.109375 
Q 37.359375 48.484375 30.078125 48.484375 
Q 22.859375 48.484375 18.828125 43.109375 
Q 14.796875 37.75 14.796875 27.984375 
Q 14.796875 18.265625 18.828125 12.890625 
Q 22.859375 7.515625 30.078125 7.515625 
Q 37.359375 7.515625 41.375 12.890625 
Q 45.40625 18.265625 45.40625 27.984375 
z
M 54.390625 6.78125 
Q 54.390625 -7.171875 48.1875 -13.984375 
Q 42 -20.796875 29.203125 -20.796875 
Q 24.46875 -20.796875 20.265625 -20.09375 
Q 16.0625 -19.390625 12.109375 -17.921875 
L 12.109375 -9.1875 
Q 16.0625 -11.328125 19.921875 -12.34375 
Q 23.78125 -13.375 27.78125 -13.375 
Q 36.625 -13.375 41.015625 -8.765625 
Q 45.40625 -4.15625 45.40625 5.171875 
L 45.40625 9.625 
Q 42.625 4.78125 38.28125 2.390625 
Q 33.9375 0 27.875 0 
Q 17.828125 0 11.671875 7.65625 
Q 5.515625 15.328125 5.515625 27.984375 
Q 5.515625 40.671875 11.671875 48.328125 
Q 17.828125 56 27.875 56 
Q 33.9375 56 38.28125 53.609375 
Q 42.625 51.21875 45.40625 46.390625 
L 45.40625 54.6875 
L 54.390625 54.6875 
z
" id="DejaVuSans-103"/>
      </defs>
      <g transform="translate(197.206006 381.589063)rotate(-90)scale(0.1 -0.1)">
       <use xlink:href="#DejaVuSans-78"/>
       <use x="74.804688" xlink:href="#DejaVuSans-101"/>
       <use x="136.328125" xlink:href="#DejaVuSans-103"/>
       <use x="199.804688" xlink:href="#DejaVuSans-97"/>
      </g>
     </g>
    </g>
    <g id="xtick_7">
     <g id="line2d_7">
      <g>
       <use style="stroke:#000000;stroke-width:0.8;" x="221.351163" xlink:href="#mcf694a3ebb" y="348.478125"/>
      </g>
     </g>
     <g id="text_7">
      <!-- Objc -->
      <defs>
       <path d="M 39.40625 66.21875 
Q 28.65625 66.21875 22.328125 58.203125 
Q 16.015625 50.203125 16.015625 36.375 
Q 16.015625 22.609375 22.328125 14.59375 
Q 28.65625 6.59375 39.40625 6.59375 
Q 50.140625 6.59375 56.421875 14.59375 
Q 62.703125 22.609375 62.703125 36.375 
Q 62.703125 50.203125 56.421875 58.203125 
Q 50.140625 66.21875 39.40625 66.21875 
z
M 39.40625 74.21875 
Q 54.734375 74.21875 63.90625 63.9375 
Q 73.09375 53.65625 73.09375 36.375 
Q 73.09375 19.140625 63.90625 8.859375 
Q 54.734375 -1.421875 39.40625 -1.421875 
Q 24.03125 -1.421875 14.8125 8.828125 
Q 5.609375 19.09375 5.609375 36.375 
Q 5.609375 53.65625 14.8125 63.9375 
Q 24.03125 74.21875 39.40625 74.21875 
z
" id="DejaVuSans-79"/>
       <path d="M 48.6875 27.296875 
Q 48.6875 37.203125 44.609375 42.84375 
Q 40.53125 48.484375 33.40625 48.484375 
Q 26.265625 48.484375 22.1875 42.84375 
Q 18.109375 37.203125 18.109375 27.296875 
Q 18.109375 17.390625 22.1875 11.75 
Q 26.265625 6.109375 33.40625 6.109375 
Q 40.53125 6.109375 44.609375 11.75 
Q 48.6875 17.390625 48.6875 27.296875 
z
M 18.109375 46.390625 
Q 20.953125 51.265625 25.265625 53.625 
Q 29.59375 56 35.59375 56 
Q 45.5625 56 51.78125 48.09375 
Q 58.015625 40.1875 58.015625 27.296875 
Q 58.015625 14.40625 51.78125 6.484375 
Q 45.5625 -1.421875 35.59375 -1.421875 
Q 29.59375 -1.421875 25.265625 0.953125 
Q 20.953125 3.328125 18.109375 8.203125 
L 18.109375 0 
L 9.078125 0 
L 9.078125 75.984375 
L 18.109375 75.984375 
z
" id="DejaVuSans-98"/>
      </defs>
      <g transform="translate(224.110538 377.975)rotate(-90)scale(0.1 -0.1)">
       <use xlink:href="#DejaVuSans-79"/>
       <use x="78.710938" xlink:href="#DejaVuSans-98"/>
       <use x="142.1875" xlink:href="#DejaVuSans-106"/>
       <use x="169.970703" xlink:href="#DejaVuSans-99"/>
      </g>
     </g>
    </g>
    <g id="xtick_8">
     <g id="line2d_8">
      <g>
       <use style="stroke:#000000;stroke-width:0.8;" x="248.255696" xlink:href="#mcf694a3ebb" y="348.478125"/>
      </g>
     </g>
     <g id="text_8">
      <!-- PreC -->
      <defs>
       <path d="M 19.671875 64.796875 
L 19.671875 37.40625 
L 32.078125 37.40625 
Q 38.96875 37.40625 42.71875 40.96875 
Q 46.484375 44.53125 46.484375 51.125 
Q 46.484375 57.671875 42.71875 61.234375 
Q 38.96875 64.796875 32.078125 64.796875 
z
M 9.8125 72.90625 
L 32.078125 72.90625 
Q 44.34375 72.90625 50.609375 67.359375 
Q 56.890625 61.8125 56.890625 51.125 
Q 56.890625 40.328125 50.609375 34.8125 
Q 44.34375 29.296875 32.078125 29.296875 
L 19.671875 29.296875 
L 19.671875 0 
L 9.8125 0 
z
" id="DejaVuSans-80"/>
       <path d="M 41.109375 46.296875 
Q 39.59375 47.171875 37.8125 47.578125 
Q 36.03125 48 33.890625 48 
Q 26.265625 48 22.1875 43.046875 
Q 18.109375 38.09375 18.109375 28.8125 
L 18.109375 0 
L 9.078125 0 
L 9.078125 54.6875 
L 18.109375 54.6875 
L 18.109375 46.1875 
Q 20.953125 51.171875 25.484375 53.578125 
Q 30.03125 56 36.53125 56 
Q 37.453125 56 38.578125 55.875 
Q 39.703125 55.765625 41.0625 55.515625 
z
" id="DejaVuSans-114"/>
      </defs>
      <g transform="translate(251.015071 378.75)rotate(-90)scale(0.1 -0.1)">
       <use xlink:href="#DejaVuSans-80"/>
       <use x="60.287109" xlink:href="#DejaVuSans-114"/>
       <use x="101.369141" xlink:href="#DejaVuSans-101"/>
       <use x="162.892578" xlink:href="#DejaVuSans-67"/>
      </g>
     </g>
    </g>
    <g id="xtick_9">
     <g id="line2d_9">
      <g>
       <use style="stroke:#000000;stroke-width:0.8;" x="275.160228" xlink:href="#mcf694a3ebb" y="348.478125"/>
      </g>
     </g>
     <g id="text_9">
      <!-- Pred -->
      <g transform="translate(277.919603 378.115625)rotate(-90)scale(0.1 -0.1)">
       <use xlink:href="#DejaVuSans-80"/>
       <use x="60.287109" xlink:href="#DejaVuSans-114"/>
       <use x="101.369141" xlink:href="#DejaVuSans-101"/>
       <use x="162.892578" xlink:href="#DejaVuSans-100"/>
      </g>
     </g>
    </g>
    <g id="xtick_10">
     <g id="line2d_10">
      <g>
       <use style="stroke:#000000;stroke-width:0.8;" x="302.06476" xlink:href="#mcf694a3ebb" y="348.478125"/>
      </g>
     </g>
     <g id="text_10">
      <!-- Rela -->
      <defs>
       <path d="M 44.390625 34.1875 
Q 47.5625 33.109375 50.5625 29.59375 
Q 53.5625 26.078125 56.59375 19.921875 
L 66.609375 0 
L 56 0 
L 46.6875 18.703125 
Q 43.0625 26.03125 39.671875 28.421875 
Q 36.28125 30.8125 30.421875 30.8125 
L 19.671875 30.8125 
L 19.671875 0 
L 9.8125 0 
L 9.8125 72.90625 
L 32.078125 72.90625 
Q 44.578125 72.90625 50.734375 67.671875 
Q 56.890625 62.453125 56.890625 51.90625 
Q 56.890625 45.015625 53.6875 40.46875 
Q 50.484375 35.9375 44.390625 34.1875 
z
M 19.671875 64.796875 
L 19.671875 38.921875 
L 32.078125 38.921875 
Q 39.203125 38.921875 42.84375 42.21875 
Q 46.484375 45.515625 46.484375 51.90625 
Q 46.484375 58.296875 42.84375 61.546875 
Q 39.203125 64.796875 32.078125 64.796875 
z
" id="DejaVuSans-82"/>
      </defs>
      <g transform="translate(304.824135 377.479688)rotate(-90)scale(0.1 -0.1)">
       <use xlink:href="#DejaVuSans-82"/>
       <use x="69.419922" xlink:href="#DejaVuSans-101"/>
       <use x="130.943359" xlink:href="#DejaVuSans-108"/>
       <use x="158.726562" xlink:href="#DejaVuSans-97"/>
      </g>
     </g>
    </g>
    <g id="xtick_11">
     <g id="line2d_11">
      <g>
       <use style="stroke:#000000;stroke-width:0.8;" x="328.969292" xlink:href="#mcf694a3ebb" y="348.478125"/>
      </g>
     </g>
     <g id="text_11">
      <!-- Subj -->
      <defs>
       <path d="M 53.515625 70.515625 
L 53.515625 60.890625 
Q 47.90625 63.578125 42.921875 64.890625 
Q 37.9375 66.21875 33.296875 66.21875 
Q 25.25 66.21875 20.875 63.09375 
Q 16.5 59.96875 16.5 54.203125 
Q 16.5 49.359375 19.40625 46.890625 
Q 22.3125 44.4375 30.421875 42.921875 
L 36.375 41.703125 
Q 47.40625 39.59375 52.65625 34.296875 
Q 57.90625 29 57.90625 20.125 
Q 57.90625 9.515625 50.796875 4.046875 
Q 43.703125 -1.421875 29.984375 -1.421875 
Q 24.8125 -1.421875 18.96875 -0.25 
Q 13.140625 0.921875 6.890625 3.21875 
L 6.890625 13.375 
Q 12.890625 10.015625 18.65625 8.296875 
Q 24.421875 6.59375 29.984375 6.59375 
Q 38.421875 6.59375 43.015625 9.90625 
Q 47.609375 13.234375 47.609375 19.390625 
Q 47.609375 24.75 44.3125 27.78125 
Q 41.015625 30.8125 33.5 32.328125 
L 27.484375 33.5 
Q 16.453125 35.6875 11.515625 40.375 
Q 6.59375 45.0625 6.59375 53.421875 
Q 6.59375 63.09375 13.40625 68.65625 
Q 20.21875 74.21875 32.171875 74.21875 
Q 37.3125 74.21875 42.625 73.28125 
Q 47.953125 72.359375 53.515625 70.515625 
z
" id="DejaVuSans-83"/>
      </defs>
      <g transform="translate(331.728667 377.290625)rotate(-90)scale(0.1 -0.1)">
       <use xlink:href="#DejaVuSans-83"/>
       <use x="63.476562" xlink:href="#DejaVuSans-117"/>
       <use x="126.855469" xlink:href="#DejaVuSans-98"/>
       <use x="190.332031" xlink:href="#DejaVuSans-106"/>
      </g>
     </g>
    </g>
    <g id="xtick_12">
     <g id="line2d_12">
      <g>
       <use style="stroke:#000000;stroke-width:0.8;" x="355.873825" xlink:href="#mcf694a3ebb" y="348.478125"/>
      </g>
     </g>
     <g id="text_12">
      <!-- Time -->
      <defs>
       <path d="M -0.296875 72.90625 
L 61.375 72.90625 
L 61.375 64.59375 
L 35.5 64.59375 
L 35.5 0 
L 25.59375 0 
L 25.59375 64.59375 
L -0.296875 64.59375 
z
" id="DejaVuSans-84"/>
      </defs>
      <g transform="translate(358.6332 380.253125)rotate(-90)scale(0.1 -0.1)">
       <use xlink:href="#DejaVuSans-84"/>
       <use x="61.037109" xlink:href="#DejaVuSans-105"/>
       <use x="88.820312" xlink:href="#DejaVuSans-109"/>
       <use x="186.232422" xlink:href="#DejaVuSans-101"/>
      </g>
     </g>
    </g>
    <g id="text_13">
     <!-- function -->
     <defs>
      <path d="M 37.109375 75.984375 
L 37.109375 68.5 
L 28.515625 68.5 
Q 23.6875 68.5 21.796875 66.546875 
Q 19.921875 64.59375 19.921875 59.515625 
L 19.921875 54.6875 
L 34.71875 54.6875 
L 34.71875 47.703125 
L 19.921875 47.703125 
L 19.921875 0 
L 10.890625 0 
L 10.890625 47.703125 
L 2.296875 47.703125 
L 2.296875 54.6875 
L 10.890625 54.6875 
L 10.890625 58.5 
Q 10.890625 67.625 15.140625 71.796875 
Q 19.390625 75.984375 28.609375 75.984375 
z
" id="DejaVuSans-102"/>
      <path d="M 18.3125 70.21875 
L 18.3125 54.6875 
L 36.8125 54.6875 
L 36.8125 47.703125 
L 18.3125 47.703125 
L 18.3125 18.015625 
Q 18.3125 11.328125 20.140625 9.421875 
Q 21.96875 7.515625 27.59375 7.515625 
L 36.8125 7.515625 
L 36.8125 0 
L 27.59375 0 
Q 17.1875 0 13.234375 3.875 
Q 9.28125 7.765625 9.28125 18.015625 
L 9.28125 47.703125 
L 2.6875 47.703125 
L 2.6875 54.6875 
L 9.28125 54.6875 
L 9.28125 70.21875 
z
" id="DejaVuSans-116"/>
     </defs>
     <g transform="translate(187.474678 393.1875)scale(0.1 -0.1)">
      <use xlink:href="#DejaVuSans-102"/>
      <use x="35.205078" xlink:href="#DejaVuSans-117"/>
      <use x="98.583984" xlink:href="#DejaVuSans-110"/>
      <use x="161.962891" xlink:href="#DejaVuSans-99"/>
      <use x="216.943359" xlink:href="#DejaVuSans-116"/>
      <use x="256.152344" xlink:href="#DejaVuSans-105"/>
      <use x="283.935547" xlink:href="#DejaVuSans-111"/>
      <use x="345.117188" xlink:href="#DejaVuSans-110"/>
     </g>
    </g>
   </g>
   <g id="matplotlib.axis_2">
    <g id="ytick_1">
     <g id="line2d_13">
      <path clip-path="url(#p9be14ee067)" d="M 43.78125 348.478125 
L 372.016544 348.478125 
" style="fill:none;stroke:#b0b0b0;stroke-linecap:square;stroke-width:0.8;"/>
     </g>
     <g id="line2d_14">
      <defs>
       <path d="M 0 0 
L -3.5 0 
" id="mc5ae819bb5" style="stroke:#000000;stroke-width:0.8;"/>
      </defs>
      <g>
       <use style="stroke:#000000;stroke-width:0.8;" x="43.78125" xlink:href="#mc5ae819bb5" y="348.478125"/>
      </g>
     </g>
     <g id="text_14">
      <!-- 0.0 -->
      <defs>
       <path d="M 31.78125 66.40625 
Q 24.171875 66.40625 20.328125 58.90625 
Q 16.5 51.421875 16.5 36.375 
Q 16.5 21.390625 20.328125 13.890625 
Q 24.171875 6.390625 31.78125 6.390625 
Q 39.453125 6.390625 43.28125 13.890625 
Q 47.125 21.390625 47.125 36.375 
Q 47.125 51.421875 43.28125 58.90625 
Q 39.453125 66.40625 31.78125 66.40625 
z
M 31.78125 74.21875 
Q 44.046875 74.21875 50.515625 64.515625 
Q 56.984375 54.828125 56.984375 36.375 
Q 56.984375 17.96875 50.515625 8.265625 
Q 44.046875 -1.421875 31.78125 -1.421875 
Q 19.53125 -1.421875 13.0625 8.265625 
Q 6.59375 17.96875 6.59375 36.375 
Q 6.59375 54.828125 13.0625 64.515625 
Q 19.53125 74.21875 31.78125 74.21875 
z
" id="DejaVuSans-48"/>
       <path d="M 10.6875 12.40625 
L 21 12.40625 
L 21 0 
L 10.6875 0 
z
" id="DejaVuSans-46"/>
      </defs>
      <g transform="translate(20.878125 352.277344)scale(0.1 -0.1)">
       <use xlink:href="#DejaVuSans-48"/>
       <use x="63.623047" xlink:href="#DejaVuSans-46"/>
       <use x="95.410156" xlink:href="#DejaVuSans-48"/>
      </g>
     </g>
    </g>
    <g id="ytick_2">
     <g id="line2d_15">
      <path clip-path="url(#p9be14ee067)" d="M 43.78125 294.118125 
L 372.016544 294.118125 
" style="fill:none;stroke:#b0b0b0;stroke-linecap:square;stroke-width:0.8;"/>
     </g>
     <g id="line2d_16">
      <g>
       <use style="stroke:#000000;stroke-width:0.8;" x="43.78125" xlink:href="#mc5ae819bb5" y="294.118125"/>
      </g>
     </g>
     <g id="text_15">
      <!-- 0.2 -->
      <defs>
       <path d="M 19.1875 8.296875 
L 53.609375 8.296875 
L 53.609375 0 
L 7.328125 0 
L 7.328125 8.296875 
Q 12.9375 14.109375 22.625 23.890625 
Q 32.328125 33.6875 34.8125 36.53125 
Q 39.546875 41.84375 41.421875 45.53125 
Q 43.3125 49.21875 43.3125 52.78125 
Q 43.3125 58.59375 39.234375 62.25 
Q 35.15625 65.921875 28.609375 65.921875 
Q 23.96875 65.921875 18.8125 64.3125 
Q 13.671875 62.703125 7.8125 59.421875 
L 7.8125 69.390625 
Q 13.765625 71.78125 18.9375 73 
Q 24.125 74.21875 28.421875 74.21875 
Q 39.75 74.21875 46.484375 68.546875 
Q 53.21875 62.890625 53.21875 53.421875 
Q 53.21875 48.921875 51.53125 44.890625 
Q 49.859375 40.875 45.40625 35.40625 
Q 44.1875 33.984375 37.640625 27.21875 
Q 31.109375 20.453125 19.1875 8.296875 
z
" id="DejaVuSans-50"/>
      </defs>
      <g transform="translate(20.878125 297.917344)scale(0.1 -0.1)">
       <use xlink:href="#DejaVuSans-48"/>
       <use x="63.623047" xlink:href="#DejaVuSans-46"/>
       <use x="95.410156" xlink:href="#DejaVuSans-50"/>
      </g>
     </g>
    </g>
    <g id="ytick_3">
     <g id="line2d_17">
      <path clip-path="url(#p9be14ee067)" d="M 43.78125 239.758125 
L 372.016544 239.758125 
" style="fill:none;stroke:#b0b0b0;stroke-linecap:square;stroke-width:0.8;"/>
     </g>
     <g id="line2d_18">
      <g>
       <use style="stroke:#000000;stroke-width:0.8;" x="43.78125" xlink:href="#mc5ae819bb5" y="239.758125"/>
      </g>
     </g>
     <g id="text_16">
      <!-- 0.4 -->
      <defs>
       <path d="M 37.796875 64.3125 
L 12.890625 25.390625 
L 37.796875 25.390625 
z
M 35.203125 72.90625 
L 47.609375 72.90625 
L 47.609375 25.390625 
L 58.015625 25.390625 
L 58.015625 17.1875 
L 47.609375 17.1875 
L 47.609375 0 
L 37.796875 0 
L 37.796875 17.1875 
L 4.890625 17.1875 
L 4.890625 26.703125 
z
" id="DejaVuSans-52"/>
      </defs>
      <g transform="translate(20.878125 243.557344)scale(0.1 -0.1)">
       <use xlink:href="#DejaVuSans-48"/>
       <use x="63.623047" xlink:href="#DejaVuSans-46"/>
       <use x="95.410156" xlink:href="#DejaVuSans-52"/>
      </g>
     </g>
    </g>
    <g id="ytick_4">
     <g id="line2d_19">
      <path clip-path="url(#p9be14ee067)" d="M 43.78125 185.398125 
L 372.016544 185.398125 
" style="fill:none;stroke:#b0b0b0;stroke-linecap:square;stroke-width:0.8;"/>
     </g>
     <g id="line2d_20">
      <g>
       <use style="stroke:#000000;stroke-width:0.8;" x="43.78125" xlink:href="#mc5ae819bb5" y="185.398125"/>
      </g>
     </g>
     <g id="text_17">
      <!-- 0.6 -->
      <defs>
       <path d="M 33.015625 40.375 
Q 26.375 40.375 22.484375 35.828125 
Q 18.609375 31.296875 18.609375 23.390625 
Q 18.609375 15.53125 22.484375 10.953125 
Q 26.375 6.390625 33.015625 6.390625 
Q 39.65625 6.390625 43.53125 10.953125 
Q 47.40625 15.53125 47.40625 23.390625 
Q 47.40625 31.296875 43.53125 35.828125 
Q 39.65625 40.375 33.015625 40.375 
z
M 52.59375 71.296875 
L 52.59375 62.3125 
Q 48.875 64.0625 45.09375 64.984375 
Q 41.3125 65.921875 37.59375 65.921875 
Q 27.828125 65.921875 22.671875 59.328125 
Q 17.53125 52.734375 16.796875 39.40625 
Q 19.671875 43.65625 24.015625 45.921875 
Q 28.375 48.1875 33.59375 48.1875 
Q 44.578125 48.1875 50.953125 41.515625 
Q 57.328125 34.859375 57.328125 23.390625 
Q 57.328125 12.15625 50.6875 5.359375 
Q 44.046875 -1.421875 33.015625 -1.421875 
Q 20.359375 -1.421875 13.671875 8.265625 
Q 6.984375 17.96875 6.984375 36.375 
Q 6.984375 53.65625 15.1875 63.9375 
Q 23.390625 74.21875 37.203125 74.21875 
Q 40.921875 74.21875 44.703125 73.484375 
Q 48.484375 72.75 52.59375 71.296875 
z
" id="DejaVuSans-54"/>
      </defs>
      <g transform="translate(20.878125 189.197344)scale(0.1 -0.1)">
       <use xlink:href="#DejaVuSans-48"/>
       <use x="63.623047" xlink:href="#DejaVuSans-46"/>
       <use x="95.410156" xlink:href="#DejaVuSans-54"/>
      </g>
     </g>
    </g>
    <g id="ytick_5">
     <g id="line2d_21">
      <path clip-path="url(#p9be14ee067)" d="M 43.78125 131.038125 
L 372.016544 131.038125 
" style="fill:none;stroke:#b0b0b0;stroke-linecap:square;stroke-width:0.8;"/>
     </g>
     <g id="line2d_22">
      <g>
       <use style="stroke:#000000;stroke-width:0.8;" x="43.78125" xlink:href="#mc5ae819bb5" y="131.038125"/>
      </g>
     </g>
     <g id="text_18">
      <!-- 0.8 -->
      <defs>
       <path d="M 31.78125 34.625 
Q 24.75 34.625 20.71875 30.859375 
Q 16.703125 27.09375 16.703125 20.515625 
Q 16.703125 13.921875 20.71875 10.15625 
Q 24.75 6.390625 31.78125 6.390625 
Q 38.8125 6.390625 42.859375 10.171875 
Q 46.921875 13.96875 46.921875 20.515625 
Q 46.921875 27.09375 42.890625 30.859375 
Q 38.875 34.625 31.78125 34.625 
z
M 21.921875 38.8125 
Q 15.578125 40.375 12.03125 44.71875 
Q 8.5 49.078125 8.5 55.328125 
Q 8.5 64.0625 14.71875 69.140625 
Q 20.953125 74.21875 31.78125 74.21875 
Q 42.671875 74.21875 48.875 69.140625 
Q 55.078125 64.0625 55.078125 55.328125 
Q 55.078125 49.078125 51.53125 44.71875 
Q 48 40.375 41.703125 38.8125 
Q 48.828125 37.15625 52.796875 32.3125 
Q 56.78125 27.484375 56.78125 20.515625 
Q 56.78125 9.90625 50.3125 4.234375 
Q 43.84375 -1.421875 31.78125 -1.421875 
Q 19.734375 -1.421875 13.25 4.234375 
Q 6.78125 9.90625 6.78125 20.515625 
Q 6.78125 27.484375 10.78125 32.3125 
Q 14.796875 37.15625 21.921875 38.8125 
z
M 18.3125 54.390625 
Q 18.3125 48.734375 21.84375 45.5625 
Q 25.390625 42.390625 31.78125 42.390625 
Q 38.140625 42.390625 41.71875 45.5625 
Q 45.3125 48.734375 45.3125 54.390625 
Q 45.3125 60.0625 41.71875 63.234375 
Q 38.140625 66.40625 31.78125 66.40625 
Q 25.390625 66.40625 21.84375 63.234375 
Q 18.3125 60.0625 18.3125 54.390625 
z
" id="DejaVuSans-56"/>
      </defs>
      <g transform="translate(20.878125 134.837344)scale(0.1 -0.1)">
       <use xlink:href="#DejaVuSans-48"/>
       <use x="63.623047" xlink:href="#DejaVuSans-46"/>
       <use x="95.410156" xlink:href="#DejaVuSans-56"/>
      </g>
     </g>
    </g>
    <g id="ytick_6">
     <g id="line2d_23">
      <path clip-path="url(#p9be14ee067)" d="M 43.78125 76.678125 
L 372.016544 76.678125 
" style="fill:none;stroke:#b0b0b0;stroke-linecap:square;stroke-width:0.8;"/>
     </g>
     <g id="line2d_24">
      <g>
       <use style="stroke:#000000;stroke-width:0.8;" x="43.78125" xlink:href="#mc5ae819bb5" y="76.678125"/>
      </g>
     </g>
     <g id="text_19">
      <!-- 1.0 -->
      <defs>
       <path d="M 12.40625 8.296875 
L 28.515625 8.296875 
L 28.515625 63.921875 
L 10.984375 60.40625 
L 10.984375 69.390625 
L 28.421875 72.90625 
L 38.28125 72.90625 
L 38.28125 8.296875 
L 54.390625 8.296875 
L 54.390625 0 
L 12.40625 0 
z
" id="DejaVuSans-49"/>
      </defs>
      <g transform="translate(20.878125 80.477344)scale(0.1 -0.1)">
       <use xlink:href="#DejaVuSans-49"/>
       <use x="63.623047" xlink:href="#DejaVuSans-46"/>
       <use x="95.410156" xlink:href="#DejaVuSans-48"/>
      </g>
     </g>
    </g>
    <g id="ytick_7">
     <g id="line2d_25">
      <path clip-path="url(#p9be14ee067)" d="M 43.78125 22.318125 
L 372.016544 22.318125 
" style="fill:none;stroke:#b0b0b0;stroke-linecap:square;stroke-width:0.8;"/>
     </g>
     <g id="line2d_26">
      <g>
       <use style="stroke:#000000;stroke-width:0.8;" x="43.78125" xlink:href="#mc5ae819bb5" y="22.318125"/>
      </g>
     </g>
     <g id="text_20">
      <!-- 1.2 -->
      <g transform="translate(20.878125 26.117344)scale(0.1 -0.1)">
       <use xlink:href="#DejaVuSans-49"/>
       <use x="63.623047" xlink:href="#DejaVuSans-46"/>
       <use x="95.410156" xlink:href="#DejaVuSans-50"/>
      </g>
     </g>
    </g>
    <g id="text_21">
     <!-- percentage % -->
     <defs>
      <path id="DejaVuSans-32"/>
      <path d="M 72.703125 32.078125 
Q 68.453125 32.078125 66.03125 28.46875 
Q 63.625 24.859375 63.625 18.40625 
Q 63.625 12.0625 66.03125 8.421875 
Q 68.453125 4.78125 72.703125 4.78125 
Q 76.859375 4.78125 79.265625 8.421875 
Q 81.6875 12.0625 81.6875 18.40625 
Q 81.6875 24.8125 79.265625 28.4375 
Q 76.859375 32.078125 72.703125 32.078125 
z
M 72.703125 38.28125 
Q 80.421875 38.28125 84.953125 32.90625 
Q 89.5 27.546875 89.5 18.40625 
Q 89.5 9.28125 84.9375 3.921875 
Q 80.375 -1.421875 72.703125 -1.421875 
Q 64.890625 -1.421875 60.34375 3.921875 
Q 55.8125 9.28125 55.8125 18.40625 
Q 55.8125 27.59375 60.375 32.9375 
Q 64.9375 38.28125 72.703125 38.28125 
z
M 22.3125 68.015625 
Q 18.109375 68.015625 15.6875 64.375 
Q 13.28125 60.75 13.28125 54.390625 
Q 13.28125 47.953125 15.671875 44.328125 
Q 18.0625 40.71875 22.3125 40.71875 
Q 26.5625 40.71875 28.96875 44.328125 
Q 31.390625 47.953125 31.390625 54.390625 
Q 31.390625 60.6875 28.953125 64.34375 
Q 26.515625 68.015625 22.3125 68.015625 
z
M 66.40625 74.21875 
L 74.21875 74.21875 
L 28.609375 -1.421875 
L 20.796875 -1.421875 
z
M 22.3125 74.21875 
Q 30.03125 74.21875 34.609375 68.875 
Q 39.203125 63.53125 39.203125 54.390625 
Q 39.203125 45.171875 34.640625 39.84375 
Q 30.078125 34.515625 22.3125 34.515625 
Q 14.546875 34.515625 10.03125 39.859375 
Q 5.515625 45.21875 5.515625 54.390625 
Q 5.515625 63.484375 10.046875 68.84375 
Q 14.59375 74.21875 22.3125 74.21875 
z
" id="DejaVuSans-37"/>
     </defs>
     <g transform="translate(14.798437 220.312187)rotate(-90)scale(0.1 -0.1)">
      <use xlink:href="#DejaVuSans-112"/>
      <use x="63.476562" xlink:href="#DejaVuSans-101"/>
      <use x="125" xlink:href="#DejaVuSans-114"/>
      <use x="166.082031" xlink:href="#DejaVuSans-99"/>
      <use x="221.0625" xlink:href="#DejaVuSans-101"/>
      <use x="282.585938" xlink:href="#DejaVuSans-110"/>
      <use x="345.964844" xlink:href="#DejaVuSans-116"/>
      <use x="385.173828" xlink:href="#DejaVuSans-97"/>
      <use x="446.453125" xlink:href="#DejaVuSans-103"/>
      <use x="509.929688" xlink:href="#DejaVuSans-101"/>
      <use x="571.453125" xlink:href="#DejaVuSans-32"/>
      <use x="603.240234" xlink:href="#DejaVuSans-37"/>
     </g>
    </g>
   </g>
   <g id="patch_3">
    <path clip-path="url(#p9be14ee067)" d="M 50.507383 348.478125 
L 59.923969 348.478125 
L 59.923969 98.932928 
L 50.507383 98.932928 
z
" style="fill:#d3d3d3;stroke:#000000;stroke-linejoin:miter;"/>
   </g>
   <g id="patch_4">
    <path clip-path="url(#p9be14ee067)" d="M 77.411915 348.478125 
L 86.828502 348.478125 
L 86.828502 94.894046 
L 77.411915 94.894046 
z
" style="fill:#d3d3d3;stroke:#000000;stroke-linejoin:miter;"/>
   </g>
   <g id="patch_5">
    <path clip-path="url(#p9be14ee067)" d="M 104.316448 348.478125 
L 113.733034 348.478125 
L 113.733034 76.678125 
L 104.316448 76.678125 
z
" style="fill:#d3d3d3;stroke:#000000;stroke-linejoin:miter;"/>
   </g>
   <g id="patch_6">
    <path clip-path="url(#p9be14ee067)" d="M 131.22098 348.478125 
L 140.637566 348.478125 
L 140.637566 101.839039 
L 131.22098 101.839039 
z
" style="fill:#d3d3d3;stroke:#000000;stroke-linejoin:miter;"/>
   </g>
   <g id="patch_7">
    <path clip-path="url(#p9be14ee067)" d="M 158.125512 348.478125 
L 167.542099 348.478125 
L 167.542099 80.967898 
L 158.125512 80.967898 
z
" style="fill:#d3d3d3;stroke:#000000;stroke-linejoin:miter;"/>
   </g>
   <g id="patch_8">
    <path clip-path="url(#p9be14ee067)" d="M 185.030045 348.478125 
L 194.446631 348.478125 
L 194.446631 76.678125 
L 185.030045 76.678125 
z
" style="fill:#d3d3d3;stroke:#000000;stroke-linejoin:miter;"/>
   </g>
   <g id="patch_9">
    <path clip-path="url(#p9be14ee067)" d="M 211.934577 348.478125 
L 221.351163 348.478125 
L 221.351163 96.966002 
L 211.934577 96.966002 
z
" style="fill:#d3d3d3;stroke:#000000;stroke-linejoin:miter;"/>
   </g>
   <g id="patch_10">
    <path clip-path="url(#p9be14ee067)" d="M 238.839109 348.478125 
L 248.255696 348.478125 
L 248.255696 95.344668 
L 238.839109 95.344668 
z
" style="fill:#d3d3d3;stroke:#000000;stroke-linejoin:miter;"/>
   </g>
   <g id="patch_11">
    <path clip-path="url(#p9be14ee067)" d="M 265.743642 348.478125 
L 275.160228 348.478125 
L 275.160228 76.802209 
L 265.743642 76.802209 
z
" style="fill:#d3d3d3;stroke:#000000;stroke-linejoin:miter;"/>
   </g>
   <g id="patch_12">
    <path clip-path="url(#p9be14ee067)" d="M 292.648174 348.478125 
L 302.06476 348.478125 
L 302.06476 76.678125 
L 292.648174 76.678125 
z
" style="fill:#d3d3d3;stroke:#000000;stroke-linejoin:miter;"/>
   </g>
   <g id="patch_13">
    <path clip-path="url(#p9be14ee067)" d="M 319.552706 348.478125 
L 328.969292 348.478125 
L 328.969292 101.372523 
L 319.552706 101.372523 
z
" style="fill:#d3d3d3;stroke:#000000;stroke-linejoin:miter;"/>
   </g>
   <g id="patch_14">
    <path clip-path="url(#p9be14ee067)" d="M 346.457238 348.478125 
L 355.873825 348.478125 
L 355.873825 97.773571 
L 346.457238 97.773571 
z
" style="fill:#d3d3d3;stroke:#000000;stroke-linejoin:miter;"/>
   </g>
   <g id="patch_15">
    <path clip-path="url(#p9be14ee067)" d="M 59.923969 348.478125 
L 69.340556 348.478125 
L 69.340556 326.223322 
L 59.923969 326.223322 
z
" style="fill:#ffffff;stroke:#000000;stroke-linejoin:miter;"/>
   </g>
   <g id="patch_16">
    <path clip-path="url(#p9be14ee067)" d="M 86.828502 348.478125 
L 96.245088 348.478125 
L 96.245088 330.262204 
L 86.828502 330.262204 
z
" style="fill:#ffffff;stroke:#000000;stroke-linejoin:miter;"/>
   </g>
   <g id="patch_17">
    <path clip-path="url(#p9be14ee067)" d="M 113.733034 348.478125 
L 123.14962 348.478125 
L 123.14962 348.478125 
L 113.733034 348.478125 
z
" style="fill:#ffffff;stroke:#000000;stroke-linejoin:miter;"/>
   </g>
   <g id="patch_18">
    <path clip-path="url(#p9be14ee067)" d="M 140.637566 348.478125 
L 150.054153 348.478125 
L 150.054153 323.317211 
L 140.637566 323.317211 
z
" style="fill:#ffffff;stroke:#000000;stroke-linejoin:miter;"/>
   </g>
   <g id="patch_19">
    <path clip-path="url(#p9be14ee067)" d="M 167.542099 348.478125 
L 176.958685 348.478125 
L 176.958685 344.188352 
L 167.542099 344.188352 
z
" style="fill:#ffffff;stroke:#000000;stroke-linejoin:miter;"/>
   </g>
   <g id="patch_20">
    <path clip-path="url(#p9be14ee067)" d="M 194.446631 348.478125 
L 203.863217 348.478125 
L 203.863217 348.478125 
L 194.446631 348.478125 
z
" style="fill:#ffffff;stroke:#000000;stroke-linejoin:miter;"/>
   </g>
   <g id="patch_21">
    <path clip-path="url(#p9be14ee067)" d="M 221.351163 348.478125 
L 230.76775 348.478125 
L 230.76775 328.190248 
L 221.351163 328.190248 
z
" style="fill:#ffffff;stroke:#000000;stroke-linejoin:miter;"/>
   </g>
   <g id="patch_22">
    <path clip-path="url(#p9be14ee067)" d="M 248.255696 348.478125 
L 257.672282 348.478125 
L 257.672282 329.811582 
L 248.255696 329.811582 
z
" style="fill:#ffffff;stroke:#000000;stroke-linejoin:miter;"/>
   </g>
   <g id="patch_23">
    <path clip-path="url(#p9be14ee067)" d="M 275.160228 348.478125 
L 284.576814 348.478125 
L 284.576814 348.354041 
L 275.160228 348.354041 
z
" style="fill:#ffffff;stroke:#000000;stroke-linejoin:miter;"/>
   </g>
   <g id="patch_24">
    <path clip-path="url(#p9be14ee067)" d="M 302.06476 348.478125 
L 311.481346 348.478125 
L 311.481346 348.478125 
L 302.06476 348.478125 
z
" style="fill:#ffffff;stroke:#000000;stroke-linejoin:miter;"/>
   </g>
   <g id="patch_25">
    <path clip-path="url(#p9be14ee067)" d="M 328.969292 348.478125 
L 338.385879 348.478125 
L 338.385879 323.783727 
L 328.969292 323.783727 
z
" style="fill:#ffffff;stroke:#000000;stroke-linejoin:miter;"/>
   </g>
   <g id="patch_26">
    <path clip-path="url(#p9be14ee067)" d="M 355.873825 348.478125 
L 365.290411 348.478125 
L 365.290411 327.382679 
L 355.873825 327.382679 
z
" style="fill:#ffffff;stroke:#000000;stroke-linejoin:miter;"/>
   </g>
   <g id="line2d_27">
    <path clip-path="url(#p9be14ee067)" d="M 43.78125 101.839039 
L 372.016544 101.839039 
" style="fill:none;stroke:#1f77b4;stroke-linecap:square;stroke-opacity:0.8;stroke-width:1.5;"/>
   </g>
   <g id="patch_27">
    <path d="M 43.78125 348.478125 
L 43.78125 22.318125 
" style="fill:none;stroke:#000000;stroke-linecap:square;stroke-linejoin:miter;stroke-width:0.8;"/>
   </g>
   <g id="patch_28">
    <path d="M 372.016544 348.478125 
L 372.016544 22.318125 
" style="fill:none;stroke:#000000;stroke-linecap:square;stroke-linejoin:miter;stroke-width:0.8;"/>
   </g>
   <g id="patch_29">
    <path d="M 43.78125 348.478125 
L 372.016544 348.478125 
" style="fill:none;stroke:#000000;stroke-linecap:square;stroke-linejoin:miter;stroke-width:0.8;"/>
   </g>
   <g id="patch_30">
    <path d="M 43.78125 22.318125 
L 372.016544 22.318125 
" style="fill:none;stroke:#000000;stroke-linecap:square;stroke-linejoin:miter;stroke-width:0.8;"/>
   </g>
   <g id="text_22">
    <!-- number (n) of atoms (a) per phrase function -->
    <defs>
     <path d="M 31 75.875 
Q 24.46875 64.65625 21.28125 53.65625 
Q 18.109375 42.671875 18.109375 31.390625 
Q 18.109375 20.125 21.3125 9.0625 
Q 24.515625 -2 31 -13.1875 
L 23.1875 -13.1875 
Q 15.875 -1.703125 12.234375 9.375 
Q 8.59375 20.453125 8.59375 31.390625 
Q 8.59375 42.28125 12.203125 53.3125 
Q 15.828125 64.359375 23.1875 75.875 
z
" id="DejaVuSans-40"/>
     <path d="M 8.015625 75.875 
L 15.828125 75.875 
Q 23.140625 64.359375 26.78125 53.3125 
Q 30.421875 42.28125 30.421875 31.390625 
Q 30.421875 20.453125 26.78125 9.375 
Q 23.140625 -1.703125 15.828125 -13.1875 
L 8.015625 -13.1875 
Q 14.5 -2 17.703125 9.0625 
Q 20.90625 20.125 20.90625 31.390625 
Q 20.90625 42.671875 17.703125 53.65625 
Q 14.5 64.65625 8.015625 75.875 
z
" id="DejaVuSans-41"/>
     <path d="M 44.28125 53.078125 
L 44.28125 44.578125 
Q 40.484375 46.53125 36.375 47.5 
Q 32.28125 48.484375 27.875 48.484375 
Q 21.1875 48.484375 17.84375 46.4375 
Q 14.5 44.390625 14.5 40.28125 
Q 14.5 37.15625 16.890625 35.375 
Q 19.28125 33.59375 26.515625 31.984375 
L 29.59375 31.296875 
Q 39.15625 29.25 43.1875 25.515625 
Q 47.21875 21.78125 47.21875 15.09375 
Q 47.21875 7.46875 41.1875 3.015625 
Q 35.15625 -1.421875 24.609375 -1.421875 
Q 20.21875 -1.421875 15.453125 -0.5625 
Q 10.6875 0.296875 5.421875 2 
L 5.421875 11.28125 
Q 10.40625 8.6875 15.234375 7.390625 
Q 20.0625 6.109375 24.8125 6.109375 
Q 31.15625 6.109375 34.5625 8.28125 
Q 37.984375 10.453125 37.984375 14.40625 
Q 37.984375 18.0625 35.515625 20.015625 
Q 33.0625 21.96875 24.703125 23.78125 
L 21.578125 24.515625 
Q 13.234375 26.265625 9.515625 29.90625 
Q 5.8125 33.546875 5.8125 39.890625 
Q 5.8125 47.609375 11.28125 51.796875 
Q 16.75 56 26.8125 56 
Q 31.78125 56 36.171875 55.265625 
Q 40.578125 54.546875 44.28125 53.078125 
z
" id="DejaVuSans-115"/>
     <path d="M 54.890625 33.015625 
L 54.890625 0 
L 45.90625 0 
L 45.90625 32.71875 
Q 45.90625 40.484375 42.875 44.328125 
Q 39.84375 48.1875 33.796875 48.1875 
Q 26.515625 48.1875 22.3125 43.546875 
Q 18.109375 38.921875 18.109375 30.90625 
L 18.109375 0 
L 9.078125 0 
L 9.078125 75.984375 
L 18.109375 75.984375 
L 18.109375 46.1875 
Q 21.34375 51.125 25.703125 53.5625 
Q 30.078125 56 35.796875 56 
Q 45.21875 56 50.046875 50.171875 
Q 54.890625 44.34375 54.890625 33.015625 
z
" id="DejaVuSans-104"/>
    </defs>
    <g transform="translate(74.78796 16.318125)scale(0.12 -0.12)">
     <use xlink:href="#DejaVuSans-110"/>
     <use x="63.378906" xlink:href="#DejaVuSans-117"/>
     <use x="126.757812" xlink:href="#DejaVuSans-109"/>
     <use x="224.169922" xlink:href="#DejaVuSans-98"/>
     <use x="287.646484" xlink:href="#DejaVuSans-101"/>
     <use x="349.169922" xlink:href="#DejaVuSans-114"/>
     <use x="390.283203" xlink:href="#DejaVuSans-32"/>
     <use x="422.070312" xlink:href="#DejaVuSans-40"/>
     <use x="461.083984" xlink:href="#DejaVuSans-110"/>
     <use x="524.462891" xlink:href="#DejaVuSans-41"/>
     <use x="563.476562" xlink:href="#DejaVuSans-32"/>
     <use x="595.263672" xlink:href="#DejaVuSans-111"/>
     <use x="656.445312" xlink:href="#DejaVuSans-102"/>
     <use x="691.650391" xlink:href="#DejaVuSans-32"/>
     <use x="723.4375" xlink:href="#DejaVuSans-97"/>
     <use x="784.716797" xlink:href="#DejaVuSans-116"/>
     <use x="823.925781" xlink:href="#DejaVuSans-111"/>
     <use x="885.107422" xlink:href="#DejaVuSans-109"/>
     <use x="982.519531" xlink:href="#DejaVuSans-115"/>
     <use x="1034.619141" xlink:href="#DejaVuSans-32"/>
     <use x="1066.40625" xlink:href="#DejaVuSans-40"/>
     <use x="1105.419922" xlink:href="#DejaVuSans-97"/>
     <use x="1166.699219" xlink:href="#DejaVuSans-41"/>
     <use x="1205.712891" xlink:href="#DejaVuSans-32"/>
     <use x="1237.5" xlink:href="#DejaVuSans-112"/>
     <use x="1300.976562" xlink:href="#DejaVuSans-101"/>
     <use x="1362.5" xlink:href="#DejaVuSans-114"/>
     <use x="1403.613281" xlink:href="#DejaVuSans-32"/>
     <use x="1435.400391" xlink:href="#DejaVuSans-112"/>
     <use x="1498.876953" xlink:href="#DejaVuSans-104"/>
     <use x="1562.255859" xlink:href="#DejaVuSans-114"/>
     <use x="1603.369141" xlink:href="#DejaVuSans-97"/>
     <use x="1664.648438" xlink:href="#DejaVuSans-115"/>
     <use x="1716.748047" xlink:href="#DejaVuSans-101"/>
     <use x="1778.271484" xlink:href="#DejaVuSans-32"/>
     <use x="1810.058594" xlink:href="#DejaVuSans-102"/>
     <use x="1845.263672" xlink:href="#DejaVuSans-117"/>
     <use x="1908.642578" xlink:href="#DejaVuSans-110"/>
     <use x="1972.021484" xlink:href="#DejaVuSans-99"/>
     <use x="2027.001953" xlink:href="#DejaVuSans-116"/>
     <use x="2066.210938" xlink:href="#DejaVuSans-105"/>
     <use x="2093.994141" xlink:href="#DejaVuSans-111"/>
     <use x="2155.175781" xlink:href="#DejaVuSans-110"/>
    </g>
   </g>
   <g id="legend_1">
    <g id="patch_31">
     <path d="M 299.452482 59.674375 
L 365.016544 59.674375 
Q 367.016544 59.674375 367.016544 57.674375 
L 367.016544 29.318125 
Q 367.016544 27.318125 365.016544 27.318125 
L 299.452482 27.318125 
Q 297.452482 27.318125 297.452482 29.318125 
L 297.452482 57.674375 
Q 297.452482 59.674375 299.452482 59.674375 
z
" style="fill:#ffffff;opacity:0.8;stroke:#cccccc;stroke-linejoin:miter;"/>
    </g>
    <g id="patch_32">
     <path d="M 301.452482 38.916562 
L 321.452482 38.916562 
L 321.452482 31.916562 
L 301.452482 31.916562 
z
" style="fill:#d3d3d3;stroke:#000000;stroke-linejoin:miter;"/>
    </g>
    <g id="text_23">
     <!-- na = 1 -->
     <defs>
      <path d="M 10.59375 45.40625 
L 73.1875 45.40625 
L 73.1875 37.203125 
L 10.59375 37.203125 
z
M 10.59375 25.484375 
L 73.1875 25.484375 
L 73.1875 17.1875 
L 10.59375 17.1875 
z
" id="DejaVuSans-61"/>
     </defs>
     <g transform="translate(329.452482 38.916562)scale(0.1 -0.1)">
      <use xlink:href="#DejaVuSans-110"/>
      <use x="63.378906" xlink:href="#DejaVuSans-97"/>
      <use x="124.658203" xlink:href="#DejaVuSans-32"/>
      <use x="156.445312" xlink:href="#DejaVuSans-61"/>
      <use x="240.234375" xlink:href="#DejaVuSans-32"/>
      <use x="272.021484" xlink:href="#DejaVuSans-49"/>
     </g>
    </g>
    <g id="patch_33">
     <path d="M 301.452482 53.594688 
L 321.452482 53.594688 
L 321.452482 46.594688 
L 301.452482 46.594688 
z
" style="fill:#ffffff;stroke:#000000;stroke-linejoin:miter;"/>
    </g>
    <g id="text_24">
     <!-- na &gt; 1 -->
     <defs>
      <path d="M 10.59375 49.21875 
L 10.59375 58.109375 
L 73.1875 35.40625 
L 73.1875 27.296875 
L 10.59375 4.59375 
L 10.59375 13.484375 
L 60.890625 31.296875 
z
" id="DejaVuSans-62"/>
     </defs>
     <g transform="translate(329.452482 53.594688)scale(0.1 -0.1)">
      <use xlink:href="#DejaVuSans-110"/>
      <use x="63.378906" xlink:href="#DejaVuSans-97"/>
      <use x="124.658203" xlink:href="#DejaVuSans-32"/>
      <use x="156.445312" xlink:href="#DejaVuSans-62"/>
      <use x="240.234375" xlink:href="#DejaVuSans-32"/>
      <use x="272.021484" xlink:href="#DejaVuSans-49"/>
     </g>
    </g>
   </g>
  </g>
  <g id="axes_2">
   <g id="patch_34">
    <path d="M 437.663603 348.478125 
L 765.898897 348.478125 
L 765.898897 22.318125 
L 437.663603 22.318125 
z
" style="fill:#ffffff;"/>
   </g>
   <g id="matplotlib.axis_3">
    <g id="xtick_13">
     <g id="line2d_28">
      <g>
       <use style="stroke:#000000;stroke-width:0.8;" x="453.806322" xlink:href="#mcf694a3ebb" y="348.478125"/>
      </g>
     </g>
     <g id="text_25">
      <!-- Adju -->
      <g transform="translate(456.565697 377.78125)rotate(-90)scale(0.1 -0.1)">
       <use xlink:href="#DejaVuSans-65"/>
       <use x="68.392578" xlink:href="#DejaVuSans-100"/>
       <use x="131.869141" xlink:href="#DejaVuSans-106"/>
       <use x="159.652344" xlink:href="#DejaVuSans-117"/>
      </g>
     </g>
    </g>
    <g id="xtick_14">
     <g id="line2d_29">
      <g>
       <use style="stroke:#000000;stroke-width:0.8;" x="480.710855" xlink:href="#mcf694a3ebb" y="348.478125"/>
      </g>
     </g>
     <g id="text_26">
      <!-- Cmpl -->
      <g transform="translate(483.47023 381.328125)rotate(-90)scale(0.1 -0.1)">
       <use xlink:href="#DejaVuSans-67"/>
       <use x="69.824219" xlink:href="#DejaVuSans-109"/>
       <use x="167.236328" xlink:href="#DejaVuSans-112"/>
       <use x="230.712891" xlink:href="#DejaVuSans-108"/>
      </g>
     </g>
    </g>
    <g id="xtick_15">
     <g id="line2d_30">
      <g>
       <use style="stroke:#000000;stroke-width:0.8;" x="507.615387" xlink:href="#mcf694a3ebb" y="348.478125"/>
      </g>
     </g>
     <g id="text_27">
      <!-- Conj -->
      <g transform="translate(510.374762 377.695312)rotate(-90)scale(0.1 -0.1)">
       <use xlink:href="#DejaVuSans-67"/>
       <use x="69.824219" xlink:href="#DejaVuSans-111"/>
       <use x="131.005859" xlink:href="#DejaVuSans-110"/>
       <use x="194.384766" xlink:href="#DejaVuSans-106"/>
      </g>
     </g>
    </g>
    <g id="xtick_16">
     <g id="line2d_31">
      <g>
       <use style="stroke:#000000;stroke-width:0.8;" x="534.519919" xlink:href="#mcf694a3ebb" y="348.478125"/>
      </g>
     </g>
     <g id="text_28">
      <!-- Loca -->
      <g transform="translate(537.279294 378.79375)rotate(-90)scale(0.1 -0.1)">
       <use xlink:href="#DejaVuSans-76"/>
       <use x="55.697266" xlink:href="#DejaVuSans-111"/>
       <use x="116.878906" xlink:href="#DejaVuSans-99"/>
       <use x="171.859375" xlink:href="#DejaVuSans-97"/>
      </g>
     </g>
    </g>
    <g id="xtick_17">
     <g id="line2d_32">
      <g>
       <use style="stroke:#000000;stroke-width:0.8;" x="561.424452" xlink:href="#mcf694a3ebb" y="348.478125"/>
      </g>
     </g>
     <g id="text_29">
      <!-- Modi -->
      <g transform="translate(564.183827 379.351562)rotate(-90)scale(0.1 -0.1)">
       <use xlink:href="#DejaVuSans-77"/>
       <use x="86.279297" xlink:href="#DejaVuSans-111"/>
       <use x="147.460938" xlink:href="#DejaVuSans-100"/>
       <use x="210.9375" xlink:href="#DejaVuSans-105"/>
      </g>
     </g>
    </g>
    <g id="xtick_18">
     <g id="line2d_33">
      <g>
       <use style="stroke:#000000;stroke-width:0.8;" x="588.328984" xlink:href="#mcf694a3ebb" y="348.478125"/>
      </g>
     </g>
     <g id="text_30">
      <!-- Nega -->
      <g transform="translate(591.088359 381.589063)rotate(-90)scale(0.1 -0.1)">
       <use xlink:href="#DejaVuSans-78"/>
       <use x="74.804688" xlink:href="#DejaVuSans-101"/>
       <use x="136.328125" xlink:href="#DejaVuSans-103"/>
       <use x="199.804688" xlink:href="#DejaVuSans-97"/>
      </g>
     </g>
    </g>
    <g id="xtick_19">
     <g id="line2d_34">
      <g>
       <use style="stroke:#000000;stroke-width:0.8;" x="615.233516" xlink:href="#mcf694a3ebb" y="348.478125"/>
      </g>
     </g>
     <g id="text_31">
      <!-- Objc -->
      <g transform="translate(617.992891 377.975)rotate(-90)scale(0.1 -0.1)">
       <use xlink:href="#DejaVuSans-79"/>
       <use x="78.710938" xlink:href="#DejaVuSans-98"/>
       <use x="142.1875" xlink:href="#DejaVuSans-106"/>
       <use x="169.970703" xlink:href="#DejaVuSans-99"/>
      </g>
     </g>
    </g>
    <g id="xtick_20">
     <g id="line2d_35">
      <g>
       <use style="stroke:#000000;stroke-width:0.8;" x="642.138048" xlink:href="#mcf694a3ebb" y="348.478125"/>
      </g>
     </g>
     <g id="text_32">
      <!-- PreC -->
      <g transform="translate(644.897423 378.75)rotate(-90)scale(0.1 -0.1)">
       <use xlink:href="#DejaVuSans-80"/>
       <use x="60.287109" xlink:href="#DejaVuSans-114"/>
       <use x="101.369141" xlink:href="#DejaVuSans-101"/>
       <use x="162.892578" xlink:href="#DejaVuSans-67"/>
      </g>
     </g>
    </g>
    <g id="xtick_21">
     <g id="line2d_36">
      <g>
       <use style="stroke:#000000;stroke-width:0.8;" x="669.042581" xlink:href="#mcf694a3ebb" y="348.478125"/>
      </g>
     </g>
     <g id="text_33">
      <!-- Pred -->
      <g transform="translate(671.801956 378.115625)rotate(-90)scale(0.1 -0.1)">
       <use xlink:href="#DejaVuSans-80"/>
       <use x="60.287109" xlink:href="#DejaVuSans-114"/>
       <use x="101.369141" xlink:href="#DejaVuSans-101"/>
       <use x="162.892578" xlink:href="#DejaVuSans-100"/>
      </g>
     </g>
    </g>
    <g id="xtick_22">
     <g id="line2d_37">
      <g>
       <use style="stroke:#000000;stroke-width:0.8;" x="695.947113" xlink:href="#mcf694a3ebb" y="348.478125"/>
      </g>
     </g>
     <g id="text_34">
      <!-- Rela -->
      <g transform="translate(698.706488 377.479688)rotate(-90)scale(0.1 -0.1)">
       <use xlink:href="#DejaVuSans-82"/>
       <use x="69.419922" xlink:href="#DejaVuSans-101"/>
       <use x="130.943359" xlink:href="#DejaVuSans-108"/>
       <use x="158.726562" xlink:href="#DejaVuSans-97"/>
      </g>
     </g>
    </g>
    <g id="xtick_23">
     <g id="line2d_38">
      <g>
       <use style="stroke:#000000;stroke-width:0.8;" x="722.851645" xlink:href="#mcf694a3ebb" y="348.478125"/>
      </g>
     </g>
     <g id="text_35">
      <!-- Subj -->
      <g transform="translate(725.61102 377.290625)rotate(-90)scale(0.1 -0.1)">
       <use xlink:href="#DejaVuSans-83"/>
       <use x="63.476562" xlink:href="#DejaVuSans-117"/>
       <use x="126.855469" xlink:href="#DejaVuSans-98"/>
       <use x="190.332031" xlink:href="#DejaVuSans-106"/>
      </g>
     </g>
    </g>
    <g id="xtick_24">
     <g id="line2d_39">
      <g>
       <use style="stroke:#000000;stroke-width:0.8;" x="749.756178" xlink:href="#mcf694a3ebb" y="348.478125"/>
      </g>
     </g>
     <g id="text_36">
      <!-- Time -->
      <g transform="translate(752.515553 380.253125)rotate(-90)scale(0.1 -0.1)">
       <use xlink:href="#DejaVuSans-84"/>
       <use x="61.037109" xlink:href="#DejaVuSans-105"/>
       <use x="88.820312" xlink:href="#DejaVuSans-109"/>
       <use x="186.232422" xlink:href="#DejaVuSans-101"/>
      </g>
     </g>
    </g>
    <g id="text_37">
     <!-- function -->
     <g transform="translate(581.357031 393.1875)scale(0.1 -0.1)">
      <use xlink:href="#DejaVuSans-102"/>
      <use x="35.205078" xlink:href="#DejaVuSans-117"/>
      <use x="98.583984" xlink:href="#DejaVuSans-110"/>
      <use x="161.962891" xlink:href="#DejaVuSans-99"/>
      <use x="216.943359" xlink:href="#DejaVuSans-116"/>
      <use x="256.152344" xlink:href="#DejaVuSans-105"/>
      <use x="283.935547" xlink:href="#DejaVuSans-111"/>
      <use x="345.117188" xlink:href="#DejaVuSans-110"/>
     </g>
    </g>
   </g>
   <g id="matplotlib.axis_4">
    <g id="ytick_8">
     <g id="line2d_40">
      <path clip-path="url(#pa7665e0bb4)" d="M 437.663603 348.478125 
L 765.898897 348.478125 
" style="fill:none;stroke:#b0b0b0;stroke-linecap:square;stroke-width:0.8;"/>
     </g>
     <g id="line2d_41">
      <g>
       <use style="stroke:#000000;stroke-width:0.8;" x="437.663603" xlink:href="#mc5ae819bb5" y="348.478125"/>
      </g>
     </g>
     <g id="text_38">
      <!-- 0.0 -->
      <g transform="translate(414.760478 352.277344)scale(0.1 -0.1)">
       <use xlink:href="#DejaVuSans-48"/>
       <use x="63.623047" xlink:href="#DejaVuSans-46"/>
       <use x="95.410156" xlink:href="#DejaVuSans-48"/>
      </g>
     </g>
    </g>
    <g id="ytick_9">
     <g id="line2d_42">
      <path clip-path="url(#pa7665e0bb4)" d="M 437.663603 294.118125 
L 765.898897 294.118125 
" style="fill:none;stroke:#b0b0b0;stroke-linecap:square;stroke-width:0.8;"/>
     </g>
     <g id="line2d_43">
      <g>
       <use style="stroke:#000000;stroke-width:0.8;" x="437.663603" xlink:href="#mc5ae819bb5" y="294.118125"/>
      </g>
     </g>
     <g id="text_39">
      <!-- 0.2 -->
      <g transform="translate(414.760478 297.917344)scale(0.1 -0.1)">
       <use xlink:href="#DejaVuSans-48"/>
       <use x="63.623047" xlink:href="#DejaVuSans-46"/>
       <use x="95.410156" xlink:href="#DejaVuSans-50"/>
      </g>
     </g>
    </g>
    <g id="ytick_10">
     <g id="line2d_44">
      <path clip-path="url(#pa7665e0bb4)" d="M 437.663603 239.758125 
L 765.898897 239.758125 
" style="fill:none;stroke:#b0b0b0;stroke-linecap:square;stroke-width:0.8;"/>
     </g>
     <g id="line2d_45">
      <g>
       <use style="stroke:#000000;stroke-width:0.8;" x="437.663603" xlink:href="#mc5ae819bb5" y="239.758125"/>
      </g>
     </g>
     <g id="text_40">
      <!-- 0.4 -->
      <g transform="translate(414.760478 243.557344)scale(0.1 -0.1)">
       <use xlink:href="#DejaVuSans-48"/>
       <use x="63.623047" xlink:href="#DejaVuSans-46"/>
       <use x="95.410156" xlink:href="#DejaVuSans-52"/>
      </g>
     </g>
    </g>
    <g id="ytick_11">
     <g id="line2d_46">
      <path clip-path="url(#pa7665e0bb4)" d="M 437.663603 185.398125 
L 765.898897 185.398125 
" style="fill:none;stroke:#b0b0b0;stroke-linecap:square;stroke-width:0.8;"/>
     </g>
     <g id="line2d_47">
      <g>
       <use style="stroke:#000000;stroke-width:0.8;" x="437.663603" xlink:href="#mc5ae819bb5" y="185.398125"/>
      </g>
     </g>
     <g id="text_41">
      <!-- 0.6 -->
      <g transform="translate(414.760478 189.197344)scale(0.1 -0.1)">
       <use xlink:href="#DejaVuSans-48"/>
       <use x="63.623047" xlink:href="#DejaVuSans-46"/>
       <use x="95.410156" xlink:href="#DejaVuSans-54"/>
      </g>
     </g>
    </g>
    <g id="ytick_12">
     <g id="line2d_48">
      <path clip-path="url(#pa7665e0bb4)" d="M 437.663603 131.038125 
L 765.898897 131.038125 
" style="fill:none;stroke:#b0b0b0;stroke-linecap:square;stroke-width:0.8;"/>
     </g>
     <g id="line2d_49">
      <g>
       <use style="stroke:#000000;stroke-width:0.8;" x="437.663603" xlink:href="#mc5ae819bb5" y="131.038125"/>
      </g>
     </g>
     <g id="text_42">
      <!-- 0.8 -->
      <g transform="translate(414.760478 134.837344)scale(0.1 -0.1)">
       <use xlink:href="#DejaVuSans-48"/>
       <use x="63.623047" xlink:href="#DejaVuSans-46"/>
       <use x="95.410156" xlink:href="#DejaVuSans-56"/>
      </g>
     </g>
    </g>
    <g id="ytick_13">
     <g id="line2d_50">
      <path clip-path="url(#pa7665e0bb4)" d="M 437.663603 76.678125 
L 765.898897 76.678125 
" style="fill:none;stroke:#b0b0b0;stroke-linecap:square;stroke-width:0.8;"/>
     </g>
     <g id="line2d_51">
      <g>
       <use style="stroke:#000000;stroke-width:0.8;" x="437.663603" xlink:href="#mc5ae819bb5" y="76.678125"/>
      </g>
     </g>
     <g id="text_43">
      <!-- 1.0 -->
      <g transform="translate(414.760478 80.477344)scale(0.1 -0.1)">
       <use xlink:href="#DejaVuSans-49"/>
       <use x="63.623047" xlink:href="#DejaVuSans-46"/>
       <use x="95.410156" xlink:href="#DejaVuSans-48"/>
      </g>
     </g>
    </g>
    <g id="ytick_14">
     <g id="line2d_52">
      <path clip-path="url(#pa7665e0bb4)" d="M 437.663603 22.318125 
L 765.898897 22.318125 
" style="fill:none;stroke:#b0b0b0;stroke-linecap:square;stroke-width:0.8;"/>
     </g>
     <g id="line2d_53">
      <g>
       <use style="stroke:#000000;stroke-width:0.8;" x="437.663603" xlink:href="#mc5ae819bb5" y="22.318125"/>
      </g>
     </g>
     <g id="text_44">
      <!-- 1.2 -->
      <g transform="translate(414.760478 26.117344)scale(0.1 -0.1)">
       <use xlink:href="#DejaVuSans-49"/>
       <use x="63.623047" xlink:href="#DejaVuSans-46"/>
       <use x="95.410156" xlink:href="#DejaVuSans-50"/>
      </g>
     </g>
    </g>
    <g id="text_45">
     <!-- percentage % -->
     <g transform="translate(408.68079 220.312187)rotate(-90)scale(0.1 -0.1)">
      <use xlink:href="#DejaVuSans-112"/>
      <use x="63.476562" xlink:href="#DejaVuSans-101"/>
      <use x="125" xlink:href="#DejaVuSans-114"/>
      <use x="166.082031" xlink:href="#DejaVuSans-99"/>
      <use x="221.0625" xlink:href="#DejaVuSans-101"/>
      <use x="282.585938" xlink:href="#DejaVuSans-110"/>
      <use x="345.964844" xlink:href="#DejaVuSans-116"/>
      <use x="385.173828" xlink:href="#DejaVuSans-97"/>
      <use x="446.453125" xlink:href="#DejaVuSans-103"/>
      <use x="509.929688" xlink:href="#DejaVuSans-101"/>
      <use x="571.453125" xlink:href="#DejaVuSans-32"/>
      <use x="603.240234" xlink:href="#DejaVuSans-37"/>
     </g>
    </g>
   </g>
   <g id="patch_35">
    <path clip-path="url(#pa7665e0bb4)" d="M 444.389736 348.478125 
L 453.806322 348.478125 
L 453.806322 86.93419 
L 444.389736 86.93419 
z
" style="fill:#d3d3d3;stroke:#000000;stroke-linejoin:miter;"/>
   </g>
   <g id="patch_36">
    <path clip-path="url(#pa7665e0bb4)" d="M 471.294268 348.478125 
L 480.710855 348.478125 
L 480.710855 86.387853 
L 471.294268 86.387853 
z
" style="fill:#d3d3d3;stroke:#000000;stroke-linejoin:miter;"/>
   </g>
   <g id="patch_37">
    <path clip-path="url(#pa7665e0bb4)" d="M 498.198801 348.478125 
L 507.615387 348.478125 
L 507.615387 76.684014 
L 498.198801 76.684014 
z
" style="fill:#d3d3d3;stroke:#000000;stroke-linejoin:miter;"/>
   </g>
   <g id="patch_38">
    <path clip-path="url(#pa7665e0bb4)" d="M 525.103333 348.478125 
L 534.519919 348.478125 
L 534.519919 90.967039 
L 525.103333 90.967039 
z
" style="fill:#d3d3d3;stroke:#000000;stroke-linejoin:miter;"/>
   </g>
   <g id="patch_39">
    <path clip-path="url(#pa7665e0bb4)" d="M 552.007865 348.478125 
L 561.424452 348.478125 
L 561.424452 76.76392 
L 552.007865 76.76392 
z
" style="fill:#d3d3d3;stroke:#000000;stroke-linejoin:miter;"/>
   </g>
   <g id="patch_40">
    <path clip-path="url(#pa7665e0bb4)" d="M 578.912398 348.478125 
L 588.328984 348.478125 
L 588.328984 76.678125 
L 578.912398 76.678125 
z
" style="fill:#d3d3d3;stroke:#000000;stroke-linejoin:miter;"/>
   </g>
   <g id="patch_41">
    <path clip-path="url(#pa7665e0bb4)" d="M 605.81693 348.478125 
L 615.233516 348.478125 
L 615.233516 92.33768 
L 605.81693 92.33768 
z
" style="fill:#d3d3d3;stroke:#000000;stroke-linejoin:miter;"/>
   </g>
   <g id="patch_42">
    <path clip-path="url(#pa7665e0bb4)" d="M 632.721462 348.478125 
L 642.138048 348.478125 
L 642.138048 85.661048 
L 632.721462 85.661048 
z
" style="fill:#d3d3d3;stroke:#000000;stroke-linejoin:miter;"/>
   </g>
   <g id="patch_43">
    <path clip-path="url(#pa7665e0bb4)" d="M 659.625994 348.478125 
L 669.042581 348.478125 
L 669.042581 77.118838 
L 659.625994 77.118838 
z
" style="fill:#d3d3d3;stroke:#000000;stroke-linejoin:miter;"/>
   </g>
   <g id="patch_44">
    <path clip-path="url(#pa7665e0bb4)" d="M 686.530527 348.478125 
L 695.947113 348.478125 
L 695.947113 76.806981 
L 686.530527 76.806981 
z
" style="fill:#d3d3d3;stroke:#000000;stroke-linejoin:miter;"/>
   </g>
   <g id="patch_45">
    <path clip-path="url(#pa7665e0bb4)" d="M 713.435059 348.478125 
L 722.851645 348.478125 
L 722.851645 87.013534 
L 713.435059 87.013534 
z
" style="fill:#d3d3d3;stroke:#000000;stroke-linejoin:miter;"/>
   </g>
   <g id="patch_46">
    <path clip-path="url(#pa7665e0bb4)" d="M 740.339591 348.478125 
L 749.756178 348.478125 
L 749.756178 80.978574 
L 740.339591 80.978574 
z
" style="fill:#d3d3d3;stroke:#000000;stroke-linejoin:miter;"/>
   </g>
   <g id="patch_47">
    <path clip-path="url(#pa7665e0bb4)" d="M 453.806322 348.478125 
L 463.222909 348.478125 
L 463.222909 338.22206 
L 453.806322 338.22206 
z
" style="fill:#ffffff;stroke:#000000;stroke-linejoin:miter;"/>
   </g>
   <g id="patch_48">
    <path clip-path="url(#pa7665e0bb4)" d="M 480.710855 348.478125 
L 490.127441 348.478125 
L 490.127441 338.768397 
L 480.710855 338.768397 
z
" style="fill:#ffffff;stroke:#000000;stroke-linejoin:miter;"/>
   </g>
   <g id="patch_49">
    <path clip-path="url(#pa7665e0bb4)" d="M 507.615387 348.478125 
L 517.031973 348.478125 
L 517.031973 348.472236 
L 507.615387 348.472236 
z
" style="fill:#ffffff;stroke:#000000;stroke-linejoin:miter;"/>
   </g>
   <g id="patch_50">
    <path clip-path="url(#pa7665e0bb4)" d="M 534.519919 348.478125 
L 543.936506 348.478125 
L 543.936506 334.189211 
L 534.519919 334.189211 
z
" style="fill:#ffffff;stroke:#000000;stroke-linejoin:miter;"/>
   </g>
   <g id="patch_51">
    <path clip-path="url(#pa7665e0bb4)" d="M 561.424452 348.478125 
L 570.841038 348.478125 
L 570.841038 348.39233 
L 561.424452 348.39233 
z
" style="fill:#ffffff;stroke:#000000;stroke-linejoin:miter;"/>
   </g>
   <g id="patch_52">
    <path clip-path="url(#pa7665e0bb4)" d="M 588.328984 348.478125 
L 597.74557 348.478125 
L 597.74557 348.478125 
L 588.328984 348.478125 
z
" style="fill:#ffffff;stroke:#000000;stroke-linejoin:miter;"/>
   </g>
   <g id="patch_53">
    <path clip-path="url(#pa7665e0bb4)" d="M 615.233516 348.478125 
L 624.650102 348.478125 
L 624.650102 332.81857 
L 615.233516 332.81857 
z
" style="fill:#ffffff;stroke:#000000;stroke-linejoin:miter;"/>
   </g>
   <g id="patch_54">
    <path clip-path="url(#pa7665e0bb4)" d="M 642.138048 348.478125 
L 651.554635 348.478125 
L 651.554635 339.495202 
L 642.138048 339.495202 
z
" style="fill:#ffffff;stroke:#000000;stroke-linejoin:miter;"/>
   </g>
   <g id="patch_55">
    <path clip-path="url(#pa7665e0bb4)" d="M 669.042581 348.478125 
L 678.459167 348.478125 
L 678.459167 348.037412 
L 669.042581 348.037412 
z
" style="fill:#ffffff;stroke:#000000;stroke-linejoin:miter;"/>
   </g>
   <g id="patch_56">
    <path clip-path="url(#pa7665e0bb4)" d="M 695.947113 348.478125 
L 705.363699 348.478125 
L 705.363699 348.349269 
L 695.947113 348.349269 
z
" style="fill:#ffffff;stroke:#000000;stroke-linejoin:miter;"/>
   </g>
   <g id="patch_57">
    <path clip-path="url(#pa7665e0bb4)" d="M 722.851645 348.478125 
L 732.268232 348.478125 
L 732.268232 338.142716 
L 722.851645 338.142716 
z
" style="fill:#ffffff;stroke:#000000;stroke-linejoin:miter;"/>
   </g>
   <g id="patch_58">
    <path clip-path="url(#pa7665e0bb4)" d="M 749.756178 348.478125 
L 759.172764 348.478125 
L 759.172764 344.177676 
L 749.756178 344.177676 
z
" style="fill:#ffffff;stroke:#000000;stroke-linejoin:miter;"/>
   </g>
   <g id="line2d_54">
    <path clip-path="url(#pa7665e0bb4)" d="M 437.663603 92.33768 
L 765.898897 92.33768 
" style="fill:none;stroke:#1f77b4;stroke-linecap:square;stroke-opacity:0.8;stroke-width:1.5;"/>
   </g>
   <g id="patch_59">
    <path d="M 437.663603 348.478125 
L 437.663603 22.318125 
" style="fill:none;stroke:#000000;stroke-linecap:square;stroke-linejoin:miter;stroke-width:0.8;"/>
   </g>
   <g id="patch_60">
    <path d="M 765.898897 348.478125 
L 765.898897 22.318125 
" style="fill:none;stroke:#000000;stroke-linecap:square;stroke-linejoin:miter;stroke-width:0.8;"/>
   </g>
   <g id="patch_61">
    <path d="M 437.663603 348.478125 
L 765.898897 348.478125 
" style="fill:none;stroke:#000000;stroke-linecap:square;stroke-linejoin:miter;stroke-width:0.8;"/>
   </g>
   <g id="patch_62">
    <path d="M 437.663603 22.318125 
L 765.898897 22.318125 
" style="fill:none;stroke:#000000;stroke-linecap:square;stroke-linejoin:miter;stroke-width:0.8;"/>
   </g>
   <g id="text_46">
    <!-- number (n) of daughter (d) relations per phrase function -->
    <g transform="translate(431.772187 16.318125)scale(0.12 -0.12)">
     <use xlink:href="#DejaVuSans-110"/>
     <use x="63.378906" xlink:href="#DejaVuSans-117"/>
     <use x="126.757812" xlink:href="#DejaVuSans-109"/>
     <use x="224.169922" xlink:href="#DejaVuSans-98"/>
     <use x="287.646484" xlink:href="#DejaVuSans-101"/>
     <use x="349.169922" xlink:href="#DejaVuSans-114"/>
     <use x="390.283203" xlink:href="#DejaVuSans-32"/>
     <use x="422.070312" xlink:href="#DejaVuSans-40"/>
     <use x="461.083984" xlink:href="#DejaVuSans-110"/>
     <use x="524.462891" xlink:href="#DejaVuSans-41"/>
     <use x="563.476562" xlink:href="#DejaVuSans-32"/>
     <use x="595.263672" xlink:href="#DejaVuSans-111"/>
     <use x="656.445312" xlink:href="#DejaVuSans-102"/>
     <use x="691.650391" xlink:href="#DejaVuSans-32"/>
     <use x="723.4375" xlink:href="#DejaVuSans-100"/>
     <use x="786.914062" xlink:href="#DejaVuSans-97"/>
     <use x="848.193359" xlink:href="#DejaVuSans-117"/>
     <use x="911.572266" xlink:href="#DejaVuSans-103"/>
     <use x="975.048828" xlink:href="#DejaVuSans-104"/>
     <use x="1038.427734" xlink:href="#DejaVuSans-116"/>
     <use x="1077.636719" xlink:href="#DejaVuSans-101"/>
     <use x="1139.160156" xlink:href="#DejaVuSans-114"/>
     <use x="1180.273438" xlink:href="#DejaVuSans-32"/>
     <use x="1212.060547" xlink:href="#DejaVuSans-40"/>
     <use x="1251.074219" xlink:href="#DejaVuSans-100"/>
     <use x="1314.550781" xlink:href="#DejaVuSans-41"/>
     <use x="1353.564453" xlink:href="#DejaVuSans-32"/>
     <use x="1385.351562" xlink:href="#DejaVuSans-114"/>
     <use x="1426.433594" xlink:href="#DejaVuSans-101"/>
     <use x="1487.957031" xlink:href="#DejaVuSans-108"/>
     <use x="1515.740234" xlink:href="#DejaVuSans-97"/>
     <use x="1577.019531" xlink:href="#DejaVuSans-116"/>
     <use x="1616.228516" xlink:href="#DejaVuSans-105"/>
     <use x="1644.011719" xlink:href="#DejaVuSans-111"/>
     <use x="1705.193359" xlink:href="#DejaVuSans-110"/>
     <use x="1768.572266" xlink:href="#DejaVuSans-115"/>
     <use x="1820.671875" xlink:href="#DejaVuSans-32"/>
     <use x="1852.458984" xlink:href="#DejaVuSans-112"/>
     <use x="1915.935547" xlink:href="#DejaVuSans-101"/>
     <use x="1977.458984" xlink:href="#DejaVuSans-114"/>
     <use x="2018.572266" xlink:href="#DejaVuSans-32"/>
     <use x="2050.359375" xlink:href="#DejaVuSans-112"/>
     <use x="2113.835938" xlink:href="#DejaVuSans-104"/>
     <use x="2177.214844" xlink:href="#DejaVuSans-114"/>
     <use x="2218.328125" xlink:href="#DejaVuSans-97"/>
     <use x="2279.607422" xlink:href="#DejaVuSans-115"/>
     <use x="2331.707031" xlink:href="#DejaVuSans-101"/>
     <use x="2393.230469" xlink:href="#DejaVuSans-32"/>
     <use x="2425.017578" xlink:href="#DejaVuSans-102"/>
     <use x="2460.222656" xlink:href="#DejaVuSans-117"/>
     <use x="2523.601562" xlink:href="#DejaVuSans-110"/>
     <use x="2586.980469" xlink:href="#DejaVuSans-99"/>
     <use x="2641.960938" xlink:href="#DejaVuSans-116"/>
     <use x="2681.169922" xlink:href="#DejaVuSans-105"/>
     <use x="2708.953125" xlink:href="#DejaVuSans-111"/>
     <use x="2770.134766" xlink:href="#DejaVuSans-110"/>
    </g>
   </g>
   <g id="legend_2">
    <g id="patch_63">
     <path d="M 693.114522 59.674375 
L 758.898897 59.674375 
Q 760.898897 59.674375 760.898897 57.674375 
L 760.898897 29.318125 
Q 760.898897 27.318125 758.898897 27.318125 
L 693.114522 27.318125 
Q 691.114522 27.318125 691.114522 29.318125 
L 691.114522 57.674375 
Q 691.114522 59.674375 693.114522 59.674375 
z
" style="fill:#ffffff;opacity:0.8;stroke:#cccccc;stroke-linejoin:miter;"/>
    </g>
    <g id="patch_64">
     <path d="M 695.114522 38.916562 
L 715.114522 38.916562 
L 715.114522 31.916562 
L 695.114522 31.916562 
z
" style="fill:#d3d3d3;stroke:#000000;stroke-linejoin:miter;"/>
    </g>
    <g id="text_47">
     <!-- nd = 0 -->
     <g transform="translate(723.114522 38.916562)scale(0.1 -0.1)">
      <use xlink:href="#DejaVuSans-110"/>
      <use x="63.378906" xlink:href="#DejaVuSans-100"/>
      <use x="126.855469" xlink:href="#DejaVuSans-32"/>
      <use x="158.642578" xlink:href="#DejaVuSans-61"/>
      <use x="242.431641" xlink:href="#DejaVuSans-32"/>
      <use x="274.21875" xlink:href="#DejaVuSans-48"/>
     </g>
    </g>
    <g id="patch_65">
     <path d="M 695.114522 53.594688 
L 715.114522 53.594688 
L 715.114522 46.594688 
L 695.114522 46.594688 
z
" style="fill:#ffffff;stroke:#000000;stroke-linejoin:miter;"/>
    </g>
    <g id="text_48">
     <!-- nd &gt; 0 -->
     <g transform="translate(723.114522 53.594688)scale(0.1 -0.1)">
      <use xlink:href="#DejaVuSans-110"/>
      <use x="63.378906" xlink:href="#DejaVuSans-100"/>
      <use x="126.855469" xlink:href="#DejaVuSans-32"/>
      <use x="158.642578" xlink:href="#DejaVuSans-62"/>
      <use x="242.431641" xlink:href="#DejaVuSans-32"/>
      <use x="274.21875" xlink:href="#DejaVuSans-48"/>
     </g>
    </g>
   </g>
  </g>
  <g id="axes_3">
   <g id="patch_66">
    <path d="M 831.545956 348.478125 
L 1159.78125 348.478125 
L 1159.78125 22.318125 
L 831.545956 22.318125 
z
" style="fill:#ffffff;"/>
   </g>
   <g id="matplotlib.axis_5">
    <g id="xtick_25">
     <g id="line2d_55">
      <g>
       <use style="stroke:#000000;stroke-width:0.8;" x="847.688675" xlink:href="#mcf694a3ebb" y="348.478125"/>
      </g>
     </g>
     <g id="text_49">
      <!-- Adju -->
      <g transform="translate(850.44805 377.78125)rotate(-90)scale(0.1 -0.1)">
       <use xlink:href="#DejaVuSans-65"/>
       <use x="68.392578" xlink:href="#DejaVuSans-100"/>
       <use x="131.869141" xlink:href="#DejaVuSans-106"/>
       <use x="159.652344" xlink:href="#DejaVuSans-117"/>
      </g>
     </g>
    </g>
    <g id="xtick_26">
     <g id="line2d_56">
      <g>
       <use style="stroke:#000000;stroke-width:0.8;" x="874.593208" xlink:href="#mcf694a3ebb" y="348.478125"/>
      </g>
     </g>
     <g id="text_50">
      <!-- Cmpl -->
      <g transform="translate(877.352583 381.328125)rotate(-90)scale(0.1 -0.1)">
       <use xlink:href="#DejaVuSans-67"/>
       <use x="69.824219" xlink:href="#DejaVuSans-109"/>
       <use x="167.236328" xlink:href="#DejaVuSans-112"/>
       <use x="230.712891" xlink:href="#DejaVuSans-108"/>
      </g>
     </g>
    </g>
    <g id="xtick_27">
     <g id="line2d_57">
      <g>
       <use style="stroke:#000000;stroke-width:0.8;" x="901.49774" xlink:href="#mcf694a3ebb" y="348.478125"/>
      </g>
     </g>
     <g id="text_51">
      <!-- Conj -->
      <g transform="translate(904.257115 377.695312)rotate(-90)scale(0.1 -0.1)">
       <use xlink:href="#DejaVuSans-67"/>
       <use x="69.824219" xlink:href="#DejaVuSans-111"/>
       <use x="131.005859" xlink:href="#DejaVuSans-110"/>
       <use x="194.384766" xlink:href="#DejaVuSans-106"/>
      </g>
     </g>
    </g>
    <g id="xtick_28">
     <g id="line2d_58">
      <g>
       <use style="stroke:#000000;stroke-width:0.8;" x="928.402272" xlink:href="#mcf694a3ebb" y="348.478125"/>
      </g>
     </g>
     <g id="text_52">
      <!-- Loca -->
      <g transform="translate(931.161647 378.79375)rotate(-90)scale(0.1 -0.1)">
       <use xlink:href="#DejaVuSans-76"/>
       <use x="55.697266" xlink:href="#DejaVuSans-111"/>
       <use x="116.878906" xlink:href="#DejaVuSans-99"/>
       <use x="171.859375" xlink:href="#DejaVuSans-97"/>
      </g>
     </g>
    </g>
    <g id="xtick_29">
     <g id="line2d_59">
      <g>
       <use style="stroke:#000000;stroke-width:0.8;" x="955.306804" xlink:href="#mcf694a3ebb" y="348.478125"/>
      </g>
     </g>
     <g id="text_53">
      <!-- Modi -->
      <g transform="translate(958.066179 379.351562)rotate(-90)scale(0.1 -0.1)">
       <use xlink:href="#DejaVuSans-77"/>
       <use x="86.279297" xlink:href="#DejaVuSans-111"/>
       <use x="147.460938" xlink:href="#DejaVuSans-100"/>
       <use x="210.9375" xlink:href="#DejaVuSans-105"/>
      </g>
     </g>
    </g>
    <g id="xtick_30">
     <g id="line2d_60">
      <g>
       <use style="stroke:#000000;stroke-width:0.8;" x="982.211337" xlink:href="#mcf694a3ebb" y="348.478125"/>
      </g>
     </g>
     <g id="text_54">
      <!-- Nega -->
      <g transform="translate(984.970712 381.589063)rotate(-90)scale(0.1 -0.1)">
       <use xlink:href="#DejaVuSans-78"/>
       <use x="74.804688" xlink:href="#DejaVuSans-101"/>
       <use x="136.328125" xlink:href="#DejaVuSans-103"/>
       <use x="199.804688" xlink:href="#DejaVuSans-97"/>
      </g>
     </g>
    </g>
    <g id="xtick_31">
     <g id="line2d_61">
      <g>
       <use style="stroke:#000000;stroke-width:0.8;" x="1009.115869" xlink:href="#mcf694a3ebb" y="348.478125"/>
      </g>
     </g>
     <g id="text_55">
      <!-- Objc -->
      <g transform="translate(1011.875244 377.975)rotate(-90)scale(0.1 -0.1)">
       <use xlink:href="#DejaVuSans-79"/>
       <use x="78.710938" xlink:href="#DejaVuSans-98"/>
       <use x="142.1875" xlink:href="#DejaVuSans-106"/>
       <use x="169.970703" xlink:href="#DejaVuSans-99"/>
      </g>
     </g>
    </g>
    <g id="xtick_32">
     <g id="line2d_62">
      <g>
       <use style="stroke:#000000;stroke-width:0.8;" x="1036.020401" xlink:href="#mcf694a3ebb" y="348.478125"/>
      </g>
     </g>
     <g id="text_56">
      <!-- PreC -->
      <g transform="translate(1038.779776 378.75)rotate(-90)scale(0.1 -0.1)">
       <use xlink:href="#DejaVuSans-80"/>
       <use x="60.287109" xlink:href="#DejaVuSans-114"/>
       <use x="101.369141" xlink:href="#DejaVuSans-101"/>
       <use x="162.892578" xlink:href="#DejaVuSans-67"/>
      </g>
     </g>
    </g>
    <g id="xtick_33">
     <g id="line2d_63">
      <g>
       <use style="stroke:#000000;stroke-width:0.8;" x="1062.924934" xlink:href="#mcf694a3ebb" y="348.478125"/>
      </g>
     </g>
     <g id="text_57">
      <!-- Pred -->
      <g transform="translate(1065.684309 378.115625)rotate(-90)scale(0.1 -0.1)">
       <use xlink:href="#DejaVuSans-80"/>
       <use x="60.287109" xlink:href="#DejaVuSans-114"/>
       <use x="101.369141" xlink:href="#DejaVuSans-101"/>
       <use x="162.892578" xlink:href="#DejaVuSans-100"/>
      </g>
     </g>
    </g>
    <g id="xtick_34">
     <g id="line2d_64">
      <g>
       <use style="stroke:#000000;stroke-width:0.8;" x="1089.829466" xlink:href="#mcf694a3ebb" y="348.478125"/>
      </g>
     </g>
     <g id="text_58">
      <!-- Rela -->
      <g transform="translate(1092.588841 377.479688)rotate(-90)scale(0.1 -0.1)">
       <use xlink:href="#DejaVuSans-82"/>
       <use x="69.419922" xlink:href="#DejaVuSans-101"/>
       <use x="130.943359" xlink:href="#DejaVuSans-108"/>
       <use x="158.726562" xlink:href="#DejaVuSans-97"/>
      </g>
     </g>
    </g>
    <g id="xtick_35">
     <g id="line2d_65">
      <g>
       <use style="stroke:#000000;stroke-width:0.8;" x="1116.733998" xlink:href="#mcf694a3ebb" y="348.478125"/>
      </g>
     </g>
     <g id="text_59">
      <!-- Subj -->
      <g transform="translate(1119.493373 377.290625)rotate(-90)scale(0.1 -0.1)">
       <use xlink:href="#DejaVuSans-83"/>
       <use x="63.476562" xlink:href="#DejaVuSans-117"/>
       <use x="126.855469" xlink:href="#DejaVuSans-98"/>
       <use x="190.332031" xlink:href="#DejaVuSans-106"/>
      </g>
     </g>
    </g>
    <g id="xtick_36">
     <g id="line2d_66">
      <g>
       <use style="stroke:#000000;stroke-width:0.8;" x="1143.638531" xlink:href="#mcf694a3ebb" y="348.478125"/>
      </g>
     </g>
     <g id="text_60">
      <!-- Time -->
      <g transform="translate(1146.397906 380.253125)rotate(-90)scale(0.1 -0.1)">
       <use xlink:href="#DejaVuSans-84"/>
       <use x="61.037109" xlink:href="#DejaVuSans-105"/>
       <use x="88.820312" xlink:href="#DejaVuSans-109"/>
       <use x="186.232422" xlink:href="#DejaVuSans-101"/>
      </g>
     </g>
    </g>
    <g id="text_61">
     <!-- function -->
     <g transform="translate(975.239384 393.1875)scale(0.1 -0.1)">
      <use xlink:href="#DejaVuSans-102"/>
      <use x="35.205078" xlink:href="#DejaVuSans-117"/>
      <use x="98.583984" xlink:href="#DejaVuSans-110"/>
      <use x="161.962891" xlink:href="#DejaVuSans-99"/>
      <use x="216.943359" xlink:href="#DejaVuSans-116"/>
      <use x="256.152344" xlink:href="#DejaVuSans-105"/>
      <use x="283.935547" xlink:href="#DejaVuSans-111"/>
      <use x="345.117188" xlink:href="#DejaVuSans-110"/>
     </g>
    </g>
   </g>
   <g id="matplotlib.axis_6">
    <g id="ytick_15">
     <g id="line2d_67">
      <path clip-path="url(#p505bbfd8b0)" d="M 831.545956 348.478125 
L 1159.78125 348.478125 
" style="fill:none;stroke:#b0b0b0;stroke-linecap:square;stroke-width:0.8;"/>
     </g>
     <g id="line2d_68">
      <g>
       <use style="stroke:#000000;stroke-width:0.8;" x="831.545956" xlink:href="#mc5ae819bb5" y="348.478125"/>
      </g>
     </g>
     <g id="text_62">
      <!-- 0.0 -->
      <g transform="translate(808.642831 352.277344)scale(0.1 -0.1)">
       <use xlink:href="#DejaVuSans-48"/>
       <use x="63.623047" xlink:href="#DejaVuSans-46"/>
       <use x="95.410156" xlink:href="#DejaVuSans-48"/>
      </g>
     </g>
    </g>
    <g id="ytick_16">
     <g id="line2d_69">
      <path clip-path="url(#p505bbfd8b0)" d="M 831.545956 294.118125 
L 1159.78125 294.118125 
" style="fill:none;stroke:#b0b0b0;stroke-linecap:square;stroke-width:0.8;"/>
     </g>
     <g id="line2d_70">
      <g>
       <use style="stroke:#000000;stroke-width:0.8;" x="831.545956" xlink:href="#mc5ae819bb5" y="294.118125"/>
      </g>
     </g>
     <g id="text_63">
      <!-- 0.2 -->
      <g transform="translate(808.642831 297.917344)scale(0.1 -0.1)">
       <use xlink:href="#DejaVuSans-48"/>
       <use x="63.623047" xlink:href="#DejaVuSans-46"/>
       <use x="95.410156" xlink:href="#DejaVuSans-50"/>
      </g>
     </g>
    </g>
    <g id="ytick_17">
     <g id="line2d_71">
      <path clip-path="url(#p505bbfd8b0)" d="M 831.545956 239.758125 
L 1159.78125 239.758125 
" style="fill:none;stroke:#b0b0b0;stroke-linecap:square;stroke-width:0.8;"/>
     </g>
     <g id="line2d_72">
      <g>
       <use style="stroke:#000000;stroke-width:0.8;" x="831.545956" xlink:href="#mc5ae819bb5" y="239.758125"/>
      </g>
     </g>
     <g id="text_64">
      <!-- 0.4 -->
      <g transform="translate(808.642831 243.557344)scale(0.1 -0.1)">
       <use xlink:href="#DejaVuSans-48"/>
       <use x="63.623047" xlink:href="#DejaVuSans-46"/>
       <use x="95.410156" xlink:href="#DejaVuSans-52"/>
      </g>
     </g>
    </g>
    <g id="ytick_18">
     <g id="line2d_73">
      <path clip-path="url(#p505bbfd8b0)" d="M 831.545956 185.398125 
L 1159.78125 185.398125 
" style="fill:none;stroke:#b0b0b0;stroke-linecap:square;stroke-width:0.8;"/>
     </g>
     <g id="line2d_74">
      <g>
       <use style="stroke:#000000;stroke-width:0.8;" x="831.545956" xlink:href="#mc5ae819bb5" y="185.398125"/>
      </g>
     </g>
     <g id="text_65">
      <!-- 0.6 -->
      <g transform="translate(808.642831 189.197344)scale(0.1 -0.1)">
       <use xlink:href="#DejaVuSans-48"/>
       <use x="63.623047" xlink:href="#DejaVuSans-46"/>
       <use x="95.410156" xlink:href="#DejaVuSans-54"/>
      </g>
     </g>
    </g>
    <g id="ytick_19">
     <g id="line2d_75">
      <path clip-path="url(#p505bbfd8b0)" d="M 831.545956 131.038125 
L 1159.78125 131.038125 
" style="fill:none;stroke:#b0b0b0;stroke-linecap:square;stroke-width:0.8;"/>
     </g>
     <g id="line2d_76">
      <g>
       <use style="stroke:#000000;stroke-width:0.8;" x="831.545956" xlink:href="#mc5ae819bb5" y="131.038125"/>
      </g>
     </g>
     <g id="text_66">
      <!-- 0.8 -->
      <g transform="translate(808.642831 134.837344)scale(0.1 -0.1)">
       <use xlink:href="#DejaVuSans-48"/>
       <use x="63.623047" xlink:href="#DejaVuSans-46"/>
       <use x="95.410156" xlink:href="#DejaVuSans-56"/>
      </g>
     </g>
    </g>
    <g id="ytick_20">
     <g id="line2d_77">
      <path clip-path="url(#p505bbfd8b0)" d="M 831.545956 76.678125 
L 1159.78125 76.678125 
" style="fill:none;stroke:#b0b0b0;stroke-linecap:square;stroke-width:0.8;"/>
     </g>
     <g id="line2d_78">
      <g>
       <use style="stroke:#000000;stroke-width:0.8;" x="831.545956" xlink:href="#mc5ae819bb5" y="76.678125"/>
      </g>
     </g>
     <g id="text_67">
      <!-- 1.0 -->
      <g transform="translate(808.642831 80.477344)scale(0.1 -0.1)">
       <use xlink:href="#DejaVuSans-49"/>
       <use x="63.623047" xlink:href="#DejaVuSans-46"/>
       <use x="95.410156" xlink:href="#DejaVuSans-48"/>
      </g>
     </g>
    </g>
    <g id="ytick_21">
     <g id="line2d_79">
      <path clip-path="url(#p505bbfd8b0)" d="M 831.545956 22.318125 
L 1159.78125 22.318125 
" style="fill:none;stroke:#b0b0b0;stroke-linecap:square;stroke-width:0.8;"/>
     </g>
     <g id="line2d_80">
      <g>
       <use style="stroke:#000000;stroke-width:0.8;" x="831.545956" xlink:href="#mc5ae819bb5" y="22.318125"/>
      </g>
     </g>
     <g id="text_68">
      <!-- 1.2 -->
      <g transform="translate(808.642831 26.117344)scale(0.1 -0.1)">
       <use xlink:href="#DejaVuSans-49"/>
       <use x="63.623047" xlink:href="#DejaVuSans-46"/>
       <use x="95.410156" xlink:href="#DejaVuSans-50"/>
      </g>
     </g>
    </g>
    <g id="text_69">
     <!-- percentage % -->
     <g transform="translate(802.563143 220.312187)rotate(-90)scale(0.1 -0.1)">
      <use xlink:href="#DejaVuSans-112"/>
      <use x="63.476562" xlink:href="#DejaVuSans-101"/>
      <use x="125" xlink:href="#DejaVuSans-114"/>
      <use x="166.082031" xlink:href="#DejaVuSans-99"/>
      <use x="221.0625" xlink:href="#DejaVuSans-101"/>
      <use x="282.585938" xlink:href="#DejaVuSans-110"/>
      <use x="345.964844" xlink:href="#DejaVuSans-116"/>
      <use x="385.173828" xlink:href="#DejaVuSans-97"/>
      <use x="446.453125" xlink:href="#DejaVuSans-103"/>
      <use x="509.929688" xlink:href="#DejaVuSans-101"/>
      <use x="571.453125" xlink:href="#DejaVuSans-32"/>
      <use x="603.240234" xlink:href="#DejaVuSans-37"/>
     </g>
    </g>
   </g>
   <g id="patch_67">
    <path clip-path="url(#p505bbfd8b0)" d="M 838.272089 348.478125 
L 847.688675 348.478125 
L 847.688675 107.760572 
L 838.272089 107.760572 
z
" style="fill:#d3d3d3;stroke:#000000;stroke-linejoin:miter;"/>
   </g>
   <g id="patch_68">
    <path clip-path="url(#p505bbfd8b0)" d="M 865.176621 348.478125 
L 874.593208 348.478125 
L 874.593208 102.956831 
L 865.176621 102.956831 
z
" style="fill:#d3d3d3;stroke:#000000;stroke-linejoin:miter;"/>
   </g>
   <g id="patch_69">
    <path clip-path="url(#p505bbfd8b0)" d="M 892.081154 348.478125 
L 901.49774 348.478125 
L 901.49774 76.684014 
L 892.081154 76.684014 
z
" style="fill:#d3d3d3;stroke:#000000;stroke-linejoin:miter;"/>
   </g>
   <g id="patch_70">
    <path clip-path="url(#p505bbfd8b0)" d="M 918.985686 348.478125 
L 928.402272 348.478125 
L 928.402272 113.435839 
L 918.985686 113.435839 
z
" style="fill:#d3d3d3;stroke:#000000;stroke-linejoin:miter;"/>
   </g>
   <g id="patch_71">
    <path clip-path="url(#p505bbfd8b0)" d="M 945.890218 348.478125 
L 955.306804 348.478125 
L 955.306804 81.053693 
L 945.890218 81.053693 
z
" style="fill:#d3d3d3;stroke:#000000;stroke-linejoin:miter;"/>
   </g>
   <g id="patch_72">
    <path clip-path="url(#p505bbfd8b0)" d="M 972.79475 348.478125 
L 982.211337 348.478125 
L 982.211337 76.678125 
L 972.79475 76.678125 
z
" style="fill:#d3d3d3;stroke:#000000;stroke-linejoin:miter;"/>
   </g>
   <g id="patch_73">
    <path clip-path="url(#p505bbfd8b0)" d="M 999.699283 348.478125 
L 1009.115869 348.478125 
L 1009.115869 109.855759 
L 999.699283 109.855759 
z
" style="fill:#d3d3d3;stroke:#000000;stroke-linejoin:miter;"/>
   </g>
   <g id="patch_74">
    <path clip-path="url(#p505bbfd8b0)" d="M 1026.603815 348.478125 
L 1036.020401 348.478125 
L 1036.020401 102.800074 
L 1026.603815 102.800074 
z
" style="fill:#d3d3d3;stroke:#000000;stroke-linejoin:miter;"/>
   </g>
   <g id="patch_75">
    <path clip-path="url(#p505bbfd8b0)" d="M 1053.508347 348.478125 
L 1062.924934 348.478125 
L 1062.924934 77.238643 
L 1053.508347 77.238643 
z
" style="fill:#d3d3d3;stroke:#000000;stroke-linejoin:miter;"/>
   </g>
   <g id="patch_76">
    <path clip-path="url(#p505bbfd8b0)" d="M 1080.41288 348.478125 
L 1089.829466 348.478125 
L 1089.829466 76.806981 
L 1080.41288 76.806981 
z
" style="fill:#d3d3d3;stroke:#000000;stroke-linejoin:miter;"/>
   </g>
   <g id="patch_77">
    <path clip-path="url(#p505bbfd8b0)" d="M 1107.317412 348.478125 
L 1116.733998 348.478125 
L 1116.733998 110.193773 
L 1107.317412 110.193773 
z
" style="fill:#d3d3d3;stroke:#000000;stroke-linejoin:miter;"/>
   </g>
   <g id="patch_78">
    <path clip-path="url(#p505bbfd8b0)" d="M 1134.221944 348.478125 
L 1143.638531 348.478125 
L 1143.638531 100.96985 
L 1134.221944 100.96985 
z
" style="fill:#d3d3d3;stroke:#000000;stroke-linejoin:miter;"/>
   </g>
   <g id="patch_79">
    <path clip-path="url(#p505bbfd8b0)" d="M 847.688675 348.478125 
L 857.105262 348.478125 
L 857.105262 317.395678 
L 847.688675 317.395678 
z
" style="fill:#ffffff;stroke:#000000;stroke-linejoin:miter;"/>
   </g>
   <g id="patch_80">
    <path clip-path="url(#p505bbfd8b0)" d="M 874.593208 348.478125 
L 884.009794 348.478125 
L 884.009794 322.199419 
L 874.593208 322.199419 
z
" style="fill:#ffffff;stroke:#000000;stroke-linejoin:miter;"/>
   </g>
   <g id="patch_81">
    <path clip-path="url(#p505bbfd8b0)" d="M 901.49774 348.478125 
L 910.914326 348.478125 
L 910.914326 348.472236 
L 901.49774 348.472236 
z
" style="fill:#ffffff;stroke:#000000;stroke-linejoin:miter;"/>
   </g>
   <g id="patch_82">
    <path clip-path="url(#p505bbfd8b0)" d="M 928.402272 348.478125 
L 937.818858 348.478125 
L 937.818858 311.720411 
L 928.402272 311.720411 
z
" style="fill:#ffffff;stroke:#000000;stroke-linejoin:miter;"/>
   </g>
   <g id="patch_83">
    <path clip-path="url(#p505bbfd8b0)" d="M 955.306804 348.478125 
L 964.723391 348.478125 
L 964.723391 344.102557 
L 955.306804 344.102557 
z
" style="fill:#ffffff;stroke:#000000;stroke-linejoin:miter;"/>
   </g>
   <g id="patch_84">
    <path clip-path="url(#p505bbfd8b0)" d="M 982.211337 348.478125 
L 991.627923 348.478125 
L 991.627923 348.478125 
L 982.211337 348.478125 
z
" style="fill:#ffffff;stroke:#000000;stroke-linejoin:miter;"/>
   </g>
   <g id="patch_85">
    <path clip-path="url(#p505bbfd8b0)" d="M 1009.115869 348.478125 
L 1018.532455 348.478125 
L 1018.532455 315.300491 
L 1009.115869 315.300491 
z
" style="fill:#ffffff;stroke:#000000;stroke-linejoin:miter;"/>
   </g>
   <g id="patch_86">
    <path clip-path="url(#p505bbfd8b0)" d="M 1036.020401 348.478125 
L 1045.436988 348.478125 
L 1045.436988 322.356176 
L 1036.020401 322.356176 
z
" style="fill:#ffffff;stroke:#000000;stroke-linejoin:miter;"/>
   </g>
   <g id="patch_87">
    <path clip-path="url(#p505bbfd8b0)" d="M 1062.924934 348.478125 
L 1072.34152 348.478125 
L 1072.34152 347.917607 
L 1062.924934 347.917607 
z
" style="fill:#ffffff;stroke:#000000;stroke-linejoin:miter;"/>
   </g>
   <g id="patch_88">
    <path clip-path="url(#p505bbfd8b0)" d="M 1089.829466 348.478125 
L 1099.246052 348.478125 
L 1099.246052 348.349269 
L 1089.829466 348.349269 
z
" style="fill:#ffffff;stroke:#000000;stroke-linejoin:miter;"/>
   </g>
   <g id="patch_89">
    <path clip-path="url(#p505bbfd8b0)" d="M 1116.733998 348.478125 
L 1126.150585 348.478125 
L 1126.150585 314.962477 
L 1116.733998 314.962477 
z
" style="fill:#ffffff;stroke:#000000;stroke-linejoin:miter;"/>
   </g>
   <g id="patch_90">
    <path clip-path="url(#p505bbfd8b0)" d="M 1143.638531 348.478125 
L 1153.055117 348.478125 
L 1153.055117 324.1864 
L 1143.638531 324.1864 
z
" style="fill:#ffffff;stroke:#000000;stroke-linejoin:miter;"/>
   </g>
   <g id="line2d_81">
    <path clip-path="url(#p505bbfd8b0)" d="M 831.545956 113.435839 
L 1159.78125 113.435839 
" style="fill:none;stroke:#1f77b4;stroke-linecap:square;stroke-opacity:0.8;stroke-width:1.5;"/>
   </g>
   <g id="patch_91">
    <path d="M 831.545956 348.478125 
L 831.545956 22.318125 
" style="fill:none;stroke:#000000;stroke-linecap:square;stroke-linejoin:miter;stroke-width:0.8;"/>
   </g>
   <g id="patch_92">
    <path d="M 1159.78125 348.478125 
L 1159.78125 22.318125 
" style="fill:none;stroke:#000000;stroke-linecap:square;stroke-linejoin:miter;stroke-width:0.8;"/>
   </g>
   <g id="patch_93">
    <path d="M 831.545956 348.478125 
L 1159.78125 348.478125 
" style="fill:none;stroke:#000000;stroke-linecap:square;stroke-linejoin:miter;stroke-width:0.8;"/>
   </g>
   <g id="patch_94">
    <path d="M 831.545956 22.318125 
L 1159.78125 22.318125 
" style="fill:none;stroke:#000000;stroke-linecap:square;stroke-linejoin:miter;stroke-width:0.8;"/>
   </g>
   <g id="text_70">
    <!-- number (n) of both atoms/daughters -->
    <defs>
     <path d="M 25.390625 72.90625 
L 33.6875 72.90625 
L 8.296875 -9.28125 
L 0 -9.28125 
z
" id="DejaVuSans-47"/>
    </defs>
    <g transform="translate(885.488603 16.318125)scale(0.12 -0.12)">
     <use xlink:href="#DejaVuSans-110"/>
     <use x="63.378906" xlink:href="#DejaVuSans-117"/>
     <use x="126.757812" xlink:href="#DejaVuSans-109"/>
     <use x="224.169922" xlink:href="#DejaVuSans-98"/>
     <use x="287.646484" xlink:href="#DejaVuSans-101"/>
     <use x="349.169922" xlink:href="#DejaVuSans-114"/>
     <use x="390.283203" xlink:href="#DejaVuSans-32"/>
     <use x="422.070312" xlink:href="#DejaVuSans-40"/>
     <use x="461.083984" xlink:href="#DejaVuSans-110"/>
     <use x="524.462891" xlink:href="#DejaVuSans-41"/>
     <use x="563.476562" xlink:href="#DejaVuSans-32"/>
     <use x="595.263672" xlink:href="#DejaVuSans-111"/>
     <use x="656.445312" xlink:href="#DejaVuSans-102"/>
     <use x="691.650391" xlink:href="#DejaVuSans-32"/>
     <use x="723.4375" xlink:href="#DejaVuSans-98"/>
     <use x="786.914062" xlink:href="#DejaVuSans-111"/>
     <use x="848.095703" xlink:href="#DejaVuSans-116"/>
     <use x="887.304688" xlink:href="#DejaVuSans-104"/>
     <use x="950.683594" xlink:href="#DejaVuSans-32"/>
     <use x="982.470703" xlink:href="#DejaVuSans-97"/>
     <use x="1043.75" xlink:href="#DejaVuSans-116"/>
     <use x="1082.958984" xlink:href="#DejaVuSans-111"/>
     <use x="1144.140625" xlink:href="#DejaVuSans-109"/>
     <use x="1241.552734" xlink:href="#DejaVuSans-115"/>
     <use x="1293.652344" xlink:href="#DejaVuSans-47"/>
     <use x="1327.34375" xlink:href="#DejaVuSans-100"/>
     <use x="1390.820312" xlink:href="#DejaVuSans-97"/>
     <use x="1452.099609" xlink:href="#DejaVuSans-117"/>
     <use x="1515.478516" xlink:href="#DejaVuSans-103"/>
     <use x="1578.955078" xlink:href="#DejaVuSans-104"/>
     <use x="1642.333984" xlink:href="#DejaVuSans-116"/>
     <use x="1681.542969" xlink:href="#DejaVuSans-101"/>
     <use x="1743.066406" xlink:href="#DejaVuSans-114"/>
     <use x="1784.179688" xlink:href="#DejaVuSans-115"/>
    </g>
   </g>
   <g id="legend_3">
    <g id="patch_95">
     <path d="M 1051.409375 59.674375 
L 1152.78125 59.674375 
Q 1154.78125 59.674375 1154.78125 57.674375 
L 1154.78125 29.318125 
Q 1154.78125 27.318125 1152.78125 27.318125 
L 1051.409375 27.318125 
Q 1049.409375 27.318125 1049.409375 29.318125 
L 1049.409375 57.674375 
Q 1049.409375 59.674375 1051.409375 59.674375 
z
" style="fill:#ffffff;opacity:0.8;stroke:#cccccc;stroke-linejoin:miter;"/>
    </g>
    <g id="patch_96">
     <path d="M 1053.409375 38.916562 
L 1073.409375 38.916562 
L 1073.409375 31.916562 
L 1053.409375 31.916562 
z
" style="fill:#d3d3d3;stroke:#000000;stroke-linejoin:miter;"/>
    </g>
    <g id="text_71">
     <!-- na=1 + nd=0 -->
     <defs>
      <path d="M 46 62.703125 
L 46 35.5 
L 73.1875 35.5 
L 73.1875 27.203125 
L 46 27.203125 
L 46 0 
L 37.796875 0 
L 37.796875 27.203125 
L 10.59375 27.203125 
L 10.59375 35.5 
L 37.796875 35.5 
L 37.796875 62.703125 
z
" id="DejaVuSans-43"/>
     </defs>
     <g transform="translate(1081.409375 38.916562)scale(0.1 -0.1)">
      <use xlink:href="#DejaVuSans-110"/>
      <use x="63.378906" xlink:href="#DejaVuSans-97"/>
      <use x="124.658203" xlink:href="#DejaVuSans-61"/>
      <use x="208.447266" xlink:href="#DejaVuSans-49"/>
      <use x="272.070312" xlink:href="#DejaVuSans-32"/>
      <use x="303.857422" xlink:href="#DejaVuSans-43"/>
      <use x="387.646484" xlink:href="#DejaVuSans-32"/>
      <use x="419.433594" xlink:href="#DejaVuSans-110"/>
      <use x="482.8125" xlink:href="#DejaVuSans-100"/>
      <use x="546.289062" xlink:href="#DejaVuSans-61"/>
      <use x="630.078125" xlink:href="#DejaVuSans-48"/>
     </g>
    </g>
    <g id="patch_97">
     <path d="M 1053.409375 53.594688 
L 1073.409375 53.594688 
L 1073.409375 46.594688 
L 1053.409375 46.594688 
z
" style="fill:#ffffff;stroke:#000000;stroke-linejoin:miter;"/>
    </g>
    <g id="text_72">
     <!-- na&gt;1 + nd&gt;0 -->
     <g transform="translate(1081.409375 53.594688)scale(0.1 -0.1)">
      <use xlink:href="#DejaVuSans-110"/>
      <use x="63.378906" xlink:href="#DejaVuSans-97"/>
      <use x="124.658203" xlink:href="#DejaVuSans-62"/>
      <use x="208.447266" xlink:href="#DejaVuSans-49"/>
      <use x="272.070312" xlink:href="#DejaVuSans-32"/>
      <use x="303.857422" xlink:href="#DejaVuSans-43"/>
      <use x="387.646484" xlink:href="#DejaVuSans-32"/>
      <use x="419.433594" xlink:href="#DejaVuSans-110"/>
      <use x="482.8125" xlink:href="#DejaVuSans-100"/>
      <use x="546.289062" xlink:href="#DejaVuSans-62"/>
      <use x="630.078125" xlink:href="#DejaVuSans-48"/>
     </g>
    </g>
   </g>
  </g>
 </g>
 <defs>
  <clipPath id="p9be14ee067">
   <rect height="326.16" width="328.235294" x="43.78125" y="22.318125"/>
  </clipPath>
  <clipPath id="pa7665e0bb4">
   <rect height="326.16" width="328.235294" x="437.663603" y="22.318125"/>
  </clipPath>
  <clipPath id="p505bbfd8b0">
   <rect height="326.16" width="328.235294" x="831.545956" y="22.318125"/>
  </clipPath>
 </defs>
</svg>
