<?xml version="1.0" encoding="utf-8" standalone="no"?>
<!DOCTYPE svg PUBLIC "-//W3C//DTD SVG 1.1//EN"
  "http://www.w3.org/Graphics/SVG/1.1/DTD/svg11.dtd">
<!-- Created with matplotlib (https://matplotlib.org/) -->
<svg height="346.326562pt" version="1.1" viewBox="0 0 1166.98125 346.326562" width="1166.98125pt" xmlns="http://www.w3.org/2000/svg" xmlns:xlink="http://www.w3.org/1999/xlink">
 <defs>
  <style type="text/css">
*{stroke-linecap:butt;stroke-linejoin:round;}
  </style>
 </defs>
 <g id="figure_1">
  <g id="patch_1">
   <path d="M 0 346.326562 
L 1166.98125 346.326562 
L 1166.98125 0 
L 0 0 
z
" style="fill:#ffffff;"/>
  </g>
  <g id="axes_1">
   <g id="patch_2">
    <path d="M 43.78125 292.598437 
L 286.389946 292.598437 
L 286.389946 20.798437 
L 43.78125 20.798437 
z
" style="fill:#ffffff;"/>
   </g>
   <g id="matplotlib.axis_1">
    <g id="xtick_1">
     <g id="line2d_1">
      <defs>
       <path d="M 0 0 
L 0 3.5 
" id="mb058dc0efb" style="stroke:#000000;stroke-width:0.8;"/>
      </defs>
      <g>
       <use style="stroke:#000000;stroke-width:0.8;" x="67.259511" xlink:href="#mb058dc0efb" y="292.598437"/>
      </g>
     </g>
     <g id="text_1">
      <!-- Adju -->
      <defs>
       <path d="M 34.1875 63.1875 
L 20.796875 26.90625 
L 47.609375 26.90625 
z
M 28.609375 72.90625 
L 39.796875 72.90625 
L 67.578125 0 
L 57.328125 0 
L 50.6875 18.703125 
L 17.828125 18.703125 
L 11.1875 0 
L 0.78125 0 
z
" id="DejaVuSans-65"/>
       <path d="M 45.40625 46.390625 
L 45.40625 75.984375 
L 54.390625 75.984375 
L 54.390625 0 
L 45.40625 0 
L 45.40625 8.203125 
Q 42.578125 3.328125 38.25 0.953125 
Q 33.9375 -1.421875 27.875 -1.421875 
Q 17.96875 -1.421875 11.734375 6.484375 
Q 5.515625 14.40625 5.515625 27.296875 
Q 5.515625 40.1875 11.734375 48.09375 
Q 17.96875 56 27.875 56 
Q 33.9375 56 38.25 53.625 
Q 42.578125 51.265625 45.40625 46.390625 
z
M 14.796875 27.296875 
Q 14.796875 17.390625 18.875 11.75 
Q 22.953125 6.109375 30.078125 6.109375 
Q 37.203125 6.109375 41.296875 11.75 
Q 45.40625 17.390625 45.40625 27.296875 
Q 45.40625 37.203125 41.296875 42.84375 
Q 37.203125 48.484375 30.078125 48.484375 
Q 22.953125 48.484375 18.875 42.84375 
Q 14.796875 37.203125 14.796875 27.296875 
z
" id="DejaVuSans-100"/>
       <path d="M 9.421875 54.6875 
L 18.40625 54.6875 
L 18.40625 -0.984375 
Q 18.40625 -11.421875 14.421875 -16.109375 
Q 10.453125 -20.796875 1.609375 -20.796875 
L -1.8125 -20.796875 
L -1.8125 -13.1875 
L 0.59375 -13.1875 
Q 5.71875 -13.1875 7.5625 -10.8125 
Q 9.421875 -8.453125 9.421875 -0.984375 
z
M 9.421875 75.984375 
L 18.40625 75.984375 
L 18.40625 64.59375 
L 9.421875 64.59375 
z
" id="DejaVuSans-106"/>
       <path d="M 8.5 21.578125 
L 8.5 54.6875 
L 17.484375 54.6875 
L 17.484375 21.921875 
Q 17.484375 14.15625 20.5 10.265625 
Q 23.53125 6.390625 29.59375 6.390625 
Q 36.859375 6.390625 41.078125 11.03125 
Q 45.3125 15.671875 45.3125 23.6875 
L 45.3125 54.6875 
L 54.296875 54.6875 
L 54.296875 0 
L 45.3125 0 
L 45.3125 8.40625 
Q 42.046875 3.421875 37.71875 1 
Q 33.40625 -1.421875 27.6875 -1.421875 
Q 18.265625 -1.421875 13.375 4.4375 
Q 8.5 10.296875 8.5 21.578125 
z
M 31.109375 56 
z
" id="DejaVuSans-117"/>
      </defs>
      <g transform="translate(70.018886 321.901562)rotate(-90)scale(0.1 -0.1)">
       <use xlink:href="#DejaVuSans-65"/>
       <use x="68.392578" xlink:href="#DejaVuSans-100"/>
       <use x="131.869141" xlink:href="#DejaVuSans-106"/>
       <use x="159.652344" xlink:href="#DejaVuSans-117"/>
      </g>
     </g>
    </g>
    <g id="xtick_2">
     <g id="line2d_2">
      <g>
       <use style="stroke:#000000;stroke-width:0.8;" x="106.389946" xlink:href="#mb058dc0efb" y="292.598437"/>
      </g>
     </g>
     <g id="text_2">
      <!-- Cmpl -->
      <defs>
       <path d="M 64.40625 67.28125 
L 64.40625 56.890625 
Q 59.421875 61.53125 53.78125 63.8125 
Q 48.140625 66.109375 41.796875 66.109375 
Q 29.296875 66.109375 22.65625 58.46875 
Q 16.015625 50.828125 16.015625 36.375 
Q 16.015625 21.96875 22.65625 14.328125 
Q 29.296875 6.6875 41.796875 6.6875 
Q 48.140625 6.6875 53.78125 8.984375 
Q 59.421875 11.28125 64.40625 15.921875 
L 64.40625 5.609375 
Q 59.234375 2.09375 53.4375 0.328125 
Q 47.65625 -1.421875 41.21875 -1.421875 
Q 24.65625 -1.421875 15.125 8.703125 
Q 5.609375 18.84375 5.609375 36.375 
Q 5.609375 53.953125 15.125 64.078125 
Q 24.65625 74.21875 41.21875 74.21875 
Q 47.75 74.21875 53.53125 72.484375 
Q 59.328125 70.75 64.40625 67.28125 
z
" id="DejaVuSans-67"/>
       <path d="M 52 44.1875 
Q 55.375 50.25 60.0625 53.125 
Q 64.75 56 71.09375 56 
Q 79.640625 56 84.28125 50.015625 
Q 88.921875 44.046875 88.921875 33.015625 
L 88.921875 0 
L 79.890625 0 
L 79.890625 32.71875 
Q 79.890625 40.578125 77.09375 44.375 
Q 74.3125 48.1875 68.609375 48.1875 
Q 61.625 48.1875 57.5625 43.546875 
Q 53.515625 38.921875 53.515625 30.90625 
L 53.515625 0 
L 44.484375 0 
L 44.484375 32.71875 
Q 44.484375 40.625 41.703125 44.40625 
Q 38.921875 48.1875 33.109375 48.1875 
Q 26.21875 48.1875 22.15625 43.53125 
Q 18.109375 38.875 18.109375 30.90625 
L 18.109375 0 
L 9.078125 0 
L 9.078125 54.6875 
L 18.109375 54.6875 
L 18.109375 46.1875 
Q 21.1875 51.21875 25.484375 53.609375 
Q 29.78125 56 35.6875 56 
Q 41.65625 56 45.828125 52.96875 
Q 50 49.953125 52 44.1875 
z
" id="DejaVuSans-109"/>
       <path d="M 18.109375 8.203125 
L 18.109375 -20.796875 
L 9.078125 -20.796875 
L 9.078125 54.6875 
L 18.109375 54.6875 
L 18.109375 46.390625 
Q 20.953125 51.265625 25.265625 53.625 
Q 29.59375 56 35.59375 56 
Q 45.5625 56 51.78125 48.09375 
Q 58.015625 40.1875 58.015625 27.296875 
Q 58.015625 14.40625 51.78125 6.484375 
Q 45.5625 -1.421875 35.59375 -1.421875 
Q 29.59375 -1.421875 25.265625 0.953125 
Q 20.953125 3.328125 18.109375 8.203125 
z
M 48.6875 27.296875 
Q 48.6875 37.203125 44.609375 42.84375 
Q 40.53125 48.484375 33.40625 48.484375 
Q 26.265625 48.484375 22.1875 42.84375 
Q 18.109375 37.203125 18.109375 27.296875 
Q 18.109375 17.390625 22.1875 11.75 
Q 26.265625 6.109375 33.40625 6.109375 
Q 40.53125 6.109375 44.609375 11.75 
Q 48.6875 17.390625 48.6875 27.296875 
z
" id="DejaVuSans-112"/>
       <path d="M 9.421875 75.984375 
L 18.40625 75.984375 
L 18.40625 0 
L 9.421875 0 
z
" id="DejaVuSans-108"/>
      </defs>
      <g transform="translate(109.149321 325.448437)rotate(-90)scale(0.1 -0.1)">
       <use xlink:href="#DejaVuSans-67"/>
       <use x="69.824219" xlink:href="#DejaVuSans-109"/>
       <use x="167.236328" xlink:href="#DejaVuSans-112"/>
       <use x="230.712891" xlink:href="#DejaVuSans-108"/>
      </g>
     </g>
    </g>
    <g id="xtick_3">
     <g id="line2d_3">
      <g>
       <use style="stroke:#000000;stroke-width:0.8;" x="145.52038" xlink:href="#mb058dc0efb" y="292.598437"/>
      </g>
     </g>
     <g id="text_3">
      <!-- Loca -->
      <defs>
       <path d="M 9.8125 72.90625 
L 19.671875 72.90625 
L 19.671875 8.296875 
L 55.171875 8.296875 
L 55.171875 0 
L 9.8125 0 
z
" id="DejaVuSans-76"/>
       <path d="M 30.609375 48.390625 
Q 23.390625 48.390625 19.1875 42.75 
Q 14.984375 37.109375 14.984375 27.296875 
Q 14.984375 17.484375 19.15625 11.84375 
Q 23.34375 6.203125 30.609375 6.203125 
Q 37.796875 6.203125 41.984375 11.859375 
Q 46.1875 17.53125 46.1875 27.296875 
Q 46.1875 37.015625 41.984375 42.703125 
Q 37.796875 48.390625 30.609375 48.390625 
z
M 30.609375 56 
Q 42.328125 56 49.015625 48.375 
Q 55.71875 40.765625 55.71875 27.296875 
Q 55.71875 13.875 49.015625 6.21875 
Q 42.328125 -1.421875 30.609375 -1.421875 
Q 18.84375 -1.421875 12.171875 6.21875 
Q 5.515625 13.875 5.515625 27.296875 
Q 5.515625 40.765625 12.171875 48.375 
Q 18.84375 56 30.609375 56 
z
" id="DejaVuSans-111"/>
       <path d="M 48.78125 52.59375 
L 48.78125 44.1875 
Q 44.96875 46.296875 41.140625 47.34375 
Q 37.3125 48.390625 33.40625 48.390625 
Q 24.65625 48.390625 19.8125 42.84375 
Q 14.984375 37.3125 14.984375 27.296875 
Q 14.984375 17.28125 19.8125 11.734375 
Q 24.65625 6.203125 33.40625 6.203125 
Q 37.3125 6.203125 41.140625 7.25 
Q 44.96875 8.296875 48.78125 10.40625 
L 48.78125 2.09375 
Q 45.015625 0.34375 40.984375 -0.53125 
Q 36.96875 -1.421875 32.421875 -1.421875 
Q 20.0625 -1.421875 12.78125 6.34375 
Q 5.515625 14.109375 5.515625 27.296875 
Q 5.515625 40.671875 12.859375 48.328125 
Q 20.21875 56 33.015625 56 
Q 37.15625 56 41.109375 55.140625 
Q 45.0625 54.296875 48.78125 52.59375 
z
" id="DejaVuSans-99"/>
       <path d="M 34.28125 27.484375 
Q 23.390625 27.484375 19.1875 25 
Q 14.984375 22.515625 14.984375 16.5 
Q 14.984375 11.71875 18.140625 8.90625 
Q 21.296875 6.109375 26.703125 6.109375 
Q 34.1875 6.109375 38.703125 11.40625 
Q 43.21875 16.703125 43.21875 25.484375 
L 43.21875 27.484375 
z
M 52.203125 31.203125 
L 52.203125 0 
L 43.21875 0 
L 43.21875 8.296875 
Q 40.140625 3.328125 35.546875 0.953125 
Q 30.953125 -1.421875 24.3125 -1.421875 
Q 15.921875 -1.421875 10.953125 3.296875 
Q 6 8.015625 6 15.921875 
Q 6 25.140625 12.171875 29.828125 
Q 18.359375 34.515625 30.609375 34.515625 
L 43.21875 34.515625 
L 43.21875 35.40625 
Q 43.21875 41.609375 39.140625 45 
Q 35.0625 48.390625 27.6875 48.390625 
Q 23 48.390625 18.546875 47.265625 
Q 14.109375 46.140625 10.015625 43.890625 
L 10.015625 52.203125 
Q 14.9375 54.109375 19.578125 55.046875 
Q 24.21875 56 28.609375 56 
Q 40.484375 56 46.34375 49.84375 
Q 52.203125 43.703125 52.203125 31.203125 
z
" id="DejaVuSans-97"/>
      </defs>
      <g transform="translate(148.279755 322.914062)rotate(-90)scale(0.1 -0.1)">
       <use xlink:href="#DejaVuSans-76"/>
       <use x="55.697266" xlink:href="#DejaVuSans-111"/>
       <use x="116.878906" xlink:href="#DejaVuSans-99"/>
       <use x="171.859375" xlink:href="#DejaVuSans-97"/>
      </g>
     </g>
    </g>
    <g id="xtick_4">
     <g id="line2d_4">
      <g>
       <use style="stroke:#000000;stroke-width:0.8;" x="184.650815" xlink:href="#mb058dc0efb" y="292.598437"/>
      </g>
     </g>
     <g id="text_4">
      <!-- Objc -->
      <defs>
       <path d="M 39.40625 66.21875 
Q 28.65625 66.21875 22.328125 58.203125 
Q 16.015625 50.203125 16.015625 36.375 
Q 16.015625 22.609375 22.328125 14.59375 
Q 28.65625 6.59375 39.40625 6.59375 
Q 50.140625 6.59375 56.421875 14.59375 
Q 62.703125 22.609375 62.703125 36.375 
Q 62.703125 50.203125 56.421875 58.203125 
Q 50.140625 66.21875 39.40625 66.21875 
z
M 39.40625 74.21875 
Q 54.734375 74.21875 63.90625 63.9375 
Q 73.09375 53.65625 73.09375 36.375 
Q 73.09375 19.140625 63.90625 8.859375 
Q 54.734375 -1.421875 39.40625 -1.421875 
Q 24.03125 -1.421875 14.8125 8.828125 
Q 5.609375 19.09375 5.609375 36.375 
Q 5.609375 53.65625 14.8125 63.9375 
Q 24.03125 74.21875 39.40625 74.21875 
z
" id="DejaVuSans-79"/>
       <path d="M 48.6875 27.296875 
Q 48.6875 37.203125 44.609375 42.84375 
Q 40.53125 48.484375 33.40625 48.484375 
Q 26.265625 48.484375 22.1875 42.84375 
Q 18.109375 37.203125 18.109375 27.296875 
Q 18.109375 17.390625 22.1875 11.75 
Q 26.265625 6.109375 33.40625 6.109375 
Q 40.53125 6.109375 44.609375 11.75 
Q 48.6875 17.390625 48.6875 27.296875 
z
M 18.109375 46.390625 
Q 20.953125 51.265625 25.265625 53.625 
Q 29.59375 56 35.59375 56 
Q 45.5625 56 51.78125 48.09375 
Q 58.015625 40.1875 58.015625 27.296875 
Q 58.015625 14.40625 51.78125 6.484375 
Q 45.5625 -1.421875 35.59375 -1.421875 
Q 29.59375 -1.421875 25.265625 0.953125 
Q 20.953125 3.328125 18.109375 8.203125 
L 18.109375 0 
L 9.078125 0 
L 9.078125 75.984375 
L 18.109375 75.984375 
z
" id="DejaVuSans-98"/>
      </defs>
      <g transform="translate(187.41019 322.095312)rotate(-90)scale(0.1 -0.1)">
       <use xlink:href="#DejaVuSans-79"/>
       <use x="78.710938" xlink:href="#DejaVuSans-98"/>
       <use x="142.1875" xlink:href="#DejaVuSans-106"/>
       <use x="169.970703" xlink:href="#DejaVuSans-99"/>
      </g>
     </g>
    </g>
    <g id="xtick_5">
     <g id="line2d_5">
      <g>
       <use style="stroke:#000000;stroke-width:0.8;" x="223.78125" xlink:href="#mb058dc0efb" y="292.598437"/>
      </g>
     </g>
     <g id="text_5">
      <!-- Subj -->
      <defs>
       <path d="M 53.515625 70.515625 
L 53.515625 60.890625 
Q 47.90625 63.578125 42.921875 64.890625 
Q 37.9375 66.21875 33.296875 66.21875 
Q 25.25 66.21875 20.875 63.09375 
Q 16.5 59.96875 16.5 54.203125 
Q 16.5 49.359375 19.40625 46.890625 
Q 22.3125 44.4375 30.421875 42.921875 
L 36.375 41.703125 
Q 47.40625 39.59375 52.65625 34.296875 
Q 57.90625 29 57.90625 20.125 
Q 57.90625 9.515625 50.796875 4.046875 
Q 43.703125 -1.421875 29.984375 -1.421875 
Q 24.8125 -1.421875 18.96875 -0.25 
Q 13.140625 0.921875 6.890625 3.21875 
L 6.890625 13.375 
Q 12.890625 10.015625 18.65625 8.296875 
Q 24.421875 6.59375 29.984375 6.59375 
Q 38.421875 6.59375 43.015625 9.90625 
Q 47.609375 13.234375 47.609375 19.390625 
Q 47.609375 24.75 44.3125 27.78125 
Q 41.015625 30.8125 33.5 32.328125 
L 27.484375 33.5 
Q 16.453125 35.6875 11.515625 40.375 
Q 6.59375 45.0625 6.59375 53.421875 
Q 6.59375 63.09375 13.40625 68.65625 
Q 20.21875 74.21875 32.171875 74.21875 
Q 37.3125 74.21875 42.625 73.28125 
Q 47.953125 72.359375 53.515625 70.515625 
z
" id="DejaVuSans-83"/>
      </defs>
      <g transform="translate(226.540625 321.410937)rotate(-90)scale(0.1 -0.1)">
       <use xlink:href="#DejaVuSans-83"/>
       <use x="63.476562" xlink:href="#DejaVuSans-117"/>
       <use x="126.855469" xlink:href="#DejaVuSans-98"/>
       <use x="190.332031" xlink:href="#DejaVuSans-106"/>
      </g>
     </g>
    </g>
    <g id="xtick_6">
     <g id="line2d_6">
      <g>
       <use style="stroke:#000000;stroke-width:0.8;" x="262.911685" xlink:href="#mb058dc0efb" y="292.598437"/>
      </g>
     </g>
     <g id="text_6">
      <!-- Time -->
      <defs>
       <path d="M -0.296875 72.90625 
L 61.375 72.90625 
L 61.375 64.59375 
L 35.5 64.59375 
L 35.5 0 
L 25.59375 0 
L 25.59375 64.59375 
L -0.296875 64.59375 
z
" id="DejaVuSans-84"/>
       <path d="M 9.421875 54.6875 
L 18.40625 54.6875 
L 18.40625 0 
L 9.421875 0 
z
M 9.421875 75.984375 
L 18.40625 75.984375 
L 18.40625 64.59375 
L 9.421875 64.59375 
z
" id="DejaVuSans-105"/>
       <path d="M 56.203125 29.59375 
L 56.203125 25.203125 
L 14.890625 25.203125 
Q 15.484375 15.921875 20.484375 11.0625 
Q 25.484375 6.203125 34.421875 6.203125 
Q 39.59375 6.203125 44.453125 7.46875 
Q 49.3125 8.734375 54.109375 11.28125 
L 54.109375 2.78125 
Q 49.265625 0.734375 44.1875 -0.34375 
Q 39.109375 -1.421875 33.890625 -1.421875 
Q 20.796875 -1.421875 13.15625 6.1875 
Q 5.515625 13.8125 5.515625 26.8125 
Q 5.515625 40.234375 12.765625 48.109375 
Q 20.015625 56 32.328125 56 
Q 43.359375 56 49.78125 48.890625 
Q 56.203125 41.796875 56.203125 29.59375 
z
M 47.21875 32.234375 
Q 47.125 39.59375 43.09375 43.984375 
Q 39.0625 48.390625 32.421875 48.390625 
Q 24.90625 48.390625 20.390625 44.140625 
Q 15.875 39.890625 15.1875 32.171875 
z
" id="DejaVuSans-101"/>
      </defs>
      <g transform="translate(265.67106 324.373437)rotate(-90)scale(0.1 -0.1)">
       <use xlink:href="#DejaVuSans-84"/>
       <use x="61.037109" xlink:href="#DejaVuSans-105"/>
       <use x="88.820312" xlink:href="#DejaVuSans-109"/>
       <use x="186.232422" xlink:href="#DejaVuSans-101"/>
      </g>
     </g>
    </g>
    <g id="text_7">
     <!-- function -->
     <defs>
      <path d="M 37.109375 75.984375 
L 37.109375 68.5 
L 28.515625 68.5 
Q 23.6875 68.5 21.796875 66.546875 
Q 19.921875 64.59375 19.921875 59.515625 
L 19.921875 54.6875 
L 34.71875 54.6875 
L 34.71875 47.703125 
L 19.921875 47.703125 
L 19.921875 0 
L 10.890625 0 
L 10.890625 47.703125 
L 2.296875 47.703125 
L 2.296875 54.6875 
L 10.890625 54.6875 
L 10.890625 58.5 
Q 10.890625 67.625 15.140625 71.796875 
Q 19.390625 75.984375 28.609375 75.984375 
z
" id="DejaVuSans-102"/>
      <path d="M 54.890625 33.015625 
L 54.890625 0 
L 45.90625 0 
L 45.90625 32.71875 
Q 45.90625 40.484375 42.875 44.328125 
Q 39.84375 48.1875 33.796875 48.1875 
Q 26.515625 48.1875 22.3125 43.546875 
Q 18.109375 38.921875 18.109375 30.90625 
L 18.109375 0 
L 9.078125 0 
L 9.078125 54.6875 
L 18.109375 54.6875 
L 18.109375 46.1875 
Q 21.34375 51.125 25.703125 53.5625 
Q 30.078125 56 35.796875 56 
Q 45.21875 56 50.046875 50.171875 
Q 54.890625 44.34375 54.890625 33.015625 
z
" id="DejaVuSans-110"/>
      <path d="M 18.3125 70.21875 
L 18.3125 54.6875 
L 36.8125 54.6875 
L 36.8125 47.703125 
L 18.3125 47.703125 
L 18.3125 18.015625 
Q 18.3125 11.328125 20.140625 9.421875 
Q 21.96875 7.515625 27.59375 7.515625 
L 36.8125 7.515625 
L 36.8125 0 
L 27.59375 0 
Q 17.1875 0 13.234375 3.875 
Q 9.28125 7.765625 9.28125 18.015625 
L 9.28125 47.703125 
L 2.6875 47.703125 
L 2.6875 54.6875 
L 9.28125 54.6875 
L 9.28125 70.21875 
z
" id="DejaVuSans-116"/>
     </defs>
     <g transform="translate(144.661379 337.046875)scale(0.1 -0.1)">
      <use xlink:href="#DejaVuSans-102"/>
      <use x="35.205078" xlink:href="#DejaVuSans-117"/>
      <use x="98.583984" xlink:href="#DejaVuSans-110"/>
      <use x="161.962891" xlink:href="#DejaVuSans-99"/>
      <use x="216.943359" xlink:href="#DejaVuSans-116"/>
      <use x="256.152344" xlink:href="#DejaVuSans-105"/>
      <use x="283.935547" xlink:href="#DejaVuSans-111"/>
      <use x="345.117188" xlink:href="#DejaVuSans-110"/>
     </g>
    </g>
   </g>
   <g id="matplotlib.axis_2">
    <g id="ytick_1">
     <g id="line2d_7">
      <path clip-path="url(#pfc89855cb5)" d="M 43.78125 292.598437 
L 286.389946 292.598437 
" style="fill:none;stroke:#b0b0b0;stroke-linecap:square;stroke-width:0.8;"/>
     </g>
     <g id="line2d_8">
      <defs>
       <path d="M 0 0 
L -3.5 0 
" id="m91cb1a3d34" style="stroke:#000000;stroke-width:0.8;"/>
      </defs>
      <g>
       <use style="stroke:#000000;stroke-width:0.8;" x="43.78125" xlink:href="#m91cb1a3d34" y="292.598437"/>
      </g>
     </g>
     <g id="text_8">
      <!-- 0.0 -->
      <defs>
       <path d="M 31.78125 66.40625 
Q 24.171875 66.40625 20.328125 58.90625 
Q 16.5 51.421875 16.5 36.375 
Q 16.5 21.390625 20.328125 13.890625 
Q 24.171875 6.390625 31.78125 6.390625 
Q 39.453125 6.390625 43.28125 13.890625 
Q 47.125 21.390625 47.125 36.375 
Q 47.125 51.421875 43.28125 58.90625 
Q 39.453125 66.40625 31.78125 66.40625 
z
M 31.78125 74.21875 
Q 44.046875 74.21875 50.515625 64.515625 
Q 56.984375 54.828125 56.984375 36.375 
Q 56.984375 17.96875 50.515625 8.265625 
Q 44.046875 -1.421875 31.78125 -1.421875 
Q 19.53125 -1.421875 13.0625 8.265625 
Q 6.59375 17.96875 6.59375 36.375 
Q 6.59375 54.828125 13.0625 64.515625 
Q 19.53125 74.21875 31.78125 74.21875 
z
" id="DejaVuSans-48"/>
       <path d="M 10.6875 12.40625 
L 21 12.40625 
L 21 0 
L 10.6875 0 
z
" id="DejaVuSans-46"/>
      </defs>
      <g transform="translate(20.878125 296.397656)scale(0.1 -0.1)">
       <use xlink:href="#DejaVuSans-48"/>
       <use x="63.623047" xlink:href="#DejaVuSans-46"/>
       <use x="95.410156" xlink:href="#DejaVuSans-48"/>
      </g>
     </g>
    </g>
    <g id="ytick_2">
     <g id="line2d_9">
      <path clip-path="url(#pfc89855cb5)" d="M 43.78125 247.298437 
L 286.389946 247.298437 
" style="fill:none;stroke:#b0b0b0;stroke-linecap:square;stroke-width:0.8;"/>
     </g>
     <g id="line2d_10">
      <g>
       <use style="stroke:#000000;stroke-width:0.8;" x="43.78125" xlink:href="#m91cb1a3d34" y="247.298437"/>
      </g>
     </g>
     <g id="text_9">
      <!-- 0.2 -->
      <defs>
       <path d="M 19.1875 8.296875 
L 53.609375 8.296875 
L 53.609375 0 
L 7.328125 0 
L 7.328125 8.296875 
Q 12.9375 14.109375 22.625 23.890625 
Q 32.328125 33.6875 34.8125 36.53125 
Q 39.546875 41.84375 41.421875 45.53125 
Q 43.3125 49.21875 43.3125 52.78125 
Q 43.3125 58.59375 39.234375 62.25 
Q 35.15625 65.921875 28.609375 65.921875 
Q 23.96875 65.921875 18.8125 64.3125 
Q 13.671875 62.703125 7.8125 59.421875 
L 7.8125 69.390625 
Q 13.765625 71.78125 18.9375 73 
Q 24.125 74.21875 28.421875 74.21875 
Q 39.75 74.21875 46.484375 68.546875 
Q 53.21875 62.890625 53.21875 53.421875 
Q 53.21875 48.921875 51.53125 44.890625 
Q 49.859375 40.875 45.40625 35.40625 
Q 44.1875 33.984375 37.640625 27.21875 
Q 31.109375 20.453125 19.1875 8.296875 
z
" id="DejaVuSans-50"/>
      </defs>
      <g transform="translate(20.878125 251.097656)scale(0.1 -0.1)">
       <use xlink:href="#DejaVuSans-48"/>
       <use x="63.623047" xlink:href="#DejaVuSans-46"/>
       <use x="95.410156" xlink:href="#DejaVuSans-50"/>
      </g>
     </g>
    </g>
    <g id="ytick_3">
     <g id="line2d_11">
      <path clip-path="url(#pfc89855cb5)" d="M 43.78125 201.998437 
L 286.389946 201.998437 
" style="fill:none;stroke:#b0b0b0;stroke-linecap:square;stroke-width:0.8;"/>
     </g>
     <g id="line2d_12">
      <g>
       <use style="stroke:#000000;stroke-width:0.8;" x="43.78125" xlink:href="#m91cb1a3d34" y="201.998437"/>
      </g>
     </g>
     <g id="text_10">
      <!-- 0.4 -->
      <defs>
       <path d="M 37.796875 64.3125 
L 12.890625 25.390625 
L 37.796875 25.390625 
z
M 35.203125 72.90625 
L 47.609375 72.90625 
L 47.609375 25.390625 
L 58.015625 25.390625 
L 58.015625 17.1875 
L 47.609375 17.1875 
L 47.609375 0 
L 37.796875 0 
L 37.796875 17.1875 
L 4.890625 17.1875 
L 4.890625 26.703125 
z
" id="DejaVuSans-52"/>
      </defs>
      <g transform="translate(20.878125 205.797656)scale(0.1 -0.1)">
       <use xlink:href="#DejaVuSans-48"/>
       <use x="63.623047" xlink:href="#DejaVuSans-46"/>
       <use x="95.410156" xlink:href="#DejaVuSans-52"/>
      </g>
     </g>
    </g>
    <g id="ytick_4">
     <g id="line2d_13">
      <path clip-path="url(#pfc89855cb5)" d="M 43.78125 156.698437 
L 286.389946 156.698437 
" style="fill:none;stroke:#b0b0b0;stroke-linecap:square;stroke-width:0.8;"/>
     </g>
     <g id="line2d_14">
      <g>
       <use style="stroke:#000000;stroke-width:0.8;" x="43.78125" xlink:href="#m91cb1a3d34" y="156.698437"/>
      </g>
     </g>
     <g id="text_11">
      <!-- 0.6 -->
      <defs>
       <path d="M 33.015625 40.375 
Q 26.375 40.375 22.484375 35.828125 
Q 18.609375 31.296875 18.609375 23.390625 
Q 18.609375 15.53125 22.484375 10.953125 
Q 26.375 6.390625 33.015625 6.390625 
Q 39.65625 6.390625 43.53125 10.953125 
Q 47.40625 15.53125 47.40625 23.390625 
Q 47.40625 31.296875 43.53125 35.828125 
Q 39.65625 40.375 33.015625 40.375 
z
M 52.59375 71.296875 
L 52.59375 62.3125 
Q 48.875 64.0625 45.09375 64.984375 
Q 41.3125 65.921875 37.59375 65.921875 
Q 27.828125 65.921875 22.671875 59.328125 
Q 17.53125 52.734375 16.796875 39.40625 
Q 19.671875 43.65625 24.015625 45.921875 
Q 28.375 48.1875 33.59375 48.1875 
Q 44.578125 48.1875 50.953125 41.515625 
Q 57.328125 34.859375 57.328125 23.390625 
Q 57.328125 12.15625 50.6875 5.359375 
Q 44.046875 -1.421875 33.015625 -1.421875 
Q 20.359375 -1.421875 13.671875 8.265625 
Q 6.984375 17.96875 6.984375 36.375 
Q 6.984375 53.65625 15.1875 63.9375 
Q 23.390625 74.21875 37.203125 74.21875 
Q 40.921875 74.21875 44.703125 73.484375 
Q 48.484375 72.75 52.59375 71.296875 
z
" id="DejaVuSans-54"/>
      </defs>
      <g transform="translate(20.878125 160.497656)scale(0.1 -0.1)">
       <use xlink:href="#DejaVuSans-48"/>
       <use x="63.623047" xlink:href="#DejaVuSans-46"/>
       <use x="95.410156" xlink:href="#DejaVuSans-54"/>
      </g>
     </g>
    </g>
    <g id="ytick_5">
     <g id="line2d_15">
      <path clip-path="url(#pfc89855cb5)" d="M 43.78125 111.398437 
L 286.389946 111.398437 
" style="fill:none;stroke:#b0b0b0;stroke-linecap:square;stroke-width:0.8;"/>
     </g>
     <g id="line2d_16">
      <g>
       <use style="stroke:#000000;stroke-width:0.8;" x="43.78125" xlink:href="#m91cb1a3d34" y="111.398437"/>
      </g>
     </g>
     <g id="text_12">
      <!-- 0.8 -->
      <defs>
       <path d="M 31.78125 34.625 
Q 24.75 34.625 20.71875 30.859375 
Q 16.703125 27.09375 16.703125 20.515625 
Q 16.703125 13.921875 20.71875 10.15625 
Q 24.75 6.390625 31.78125 6.390625 
Q 38.8125 6.390625 42.859375 10.171875 
Q 46.921875 13.96875 46.921875 20.515625 
Q 46.921875 27.09375 42.890625 30.859375 
Q 38.875 34.625 31.78125 34.625 
z
M 21.921875 38.8125 
Q 15.578125 40.375 12.03125 44.71875 
Q 8.5 49.078125 8.5 55.328125 
Q 8.5 64.0625 14.71875 69.140625 
Q 20.953125 74.21875 31.78125 74.21875 
Q 42.671875 74.21875 48.875 69.140625 
Q 55.078125 64.0625 55.078125 55.328125 
Q 55.078125 49.078125 51.53125 44.71875 
Q 48 40.375 41.703125 38.8125 
Q 48.828125 37.15625 52.796875 32.3125 
Q 56.78125 27.484375 56.78125 20.515625 
Q 56.78125 9.90625 50.3125 4.234375 
Q 43.84375 -1.421875 31.78125 -1.421875 
Q 19.734375 -1.421875 13.25 4.234375 
Q 6.78125 9.90625 6.78125 20.515625 
Q 6.78125 27.484375 10.78125 32.3125 
Q 14.796875 37.15625 21.921875 38.8125 
z
M 18.3125 54.390625 
Q 18.3125 48.734375 21.84375 45.5625 
Q 25.390625 42.390625 31.78125 42.390625 
Q 38.140625 42.390625 41.71875 45.5625 
Q 45.3125 48.734375 45.3125 54.390625 
Q 45.3125 60.0625 41.71875 63.234375 
Q 38.140625 66.40625 31.78125 66.40625 
Q 25.390625 66.40625 21.84375 63.234375 
Q 18.3125 60.0625 18.3125 54.390625 
z
" id="DejaVuSans-56"/>
      </defs>
      <g transform="translate(20.878125 115.197656)scale(0.1 -0.1)">
       <use xlink:href="#DejaVuSans-48"/>
       <use x="63.623047" xlink:href="#DejaVuSans-46"/>
       <use x="95.410156" xlink:href="#DejaVuSans-56"/>
      </g>
     </g>
    </g>
    <g id="ytick_6">
     <g id="line2d_17">
      <path clip-path="url(#pfc89855cb5)" d="M 43.78125 66.098437 
L 286.389946 66.098437 
" style="fill:none;stroke:#b0b0b0;stroke-linecap:square;stroke-width:0.8;"/>
     </g>
     <g id="line2d_18">
      <g>
       <use style="stroke:#000000;stroke-width:0.8;" x="43.78125" xlink:href="#m91cb1a3d34" y="66.098437"/>
      </g>
     </g>
     <g id="text_13">
      <!-- 1 -->
      <defs>
       <path d="M 12.40625 8.296875 
L 28.515625 8.296875 
L 28.515625 63.921875 
L 10.984375 60.40625 
L 10.984375 69.390625 
L 28.421875 72.90625 
L 38.28125 72.90625 
L 38.28125 8.296875 
L 54.390625 8.296875 
L 54.390625 0 
L 12.40625 0 
z
" id="DejaVuSans-49"/>
      </defs>
      <g transform="translate(30.41875 69.897656)scale(0.1 -0.1)">
       <use xlink:href="#DejaVuSans-49"/>
      </g>
     </g>
    </g>
    <g id="ytick_7">
     <g id="line2d_19">
      <path clip-path="url(#pfc89855cb5)" d="M 43.78125 20.798437 
L 286.389946 20.798437 
" style="fill:none;stroke:#b0b0b0;stroke-linecap:square;stroke-width:0.8;"/>
     </g>
     <g id="line2d_20">
      <g>
       <use style="stroke:#000000;stroke-width:0.8;" x="43.78125" xlink:href="#m91cb1a3d34" y="20.798437"/>
      </g>
     </g>
    </g>
    <g id="text_14">
     <!-- percentage % -->
     <defs>
      <path d="M 41.109375 46.296875 
Q 39.59375 47.171875 37.8125 47.578125 
Q 36.03125 48 33.890625 48 
Q 26.265625 48 22.1875 43.046875 
Q 18.109375 38.09375 18.109375 28.8125 
L 18.109375 0 
L 9.078125 0 
L 9.078125 54.6875 
L 18.109375 54.6875 
L 18.109375 46.1875 
Q 20.953125 51.171875 25.484375 53.578125 
Q 30.03125 56 36.53125 56 
Q 37.453125 56 38.578125 55.875 
Q 39.703125 55.765625 41.0625 55.515625 
z
" id="DejaVuSans-114"/>
      <path d="M 45.40625 27.984375 
Q 45.40625 37.75 41.375 43.109375 
Q 37.359375 48.484375 30.078125 48.484375 
Q 22.859375 48.484375 18.828125 43.109375 
Q 14.796875 37.75 14.796875 27.984375 
Q 14.796875 18.265625 18.828125 12.890625 
Q 22.859375 7.515625 30.078125 7.515625 
Q 37.359375 7.515625 41.375 12.890625 
Q 45.40625 18.265625 45.40625 27.984375 
z
M 54.390625 6.78125 
Q 54.390625 -7.171875 48.1875 -13.984375 
Q 42 -20.796875 29.203125 -20.796875 
Q 24.46875 -20.796875 20.265625 -20.09375 
Q 16.0625 -19.390625 12.109375 -17.921875 
L 12.109375 -9.1875 
Q 16.0625 -11.328125 19.921875 -12.34375 
Q 23.78125 -13.375 27.78125 -13.375 
Q 36.625 -13.375 41.015625 -8.765625 
Q 45.40625 -4.15625 45.40625 5.171875 
L 45.40625 9.625 
Q 42.625 4.78125 38.28125 2.390625 
Q 33.9375 0 27.875 0 
Q 17.828125 0 11.671875 7.65625 
Q 5.515625 15.328125 5.515625 27.984375 
Q 5.515625 40.671875 11.671875 48.328125 
Q 17.828125 56 27.875 56 
Q 33.9375 56 38.28125 53.609375 
Q 42.625 51.21875 45.40625 46.390625 
L 45.40625 54.6875 
L 54.390625 54.6875 
z
" id="DejaVuSans-103"/>
      <path id="DejaVuSans-32"/>
      <path d="M 72.703125 32.078125 
Q 68.453125 32.078125 66.03125 28.46875 
Q 63.625 24.859375 63.625 18.40625 
Q 63.625 12.0625 66.03125 8.421875 
Q 68.453125 4.78125 72.703125 4.78125 
Q 76.859375 4.78125 79.265625 8.421875 
Q 81.6875 12.0625 81.6875 18.40625 
Q 81.6875 24.8125 79.265625 28.4375 
Q 76.859375 32.078125 72.703125 32.078125 
z
M 72.703125 38.28125 
Q 80.421875 38.28125 84.953125 32.90625 
Q 89.5 27.546875 89.5 18.40625 
Q 89.5 9.28125 84.9375 3.921875 
Q 80.375 -1.421875 72.703125 -1.421875 
Q 64.890625 -1.421875 60.34375 3.921875 
Q 55.8125 9.28125 55.8125 18.40625 
Q 55.8125 27.59375 60.375 32.9375 
Q 64.9375 38.28125 72.703125 38.28125 
z
M 22.3125 68.015625 
Q 18.109375 68.015625 15.6875 64.375 
Q 13.28125 60.75 13.28125 54.390625 
Q 13.28125 47.953125 15.671875 44.328125 
Q 18.0625 40.71875 22.3125 40.71875 
Q 26.5625 40.71875 28.96875 44.328125 
Q 31.390625 47.953125 31.390625 54.390625 
Q 31.390625 60.6875 28.953125 64.34375 
Q 26.515625 68.015625 22.3125 68.015625 
z
M 66.40625 74.21875 
L 74.21875 74.21875 
L 28.609375 -1.421875 
L 20.796875 -1.421875 
z
M 22.3125 74.21875 
Q 30.03125 74.21875 34.609375 68.875 
Q 39.203125 63.53125 39.203125 54.390625 
Q 39.203125 45.171875 34.640625 39.84375 
Q 30.078125 34.515625 22.3125 34.515625 
Q 14.546875 34.515625 10.03125 39.859375 
Q 5.515625 45.21875 5.515625 54.390625 
Q 5.515625 63.484375 10.046875 68.84375 
Q 14.59375 74.21875 22.3125 74.21875 
z
" id="DejaVuSans-37"/>
     </defs>
     <g transform="translate(14.798437 191.6125)rotate(-90)scale(0.1 -0.1)">
      <use xlink:href="#DejaVuSans-112"/>
      <use x="63.476562" xlink:href="#DejaVuSans-101"/>
      <use x="125" xlink:href="#DejaVuSans-114"/>
      <use x="166.082031" xlink:href="#DejaVuSans-99"/>
      <use x="221.0625" xlink:href="#DejaVuSans-101"/>
      <use x="282.585938" xlink:href="#DejaVuSans-110"/>
      <use x="345.964844" xlink:href="#DejaVuSans-116"/>
      <use x="385.173828" xlink:href="#DejaVuSans-97"/>
      <use x="446.453125" xlink:href="#DejaVuSans-103"/>
      <use x="509.929688" xlink:href="#DejaVuSans-101"/>
      <use x="571.453125" xlink:href="#DejaVuSans-32"/>
      <use x="603.240234" xlink:href="#DejaVuSans-37"/>
     </g>
    </g>
   </g>
   <g id="patch_3">
    <path clip-path="url(#pfc89855cb5)" d="M 53.563859 292.598437 
L 67.259511 292.598437 
L 67.259511 84.596098 
L 53.563859 84.596098 
z
" style="fill:#d3d3d3;stroke:#000000;stroke-linejoin:miter;"/>
   </g>
   <g id="patch_4">
    <path clip-path="url(#pfc89855cb5)" d="M 92.694293 292.598437 
L 106.389946 292.598437 
L 106.389946 81.212226 
L 92.694293 81.212226 
z
" style="fill:#d3d3d3;stroke:#000000;stroke-linejoin:miter;"/>
   </g>
   <g id="patch_5">
    <path clip-path="url(#pfc89855cb5)" d="M 131.824728 292.598437 
L 145.52038 292.598437 
L 145.52038 86.927025 
L 131.824728 86.927025 
z
" style="fill:#d3d3d3;stroke:#000000;stroke-linejoin:miter;"/>
   </g>
   <g id="patch_6">
    <path clip-path="url(#pfc89855cb5)" d="M 170.955163 292.598437 
L 184.650815 292.598437 
L 184.650815 83.080375 
L 170.955163 83.080375 
z
" style="fill:#d3d3d3;stroke:#000000;stroke-linejoin:miter;"/>
   </g>
   <g id="patch_7">
    <path clip-path="url(#pfc89855cb5)" d="M 210.085598 292.598437 
L 223.78125 292.598437 
L 223.78125 86.439684 
L 210.085598 86.439684 
z
" style="fill:#d3d3d3;stroke:#000000;stroke-linejoin:miter;"/>
   </g>
   <g id="patch_8">
    <path clip-path="url(#pfc89855cb5)" d="M 249.216033 292.598437 
L 262.911685 292.598437 
L 262.911685 83.143084 
L 249.216033 83.143084 
z
" style="fill:#d3d3d3;stroke:#000000;stroke-linejoin:miter;"/>
   </g>
   <g id="patch_9">
    <path clip-path="url(#pfc89855cb5)" d="M 67.259511 292.598437 
L 80.955163 292.598437 
L 80.955163 274.100777 
L 67.259511 274.100777 
z
" style="fill:#ffffff;stroke:#000000;stroke-linejoin:miter;"/>
   </g>
   <g id="patch_10">
    <path clip-path="url(#pfc89855cb5)" d="M 106.389946 292.598437 
L 120.085598 292.598437 
L 120.085598 277.484649 
L 106.389946 277.484649 
z
" style="fill:#ffffff;stroke:#000000;stroke-linejoin:miter;"/>
   </g>
   <g id="patch_11">
    <path clip-path="url(#pfc89855cb5)" d="M 145.52038 292.598437 
L 159.216033 292.598437 
L 159.216033 271.76985 
L 145.52038 271.76985 
z
" style="fill:#ffffff;stroke:#000000;stroke-linejoin:miter;"/>
   </g>
   <g id="patch_12">
    <path clip-path="url(#pfc89855cb5)" d="M 184.650815 292.598437 
L 198.346467 292.598437 
L 198.346467 275.6165 
L 184.650815 275.6165 
z
" style="fill:#ffffff;stroke:#000000;stroke-linejoin:miter;"/>
   </g>
   <g id="patch_13">
    <path clip-path="url(#pfc89855cb5)" d="M 223.78125 292.598437 
L 237.476902 292.598437 
L 237.476902 272.257191 
L 223.78125 272.257191 
z
" style="fill:#ffffff;stroke:#000000;stroke-linejoin:miter;"/>
   </g>
   <g id="patch_14">
    <path clip-path="url(#pfc89855cb5)" d="M 262.911685 292.598437 
L 276.607337 292.598437 
L 276.607337 275.553791 
L 262.911685 275.553791 
z
" style="fill:#ffffff;stroke:#000000;stroke-linejoin:miter;"/>
   </g>
   <g id="line2d_21">
    <path clip-path="url(#pfc89855cb5)" d="M 43.78125 86.927025 
L 286.389946 86.927025 
" style="fill:none;stroke:#1f77b4;stroke-linecap:square;stroke-opacity:0.8;stroke-width:1.5;"/>
   </g>
   <g id="patch_15">
    <path d="M 43.78125 292.598437 
L 43.78125 20.798437 
" style="fill:none;stroke:#000000;stroke-linecap:square;stroke-linejoin:miter;stroke-width:0.8;"/>
   </g>
   <g id="patch_16">
    <path d="M 286.389946 292.598437 
L 286.389946 20.798437 
" style="fill:none;stroke:#000000;stroke-linecap:square;stroke-linejoin:miter;stroke-width:0.8;"/>
   </g>
   <g id="patch_17">
    <path d="M 43.78125 292.598437 
L 286.389946 292.598437 
" style="fill:none;stroke:#000000;stroke-linecap:square;stroke-linejoin:miter;stroke-width:0.8;"/>
   </g>
   <g id="patch_18">
    <path d="M 43.78125 20.798437 
L 286.389946 20.798437 
" style="fill:none;stroke:#000000;stroke-linecap:square;stroke-linejoin:miter;stroke-width:0.8;"/>
   </g>
   <g id="text_15">
    <!-- number (n) of atoms (a) per phrase function -->
    <defs>
     <path d="M 31 75.875 
Q 24.46875 64.65625 21.28125 53.65625 
Q 18.109375 42.671875 18.109375 31.390625 
Q 18.109375 20.125 21.3125 9.0625 
Q 24.515625 -2 31 -13.1875 
L 23.1875 -13.1875 
Q 15.875 -1.703125 12.234375 9.375 
Q 8.59375 20.453125 8.59375 31.390625 
Q 8.59375 42.28125 12.203125 53.3125 
Q 15.828125 64.359375 23.1875 75.875 
z
" id="DejaVuSans-40"/>
     <path d="M 8.015625 75.875 
L 15.828125 75.875 
Q 23.140625 64.359375 26.78125 53.3125 
Q 30.421875 42.28125 30.421875 31.390625 
Q 30.421875 20.453125 26.78125 9.375 
Q 23.140625 -1.703125 15.828125 -13.1875 
L 8.015625 -13.1875 
Q 14.5 -2 17.703125 9.0625 
Q 20.90625 20.125 20.90625 31.390625 
Q 20.90625 42.671875 17.703125 53.65625 
Q 14.5 64.65625 8.015625 75.875 
z
" id="DejaVuSans-41"/>
     <path d="M 44.28125 53.078125 
L 44.28125 44.578125 
Q 40.484375 46.53125 36.375 47.5 
Q 32.28125 48.484375 27.875 48.484375 
Q 21.1875 48.484375 17.84375 46.4375 
Q 14.5 44.390625 14.5 40.28125 
Q 14.5 37.15625 16.890625 35.375 
Q 19.28125 33.59375 26.515625 31.984375 
L 29.59375 31.296875 
Q 39.15625 29.25 43.1875 25.515625 
Q 47.21875 21.78125 47.21875 15.09375 
Q 47.21875 7.46875 41.1875 3.015625 
Q 35.15625 -1.421875 24.609375 -1.421875 
Q 20.21875 -1.421875 15.453125 -0.5625 
Q 10.6875 0.296875 5.421875 2 
L 5.421875 11.28125 
Q 10.40625 8.6875 15.234375 7.390625 
Q 20.0625 6.109375 24.8125 6.109375 
Q 31.15625 6.109375 34.5625 8.28125 
Q 37.984375 10.453125 37.984375 14.40625 
Q 37.984375 18.0625 35.515625 20.015625 
Q 33.0625 21.96875 24.703125 23.78125 
L 21.578125 24.515625 
Q 13.234375 26.265625 9.515625 29.90625 
Q 5.8125 33.546875 5.8125 39.890625 
Q 5.8125 47.609375 11.28125 51.796875 
Q 16.75 56 26.8125 56 
Q 31.78125 56 36.171875 55.265625 
Q 40.578125 54.546875 44.28125 53.078125 
z
" id="DejaVuSans-115"/>
     <path d="M 54.890625 33.015625 
L 54.890625 0 
L 45.90625 0 
L 45.90625 32.71875 
Q 45.90625 40.484375 42.875 44.328125 
Q 39.84375 48.1875 33.796875 48.1875 
Q 26.515625 48.1875 22.3125 43.546875 
Q 18.109375 38.921875 18.109375 30.90625 
L 18.109375 0 
L 9.078125 0 
L 9.078125 75.984375 
L 18.109375 75.984375 
L 18.109375 46.1875 
Q 21.34375 51.125 25.703125 53.5625 
Q 30.078125 56 35.796875 56 
Q 45.21875 56 50.046875 50.171875 
Q 54.890625 44.34375 54.890625 33.015625 
z
" id="DejaVuSans-104"/>
    </defs>
    <g transform="translate(54.159817 14.798438)scale(0.1 -0.1)">
     <use xlink:href="#DejaVuSans-110"/>
     <use x="63.378906" xlink:href="#DejaVuSans-117"/>
     <use x="126.757812" xlink:href="#DejaVuSans-109"/>
     <use x="224.169922" xlink:href="#DejaVuSans-98"/>
     <use x="287.646484" xlink:href="#DejaVuSans-101"/>
     <use x="349.169922" xlink:href="#DejaVuSans-114"/>
     <use x="390.283203" xlink:href="#DejaVuSans-32"/>
     <use x="422.070312" xlink:href="#DejaVuSans-40"/>
     <use x="461.083984" xlink:href="#DejaVuSans-110"/>
     <use x="524.462891" xlink:href="#DejaVuSans-41"/>
     <use x="563.476562" xlink:href="#DejaVuSans-32"/>
     <use x="595.263672" xlink:href="#DejaVuSans-111"/>
     <use x="656.445312" xlink:href="#DejaVuSans-102"/>
     <use x="691.650391" xlink:href="#DejaVuSans-32"/>
     <use x="723.4375" xlink:href="#DejaVuSans-97"/>
     <use x="784.716797" xlink:href="#DejaVuSans-116"/>
     <use x="823.925781" xlink:href="#DejaVuSans-111"/>
     <use x="885.107422" xlink:href="#DejaVuSans-109"/>
     <use x="982.519531" xlink:href="#DejaVuSans-115"/>
     <use x="1034.619141" xlink:href="#DejaVuSans-32"/>
     <use x="1066.40625" xlink:href="#DejaVuSans-40"/>
     <use x="1105.419922" xlink:href="#DejaVuSans-97"/>
     <use x="1166.699219" xlink:href="#DejaVuSans-41"/>
     <use x="1205.712891" xlink:href="#DejaVuSans-32"/>
     <use x="1237.5" xlink:href="#DejaVuSans-112"/>
     <use x="1300.976562" xlink:href="#DejaVuSans-101"/>
     <use x="1362.5" xlink:href="#DejaVuSans-114"/>
     <use x="1403.613281" xlink:href="#DejaVuSans-32"/>
     <use x="1435.400391" xlink:href="#DejaVuSans-112"/>
     <use x="1498.876953" xlink:href="#DejaVuSans-104"/>
     <use x="1562.255859" xlink:href="#DejaVuSans-114"/>
     <use x="1603.369141" xlink:href="#DejaVuSans-97"/>
     <use x="1664.648438" xlink:href="#DejaVuSans-115"/>
     <use x="1716.748047" xlink:href="#DejaVuSans-101"/>
     <use x="1778.271484" xlink:href="#DejaVuSans-32"/>
     <use x="1810.058594" xlink:href="#DejaVuSans-102"/>
     <use x="1845.263672" xlink:href="#DejaVuSans-117"/>
     <use x="1908.642578" xlink:href="#DejaVuSans-110"/>
     <use x="1972.021484" xlink:href="#DejaVuSans-99"/>
     <use x="2027.001953" xlink:href="#DejaVuSans-116"/>
     <use x="2066.210938" xlink:href="#DejaVuSans-105"/>
     <use x="2093.994141" xlink:href="#DejaVuSans-111"/>
     <use x="2155.175781" xlink:href="#DejaVuSans-110"/>
    </g>
   </g>
   <g id="legend_1">
    <g id="patch_19">
     <path d="M 213.825883 58.154687 
L 279.389946 58.154687 
Q 281.389946 58.154687 281.389946 56.154687 
L 281.389946 27.798437 
Q 281.389946 25.798437 279.389946 25.798437 
L 213.825883 25.798437 
Q 211.825883 25.798437 211.825883 27.798437 
L 211.825883 56.154687 
Q 211.825883 58.154687 213.825883 58.154687 
z
" style="fill:#ffffff;opacity:0.8;stroke:#cccccc;stroke-linejoin:miter;"/>
    </g>
    <g id="patch_20">
     <path d="M 215.825883 37.396875 
L 235.825883 37.396875 
L 235.825883 30.396875 
L 215.825883 30.396875 
z
" style="fill:#d3d3d3;stroke:#000000;stroke-linejoin:miter;"/>
    </g>
    <g id="text_16">
     <!-- na = 1 -->
     <defs>
      <path d="M 10.59375 45.40625 
L 73.1875 45.40625 
L 73.1875 37.203125 
L 10.59375 37.203125 
z
M 10.59375 25.484375 
L 73.1875 25.484375 
L 73.1875 17.1875 
L 10.59375 17.1875 
z
" id="DejaVuSans-61"/>
     </defs>
     <g transform="translate(243.825883 37.396875)scale(0.1 -0.1)">
      <use xlink:href="#DejaVuSans-110"/>
      <use x="63.378906" xlink:href="#DejaVuSans-97"/>
      <use x="124.658203" xlink:href="#DejaVuSans-32"/>
      <use x="156.445312" xlink:href="#DejaVuSans-61"/>
      <use x="240.234375" xlink:href="#DejaVuSans-32"/>
      <use x="272.021484" xlink:href="#DejaVuSans-49"/>
     </g>
    </g>
    <g id="patch_21">
     <path d="M 215.825883 52.075 
L 235.825883 52.075 
L 235.825883 45.075 
L 215.825883 45.075 
z
" style="fill:#ffffff;stroke:#000000;stroke-linejoin:miter;"/>
    </g>
    <g id="text_17">
     <!-- na &gt; 1 -->
     <defs>
      <path d="M 10.59375 49.21875 
L 10.59375 58.109375 
L 73.1875 35.40625 
L 73.1875 27.296875 
L 10.59375 4.59375 
L 10.59375 13.484375 
L 60.890625 31.296875 
z
" id="DejaVuSans-62"/>
     </defs>
     <g transform="translate(243.825883 52.075)scale(0.1 -0.1)">
      <use xlink:href="#DejaVuSans-110"/>
      <use x="63.378906" xlink:href="#DejaVuSans-97"/>
      <use x="124.658203" xlink:href="#DejaVuSans-32"/>
      <use x="156.445312" xlink:href="#DejaVuSans-62"/>
      <use x="240.234375" xlink:href="#DejaVuSans-32"/>
      <use x="272.021484" xlink:href="#DejaVuSans-49"/>
     </g>
    </g>
   </g>
  </g>
  <g id="axes_2">
   <g id="patch_22">
    <path d="M 334.911685 292.598437 
L 577.52038 292.598437 
L 577.52038 20.798437 
L 334.911685 20.798437 
z
" style="fill:#ffffff;"/>
   </g>
   <g id="matplotlib.axis_3">
    <g id="xtick_7">
     <g id="line2d_22">
      <g>
       <use style="stroke:#000000;stroke-width:0.8;" x="358.389946" xlink:href="#mb058dc0efb" y="292.598437"/>
      </g>
     </g>
     <g id="text_18">
      <!-- Adju -->
      <g transform="translate(361.149321 321.901562)rotate(-90)scale(0.1 -0.1)">
       <use xlink:href="#DejaVuSans-65"/>
       <use x="68.392578" xlink:href="#DejaVuSans-100"/>
       <use x="131.869141" xlink:href="#DejaVuSans-106"/>
       <use x="159.652344" xlink:href="#DejaVuSans-117"/>
      </g>
     </g>
    </g>
    <g id="xtick_8">
     <g id="line2d_23">
      <g>
       <use style="stroke:#000000;stroke-width:0.8;" x="397.52038" xlink:href="#mb058dc0efb" y="292.598437"/>
      </g>
     </g>
     <g id="text_19">
      <!-- Cmpl -->
      <g transform="translate(400.279755 325.448437)rotate(-90)scale(0.1 -0.1)">
       <use xlink:href="#DejaVuSans-67"/>
       <use x="69.824219" xlink:href="#DejaVuSans-109"/>
       <use x="167.236328" xlink:href="#DejaVuSans-112"/>
       <use x="230.712891" xlink:href="#DejaVuSans-108"/>
      </g>
     </g>
    </g>
    <g id="xtick_9">
     <g id="line2d_24">
      <g>
       <use style="stroke:#000000;stroke-width:0.8;" x="436.650815" xlink:href="#mb058dc0efb" y="292.598437"/>
      </g>
     </g>
     <g id="text_20">
      <!-- Loca -->
      <g transform="translate(439.41019 322.914062)rotate(-90)scale(0.1 -0.1)">
       <use xlink:href="#DejaVuSans-76"/>
       <use x="55.697266" xlink:href="#DejaVuSans-111"/>
       <use x="116.878906" xlink:href="#DejaVuSans-99"/>
       <use x="171.859375" xlink:href="#DejaVuSans-97"/>
      </g>
     </g>
    </g>
    <g id="xtick_10">
     <g id="line2d_25">
      <g>
       <use style="stroke:#000000;stroke-width:0.8;" x="475.78125" xlink:href="#mb058dc0efb" y="292.598437"/>
      </g>
     </g>
     <g id="text_21">
      <!-- Objc -->
      <g transform="translate(478.540625 322.095312)rotate(-90)scale(0.1 -0.1)">
       <use xlink:href="#DejaVuSans-79"/>
       <use x="78.710938" xlink:href="#DejaVuSans-98"/>
       <use x="142.1875" xlink:href="#DejaVuSans-106"/>
       <use x="169.970703" xlink:href="#DejaVuSans-99"/>
      </g>
     </g>
    </g>
    <g id="xtick_11">
     <g id="line2d_26">
      <g>
       <use style="stroke:#000000;stroke-width:0.8;" x="514.911685" xlink:href="#mb058dc0efb" y="292.598437"/>
      </g>
     </g>
     <g id="text_22">
      <!-- Subj -->
      <g transform="translate(517.67106 321.410937)rotate(-90)scale(0.1 -0.1)">
       <use xlink:href="#DejaVuSans-83"/>
       <use x="63.476562" xlink:href="#DejaVuSans-117"/>
       <use x="126.855469" xlink:href="#DejaVuSans-98"/>
       <use x="190.332031" xlink:href="#DejaVuSans-106"/>
      </g>
     </g>
    </g>
    <g id="xtick_12">
     <g id="line2d_27">
      <g>
       <use style="stroke:#000000;stroke-width:0.8;" x="554.04212" xlink:href="#mb058dc0efb" y="292.598437"/>
      </g>
     </g>
     <g id="text_23">
      <!-- Time -->
      <g transform="translate(556.801495 324.373437)rotate(-90)scale(0.1 -0.1)">
       <use xlink:href="#DejaVuSans-84"/>
       <use x="61.037109" xlink:href="#DejaVuSans-105"/>
       <use x="88.820312" xlink:href="#DejaVuSans-109"/>
       <use x="186.232422" xlink:href="#DejaVuSans-101"/>
      </g>
     </g>
    </g>
    <g id="text_24">
     <!-- function -->
     <g transform="translate(435.791814 337.046875)scale(0.1 -0.1)">
      <use xlink:href="#DejaVuSans-102"/>
      <use x="35.205078" xlink:href="#DejaVuSans-117"/>
      <use x="98.583984" xlink:href="#DejaVuSans-110"/>
      <use x="161.962891" xlink:href="#DejaVuSans-99"/>
      <use x="216.943359" xlink:href="#DejaVuSans-116"/>
      <use x="256.152344" xlink:href="#DejaVuSans-105"/>
      <use x="283.935547" xlink:href="#DejaVuSans-111"/>
      <use x="345.117188" xlink:href="#DejaVuSans-110"/>
     </g>
    </g>
   </g>
   <g id="matplotlib.axis_4">
    <g id="ytick_8">
     <g id="line2d_28">
      <path clip-path="url(#pf8f30e0dcc)" d="M 334.911685 292.598437 
L 577.52038 292.598437 
" style="fill:none;stroke:#b0b0b0;stroke-linecap:square;stroke-width:0.8;"/>
     </g>
     <g id="line2d_29">
      <g>
       <use style="stroke:#000000;stroke-width:0.8;" x="334.911685" xlink:href="#m91cb1a3d34" y="292.598437"/>
      </g>
     </g>
     <g id="text_25">
      <!-- 0.0 -->
      <g transform="translate(312.00856 296.397656)scale(0.1 -0.1)">
       <use xlink:href="#DejaVuSans-48"/>
       <use x="63.623047" xlink:href="#DejaVuSans-46"/>
       <use x="95.410156" xlink:href="#DejaVuSans-48"/>
      </g>
     </g>
    </g>
    <g id="ytick_9">
     <g id="line2d_30">
      <path clip-path="url(#pf8f30e0dcc)" d="M 334.911685 247.298437 
L 577.52038 247.298437 
" style="fill:none;stroke:#b0b0b0;stroke-linecap:square;stroke-width:0.8;"/>
     </g>
     <g id="line2d_31">
      <g>
       <use style="stroke:#000000;stroke-width:0.8;" x="334.911685" xlink:href="#m91cb1a3d34" y="247.298437"/>
      </g>
     </g>
     <g id="text_26">
      <!-- 0.2 -->
      <g transform="translate(312.00856 251.097656)scale(0.1 -0.1)">
       <use xlink:href="#DejaVuSans-48"/>
       <use x="63.623047" xlink:href="#DejaVuSans-46"/>
       <use x="95.410156" xlink:href="#DejaVuSans-50"/>
      </g>
     </g>
    </g>
    <g id="ytick_10">
     <g id="line2d_32">
      <path clip-path="url(#pf8f30e0dcc)" d="M 334.911685 201.998437 
L 577.52038 201.998437 
" style="fill:none;stroke:#b0b0b0;stroke-linecap:square;stroke-width:0.8;"/>
     </g>
     <g id="line2d_33">
      <g>
       <use style="stroke:#000000;stroke-width:0.8;" x="334.911685" xlink:href="#m91cb1a3d34" y="201.998437"/>
      </g>
     </g>
     <g id="text_27">
      <!-- 0.4 -->
      <g transform="translate(312.00856 205.797656)scale(0.1 -0.1)">
       <use xlink:href="#DejaVuSans-48"/>
       <use x="63.623047" xlink:href="#DejaVuSans-46"/>
       <use x="95.410156" xlink:href="#DejaVuSans-52"/>
      </g>
     </g>
    </g>
    <g id="ytick_11">
     <g id="line2d_34">
      <path clip-path="url(#pf8f30e0dcc)" d="M 334.911685 156.698437 
L 577.52038 156.698437 
" style="fill:none;stroke:#b0b0b0;stroke-linecap:square;stroke-width:0.8;"/>
     </g>
     <g id="line2d_35">
      <g>
       <use style="stroke:#000000;stroke-width:0.8;" x="334.911685" xlink:href="#m91cb1a3d34" y="156.698437"/>
      </g>
     </g>
     <g id="text_28">
      <!-- 0.6 -->
      <g transform="translate(312.00856 160.497656)scale(0.1 -0.1)">
       <use xlink:href="#DejaVuSans-48"/>
       <use x="63.623047" xlink:href="#DejaVuSans-46"/>
       <use x="95.410156" xlink:href="#DejaVuSans-54"/>
      </g>
     </g>
    </g>
    <g id="ytick_12">
     <g id="line2d_36">
      <path clip-path="url(#pf8f30e0dcc)" d="M 334.911685 111.398437 
L 577.52038 111.398437 
" style="fill:none;stroke:#b0b0b0;stroke-linecap:square;stroke-width:0.8;"/>
     </g>
     <g id="line2d_37">
      <g>
       <use style="stroke:#000000;stroke-width:0.8;" x="334.911685" xlink:href="#m91cb1a3d34" y="111.398437"/>
      </g>
     </g>
     <g id="text_29">
      <!-- 0.8 -->
      <g transform="translate(312.00856 115.197656)scale(0.1 -0.1)">
       <use xlink:href="#DejaVuSans-48"/>
       <use x="63.623047" xlink:href="#DejaVuSans-46"/>
       <use x="95.410156" xlink:href="#DejaVuSans-56"/>
      </g>
     </g>
    </g>
    <g id="ytick_13">
     <g id="line2d_38">
      <path clip-path="url(#pf8f30e0dcc)" d="M 334.911685 66.098437 
L 577.52038 66.098437 
" style="fill:none;stroke:#b0b0b0;stroke-linecap:square;stroke-width:0.8;"/>
     </g>
     <g id="line2d_39">
      <g>
       <use style="stroke:#000000;stroke-width:0.8;" x="334.911685" xlink:href="#m91cb1a3d34" y="66.098437"/>
      </g>
     </g>
     <g id="text_30">
      <!-- 1 -->
      <g transform="translate(321.549185 69.897656)scale(0.1 -0.1)">
       <use xlink:href="#DejaVuSans-49"/>
      </g>
     </g>
    </g>
    <g id="ytick_14">
     <g id="line2d_40">
      <path clip-path="url(#pf8f30e0dcc)" d="M 334.911685 20.798437 
L 577.52038 20.798437 
" style="fill:none;stroke:#b0b0b0;stroke-linecap:square;stroke-width:0.8;"/>
     </g>
     <g id="line2d_41">
      <g>
       <use style="stroke:#000000;stroke-width:0.8;" x="334.911685" xlink:href="#m91cb1a3d34" y="20.798437"/>
      </g>
     </g>
    </g>
    <g id="text_31">
     <!-- percentage % -->
     <g transform="translate(305.928872 191.6125)rotate(-90)scale(0.1 -0.1)">
      <use xlink:href="#DejaVuSans-112"/>
      <use x="63.476562" xlink:href="#DejaVuSans-101"/>
      <use x="125" xlink:href="#DejaVuSans-114"/>
      <use x="166.082031" xlink:href="#DejaVuSans-99"/>
      <use x="221.0625" xlink:href="#DejaVuSans-101"/>
      <use x="282.585938" xlink:href="#DejaVuSans-110"/>
      <use x="345.964844" xlink:href="#DejaVuSans-116"/>
      <use x="385.173828" xlink:href="#DejaVuSans-97"/>
      <use x="446.453125" xlink:href="#DejaVuSans-103"/>
      <use x="509.929688" xlink:href="#DejaVuSans-101"/>
      <use x="571.453125" xlink:href="#DejaVuSans-32"/>
      <use x="603.240234" xlink:href="#DejaVuSans-37"/>
     </g>
    </g>
   </g>
   <g id="patch_23">
    <path clip-path="url(#pf8f30e0dcc)" d="M 344.694293 292.598437 
L 358.389946 292.598437 
L 358.389946 82.404318 
L 344.694293 82.404318 
z
" style="fill:#d3d3d3;stroke:#000000;stroke-linejoin:miter;"/>
   </g>
   <g id="patch_24">
    <path clip-path="url(#pf8f30e0dcc)" d="M 383.824728 292.598437 
L 397.52038 292.598437 
L 397.52038 75.581899 
L 383.824728 75.581899 
z
" style="fill:#d3d3d3;stroke:#000000;stroke-linejoin:miter;"/>
   </g>
   <g id="patch_25">
    <path clip-path="url(#pf8f30e0dcc)" d="M 422.955163 292.598437 
L 436.650815 292.598437 
L 436.650815 75.42337 
L 422.955163 75.42337 
z
" style="fill:#d3d3d3;stroke:#000000;stroke-linejoin:miter;"/>
   </g>
   <g id="patch_26">
    <path clip-path="url(#pf8f30e0dcc)" d="M 462.085598 292.598437 
L 475.78125 292.598437 
L 475.78125 87.540788 
L 462.085598 87.540788 
z
" style="fill:#d3d3d3;stroke:#000000;stroke-linejoin:miter;"/>
   </g>
   <g id="patch_27">
    <path clip-path="url(#pf8f30e0dcc)" d="M 501.216033 292.598437 
L 514.911685 292.598437 
L 514.911685 78.669357 
L 501.216033 78.669357 
z
" style="fill:#d3d3d3;stroke:#000000;stroke-linejoin:miter;"/>
   </g>
   <g id="patch_28">
    <path clip-path="url(#pf8f30e0dcc)" d="M 540.346467 292.598437 
L 554.04212 292.598437 
L 554.04212 77.030864 
L 540.346467 77.030864 
z
" style="fill:#d3d3d3;stroke:#000000;stroke-linejoin:miter;"/>
   </g>
   <g id="patch_29">
    <path clip-path="url(#pf8f30e0dcc)" d="M 358.389946 292.598437 
L 372.085598 292.598437 
L 372.085598 276.292557 
L 358.389946 276.292557 
z
" style="fill:#ffffff;stroke:#000000;stroke-linejoin:miter;"/>
   </g>
   <g id="patch_30">
    <path clip-path="url(#pf8f30e0dcc)" d="M 397.52038 292.598437 
L 411.216033 292.598437 
L 411.216033 283.114976 
L 397.52038 283.114976 
z
" style="fill:#ffffff;stroke:#000000;stroke-linejoin:miter;"/>
   </g>
   <g id="patch_31">
    <path clip-path="url(#pf8f30e0dcc)" d="M 436.650815 292.598437 
L 450.346467 292.598437 
L 450.346467 283.273505 
L 436.650815 283.273505 
z
" style="fill:#ffffff;stroke:#000000;stroke-linejoin:miter;"/>
   </g>
   <g id="patch_32">
    <path clip-path="url(#pf8f30e0dcc)" d="M 475.78125 292.598437 
L 489.476902 292.598437 
L 489.476902 271.156087 
L 475.78125 271.156087 
z
" style="fill:#ffffff;stroke:#000000;stroke-linejoin:miter;"/>
   </g>
   <g id="patch_33">
    <path clip-path="url(#pf8f30e0dcc)" d="M 514.911685 292.598437 
L 528.607337 292.598437 
L 528.607337 280.027518 
L 514.911685 280.027518 
z
" style="fill:#ffffff;stroke:#000000;stroke-linejoin:miter;"/>
   </g>
   <g id="patch_34">
    <path clip-path="url(#pf8f30e0dcc)" d="M 554.04212 292.598437 
L 567.737772 292.598437 
L 567.737772 281.666011 
L 554.04212 281.666011 
z
" style="fill:#ffffff;stroke:#000000;stroke-linejoin:miter;"/>
   </g>
   <g id="line2d_42">
    <path clip-path="url(#pf8f30e0dcc)" d="M 334.911685 87.540788 
L 577.52038 87.540788 
" style="fill:none;stroke:#1f77b4;stroke-linecap:square;stroke-opacity:0.8;stroke-width:1.5;"/>
   </g>
   <g id="patch_35">
    <path d="M 334.911685 292.598437 
L 334.911685 20.798437 
" style="fill:none;stroke:#000000;stroke-linecap:square;stroke-linejoin:miter;stroke-width:0.8;"/>
   </g>
   <g id="patch_36">
    <path d="M 577.52038 292.598437 
L 577.52038 20.798437 
" style="fill:none;stroke:#000000;stroke-linecap:square;stroke-linejoin:miter;stroke-width:0.8;"/>
   </g>
   <g id="patch_37">
    <path d="M 334.911685 292.598437 
L 577.52038 292.598437 
" style="fill:none;stroke:#000000;stroke-linecap:square;stroke-linejoin:miter;stroke-width:0.8;"/>
   </g>
   <g id="patch_38">
    <path d="M 334.911685 20.798437 
L 577.52038 20.798437 
" style="fill:none;stroke:#000000;stroke-linecap:square;stroke-linejoin:miter;stroke-width:0.8;"/>
   </g>
   <g id="text_32">
    <!-- number (n) of heads (h) per phrase function -->
    <g transform="translate(345.655876 14.798438)scale(0.1 -0.1)">
     <use xlink:href="#DejaVuSans-110"/>
     <use x="63.378906" xlink:href="#DejaVuSans-117"/>
     <use x="126.757812" xlink:href="#DejaVuSans-109"/>
     <use x="224.169922" xlink:href="#DejaVuSans-98"/>
     <use x="287.646484" xlink:href="#DejaVuSans-101"/>
     <use x="349.169922" xlink:href="#DejaVuSans-114"/>
     <use x="390.283203" xlink:href="#DejaVuSans-32"/>
     <use x="422.070312" xlink:href="#DejaVuSans-40"/>
     <use x="461.083984" xlink:href="#DejaVuSans-110"/>
     <use x="524.462891" xlink:href="#DejaVuSans-41"/>
     <use x="563.476562" xlink:href="#DejaVuSans-32"/>
     <use x="595.263672" xlink:href="#DejaVuSans-111"/>
     <use x="656.445312" xlink:href="#DejaVuSans-102"/>
     <use x="691.650391" xlink:href="#DejaVuSans-32"/>
     <use x="723.4375" xlink:href="#DejaVuSans-104"/>
     <use x="786.816406" xlink:href="#DejaVuSans-101"/>
     <use x="848.339844" xlink:href="#DejaVuSans-97"/>
     <use x="909.619141" xlink:href="#DejaVuSans-100"/>
     <use x="973.095703" xlink:href="#DejaVuSans-115"/>
     <use x="1025.195312" xlink:href="#DejaVuSans-32"/>
     <use x="1056.982422" xlink:href="#DejaVuSans-40"/>
     <use x="1095.996094" xlink:href="#DejaVuSans-104"/>
     <use x="1159.375" xlink:href="#DejaVuSans-41"/>
     <use x="1198.388672" xlink:href="#DejaVuSans-32"/>
     <use x="1230.175781" xlink:href="#DejaVuSans-112"/>
     <use x="1293.652344" xlink:href="#DejaVuSans-101"/>
     <use x="1355.175781" xlink:href="#DejaVuSans-114"/>
     <use x="1396.289062" xlink:href="#DejaVuSans-32"/>
     <use x="1428.076172" xlink:href="#DejaVuSans-112"/>
     <use x="1491.552734" xlink:href="#DejaVuSans-104"/>
     <use x="1554.931641" xlink:href="#DejaVuSans-114"/>
     <use x="1596.044922" xlink:href="#DejaVuSans-97"/>
     <use x="1657.324219" xlink:href="#DejaVuSans-115"/>
     <use x="1709.423828" xlink:href="#DejaVuSans-101"/>
     <use x="1770.947266" xlink:href="#DejaVuSans-32"/>
     <use x="1802.734375" xlink:href="#DejaVuSans-102"/>
     <use x="1837.939453" xlink:href="#DejaVuSans-117"/>
     <use x="1901.318359" xlink:href="#DejaVuSans-110"/>
     <use x="1964.697266" xlink:href="#DejaVuSans-99"/>
     <use x="2019.677734" xlink:href="#DejaVuSans-116"/>
     <use x="2058.886719" xlink:href="#DejaVuSans-105"/>
     <use x="2086.669922" xlink:href="#DejaVuSans-111"/>
     <use x="2147.851562" xlink:href="#DejaVuSans-110"/>
    </g>
   </g>
   <g id="legend_2">
    <g id="patch_39">
     <path d="M 504.746943 58.154687 
L 570.52038 58.154687 
Q 572.52038 58.154687 572.52038 56.154687 
L 572.52038 27.798437 
Q 572.52038 25.798437 570.52038 25.798437 
L 504.746943 25.798437 
Q 502.746943 25.798437 502.746943 27.798437 
L 502.746943 56.154687 
Q 502.746943 58.154687 504.746943 58.154687 
z
" style="fill:#ffffff;opacity:0.8;stroke:#cccccc;stroke-linejoin:miter;"/>
    </g>
    <g id="patch_40">
     <path d="M 506.746943 37.396875 
L 526.746943 37.396875 
L 526.746943 30.396875 
L 506.746943 30.396875 
z
" style="fill:#d3d3d3;stroke:#000000;stroke-linejoin:miter;"/>
    </g>
    <g id="text_33">
     <!-- nh = 1 -->
     <g transform="translate(534.746943 37.396875)scale(0.1 -0.1)">
      <use xlink:href="#DejaVuSans-110"/>
      <use x="63.378906" xlink:href="#DejaVuSans-104"/>
      <use x="126.757812" xlink:href="#DejaVuSans-32"/>
      <use x="158.544922" xlink:href="#DejaVuSans-61"/>
      <use x="242.333984" xlink:href="#DejaVuSans-32"/>
      <use x="274.121094" xlink:href="#DejaVuSans-49"/>
     </g>
    </g>
    <g id="patch_41">
     <path d="M 506.746943 52.075 
L 526.746943 52.075 
L 526.746943 45.075 
L 506.746943 45.075 
z
" style="fill:#ffffff;stroke:#000000;stroke-linejoin:miter;"/>
    </g>
    <g id="text_34">
     <!-- nh &gt; 1 -->
     <g transform="translate(534.746943 52.075)scale(0.1 -0.1)">
      <use xlink:href="#DejaVuSans-110"/>
      <use x="63.378906" xlink:href="#DejaVuSans-104"/>
      <use x="126.757812" xlink:href="#DejaVuSans-32"/>
      <use x="158.544922" xlink:href="#DejaVuSans-62"/>
      <use x="242.333984" xlink:href="#DejaVuSans-32"/>
      <use x="274.121094" xlink:href="#DejaVuSans-49"/>
     </g>
    </g>
   </g>
  </g>
  <g id="axes_3">
   <g id="patch_42">
    <path d="M 626.04212 292.598437 
L 868.650815 292.598437 
L 868.650815 20.798437 
L 626.04212 20.798437 
z
" style="fill:#ffffff;"/>
   </g>
   <g id="matplotlib.axis_5">
    <g id="xtick_13">
     <g id="line2d_43">
      <g>
       <use style="stroke:#000000;stroke-width:0.8;" x="649.52038" xlink:href="#mb058dc0efb" y="292.598437"/>
      </g>
     </g>
     <g id="text_35">
      <!-- Adju -->
      <g transform="translate(652.279755 321.901562)rotate(-90)scale(0.1 -0.1)">
       <use xlink:href="#DejaVuSans-65"/>
       <use x="68.392578" xlink:href="#DejaVuSans-100"/>
       <use x="131.869141" xlink:href="#DejaVuSans-106"/>
       <use x="159.652344" xlink:href="#DejaVuSans-117"/>
      </g>
     </g>
    </g>
    <g id="xtick_14">
     <g id="line2d_44">
      <g>
       <use style="stroke:#000000;stroke-width:0.8;" x="688.650815" xlink:href="#mb058dc0efb" y="292.598437"/>
      </g>
     </g>
     <g id="text_36">
      <!-- Cmpl -->
      <g transform="translate(691.41019 325.448437)rotate(-90)scale(0.1 -0.1)">
       <use xlink:href="#DejaVuSans-67"/>
       <use x="69.824219" xlink:href="#DejaVuSans-109"/>
       <use x="167.236328" xlink:href="#DejaVuSans-112"/>
       <use x="230.712891" xlink:href="#DejaVuSans-108"/>
      </g>
     </g>
    </g>
    <g id="xtick_15">
     <g id="line2d_45">
      <g>
       <use style="stroke:#000000;stroke-width:0.8;" x="727.78125" xlink:href="#mb058dc0efb" y="292.598437"/>
      </g>
     </g>
     <g id="text_37">
      <!-- Loca -->
      <g transform="translate(730.540625 322.914062)rotate(-90)scale(0.1 -0.1)">
       <use xlink:href="#DejaVuSans-76"/>
       <use x="55.697266" xlink:href="#DejaVuSans-111"/>
       <use x="116.878906" xlink:href="#DejaVuSans-99"/>
       <use x="171.859375" xlink:href="#DejaVuSans-97"/>
      </g>
     </g>
    </g>
    <g id="xtick_16">
     <g id="line2d_46">
      <g>
       <use style="stroke:#000000;stroke-width:0.8;" x="766.911685" xlink:href="#mb058dc0efb" y="292.598437"/>
      </g>
     </g>
     <g id="text_38">
      <!-- Objc -->
      <g transform="translate(769.67106 322.095312)rotate(-90)scale(0.1 -0.1)">
       <use xlink:href="#DejaVuSans-79"/>
       <use x="78.710938" xlink:href="#DejaVuSans-98"/>
       <use x="142.1875" xlink:href="#DejaVuSans-106"/>
       <use x="169.970703" xlink:href="#DejaVuSans-99"/>
      </g>
     </g>
    </g>
    <g id="xtick_17">
     <g id="line2d_47">
      <g>
       <use style="stroke:#000000;stroke-width:0.8;" x="806.04212" xlink:href="#mb058dc0efb" y="292.598437"/>
      </g>
     </g>
     <g id="text_39">
      <!-- Subj -->
      <g transform="translate(808.801495 321.410937)rotate(-90)scale(0.1 -0.1)">
       <use xlink:href="#DejaVuSans-83"/>
       <use x="63.476562" xlink:href="#DejaVuSans-117"/>
       <use x="126.855469" xlink:href="#DejaVuSans-98"/>
       <use x="190.332031" xlink:href="#DejaVuSans-106"/>
      </g>
     </g>
    </g>
    <g id="xtick_18">
     <g id="line2d_48">
      <g>
       <use style="stroke:#000000;stroke-width:0.8;" x="845.172554" xlink:href="#mb058dc0efb" y="292.598437"/>
      </g>
     </g>
     <g id="text_40">
      <!-- Time -->
      <g transform="translate(847.931929 324.373437)rotate(-90)scale(0.1 -0.1)">
       <use xlink:href="#DejaVuSans-84"/>
       <use x="61.037109" xlink:href="#DejaVuSans-105"/>
       <use x="88.820312" xlink:href="#DejaVuSans-109"/>
       <use x="186.232422" xlink:href="#DejaVuSans-101"/>
      </g>
     </g>
    </g>
    <g id="text_41">
     <!-- function -->
     <g transform="translate(726.922249 337.046875)scale(0.1 -0.1)">
      <use xlink:href="#DejaVuSans-102"/>
      <use x="35.205078" xlink:href="#DejaVuSans-117"/>
      <use x="98.583984" xlink:href="#DejaVuSans-110"/>
      <use x="161.962891" xlink:href="#DejaVuSans-99"/>
      <use x="216.943359" xlink:href="#DejaVuSans-116"/>
      <use x="256.152344" xlink:href="#DejaVuSans-105"/>
      <use x="283.935547" xlink:href="#DejaVuSans-111"/>
      <use x="345.117188" xlink:href="#DejaVuSans-110"/>
     </g>
    </g>
   </g>
   <g id="matplotlib.axis_6">
    <g id="ytick_15">
     <g id="line2d_49">
      <path clip-path="url(#pdca3104dc3)" d="M 626.04212 292.598437 
L 868.650815 292.598437 
" style="fill:none;stroke:#b0b0b0;stroke-linecap:square;stroke-width:0.8;"/>
     </g>
     <g id="line2d_50">
      <g>
       <use style="stroke:#000000;stroke-width:0.8;" x="626.04212" xlink:href="#m91cb1a3d34" y="292.598437"/>
      </g>
     </g>
     <g id="text_42">
      <!-- 0.0 -->
      <g transform="translate(603.138995 296.397656)scale(0.1 -0.1)">
       <use xlink:href="#DejaVuSans-48"/>
       <use x="63.623047" xlink:href="#DejaVuSans-46"/>
       <use x="95.410156" xlink:href="#DejaVuSans-48"/>
      </g>
     </g>
    </g>
    <g id="ytick_16">
     <g id="line2d_51">
      <path clip-path="url(#pdca3104dc3)" d="M 626.04212 247.298437 
L 868.650815 247.298437 
" style="fill:none;stroke:#b0b0b0;stroke-linecap:square;stroke-width:0.8;"/>
     </g>
     <g id="line2d_52">
      <g>
       <use style="stroke:#000000;stroke-width:0.8;" x="626.04212" xlink:href="#m91cb1a3d34" y="247.298437"/>
      </g>
     </g>
     <g id="text_43">
      <!-- 0.2 -->
      <g transform="translate(603.138995 251.097656)scale(0.1 -0.1)">
       <use xlink:href="#DejaVuSans-48"/>
       <use x="63.623047" xlink:href="#DejaVuSans-46"/>
       <use x="95.410156" xlink:href="#DejaVuSans-50"/>
      </g>
     </g>
    </g>
    <g id="ytick_17">
     <g id="line2d_53">
      <path clip-path="url(#pdca3104dc3)" d="M 626.04212 201.998437 
L 868.650815 201.998437 
" style="fill:none;stroke:#b0b0b0;stroke-linecap:square;stroke-width:0.8;"/>
     </g>
     <g id="line2d_54">
      <g>
       <use style="stroke:#000000;stroke-width:0.8;" x="626.04212" xlink:href="#m91cb1a3d34" y="201.998437"/>
      </g>
     </g>
     <g id="text_44">
      <!-- 0.4 -->
      <g transform="translate(603.138995 205.797656)scale(0.1 -0.1)">
       <use xlink:href="#DejaVuSans-48"/>
       <use x="63.623047" xlink:href="#DejaVuSans-46"/>
       <use x="95.410156" xlink:href="#DejaVuSans-52"/>
      </g>
     </g>
    </g>
    <g id="ytick_18">
     <g id="line2d_55">
      <path clip-path="url(#pdca3104dc3)" d="M 626.04212 156.698437 
L 868.650815 156.698437 
" style="fill:none;stroke:#b0b0b0;stroke-linecap:square;stroke-width:0.8;"/>
     </g>
     <g id="line2d_56">
      <g>
       <use style="stroke:#000000;stroke-width:0.8;" x="626.04212" xlink:href="#m91cb1a3d34" y="156.698437"/>
      </g>
     </g>
     <g id="text_45">
      <!-- 0.6 -->
      <g transform="translate(603.138995 160.497656)scale(0.1 -0.1)">
       <use xlink:href="#DejaVuSans-48"/>
       <use x="63.623047" xlink:href="#DejaVuSans-46"/>
       <use x="95.410156" xlink:href="#DejaVuSans-54"/>
      </g>
     </g>
    </g>
    <g id="ytick_19">
     <g id="line2d_57">
      <path clip-path="url(#pdca3104dc3)" d="M 626.04212 111.398437 
L 868.650815 111.398437 
" style="fill:none;stroke:#b0b0b0;stroke-linecap:square;stroke-width:0.8;"/>
     </g>
     <g id="line2d_58">
      <g>
       <use style="stroke:#000000;stroke-width:0.8;" x="626.04212" xlink:href="#m91cb1a3d34" y="111.398437"/>
      </g>
     </g>
     <g id="text_46">
      <!-- 0.8 -->
      <g transform="translate(603.138995 115.197656)scale(0.1 -0.1)">
       <use xlink:href="#DejaVuSans-48"/>
       <use x="63.623047" xlink:href="#DejaVuSans-46"/>
       <use x="95.410156" xlink:href="#DejaVuSans-56"/>
      </g>
     </g>
    </g>
    <g id="ytick_20">
     <g id="line2d_59">
      <path clip-path="url(#pdca3104dc3)" d="M 626.04212 66.098437 
L 868.650815 66.098437 
" style="fill:none;stroke:#b0b0b0;stroke-linecap:square;stroke-width:0.8;"/>
     </g>
     <g id="line2d_60">
      <g>
       <use style="stroke:#000000;stroke-width:0.8;" x="626.04212" xlink:href="#m91cb1a3d34" y="66.098437"/>
      </g>
     </g>
     <g id="text_47">
      <!-- 1 -->
      <g transform="translate(612.67962 69.897656)scale(0.1 -0.1)">
       <use xlink:href="#DejaVuSans-49"/>
      </g>
     </g>
    </g>
    <g id="ytick_21">
     <g id="line2d_61">
      <path clip-path="url(#pdca3104dc3)" d="M 626.04212 20.798437 
L 868.650815 20.798437 
" style="fill:none;stroke:#b0b0b0;stroke-linecap:square;stroke-width:0.8;"/>
     </g>
     <g id="line2d_62">
      <g>
       <use style="stroke:#000000;stroke-width:0.8;" x="626.04212" xlink:href="#m91cb1a3d34" y="20.798437"/>
      </g>
     </g>
    </g>
    <g id="text_48">
     <!-- percentage % -->
     <g transform="translate(597.059307 191.6125)rotate(-90)scale(0.1 -0.1)">
      <use xlink:href="#DejaVuSans-112"/>
      <use x="63.476562" xlink:href="#DejaVuSans-101"/>
      <use x="125" xlink:href="#DejaVuSans-114"/>
      <use x="166.082031" xlink:href="#DejaVuSans-99"/>
      <use x="221.0625" xlink:href="#DejaVuSans-101"/>
      <use x="282.585938" xlink:href="#DejaVuSans-110"/>
      <use x="345.964844" xlink:href="#DejaVuSans-116"/>
      <use x="385.173828" xlink:href="#DejaVuSans-97"/>
      <use x="446.453125" xlink:href="#DejaVuSans-103"/>
      <use x="509.929688" xlink:href="#DejaVuSans-101"/>
      <use x="571.453125" xlink:href="#DejaVuSans-32"/>
      <use x="603.240234" xlink:href="#DejaVuSans-37"/>
     </g>
    </g>
   </g>
   <g id="patch_43">
    <path clip-path="url(#pdca3104dc3)" d="M 635.824728 292.598437 
L 649.52038 292.598437 
L 649.52038 74.576532 
L 635.824728 74.576532 
z
" style="fill:#d3d3d3;stroke:#000000;stroke-linejoin:miter;"/>
   </g>
   <g id="patch_44">
    <path clip-path="url(#pdca3104dc3)" d="M 674.955163 292.598437 
L 688.650815 292.598437 
L 688.650815 74.10346 
L 674.955163 74.10346 
z
" style="fill:#d3d3d3;stroke:#000000;stroke-linejoin:miter;"/>
   </g>
   <g id="patch_45">
    <path clip-path="url(#pdca3104dc3)" d="M 714.085598 292.598437 
L 727.78125 292.598437 
L 727.78125 78.124986 
L 714.085598 78.124986 
z
" style="fill:#d3d3d3;stroke:#000000;stroke-linejoin:miter;"/>
   </g>
   <g id="patch_46">
    <path clip-path="url(#pdca3104dc3)" d="M 753.216033 292.598437 
L 766.911685 292.598437 
L 766.911685 79.15602 
L 753.216033 79.15602 
z
" style="fill:#d3d3d3;stroke:#000000;stroke-linejoin:miter;"/>
   </g>
   <g id="patch_47">
    <path clip-path="url(#pdca3104dc3)" d="M 792.346467 292.598437 
L 806.04212 292.598437 
L 806.04212 75.418506 
L 792.346467 75.418506 
z
" style="fill:#d3d3d3;stroke:#000000;stroke-linejoin:miter;"/>
   </g>
   <g id="patch_48">
    <path clip-path="url(#pdca3104dc3)" d="M 831.476902 292.598437 
L 845.172554 292.598437 
L 845.172554 69.825401 
L 831.476902 69.825401 
z
" style="fill:#d3d3d3;stroke:#000000;stroke-linejoin:miter;"/>
   </g>
   <g id="patch_49">
    <path clip-path="url(#pdca3104dc3)" d="M 649.52038 292.598437 
L 663.216033 292.598437 
L 663.216033 284.120343 
L 649.52038 284.120343 
z
" style="fill:#ffffff;stroke:#000000;stroke-linejoin:miter;"/>
   </g>
   <g id="patch_50">
    <path clip-path="url(#pdca3104dc3)" d="M 688.650815 292.598437 
L 702.346467 292.598437 
L 702.346467 284.593415 
L 688.650815 284.593415 
z
" style="fill:#ffffff;stroke:#000000;stroke-linejoin:miter;"/>
   </g>
   <g id="patch_51">
    <path clip-path="url(#pdca3104dc3)" d="M 727.78125 292.598437 
L 741.476902 292.598437 
L 741.476902 280.571889 
L 727.78125 280.571889 
z
" style="fill:#ffffff;stroke:#000000;stroke-linejoin:miter;"/>
   </g>
   <g id="patch_52">
    <path clip-path="url(#pdca3104dc3)" d="M 766.911685 292.598437 
L 780.607337 292.598437 
L 780.607337 279.540855 
L 766.911685 279.540855 
z
" style="fill:#ffffff;stroke:#000000;stroke-linejoin:miter;"/>
   </g>
   <g id="patch_53">
    <path clip-path="url(#pdca3104dc3)" d="M 806.04212 292.598437 
L 819.737772 292.598437 
L 819.737772 283.278369 
L 806.04212 283.278369 
z
" style="fill:#ffffff;stroke:#000000;stroke-linejoin:miter;"/>
   </g>
   <g id="patch_54">
    <path clip-path="url(#pdca3104dc3)" d="M 845.172554 292.598437 
L 858.868207 292.598437 
L 858.868207 288.871474 
L 845.172554 288.871474 
z
" style="fill:#ffffff;stroke:#000000;stroke-linejoin:miter;"/>
   </g>
   <g id="line2d_63">
    <path clip-path="url(#pdca3104dc3)" d="M 626.04212 79.15602 
L 868.650815 79.15602 
" style="fill:none;stroke:#1f77b4;stroke-linecap:square;stroke-opacity:0.8;stroke-width:1.5;"/>
   </g>
   <g id="patch_55">
    <path d="M 626.04212 292.598437 
L 626.04212 20.798437 
" style="fill:none;stroke:#000000;stroke-linecap:square;stroke-linejoin:miter;stroke-width:0.8;"/>
   </g>
   <g id="patch_56">
    <path d="M 868.650815 292.598437 
L 868.650815 20.798437 
" style="fill:none;stroke:#000000;stroke-linecap:square;stroke-linejoin:miter;stroke-width:0.8;"/>
   </g>
   <g id="patch_57">
    <path d="M 626.04212 292.598437 
L 868.650815 292.598437 
" style="fill:none;stroke:#000000;stroke-linecap:square;stroke-linejoin:miter;stroke-width:0.8;"/>
   </g>
   <g id="patch_58">
    <path d="M 626.04212 20.798437 
L 868.650815 20.798437 
" style="fill:none;stroke:#000000;stroke-linecap:square;stroke-linejoin:miter;stroke-width:0.8;"/>
   </g>
   <g id="text_49">
    <!-- number (n) of external relations (r) per phrase function -->
    <defs>
     <path d="M 54.890625 54.6875 
L 35.109375 28.078125 
L 55.90625 0 
L 45.3125 0 
L 29.390625 21.484375 
L 13.484375 0 
L 2.875 0 
L 24.125 28.609375 
L 4.6875 54.6875 
L 15.28125 54.6875 
L 29.78125 35.203125 
L 44.28125 54.6875 
z
" id="DejaVuSans-120"/>
    </defs>
    <g transform="translate(608.884749 14.798438)scale(0.1 -0.1)">
     <use xlink:href="#DejaVuSans-110"/>
     <use x="63.378906" xlink:href="#DejaVuSans-117"/>
     <use x="126.757812" xlink:href="#DejaVuSans-109"/>
     <use x="224.169922" xlink:href="#DejaVuSans-98"/>
     <use x="287.646484" xlink:href="#DejaVuSans-101"/>
     <use x="349.169922" xlink:href="#DejaVuSans-114"/>
     <use x="390.283203" xlink:href="#DejaVuSans-32"/>
     <use x="422.070312" xlink:href="#DejaVuSans-40"/>
     <use x="461.083984" xlink:href="#DejaVuSans-110"/>
     <use x="524.462891" xlink:href="#DejaVuSans-41"/>
     <use x="563.476562" xlink:href="#DejaVuSans-32"/>
     <use x="595.263672" xlink:href="#DejaVuSans-111"/>
     <use x="656.445312" xlink:href="#DejaVuSans-102"/>
     <use x="691.650391" xlink:href="#DejaVuSans-32"/>
     <use x="723.4375" xlink:href="#DejaVuSans-101"/>
     <use x="784.945312" xlink:href="#DejaVuSans-120"/>
     <use x="844.125" xlink:href="#DejaVuSans-116"/>
     <use x="883.333984" xlink:href="#DejaVuSans-101"/>
     <use x="944.857422" xlink:href="#DejaVuSans-114"/>
     <use x="985.955078" xlink:href="#DejaVuSans-110"/>
     <use x="1049.333984" xlink:href="#DejaVuSans-97"/>
     <use x="1110.613281" xlink:href="#DejaVuSans-108"/>
     <use x="1138.396484" xlink:href="#DejaVuSans-32"/>
     <use x="1170.183594" xlink:href="#DejaVuSans-114"/>
     <use x="1211.265625" xlink:href="#DejaVuSans-101"/>
     <use x="1272.789062" xlink:href="#DejaVuSans-108"/>
     <use x="1300.572266" xlink:href="#DejaVuSans-97"/>
     <use x="1361.851562" xlink:href="#DejaVuSans-116"/>
     <use x="1401.060547" xlink:href="#DejaVuSans-105"/>
     <use x="1428.84375" xlink:href="#DejaVuSans-111"/>
     <use x="1490.025391" xlink:href="#DejaVuSans-110"/>
     <use x="1553.404297" xlink:href="#DejaVuSans-115"/>
     <use x="1605.503906" xlink:href="#DejaVuSans-32"/>
     <use x="1637.291016" xlink:href="#DejaVuSans-40"/>
     <use x="1676.304688" xlink:href="#DejaVuSans-114"/>
     <use x="1717.417969" xlink:href="#DejaVuSans-41"/>
     <use x="1756.431641" xlink:href="#DejaVuSans-32"/>
     <use x="1788.21875" xlink:href="#DejaVuSans-112"/>
     <use x="1851.695312" xlink:href="#DejaVuSans-101"/>
     <use x="1913.21875" xlink:href="#DejaVuSans-114"/>
     <use x="1954.332031" xlink:href="#DejaVuSans-32"/>
     <use x="1986.119141" xlink:href="#DejaVuSans-112"/>
     <use x="2049.595703" xlink:href="#DejaVuSans-104"/>
     <use x="2112.974609" xlink:href="#DejaVuSans-114"/>
     <use x="2154.087891" xlink:href="#DejaVuSans-97"/>
     <use x="2215.367188" xlink:href="#DejaVuSans-115"/>
     <use x="2267.466797" xlink:href="#DejaVuSans-101"/>
     <use x="2328.990234" xlink:href="#DejaVuSans-32"/>
     <use x="2360.777344" xlink:href="#DejaVuSans-102"/>
     <use x="2395.982422" xlink:href="#DejaVuSans-117"/>
     <use x="2459.361328" xlink:href="#DejaVuSans-110"/>
     <use x="2522.740234" xlink:href="#DejaVuSans-99"/>
     <use x="2577.720703" xlink:href="#DejaVuSans-116"/>
     <use x="2616.929688" xlink:href="#DejaVuSans-105"/>
     <use x="2644.712891" xlink:href="#DejaVuSans-111"/>
     <use x="2705.894531" xlink:href="#DejaVuSans-110"/>
    </g>
   </g>
   <g id="legend_3">
    <g id="patch_59">
     <path d="M 798.10394 58.154687 
L 861.650815 58.154687 
Q 863.650815 58.154687 863.650815 56.154687 
L 863.650815 27.798437 
Q 863.650815 25.798437 861.650815 25.798437 
L 798.10394 25.798437 
Q 796.10394 25.798437 796.10394 27.798437 
L 796.10394 56.154687 
Q 796.10394 58.154687 798.10394 58.154687 
z
" style="fill:#ffffff;opacity:0.8;stroke:#cccccc;stroke-linejoin:miter;"/>
    </g>
    <g id="patch_60">
     <path d="M 800.10394 37.396875 
L 820.10394 37.396875 
L 820.10394 30.396875 
L 800.10394 30.396875 
z
" style="fill:#d3d3d3;stroke:#000000;stroke-linejoin:miter;"/>
    </g>
    <g id="text_50">
     <!-- nr = 0 -->
     <g transform="translate(828.10394 37.396875)scale(0.1 -0.1)">
      <use xlink:href="#DejaVuSans-110"/>
      <use x="63.378906" xlink:href="#DejaVuSans-114"/>
      <use x="104.492188" xlink:href="#DejaVuSans-32"/>
      <use x="136.279297" xlink:href="#DejaVuSans-61"/>
      <use x="220.068359" xlink:href="#DejaVuSans-32"/>
      <use x="251.855469" xlink:href="#DejaVuSans-48"/>
     </g>
    </g>
    <g id="patch_61">
     <path d="M 800.10394 52.075 
L 820.10394 52.075 
L 820.10394 45.075 
L 800.10394 45.075 
z
" style="fill:#ffffff;stroke:#000000;stroke-linejoin:miter;"/>
    </g>
    <g id="text_51">
     <!-- nr &gt; 0 -->
     <g transform="translate(828.10394 52.075)scale(0.1 -0.1)">
      <use xlink:href="#DejaVuSans-110"/>
      <use x="63.378906" xlink:href="#DejaVuSans-114"/>
      <use x="104.492188" xlink:href="#DejaVuSans-32"/>
      <use x="136.279297" xlink:href="#DejaVuSans-62"/>
      <use x="220.068359" xlink:href="#DejaVuSans-32"/>
      <use x="251.855469" xlink:href="#DejaVuSans-48"/>
     </g>
    </g>
   </g>
  </g>
  <g id="axes_4">
   <g id="patch_62">
    <path d="M 917.172554 292.598437 
L 1159.78125 292.598437 
L 1159.78125 20.798437 
L 917.172554 20.798437 
z
" style="fill:#ffffff;"/>
   </g>
   <g id="matplotlib.axis_7">
    <g id="xtick_19">
     <g id="line2d_64">
      <g>
       <use style="stroke:#000000;stroke-width:0.8;" x="940.650815" xlink:href="#mb058dc0efb" y="292.598437"/>
      </g>
     </g>
     <g id="text_52">
      <!-- Adju -->
      <g transform="translate(943.41019 321.901562)rotate(-90)scale(0.1 -0.1)">
       <use xlink:href="#DejaVuSans-65"/>
       <use x="68.392578" xlink:href="#DejaVuSans-100"/>
       <use x="131.869141" xlink:href="#DejaVuSans-106"/>
       <use x="159.652344" xlink:href="#DejaVuSans-117"/>
      </g>
     </g>
    </g>
    <g id="xtick_20">
     <g id="line2d_65">
      <g>
       <use style="stroke:#000000;stroke-width:0.8;" x="979.78125" xlink:href="#mb058dc0efb" y="292.598437"/>
      </g>
     </g>
     <g id="text_53">
      <!-- Cmpl -->
      <g transform="translate(982.540625 325.448437)rotate(-90)scale(0.1 -0.1)">
       <use xlink:href="#DejaVuSans-67"/>
       <use x="69.824219" xlink:href="#DejaVuSans-109"/>
       <use x="167.236328" xlink:href="#DejaVuSans-112"/>
       <use x="230.712891" xlink:href="#DejaVuSans-108"/>
      </g>
     </g>
    </g>
    <g id="xtick_21">
     <g id="line2d_66">
      <g>
       <use style="stroke:#000000;stroke-width:0.8;" x="1018.911685" xlink:href="#mb058dc0efb" y="292.598437"/>
      </g>
     </g>
     <g id="text_54">
      <!-- Loca -->
      <g transform="translate(1021.67106 322.914062)rotate(-90)scale(0.1 -0.1)">
       <use xlink:href="#DejaVuSans-76"/>
       <use x="55.697266" xlink:href="#DejaVuSans-111"/>
       <use x="116.878906" xlink:href="#DejaVuSans-99"/>
       <use x="171.859375" xlink:href="#DejaVuSans-97"/>
      </g>
     </g>
    </g>
    <g id="xtick_22">
     <g id="line2d_67">
      <g>
       <use style="stroke:#000000;stroke-width:0.8;" x="1058.04212" xlink:href="#mb058dc0efb" y="292.598437"/>
      </g>
     </g>
     <g id="text_55">
      <!-- Objc -->
      <g transform="translate(1060.801495 322.095312)rotate(-90)scale(0.1 -0.1)">
       <use xlink:href="#DejaVuSans-79"/>
       <use x="78.710938" xlink:href="#DejaVuSans-98"/>
       <use x="142.1875" xlink:href="#DejaVuSans-106"/>
       <use x="169.970703" xlink:href="#DejaVuSans-99"/>
      </g>
     </g>
    </g>
    <g id="xtick_23">
     <g id="line2d_68">
      <g>
       <use style="stroke:#000000;stroke-width:0.8;" x="1097.172554" xlink:href="#mb058dc0efb" y="292.598437"/>
      </g>
     </g>
     <g id="text_56">
      <!-- Subj -->
      <g transform="translate(1099.931929 321.410937)rotate(-90)scale(0.1 -0.1)">
       <use xlink:href="#DejaVuSans-83"/>
       <use x="63.476562" xlink:href="#DejaVuSans-117"/>
       <use x="126.855469" xlink:href="#DejaVuSans-98"/>
       <use x="190.332031" xlink:href="#DejaVuSans-106"/>
      </g>
     </g>
    </g>
    <g id="xtick_24">
     <g id="line2d_69">
      <g>
       <use style="stroke:#000000;stroke-width:0.8;" x="1136.302989" xlink:href="#mb058dc0efb" y="292.598437"/>
      </g>
     </g>
     <g id="text_57">
      <!-- Time -->
      <g transform="translate(1139.062364 324.373437)rotate(-90)scale(0.1 -0.1)">
       <use xlink:href="#DejaVuSans-84"/>
       <use x="61.037109" xlink:href="#DejaVuSans-105"/>
       <use x="88.820312" xlink:href="#DejaVuSans-109"/>
       <use x="186.232422" xlink:href="#DejaVuSans-101"/>
      </g>
     </g>
    </g>
    <g id="text_58">
     <!-- function -->
     <g transform="translate(1018.052683 337.046875)scale(0.1 -0.1)">
      <use xlink:href="#DejaVuSans-102"/>
      <use x="35.205078" xlink:href="#DejaVuSans-117"/>
      <use x="98.583984" xlink:href="#DejaVuSans-110"/>
      <use x="161.962891" xlink:href="#DejaVuSans-99"/>
      <use x="216.943359" xlink:href="#DejaVuSans-116"/>
      <use x="256.152344" xlink:href="#DejaVuSans-105"/>
      <use x="283.935547" xlink:href="#DejaVuSans-111"/>
      <use x="345.117188" xlink:href="#DejaVuSans-110"/>
     </g>
    </g>
   </g>
   <g id="matplotlib.axis_8">
    <g id="ytick_22">
     <g id="line2d_70">
      <path clip-path="url(#p3386abfb46)" d="M 917.172554 292.598437 
L 1159.78125 292.598437 
" style="fill:none;stroke:#b0b0b0;stroke-linecap:square;stroke-width:0.8;"/>
     </g>
     <g id="line2d_71">
      <g>
       <use style="stroke:#000000;stroke-width:0.8;" x="917.172554" xlink:href="#m91cb1a3d34" y="292.598437"/>
      </g>
     </g>
     <g id="text_59">
      <!-- 0.0 -->
      <g transform="translate(894.269429 296.397656)scale(0.1 -0.1)">
       <use xlink:href="#DejaVuSans-48"/>
       <use x="63.623047" xlink:href="#DejaVuSans-46"/>
       <use x="95.410156" xlink:href="#DejaVuSans-48"/>
      </g>
     </g>
    </g>
    <g id="ytick_23">
     <g id="line2d_72">
      <path clip-path="url(#p3386abfb46)" d="M 917.172554 247.298437 
L 1159.78125 247.298437 
" style="fill:none;stroke:#b0b0b0;stroke-linecap:square;stroke-width:0.8;"/>
     </g>
     <g id="line2d_73">
      <g>
       <use style="stroke:#000000;stroke-width:0.8;" x="917.172554" xlink:href="#m91cb1a3d34" y="247.298437"/>
      </g>
     </g>
     <g id="text_60">
      <!-- 0.2 -->
      <g transform="translate(894.269429 251.097656)scale(0.1 -0.1)">
       <use xlink:href="#DejaVuSans-48"/>
       <use x="63.623047" xlink:href="#DejaVuSans-46"/>
       <use x="95.410156" xlink:href="#DejaVuSans-50"/>
      </g>
     </g>
    </g>
    <g id="ytick_24">
     <g id="line2d_74">
      <path clip-path="url(#p3386abfb46)" d="M 917.172554 201.998437 
L 1159.78125 201.998437 
" style="fill:none;stroke:#b0b0b0;stroke-linecap:square;stroke-width:0.8;"/>
     </g>
     <g id="line2d_75">
      <g>
       <use style="stroke:#000000;stroke-width:0.8;" x="917.172554" xlink:href="#m91cb1a3d34" y="201.998437"/>
      </g>
     </g>
     <g id="text_61">
      <!-- 0.4 -->
      <g transform="translate(894.269429 205.797656)scale(0.1 -0.1)">
       <use xlink:href="#DejaVuSans-48"/>
       <use x="63.623047" xlink:href="#DejaVuSans-46"/>
       <use x="95.410156" xlink:href="#DejaVuSans-52"/>
      </g>
     </g>
    </g>
    <g id="ytick_25">
     <g id="line2d_76">
      <path clip-path="url(#p3386abfb46)" d="M 917.172554 156.698437 
L 1159.78125 156.698437 
" style="fill:none;stroke:#b0b0b0;stroke-linecap:square;stroke-width:0.8;"/>
     </g>
     <g id="line2d_77">
      <g>
       <use style="stroke:#000000;stroke-width:0.8;" x="917.172554" xlink:href="#m91cb1a3d34" y="156.698437"/>
      </g>
     </g>
     <g id="text_62">
      <!-- 0.6 -->
      <g transform="translate(894.269429 160.497656)scale(0.1 -0.1)">
       <use xlink:href="#DejaVuSans-48"/>
       <use x="63.623047" xlink:href="#DejaVuSans-46"/>
       <use x="95.410156" xlink:href="#DejaVuSans-54"/>
      </g>
     </g>
    </g>
    <g id="ytick_26">
     <g id="line2d_78">
      <path clip-path="url(#p3386abfb46)" d="M 917.172554 111.398437 
L 1159.78125 111.398437 
" style="fill:none;stroke:#b0b0b0;stroke-linecap:square;stroke-width:0.8;"/>
     </g>
     <g id="line2d_79">
      <g>
       <use style="stroke:#000000;stroke-width:0.8;" x="917.172554" xlink:href="#m91cb1a3d34" y="111.398437"/>
      </g>
     </g>
     <g id="text_63">
      <!-- 0.8 -->
      <g transform="translate(894.269429 115.197656)scale(0.1 -0.1)">
       <use xlink:href="#DejaVuSans-48"/>
       <use x="63.623047" xlink:href="#DejaVuSans-46"/>
       <use x="95.410156" xlink:href="#DejaVuSans-56"/>
      </g>
     </g>
    </g>
    <g id="ytick_27">
     <g id="line2d_80">
      <path clip-path="url(#p3386abfb46)" d="M 917.172554 66.098437 
L 1159.78125 66.098437 
" style="fill:none;stroke:#b0b0b0;stroke-linecap:square;stroke-width:0.8;"/>
     </g>
     <g id="line2d_81">
      <g>
       <use style="stroke:#000000;stroke-width:0.8;" x="917.172554" xlink:href="#m91cb1a3d34" y="66.098437"/>
      </g>
     </g>
     <g id="text_64">
      <!-- 1 -->
      <g transform="translate(903.810054 69.897656)scale(0.1 -0.1)">
       <use xlink:href="#DejaVuSans-49"/>
      </g>
     </g>
    </g>
    <g id="ytick_28">
     <g id="line2d_82">
      <path clip-path="url(#p3386abfb46)" d="M 917.172554 20.798437 
L 1159.78125 20.798437 
" style="fill:none;stroke:#b0b0b0;stroke-linecap:square;stroke-width:0.8;"/>
     </g>
     <g id="line2d_83">
      <g>
       <use style="stroke:#000000;stroke-width:0.8;" x="917.172554" xlink:href="#m91cb1a3d34" y="20.798437"/>
      </g>
     </g>
    </g>
    <g id="text_65">
     <!-- percentage % -->
     <g transform="translate(888.189742 191.6125)rotate(-90)scale(0.1 -0.1)">
      <use xlink:href="#DejaVuSans-112"/>
      <use x="63.476562" xlink:href="#DejaVuSans-101"/>
      <use x="125" xlink:href="#DejaVuSans-114"/>
      <use x="166.082031" xlink:href="#DejaVuSans-99"/>
      <use x="221.0625" xlink:href="#DejaVuSans-101"/>
      <use x="282.585938" xlink:href="#DejaVuSans-110"/>
      <use x="345.964844" xlink:href="#DejaVuSans-116"/>
      <use x="385.173828" xlink:href="#DejaVuSans-97"/>
      <use x="446.453125" xlink:href="#DejaVuSans-103"/>
      <use x="509.929688" xlink:href="#DejaVuSans-101"/>
      <use x="571.453125" xlink:href="#DejaVuSans-32"/>
      <use x="603.240234" xlink:href="#DejaVuSans-37"/>
     </g>
    </g>
   </g>
   <g id="patch_63">
    <path clip-path="url(#p3386abfb46)" d="M 926.955163 292.598437 
L 940.650815 292.598437 
L 940.650815 104.37029 
L 926.955163 104.37029 
z
" style="fill:#d3d3d3;stroke:#000000;stroke-linejoin:miter;"/>
   </g>
   <g id="patch_64">
    <path clip-path="url(#p3386abfb46)" d="M 966.085598 292.598437 
L 979.78125 292.598437 
L 979.78125 94.71735 
L 966.085598 94.71735 
z
" style="fill:#d3d3d3;stroke:#000000;stroke-linejoin:miter;"/>
   </g>
   <g id="patch_65">
    <path clip-path="url(#p3386abfb46)" d="M 1005.216033 292.598437 
L 1018.911685 292.598437 
L 1018.911685 103.659615 
L 1005.216033 103.659615 
z
" style="fill:#d3d3d3;stroke:#000000;stroke-linejoin:miter;"/>
   </g>
   <g id="patch_66">
    <path clip-path="url(#p3386abfb46)" d="M 1044.346467 292.598437 
L 1058.04212 292.598437 
L 1058.04212 109.832741 
L 1044.346467 109.832741 
z
" style="fill:#d3d3d3;stroke:#000000;stroke-linejoin:miter;"/>
   </g>
   <g id="patch_67">
    <path clip-path="url(#p3386abfb46)" d="M 1083.476902 292.598437 
L 1097.172554 292.598437 
L 1097.172554 103.948149 
L 1083.476902 103.948149 
z
" style="fill:#d3d3d3;stroke:#000000;stroke-linejoin:miter;"/>
   </g>
   <g id="patch_68">
    <path clip-path="url(#p3386abfb46)" d="M 1122.607337 292.598437 
L 1136.302989 292.598437 
L 1136.302989 94.473054 
L 1122.607337 94.473054 
z
" style="fill:#d3d3d3;stroke:#000000;stroke-linejoin:miter;"/>
   </g>
   <g id="patch_69">
    <path clip-path="url(#p3386abfb46)" d="M 940.650815 292.598437 
L 954.346467 292.598437 
L 954.346467 254.326585 
L 940.650815 254.326585 
z
" style="fill:#ffffff;stroke:#000000;stroke-linejoin:miter;"/>
   </g>
   <g id="patch_70">
    <path clip-path="url(#p3386abfb46)" d="M 979.78125 292.598437 
L 993.476902 292.598437 
L 993.476902 263.979525 
L 979.78125 263.979525 
z
" style="fill:#ffffff;stroke:#000000;stroke-linejoin:miter;"/>
   </g>
   <g id="patch_71">
    <path clip-path="url(#p3386abfb46)" d="M 1018.911685 292.598437 
L 1032.607337 292.598437 
L 1032.607337 255.03726 
L 1018.911685 255.03726 
z
" style="fill:#ffffff;stroke:#000000;stroke-linejoin:miter;"/>
   </g>
   <g id="patch_72">
    <path clip-path="url(#p3386abfb46)" d="M 1058.04212 292.598437 
L 1071.737772 292.598437 
L 1071.737772 248.864134 
L 1058.04212 248.864134 
z
" style="fill:#ffffff;stroke:#000000;stroke-linejoin:miter;"/>
   </g>
   <g id="patch_73">
    <path clip-path="url(#p3386abfb46)" d="M 1097.172554 292.598437 
L 1110.868207 292.598437 
L 1110.868207 254.748726 
L 1097.172554 254.748726 
z
" style="fill:#ffffff;stroke:#000000;stroke-linejoin:miter;"/>
   </g>
   <g id="patch_74">
    <path clip-path="url(#p3386abfb46)" d="M 1136.302989 292.598437 
L 1149.998641 292.598437 
L 1149.998641 264.223821 
L 1136.302989 264.223821 
z
" style="fill:#ffffff;stroke:#000000;stroke-linejoin:miter;"/>
   </g>
   <g id="line2d_84">
    <path clip-path="url(#p3386abfb46)" d="M 917.172554 109.832741 
L 1159.78125 109.832741 
" style="fill:none;stroke:#1f77b4;stroke-linecap:square;stroke-opacity:0.8;stroke-width:1.5;"/>
   </g>
   <g id="patch_75">
    <path d="M 917.172554 292.598437 
L 917.172554 20.798437 
" style="fill:none;stroke:#000000;stroke-linecap:square;stroke-linejoin:miter;stroke-width:0.8;"/>
   </g>
   <g id="patch_76">
    <path d="M 1159.78125 292.598437 
L 1159.78125 20.798437 
" style="fill:none;stroke:#000000;stroke-linecap:square;stroke-linejoin:miter;stroke-width:0.8;"/>
   </g>
   <g id="patch_77">
    <path d="M 917.172554 292.598437 
L 1159.78125 292.598437 
" style="fill:none;stroke:#000000;stroke-linecap:square;stroke-linejoin:miter;stroke-width:0.8;"/>
   </g>
   <g id="patch_78">
    <path d="M 917.172554 20.798437 
L 1159.78125 20.798437 
" style="fill:none;stroke:#000000;stroke-linecap:square;stroke-linejoin:miter;stroke-width:0.8;"/>
   </g>
   <g id="text_66">
    <!-- number of sample phrases parsed (y or n) -->
    <defs>
     <path d="M 32.171875 -5.078125 
Q 28.375 -14.84375 24.75 -17.8125 
Q 21.140625 -20.796875 15.09375 -20.796875 
L 7.90625 -20.796875 
L 7.90625 -13.28125 
L 13.1875 -13.28125 
Q 16.890625 -13.28125 18.9375 -11.515625 
Q 21 -9.765625 23.484375 -3.21875 
L 25.09375 0.875 
L 2.984375 54.6875 
L 12.5 54.6875 
L 29.59375 11.921875 
L 46.6875 54.6875 
L 56.203125 54.6875 
z
" id="DejaVuSans-121"/>
    </defs>
    <g transform="translate(932.798777 14.798438)scale(0.1 -0.1)">
     <use xlink:href="#DejaVuSans-110"/>
     <use x="63.378906" xlink:href="#DejaVuSans-117"/>
     <use x="126.757812" xlink:href="#DejaVuSans-109"/>
     <use x="224.169922" xlink:href="#DejaVuSans-98"/>
     <use x="287.646484" xlink:href="#DejaVuSans-101"/>
     <use x="349.169922" xlink:href="#DejaVuSans-114"/>
     <use x="390.283203" xlink:href="#DejaVuSans-32"/>
     <use x="422.070312" xlink:href="#DejaVuSans-111"/>
     <use x="483.251953" xlink:href="#DejaVuSans-102"/>
     <use x="518.457031" xlink:href="#DejaVuSans-32"/>
     <use x="550.244141" xlink:href="#DejaVuSans-115"/>
     <use x="602.34375" xlink:href="#DejaVuSans-97"/>
     <use x="663.623047" xlink:href="#DejaVuSans-109"/>
     <use x="761.035156" xlink:href="#DejaVuSans-112"/>
     <use x="824.511719" xlink:href="#DejaVuSans-108"/>
     <use x="852.294922" xlink:href="#DejaVuSans-101"/>
     <use x="913.818359" xlink:href="#DejaVuSans-32"/>
     <use x="945.605469" xlink:href="#DejaVuSans-112"/>
     <use x="1009.082031" xlink:href="#DejaVuSans-104"/>
     <use x="1072.460938" xlink:href="#DejaVuSans-114"/>
     <use x="1113.574219" xlink:href="#DejaVuSans-97"/>
     <use x="1174.853516" xlink:href="#DejaVuSans-115"/>
     <use x="1226.953125" xlink:href="#DejaVuSans-101"/>
     <use x="1288.476562" xlink:href="#DejaVuSans-115"/>
     <use x="1340.576172" xlink:href="#DejaVuSans-32"/>
     <use x="1372.363281" xlink:href="#DejaVuSans-112"/>
     <use x="1435.839844" xlink:href="#DejaVuSans-97"/>
     <use x="1497.119141" xlink:href="#DejaVuSans-114"/>
     <use x="1538.232422" xlink:href="#DejaVuSans-115"/>
     <use x="1590.332031" xlink:href="#DejaVuSans-101"/>
     <use x="1651.855469" xlink:href="#DejaVuSans-100"/>
     <use x="1715.332031" xlink:href="#DejaVuSans-32"/>
     <use x="1747.119141" xlink:href="#DejaVuSans-40"/>
     <use x="1786.132812" xlink:href="#DejaVuSans-121"/>
     <use x="1845.3125" xlink:href="#DejaVuSans-32"/>
     <use x="1877.099609" xlink:href="#DejaVuSans-111"/>
     <use x="1938.28125" xlink:href="#DejaVuSans-114"/>
     <use x="1979.394531" xlink:href="#DejaVuSans-32"/>
     <use x="2011.181641" xlink:href="#DejaVuSans-110"/>
     <use x="2074.560547" xlink:href="#DejaVuSans-41"/>
    </g>
   </g>
   <g id="legend_4">
    <g id="patch_79">
     <path d="M 1114.44375 58.154687 
L 1152.78125 58.154687 
Q 1154.78125 58.154687 1154.78125 56.154687 
L 1154.78125 27.798437 
Q 1154.78125 25.798437 1152.78125 25.798437 
L 1114.44375 25.798437 
Q 1112.44375 25.798437 1112.44375 27.798437 
L 1112.44375 56.154687 
Q 1112.44375 58.154687 1114.44375 58.154687 
z
" style="fill:#ffffff;opacity:0.8;stroke:#cccccc;stroke-linejoin:miter;"/>
    </g>
    <g id="patch_80">
     <path d="M 1116.44375 37.396875 
L 1136.44375 37.396875 
L 1136.44375 30.396875 
L 1116.44375 30.396875 
z
" style="fill:#d3d3d3;stroke:#000000;stroke-linejoin:miter;"/>
    </g>
    <g id="text_67">
     <!-- y -->
     <g transform="translate(1144.44375 37.396875)scale(0.1 -0.1)">
      <use xlink:href="#DejaVuSans-121"/>
     </g>
    </g>
    <g id="patch_81">
     <path d="M 1116.44375 52.075 
L 1136.44375 52.075 
L 1136.44375 45.075 
L 1116.44375 45.075 
z
" style="fill:#ffffff;stroke:#000000;stroke-linejoin:miter;"/>
    </g>
    <g id="text_68">
     <!-- n -->
     <g transform="translate(1144.44375 52.075)scale(0.1 -0.1)">
      <use xlink:href="#DejaVuSans-110"/>
     </g>
    </g>
   </g>
  </g>
 </g>
 <defs>
  <clipPath id="pfc89855cb5">
   <rect height="271.8" width="242.608696" x="43.78125" y="20.798438"/>
  </clipPath>
  <clipPath id="pf8f30e0dcc">
   <rect height="271.8" width="242.608696" x="334.911685" y="20.798438"/>
  </clipPath>
  <clipPath id="pdca3104dc3">
   <rect height="271.8" width="242.608696" x="626.04212" y="20.798438"/>
  </clipPath>
  <clipPath id="p3386abfb46">
   <rect height="271.8" width="242.608696" x="917.172554" y="20.798438"/>
  </clipPath>
 </defs>
</svg>
