<?xml version="1.0" encoding="utf-8" standalone="no"?>
<!DOCTYPE svg PUBLIC "-//W3C//DTD SVG 1.1//EN"
  "http://www.w3.org/Graphics/SVG/1.1/DTD/svg11.dtd">
<!-- Created with matplotlib (https://matplotlib.org/) -->
<svg height="465.958125pt" version="1.1" viewBox="0 0 482.542187 465.958125" width="482.542187pt" xmlns="http://www.w3.org/2000/svg" xmlns:xlink="http://www.w3.org/1999/xlink">
 <metadata>
  <rdf:RDF xmlns:cc="http://creativecommons.org/ns#" xmlns:dc="http://purl.org/dc/elements/1.1/" xmlns:rdf="http://www.w3.org/1999/02/22-rdf-syntax-ns#">
   <cc:Work>
    <dc:type rdf:resource="http://purl.org/dc/dcmitype/StillImage"/>
    <dc:date>2021-05-05T16:41:09.882570</dc:date>
    <dc:format>image/svg+xml</dc:format>
    <dc:creator>
     <cc:Agent>
      <dc:title>Matplotlib v3.3.3, https://matplotlib.org/</dc:title>
     </cc:Agent>
    </dc:creator>
   </cc:Work>
  </rdf:RDF>
 </metadata>
 <defs>
  <style type="text/css">*{stroke-linecap:butt;stroke-linejoin:round;}</style>
 </defs>
 <g id="figure_1">
  <g id="patch_1">
   <path d="M 0 465.958125 
L 482.542187 465.958125 
L 482.542187 0 
L 0 0 
z
" style="fill:none;"/>
  </g>
  <g id="axes_1">
   <g id="patch_2">
    <path d="M 28.942188 442.08 
L 475.342187 442.08 
L 475.342187 7.2 
L 28.942188 7.2 
z
" style="fill:#ffffff;"/>
   </g>
   <g id="PathCollection_1">
    <defs>
     <path d="M 0 4.1833 
C 1.109424 4.1833 2.173559 3.742521 2.95804 2.95804 
C 3.742521 2.173559 4.1833 1.109424 4.1833 0 
C 4.1833 -1.109424 3.742521 -2.173559 2.95804 -2.95804 
C 2.173559 -3.742521 1.109424 -4.1833 0 -4.1833 
C -1.109424 -4.1833 -2.173559 -3.742521 -2.95804 -2.95804 
C -3.742521 -2.173559 -4.1833 -1.109424 -4.1833 0 
C -4.1833 1.109424 -3.742521 2.173559 -2.95804 2.95804 
C -2.173559 3.742521 -1.109424 4.1833 0 4.1833 
z
" id="mf25d6b3a97" style="stroke:#000000;"/>
    </defs>
    <g clip-path="url(#p5cfe41aef8)">
     <use style="fill:#ff0000;fill-opacity:0.75;stroke:#000000;" x="317.963812" xlink:href="#mf25d6b3a97" y="221.959561"/>
     <use style="fill:#ff0000;fill-opacity:0.75;stroke:#000000;" x="395.015598" xlink:href="#mf25d6b3a97" y="331.68251"/>
     <use style="fill:#ff0000;fill-opacity:0.75;stroke:#000000;" x="265.107604" xlink:href="#mf25d6b3a97" y="340.767933"/>
     <use style="fill:#ff0000;fill-opacity:0.75;stroke:#000000;" x="360.931106" xlink:href="#mf25d6b3a97" y="323.86792"/>
     <use style="fill:#ff0000;fill-opacity:0.75;stroke:#000000;" x="446.959752" xlink:href="#mf25d6b3a97" y="26.967273"/>
     <use style="fill:#ff0000;fill-opacity:0.75;stroke:#000000;" x="455.051278" xlink:href="#mf25d6b3a97" y="422.312727"/>
     <use style="fill:#ff0000;fill-opacity:0.75;stroke:#000000;" x="296.853847" xlink:href="#mf25d6b3a97" y="377.704202"/>
     <use style="fill:#ff0000;fill-opacity:0.75;stroke:#000000;" x="298.452737" xlink:href="#mf25d6b3a97" y="275.683962"/>
     <use style="fill:#ff0000;fill-opacity:0.75;stroke:#000000;" x="297.867447" xlink:href="#mf25d6b3a97" y="375.080651"/>
    </g>
   </g>
   <g id="PathCollection_2">
    <defs>
     <path d="M 0 4.1833 
C 1.109424 4.1833 2.173559 3.742521 2.95804 2.95804 
C 3.742521 2.173559 4.1833 1.109424 4.1833 0 
C 4.1833 -1.109424 3.742521 -2.173559 2.95804 -2.95804 
C 2.173559 -3.742521 1.109424 -4.1833 0 -4.1833 
C -1.109424 -4.1833 -2.173559 -3.742521 -2.95804 -2.95804 
C -3.742521 -2.173559 -4.1833 -1.109424 -4.1833 0 
C -4.1833 1.109424 -3.742521 2.173559 -2.95804 2.95804 
C -2.173559 3.742521 -1.109424 4.1833 0 4.1833 
z
" id="me67b444af4" style="stroke:#000000;"/>
    </defs>
    <g clip-path="url(#p5cfe41aef8)">
     <use style="fill:#0000ff;fill-opacity:0.75;stroke:#000000;" x="182.95195" xlink:href="#me67b444af4" y="262.543117"/>
     <use style="fill:#0000ff;fill-opacity:0.75;stroke:#000000;" x="185.323636" xlink:href="#me67b444af4" y="219.976368"/>
     <use style="fill:#0000ff;fill-opacity:0.75;stroke:#000000;" x="134.487226" xlink:href="#me67b444af4" y="258.846632"/>
     <use style="fill:#0000ff;fill-opacity:0.75;stroke:#000000;" x="131.814392" xlink:href="#me67b444af4" y="322.097573"/>
     <use style="fill:#0000ff;fill-opacity:0.75;stroke:#000000;" x="267.75592" xlink:href="#me67b444af4" y="303.956964"/>
     <use style="fill:#0000ff;fill-opacity:0.75;stroke:#000000;" x="243.712438" xlink:href="#me67b444af4" y="212.88786"/>
     <use style="fill:#0000ff;fill-opacity:0.75;stroke:#000000;" x="108.407184" xlink:href="#me67b444af4" y="239.886818"/>
     <use style="fill:#0000ff;fill-opacity:0.75;stroke:#000000;" x="183.337997" xlink:href="#me67b444af4" y="213.299079"/>
     <use style="fill:#0000ff;fill-opacity:0.75;stroke:#000000;" x="159.982593" xlink:href="#me67b444af4" y="297.118295"/>
     <use style="fill:#0000ff;fill-opacity:0.75;stroke:#000000;" x="272.063186" xlink:href="#me67b444af4" y="318.685351"/>
     <use style="fill:#0000ff;fill-opacity:0.75;stroke:#000000;" x="196.089966" xlink:href="#me67b444af4" y="199.875448"/>
     <use style="fill:#0000ff;fill-opacity:0.75;stroke:#000000;" x="129.841415" xlink:href="#me67b444af4" y="308.963091"/>
     <use style="fill:#0000ff;fill-opacity:0.75;stroke:#000000;" x="49.233097" xlink:href="#me67b444af4" y="314.226185"/>
     <use style="fill:#0000ff;fill-opacity:0.75;stroke:#000000;" x="195.820438" xlink:href="#me67b444af4" y="307.14459"/>
     <use style="fill:#0000ff;fill-opacity:0.75;stroke:#000000;" x="151.675466" xlink:href="#me67b444af4" y="294.550537"/>
     <use style="fill:#0000ff;fill-opacity:0.75;stroke:#000000;" x="151.929385" xlink:href="#me67b444af4" y="321.752856"/>
     <use style="fill:#0000ff;fill-opacity:0.75;stroke:#000000;" x="165.961334" xlink:href="#me67b444af4" y="264.753905"/>
    </g>
   </g>
   <g id="patch_3">
    <path clip-path="url(#p5cfe41aef8)" d="M 250.033599 305.50644 
L 250.033599 305.50644 
L 250.012456 305.516904 
L 232.463119 282.956287 
L 232.505404 282.93536 
L 250.054741 305.495977 
L 250.033599 305.50644 
z
" style="fill:#808080;stroke:#808080;stroke-linejoin:miter;"/>
   </g>
   <g id="patch_4">
    <path clip-path="url(#p5cfe41aef8)" d="M 247.6869 305.028236 
L 247.6869 305.028236 
L 247.66509 305.037789 
L 232.462452 282.955376 
L 232.506071 282.936271 
L 247.70871 305.018684 
L 247.6869 305.028236 
z
" style="fill:#808080;stroke:#808080;stroke-linejoin:miter;"/>
   </g>
   <g id="patch_5">
    <path clip-path="url(#p5cfe41aef8)" d="M 246.7339 295.998697 
L 246.7339 295.998697 
L 246.715136 296.01173 
L 232.465497 282.958857 
L 232.503026 282.93279 
L 246.752665 295.985664 
L 246.7339 295.998697 
z
" style="fill:#808080;stroke:#808080;stroke-linejoin:miter;"/>
   </g>
   <g id="patch_6">
    <path clip-path="url(#p5cfe41aef8)" d="M 239.640424 294.561889 
L 239.640424 294.561889 
L 239.618093 294.570642 
L 232.461931 282.954576 
L 232.506593 282.937071 
L 239.662755 294.553137 
L 239.640424 294.561889 
z
" style="fill:#808080;stroke:#808080;stroke-linejoin:miter;"/>
   </g>
   <g id="patch_7">
    <path clip-path="url(#p5cfe41aef8)" d="M 217.783705 252.14059 
L 217.783705 252.14059 
L 217.806959 252.133529 
L 232.507516 282.938763 
L 232.461008 282.952884 
L 217.760451 252.14765 
L 217.783705 252.14059 
z
" style="fill:#808080;stroke:#808080;stroke-linejoin:miter;"/>
   </g>
   <g id="patch_8">
    <path clip-path="url(#p5cfe41aef8)" d="M 293.094497 316.467709 
L 293.094497 316.467709 
L 293.080319 316.484018 
L 232.470084 282.962133 
L 232.498439 282.929514 
L 293.108675 316.4514 
L 293.094497 316.467709 
z
" style="fill:#808080;stroke:#808080;stroke-linejoin:miter;"/>
   </g>
   <g id="patch_9">
    <path clip-path="url(#p5cfe41aef8)" d="M 197.306307 291.051509 
L 197.306307 291.051509 
L 197.299402 291.032442 
L 232.477356 282.926757 
L 232.491167 282.96489 
L 197.313213 291.070576 
L 197.306307 291.051509 
z
" style="fill:#808080;stroke:#808080;stroke-linejoin:miter;"/>
   </g>
   <g id="patch_10">
    <path clip-path="url(#p5cfe41aef8)" d="M 204.07083 282.805566 
L 204.07083 282.805566 
L 204.070984 282.78572 
L 232.484416 282.925977 
L 232.484108 282.96567 
L 204.070676 282.825412 
L 204.07083 282.805566 
z
" style="fill:#808080;stroke:#808080;stroke-linejoin:miter;"/>
   </g>
   <g id="patch_11">
    <path clip-path="url(#p5cfe41aef8)" d="M 199.903744 264.641233 
L 199.903744 264.641233 
L 199.918072 264.625008 
L 232.49859 282.929598 
L 232.469934 282.962049 
L 199.889416 264.657459 
L 199.903744 264.641233 
z
" style="fill:#808080;stroke:#808080;stroke-linejoin:miter;"/>
   </g>
   <g id="patch_12">
    <path clip-path="url(#p5cfe41aef8)" d="M 200.117298 273.684298 
L 200.117298 273.684298 
L 200.125699 273.665617 
L 232.492663 282.927143 
L 232.47586 282.964504 
L 200.108896 273.702979 
L 200.117298 273.684298 
z
" style="fill:#808080;stroke:#808080;stroke-linejoin:miter;"/>
   </g>
   <g id="matplotlib.axis_1">
    <g id="xtick_1">
     <g id="line2d_1">
      <defs>
       <path d="M 0 0 
L 0 3.5 
" id="me9649902f2" style="stroke:#000000;stroke-width:0.8;"/>
      </defs>
      <g>
       <use style="stroke:#000000;stroke-width:0.8;" x="33.431899" xlink:href="#me9649902f2" y="442.08"/>
      </g>
     </g>
     <g id="text_1">
      <!-- −4 -->
      <g transform="translate(26.060805 456.678437)scale(0.1 -0.1)">
       <defs>
        <path d="M 10.59375 35.5 
L 73.1875 35.5 
L 73.1875 27.203125 
L 10.59375 27.203125 
z
" id="DejaVuSans-8722"/>
        <path d="M 37.796875 64.3125 
L 12.890625 25.390625 
L 37.796875 25.390625 
z
M 35.203125 72.90625 
L 47.609375 72.90625 
L 47.609375 25.390625 
L 58.015625 25.390625 
L 58.015625 17.1875 
L 47.609375 17.1875 
L 47.609375 0 
L 37.796875 0 
L 37.796875 17.1875 
L 4.890625 17.1875 
L 4.890625 26.703125 
z
" id="DejaVuSans-52"/>
       </defs>
       <use xlink:href="#DejaVuSans-8722"/>
       <use x="83.789062" xlink:href="#DejaVuSans-52"/>
      </g>
     </g>
    </g>
    <g id="xtick_2">
     <g id="line2d_2">
      <g>
       <use style="stroke:#000000;stroke-width:0.8;" x="83.194989" xlink:href="#me9649902f2" y="442.08"/>
      </g>
     </g>
     <g id="text_2">
      <!-- −3 -->
      <g transform="translate(75.823896 456.678437)scale(0.1 -0.1)">
       <defs>
        <path d="M 40.578125 39.3125 
Q 47.65625 37.796875 51.625 33 
Q 55.609375 28.21875 55.609375 21.1875 
Q 55.609375 10.40625 48.1875 4.484375 
Q 40.765625 -1.421875 27.09375 -1.421875 
Q 22.515625 -1.421875 17.65625 -0.515625 
Q 12.796875 0.390625 7.625 2.203125 
L 7.625 11.71875 
Q 11.71875 9.328125 16.59375 8.109375 
Q 21.484375 6.890625 26.8125 6.890625 
Q 36.078125 6.890625 40.9375 10.546875 
Q 45.796875 14.203125 45.796875 21.1875 
Q 45.796875 27.640625 41.28125 31.265625 
Q 36.765625 34.90625 28.71875 34.90625 
L 20.21875 34.90625 
L 20.21875 43.015625 
L 29.109375 43.015625 
Q 36.375 43.015625 40.234375 45.921875 
Q 44.09375 48.828125 44.09375 54.296875 
Q 44.09375 59.90625 40.109375 62.90625 
Q 36.140625 65.921875 28.71875 65.921875 
Q 24.65625 65.921875 20.015625 65.03125 
Q 15.375 64.15625 9.8125 62.3125 
L 9.8125 71.09375 
Q 15.4375 72.65625 20.34375 73.4375 
Q 25.25 74.21875 29.59375 74.21875 
Q 40.828125 74.21875 47.359375 69.109375 
Q 53.90625 64.015625 53.90625 55.328125 
Q 53.90625 49.265625 50.4375 45.09375 
Q 46.96875 40.921875 40.578125 39.3125 
z
" id="DejaVuSans-51"/>
       </defs>
       <use xlink:href="#DejaVuSans-8722"/>
       <use x="83.789062" xlink:href="#DejaVuSans-51"/>
      </g>
     </g>
    </g>
    <g id="xtick_3">
     <g id="line2d_3">
      <g>
       <use style="stroke:#000000;stroke-width:0.8;" x="132.95808" xlink:href="#me9649902f2" y="442.08"/>
      </g>
     </g>
     <g id="text_3">
      <!-- −2 -->
      <g transform="translate(125.586986 456.678437)scale(0.1 -0.1)">
       <defs>
        <path d="M 19.1875 8.296875 
L 53.609375 8.296875 
L 53.609375 0 
L 7.328125 0 
L 7.328125 8.296875 
Q 12.9375 14.109375 22.625 23.890625 
Q 32.328125 33.6875 34.8125 36.53125 
Q 39.546875 41.84375 41.421875 45.53125 
Q 43.3125 49.21875 43.3125 52.78125 
Q 43.3125 58.59375 39.234375 62.25 
Q 35.15625 65.921875 28.609375 65.921875 
Q 23.96875 65.921875 18.8125 64.3125 
Q 13.671875 62.703125 7.8125 59.421875 
L 7.8125 69.390625 
Q 13.765625 71.78125 18.9375 73 
Q 24.125 74.21875 28.421875 74.21875 
Q 39.75 74.21875 46.484375 68.546875 
Q 53.21875 62.890625 53.21875 53.421875 
Q 53.21875 48.921875 51.53125 44.890625 
Q 49.859375 40.875 45.40625 35.40625 
Q 44.1875 33.984375 37.640625 27.21875 
Q 31.109375 20.453125 19.1875 8.296875 
z
" id="DejaVuSans-50"/>
       </defs>
       <use xlink:href="#DejaVuSans-8722"/>
       <use x="83.789062" xlink:href="#DejaVuSans-50"/>
      </g>
     </g>
    </g>
    <g id="xtick_4">
     <g id="line2d_4">
      <g>
       <use style="stroke:#000000;stroke-width:0.8;" x="182.721171" xlink:href="#me9649902f2" y="442.08"/>
      </g>
     </g>
     <g id="text_4">
      <!-- −1 -->
      <g transform="translate(175.350077 456.678437)scale(0.1 -0.1)">
       <defs>
        <path d="M 12.40625 8.296875 
L 28.515625 8.296875 
L 28.515625 63.921875 
L 10.984375 60.40625 
L 10.984375 69.390625 
L 28.421875 72.90625 
L 38.28125 72.90625 
L 38.28125 8.296875 
L 54.390625 8.296875 
L 54.390625 0 
L 12.40625 0 
z
" id="DejaVuSans-49"/>
       </defs>
       <use xlink:href="#DejaVuSans-8722"/>
       <use x="83.789062" xlink:href="#DejaVuSans-49"/>
      </g>
     </g>
    </g>
    <g id="xtick_5">
     <g id="line2d_5">
      <g>
       <use style="stroke:#000000;stroke-width:0.8;" x="232.484262" xlink:href="#me9649902f2" y="442.08"/>
      </g>
     </g>
     <g id="text_5">
      <!-- 0 -->
      <g transform="translate(229.303012 456.678437)scale(0.1 -0.1)">
       <defs>
        <path d="M 31.78125 66.40625 
Q 24.171875 66.40625 20.328125 58.90625 
Q 16.5 51.421875 16.5 36.375 
Q 16.5 21.390625 20.328125 13.890625 
Q 24.171875 6.390625 31.78125 6.390625 
Q 39.453125 6.390625 43.28125 13.890625 
Q 47.125 21.390625 47.125 36.375 
Q 47.125 51.421875 43.28125 58.90625 
Q 39.453125 66.40625 31.78125 66.40625 
z
M 31.78125 74.21875 
Q 44.046875 74.21875 50.515625 64.515625 
Q 56.984375 54.828125 56.984375 36.375 
Q 56.984375 17.96875 50.515625 8.265625 
Q 44.046875 -1.421875 31.78125 -1.421875 
Q 19.53125 -1.421875 13.0625 8.265625 
Q 6.59375 17.96875 6.59375 36.375 
Q 6.59375 54.828125 13.0625 64.515625 
Q 19.53125 74.21875 31.78125 74.21875 
z
" id="DejaVuSans-48"/>
       </defs>
       <use xlink:href="#DejaVuSans-48"/>
      </g>
     </g>
    </g>
    <g id="xtick_6">
     <g id="line2d_6">
      <g>
       <use style="stroke:#000000;stroke-width:0.8;" x="282.247352" xlink:href="#me9649902f2" y="442.08"/>
      </g>
     </g>
     <g id="text_6">
      <!-- 1 -->
      <g transform="translate(279.066102 456.678437)scale(0.1 -0.1)">
       <use xlink:href="#DejaVuSans-49"/>
      </g>
     </g>
    </g>
    <g id="xtick_7">
     <g id="line2d_7">
      <g>
       <use style="stroke:#000000;stroke-width:0.8;" x="332.010443" xlink:href="#me9649902f2" y="442.08"/>
      </g>
     </g>
     <g id="text_7">
      <!-- 2 -->
      <g transform="translate(328.829193 456.678437)scale(0.1 -0.1)">
       <use xlink:href="#DejaVuSans-50"/>
      </g>
     </g>
    </g>
    <g id="xtick_8">
     <g id="line2d_8">
      <g>
       <use style="stroke:#000000;stroke-width:0.8;" x="381.773534" xlink:href="#me9649902f2" y="442.08"/>
      </g>
     </g>
     <g id="text_8">
      <!-- 3 -->
      <g transform="translate(378.592284 456.678437)scale(0.1 -0.1)">
       <use xlink:href="#DejaVuSans-51"/>
      </g>
     </g>
    </g>
    <g id="xtick_9">
     <g id="line2d_9">
      <g>
       <use style="stroke:#000000;stroke-width:0.8;" x="431.536625" xlink:href="#me9649902f2" y="442.08"/>
      </g>
     </g>
     <g id="text_9">
      <!-- 4 -->
      <g transform="translate(428.355375 456.678437)scale(0.1 -0.1)">
       <use xlink:href="#DejaVuSans-52"/>
      </g>
     </g>
    </g>
   </g>
   <g id="matplotlib.axis_2">
    <g id="ytick_1">
     <g id="line2d_10">
      <defs>
       <path d="M 0 0 
L -3.5 0 
" id="m943d0f6d20" style="stroke:#000000;stroke-width:0.8;"/>
      </defs>
      <g>
       <use style="stroke:#000000;stroke-width:0.8;" x="28.942188" xlink:href="#m943d0f6d20" y="441.717556"/>
      </g>
     </g>
     <g id="text_10">
      <!-- −4 -->
      <g transform="translate(7.2 445.516775)scale(0.1 -0.1)">
       <use xlink:href="#DejaVuSans-8722"/>
       <use x="83.789062" xlink:href="#DejaVuSans-52"/>
      </g>
     </g>
    </g>
    <g id="ytick_2">
     <g id="line2d_11">
      <g>
       <use style="stroke:#000000;stroke-width:0.8;" x="28.942188" xlink:href="#m943d0f6d20" y="362.33169"/>
      </g>
     </g>
     <g id="text_11">
      <!-- −2 -->
      <g transform="translate(7.2 366.130909)scale(0.1 -0.1)">
       <use xlink:href="#DejaVuSans-8722"/>
       <use x="83.789062" xlink:href="#DejaVuSans-50"/>
      </g>
     </g>
    </g>
    <g id="ytick_3">
     <g id="line2d_12">
      <g>
       <use style="stroke:#000000;stroke-width:0.8;" x="28.942188" xlink:href="#m943d0f6d20" y="282.945823"/>
      </g>
     </g>
     <g id="text_12">
      <!-- 0 -->
      <g transform="translate(15.579688 286.745042)scale(0.1 -0.1)">
       <use xlink:href="#DejaVuSans-48"/>
      </g>
     </g>
    </g>
    <g id="ytick_4">
     <g id="line2d_13">
      <g>
       <use style="stroke:#000000;stroke-width:0.8;" x="28.942188" xlink:href="#m943d0f6d20" y="203.559957"/>
      </g>
     </g>
     <g id="text_13">
      <!-- 2 -->
      <g transform="translate(15.579688 207.359176)scale(0.1 -0.1)">
       <use xlink:href="#DejaVuSans-50"/>
      </g>
     </g>
    </g>
    <g id="ytick_5">
     <g id="line2d_14">
      <g>
       <use style="stroke:#000000;stroke-width:0.8;" x="28.942188" xlink:href="#m943d0f6d20" y="124.17409"/>
      </g>
     </g>
     <g id="text_14">
      <!-- 4 -->
      <g transform="translate(15.579688 127.973309)scale(0.1 -0.1)">
       <use xlink:href="#DejaVuSans-52"/>
      </g>
     </g>
    </g>
    <g id="ytick_6">
     <g id="line2d_15">
      <g>
       <use style="stroke:#000000;stroke-width:0.8;" x="28.942188" xlink:href="#m943d0f6d20" y="44.788224"/>
      </g>
     </g>
     <g id="text_15">
      <!-- 6 -->
      <g transform="translate(15.579688 48.587443)scale(0.1 -0.1)">
       <defs>
        <path d="M 33.015625 40.375 
Q 26.375 40.375 22.484375 35.828125 
Q 18.609375 31.296875 18.609375 23.390625 
Q 18.609375 15.53125 22.484375 10.953125 
Q 26.375 6.390625 33.015625 6.390625 
Q 39.65625 6.390625 43.53125 10.953125 
Q 47.40625 15.53125 47.40625 23.390625 
Q 47.40625 31.296875 43.53125 35.828125 
Q 39.65625 40.375 33.015625 40.375 
z
M 52.59375 71.296875 
L 52.59375 62.3125 
Q 48.875 64.0625 45.09375 64.984375 
Q 41.3125 65.921875 37.59375 65.921875 
Q 27.828125 65.921875 22.671875 59.328125 
Q 17.53125 52.734375 16.796875 39.40625 
Q 19.671875 43.65625 24.015625 45.921875 
Q 28.375 48.1875 33.59375 48.1875 
Q 44.578125 48.1875 50.953125 41.515625 
Q 57.328125 34.859375 57.328125 23.390625 
Q 57.328125 12.15625 50.6875 5.359375 
Q 44.046875 -1.421875 33.015625 -1.421875 
Q 20.359375 -1.421875 13.671875 8.265625 
Q 6.984375 17.96875 6.984375 36.375 
Q 6.984375 53.65625 15.1875 63.9375 
Q 23.390625 74.21875 37.203125 74.21875 
Q 40.921875 74.21875 44.703125 73.484375 
Q 48.484375 72.75 52.59375 71.296875 
z
" id="DejaVuSans-54"/>
       </defs>
       <use xlink:href="#DejaVuSans-54"/>
      </g>
     </g>
    </g>
   </g>
   <g id="patch_13">
    <path d="M 28.942188 442.08 
L 28.942188 7.2 
" style="fill:none;stroke:#000000;stroke-linecap:square;stroke-linejoin:miter;stroke-width:0.8;"/>
   </g>
   <g id="patch_14">
    <path d="M 475.342187 442.08 
L 475.342187 7.2 
" style="fill:none;stroke:#000000;stroke-linecap:square;stroke-linejoin:miter;stroke-width:0.8;"/>
   </g>
   <g id="patch_15">
    <path d="M 28.942187 442.08 
L 475.342187 442.08 
" style="fill:none;stroke:#000000;stroke-linecap:square;stroke-linejoin:miter;stroke-width:0.8;"/>
   </g>
   <g id="patch_16">
    <path d="M 28.942187 7.2 
L 475.342187 7.2 
" style="fill:none;stroke:#000000;stroke-linecap:square;stroke-linejoin:miter;stroke-width:0.8;"/>
   </g>
   <g id="text_16">
    <!-- בכׁש -->
    <g style="fill:#808080;" transform="translate(250.033599 305.50644)scale(0.15 -0.15)">
     <defs>
      <path d="M 10.359375 55.515625 
Q 10.984375 54.109375 11.6875 53.296875 
Q 12.40625 52.484375 13.328125 52.0625 
Q 14.265625 51.65625 15.484375 51.53125 
Q 16.703125 51.421875 18.359375 51.421875 
L 32.328125 51.421875 
Q 35.453125 51.421875 37.515625 50.703125 
Q 39.59375 50 40.796875 48.75 
Q 42 47.515625 42.484375 45.796875 
Q 42.96875 44.09375 42.96875 42.140625 
Q 42.96875 40.4375 42.875 38.96875 
Q 42.78125 37.5 42.65625 35.984375 
Q 42.53125 34.46875 42.421875 32.859375 
Q 42.328125 31.25 42.328125 29.296875 
Q 42.328125 28.765625 42.359375 27.4375 
Q 42.390625 26.125 42.453125 24.4375 
Q 42.53125 22.75 42.671875 20.84375 
Q 42.828125 18.953125 43.109375 17.15625 
Q 43.40625 15.375 43.8125 13.9375 
Q 44.234375 12.5 44.875 11.71875 
Q 45.65625 10.75 46.84375 10.421875 
Q 48.046875 10.109375 49.90625 10.109375 
Q 50.09375 10.109375 50.046875 9.8125 
Q 49.265625 7.328125 48.625 5.078125 
Q 48 2.828125 47.40625 0.34375 
Q 47.359375 0.140625 47.21875 0.0625 
Q 47.078125 0 46.921875 0 
L 14.9375 0 
Q 13.1875 0 11.84375 -0.015625 
Q 10.5 -0.046875 9.328125 -0.171875 
Q 8.15625 -0.296875 7.109375 -0.578125 
Q 6.0625 -0.875 4.890625 -1.421875 
Q 4.34375 -1.3125 3.796875 -1.109375 
Q 3.265625 -0.921875 2.9375 -0.53125 
Q 3.328125 1.125 4.03125 3.25 
Q 4.734375 5.375 5.609375 7.5625 
Q 6.15625 8.9375 7.71875 9.8125 
Q 9.28125 10.6875 12.453125 10.6875 
L 37.453125 10.6875 
Q 37.0625 13.328125 36.90625 15.671875 
Q 36.765625 18.015625 36.765625 20.3125 
Q 36.765625 22.125 36.84375 24.078125 
Q 36.921875 26.03125 37.03125 27.875 
Q 37.15625 29.734375 37.234375 31.375 
Q 37.3125 33.015625 37.3125 34.1875 
Q 37.3125 35.59375 36.984375 36.765625 
Q 36.671875 37.9375 35.8125 38.765625 
Q 34.96875 39.59375 33.546875 40.0625 
Q 32.125 40.53125 29.9375 40.53125 
L 14.84375 40.53125 
Q 13.09375 40.53125 11.421875 40.671875 
Q 9.765625 40.828125 8.46875 41.359375 
Q 7.171875 41.890625 6.390625 42.921875 
Q 5.609375 43.953125 5.609375 45.65625 
Q 5.609375 46.09375 5.78125 47.015625 
Q 5.953125 47.953125 6.296875 49.1875 
Q 6.640625 50.4375 7.09375 51.96875 
Q 7.5625 53.515625 8.15625 55.125 
Q 8.640625 55.375 9.21875 55.46875 
Q 9.8125 55.5625 10.359375 55.515625 
z
" id="SBLBibLit-1489"/>
      <path d="M 9.90625 55.515625 
Q 10.546875 54.109375 11.25 53.296875 
Q 11.96875 52.484375 12.890625 52.0625 
Q 13.8125 51.65625 15.03125 51.53125 
Q 16.265625 51.421875 17.921875 51.421875 
L 29.5 51.421875 
Q 33.0625 51.421875 35.9375 50 
Q 38.8125 48.578125 40.859375 45.578125 
Q 42.921875 42.578125 44.015625 37.890625 
Q 45.125 33.203125 45.125 26.703125 
Q 45.125 23.484375 44.65625 19.8125 
Q 44.1875 16.15625 43.453125 12.609375 
Q 42.71875 9.078125 41.796875 5.90625 
Q 40.875 2.734375 39.9375 0.484375 
Q 39.796875 0.140625 39.578125 0.0625 
Q 39.359375 0 38.96875 0 
L 15.140625 0 
Q 13.28125 0 11.890625 -0.015625 
Q 10.5 -0.046875 9.328125 -0.171875 
Q 8.15625 -0.296875 7.109375 -0.578125 
Q 6.0625 -0.875 4.890625 -1.421875 
Q 4.34375 -1.3125 3.796875 -1.109375 
Q 3.265625 -0.921875 2.9375 -0.53125 
Q 3.328125 1.125 4.03125 3.25 
Q 4.734375 5.375 5.609375 7.5625 
Q 6.15625 8.9375 7.734375 9.8125 
Q 9.328125 10.6875 12.640625 10.6875 
L 36.078125 10.6875 
Q 36.671875 10.6875 36.859375 11.03125 
Q 37.25 11.921875 37.640625 13.3125 
Q 38.03125 14.703125 38.34375 16.40625 
Q 38.671875 18.109375 38.859375 20.09375 
Q 39.0625 22.078125 39.0625 24.125 
Q 39.0625 27.640625 38.34375 30.640625 
Q 37.640625 33.640625 36.265625 35.828125 
Q 34.90625 38.03125 32.90625 39.28125 
Q 30.90625 40.53125 28.375 40.53125 
L 14.40625 40.53125 
Q 12.640625 40.53125 10.984375 40.671875 
Q 9.328125 40.828125 8.03125 41.359375 
Q 6.734375 41.890625 5.953125 42.921875 
Q 5.171875 43.953125 5.171875 45.65625 
Q 5.171875 46.09375 5.34375 47.015625 
Q 5.515625 47.953125 5.859375 49.1875 
Q 6.203125 50.4375 6.65625 51.96875 
Q 7.125 53.515625 7.71875 55.125 
Q 8.203125 55.375 8.78125 55.46875 
Q 9.375 55.5625 9.90625 55.515625 
z
" id="SBLBibLit-1499"/>
      <path d="M 14.9375 63.671875 
Q 14.9375 65.375 16.078125 66.515625 
Q 17.234375 67.671875 18.953125 67.671875 
Q 20.65625 67.671875 21.796875 66.515625 
Q 22.953125 65.375 22.953125 63.671875 
Q 22.953125 61.96875 21.796875 60.8125 
Q 20.65625 59.671875 18.953125 59.671875 
Q 17.234375 59.671875 16.078125 60.8125 
Q 14.9375 61.96875 14.9375 63.671875 
z
" id="SBLBibLit-1473"/>
      <path d="M 33.34375 38.375 
Q 33.34375 38.8125 33.171875 39.15625 
Q 33.015625 39.5 32.59375 39.796875 
Q 32.171875 40.09375 31.515625 40.40625 
Q 30.859375 40.71875 29.828125 41.15625 
Q 28.859375 41.609375 28 42 
Q 27.15625 42.390625 26.484375 42.890625 
Q 25.828125 43.40625 25.453125 44.0625 
Q 25.09375 44.734375 25.09375 45.65625 
Q 25.09375 46.4375 25.4375 47.671875 
Q 25.78125 48.921875 26.34375 50.3125 
Q 26.90625 51.703125 27.578125 53.09375 
Q 28.265625 54.5 28.953125 55.5625 
Q 29.25 55.671875 30.03125 55.671875 
Q 30.421875 55.671875 30.734375 55.609375 
Q 31.0625 55.5625 31.203125 55.515625 
Q 31.34375 54.6875 31.515625 54.09375 
Q 31.6875 53.515625 32.25 52.953125 
Q 32.8125 52.390625 33.890625 51.796875 
Q 34.96875 51.21875 36.921875 50.4375 
Q 39.109375 49.609375 40.125 48.890625 
Q 41.15625 48.1875 41.21875 47.078125 
Q 41.21875 45.125 40.53125 42.40625 
Q 39.84375 39.703125 38.640625 36.515625 
Q 37.453125 33.34375 35.78125 29.828125 
Q 34.125 26.3125 32.21875 22.765625 
Q 30.328125 19.234375 28.203125 15.84375 
Q 26.078125 12.453125 23.921875 9.515625 
Q 26.421875 9.859375 29.4375 10.421875 
Q 32.46875 10.984375 35.421875 11.6875 
Q 38.375 12.40625 40.90625 13.203125 
Q 43.453125 14.015625 45.015625 14.75 
Q 46.625 15.53125 48.234375 17.40625 
Q 49.859375 19.28125 51.296875 21.671875 
Q 52.734375 24.078125 53.96875 26.6875 
Q 55.21875 29.296875 56.125 31.59375 
Q 57.03125 33.890625 57.546875 35.5625 
Q 58.0625 37.25 58.0625 37.75 
Q 58.0625 38.578125 57.328125 39.234375 
Q 56.59375 39.890625 54.390625 40.71875 
Q 53.265625 41.109375 52.28125 41.5 
Q 51.3125 41.890625 50.578125 42.40625 
Q 49.859375 42.921875 49.4375 43.59375 
Q 49.03125 44.28125 49.03125 45.265625 
Q 49.03125 46.34375 49.34375 47.65625 
Q 49.65625 48.96875 50.171875 50.328125 
Q 50.6875 51.703125 51.265625 53.015625 
Q 51.859375 54.34375 52.390625 55.421875 
Q 52.546875 55.46875 52.828125 55.515625 
Q 53.125 55.5625 53.46875 55.5625 
Q 53.8125 55.5625 54.15625 55.53125 
Q 54.5 55.515625 54.640625 55.46875 
Q 54.828125 54.390625 55.1875 53.75 
Q 55.5625 53.125 56.25 52.640625 
Q 56.9375 52.15625 57.984375 51.765625 
Q 59.03125 51.375 60.59375 50.828125 
Q 63.09375 49.953125 64.375 48.953125 
Q 65.671875 47.953125 65.671875 46.625 
Q 65.671875 44.96875 64.734375 41.5 
Q 63.8125 38.03125 62.25 33.6875 
Q 60.6875 29.34375 58.640625 24.625 
Q 56.59375 19.921875 54.390625 15.8125 
Q 52.203125 11.71875 49.953125 8.734375 
Q 47.703125 5.765625 45.75 4.828125 
Q 44 4 41.546875 3.1875 
Q 39.109375 2.390625 36.34375 1.6875 
Q 33.59375 0.984375 30.765625 0.359375 
Q 27.9375 -0.25 25.4375 -0.6875 
Q 22.953125 -1.125 21 -1.359375 
Q 19.046875 -1.609375 18.0625 -1.609375 
Q 17.4375 -1.515625 16.75 -1.3125 
Q 16.0625 -1.125 15.578125 -0.828125 
Q 13.875 4.390625 12.640625 8.765625 
Q 11.421875 13.140625 10.640625 16.875 
Q 9.859375 20.609375 9.484375 23.75 
Q 9.125 26.90625 9.125 29.6875 
Q 9.125 31.9375 9.59375 33.9375 
Q 10.0625 35.9375 10.75 37.984375 
Q 10.9375 38.53125 10.890625 38.890625 
Q 10.84375 39.265625 10.5 39.59375 
Q 10.15625 39.9375 9.46875 40.328125 
Q 8.796875 40.71875 7.765625 41.3125 
Q 6.546875 41.9375 5.515625 42.5 
Q 4.5 43.0625 3.765625 43.640625 
Q 3.03125 44.234375 2.609375 44.921875 
Q 2.203125 45.609375 2.203125 46.484375 
Q 2.203125 47.265625 2.640625 48.4375 
Q 3.078125 49.609375 3.75 50.921875 
Q 4.4375 52.25 5.25 53.5625 
Q 6.0625 54.890625 6.84375 55.90625 
Q 6.9375 55.953125 7.25 55.96875 
Q 7.5625 56 7.921875 55.953125 
Q 8.296875 55.90625 8.609375 55.859375 
Q 8.9375 55.8125 9.078125 55.71875 
Q 9.1875 54.9375 9.375 54.421875 
Q 9.578125 53.90625 10.125 53.4375 
Q 10.6875 52.984375 11.765625 52.421875 
Q 12.84375 51.859375 14.75 50.984375 
Q 18.953125 48.96875 18.953125 47.171875 
Q 18.953125 46.390625 18.484375 45.28125 
Q 18.015625 44.1875 17.328125 42.78125 
Q 16.890625 41.796875 16.359375 40.578125 
Q 15.828125 39.359375 15.375 37.96875 
Q 14.9375 36.578125 14.625 35.078125 
Q 14.3125 33.59375 14.3125 32.03125 
Q 14.3125 29.828125 14.875 27.28125 
Q 15.4375 24.75 16.28125 22.0625 
Q 17.140625 19.390625 18.15625 16.703125 
Q 19.1875 14.015625 20.171875 11.53125 
Q 21.78125 13.671875 23.390625 16.15625 
Q 25 18.65625 26.46875 21.234375 
Q 27.9375 23.828125 29.171875 26.359375 
Q 30.421875 28.90625 31.34375 31.171875 
Q 32.28125 33.453125 32.8125 35.328125 
Q 33.34375 37.203125 33.34375 38.375 
z
" id="SBLBibLit-1513"/>
     </defs>
     <use xlink:href="#SBLBibLit-1489"/>
     <use x="51.367188" xlink:href="#SBLBibLit-1499"/>
     <use x="100.78125" xlink:href="#SBLBibLit-1473"/>
     <use x="100.78125" xlink:href="#SBLBibLit-1513"/>
    </g>
   </g>
   <g id="text_17">
    <!-- אמט -->
    <g style="fill:#808080;" transform="translate(247.6869 305.028236)scale(0.15 -0.15)">
     <defs>
      <path d="M 19.484375 -0.34375 
Q 18.359375 0.484375 17.3125 0.953125 
Q 16.265625 1.421875 14.796875 1.421875 
Q 13.234375 1.421875 11.15625 0.859375 
Q 9.078125 0.296875 5.859375 -0.828125 
Q 5.515625 -0.484375 5.140625 0.09375 
Q 4.78125 0.6875 4.640625 1.3125 
Q 6.15625 2.484375 8.03125 3.796875 
Q 9.90625 5.125 12.109375 6.5 
Q 10.40625 8.34375 9.234375 9.90625 
Q 8.0625 11.46875 7.328125 12.8125 
Q 6.59375 14.15625 6.265625 15.421875 
Q 5.953125 16.703125 5.953125 17.96875 
Q 5.953125 19.53125 6.421875 21.21875 
Q 6.890625 22.90625 7.890625 24.875 
Q 8.890625 26.859375 10.453125 29.171875 
Q 12.015625 31.5 14.203125 34.375 
Q 12.84375 35.84375 11.640625 37.0625 
Q 10.453125 38.28125 9.546875 39.40625 
Q 8.640625 40.53125 8.125 41.578125 
Q 7.625 42.625 7.625 43.796875 
Q 7.625 45.21875 8.25 46.53125 
Q 9.375 48.875 10.609375 51 
Q 11.859375 53.125 13.140625 55.328125 
Q 13.671875 55.46875 14.359375 55.390625 
Q 15.046875 55.328125 15.578125 55.078125 
Q 15.53125 54.6875 15.53125 54.25 
Q 15.53125 53.8125 15.53125 53.46875 
Q 15.53125 52.4375 15.671875 51.484375 
Q 15.828125 50.53125 16.21875 49.546875 
Q 16.609375 48.578125 17.28125 47.5 
Q 17.96875 46.4375 19.09375 45.171875 
Q 21.140625 42.96875 23.453125 40.640625 
Q 25.78125 38.328125 28.171875 36.0625 
Q 30.5625 33.796875 32.953125 31.609375 
Q 35.359375 29.4375 37.546875 27.4375 
Q 39.109375 29.109375 40.203125 30.390625 
Q 41.3125 31.6875 42.015625 32.65625 
Q 42.71875 33.640625 43.03125 34.421875 
Q 43.359375 35.203125 43.359375 35.9375 
Q 43.359375 37.0625 42.59375 38.0625 
Q 41.84375 39.0625 40.046875 40.625 
Q 38.578125 41.890625 37.640625 42.765625 
Q 36.71875 43.65625 36.203125 44.359375 
Q 35.6875 45.0625 35.515625 45.640625 
Q 35.359375 46.234375 35.359375 46.921875 
Q 35.359375 48.09375 36.796875 50.21875 
Q 38.234375 52.34375 41.75 55.5625 
Q 42.140625 55.671875 42.765625 55.46875 
Q 43.40625 55.28125 43.890625 55.03125 
Q 43.84375 54.546875 43.8125 54.203125 
Q 43.796875 53.859375 43.796875 53.5625 
Q 43.796875 53.03125 43.9375 52.59375 
Q 44.09375 52.15625 44.53125 51.640625 
Q 44.96875 51.125 45.75 50.390625 
Q 46.53125 49.65625 47.796875 48.53125 
Q 50.640625 46 51.75 44.5 
Q 52.875 43.015625 52.875 41.796875 
Q 52.875 40.875 52.453125 39.5 
Q 52.046875 38.140625 50.734375 36.109375 
Q 49.421875 34.078125 47 31.25 
Q 44.578125 28.421875 40.578125 24.5625 
Q 42.671875 22.65625 44.15625 21.265625 
Q 45.65625 19.875 46.71875 18.84375 
Q 47.796875 17.828125 48.546875 17.09375 
Q 49.3125 16.359375 49.953125 15.765625 
Q 51.859375 14.015625 52.875 12.59375 
Q 53.90625 11.1875 53.90625 10.0625 
Q 53.90625 9.1875 53.515625 8.25 
Q 52.546875 6 51.65625 3.84375 
Q 50.78125 1.703125 49.859375 -0.6875 
Q 48.640625 -0.78125 47.703125 -0.53125 
Q 46.96875 1.421875 45.96875 3.078125 
Q 44.96875 4.734375 43.8125 6.203125 
Q 42.671875 7.671875 41.40625 8.984375 
Q 40.140625 10.296875 38.875 11.578125 
Q 36.28125 14.109375 33.28125 16.9375 
Q 30.28125 19.78125 27.34375 22.453125 
Q 24.421875 25.140625 21.796875 27.484375 
Q 19.1875 29.828125 17.328125 31.453125 
Q 15.1875 28.609375 14.46875 26.578125 
Q 13.765625 24.5625 13.765625 22.75 
Q 13.765625 21.296875 14.421875 19.78125 
Q 15.09375 18.265625 16.53125 16.453125 
Q 17.96875 14.65625 20.265625 12.453125 
Q 22.5625 10.25 25.875 7.328125 
Q 25.984375 7.078125 25.875 6.84375 
z
" id="SBLBibLit-1488"/>
      <path d="M 5.609375 -0.984375 
L 5.609375 0.640625 
Q 5.609375 3.90625 5.828125 7.171875 
Q 6.0625 10.453125 6.390625 13.46875 
Q 6.734375 16.5 7.140625 19.203125 
Q 7.5625 21.921875 7.984375 24.046875 
Q 8.40625 26.171875 8.734375 27.609375 
Q 9.078125 29.046875 9.28125 29.59375 
Q 10.0625 31.640625 11.328125 33.515625 
Q 12.59375 35.40625 13.875 37.25 
Q 14.40625 38.09375 14.40625 38.8125 
Q 14.40625 39.5 13.890625 40.109375 
Q 13.375 40.71875 12.109375 41.453125 
Q 9.578125 42.828125 8.109375 43.96875 
Q 6.640625 45.125 6.640625 46.734375 
Q 6.640625 47.46875 7.171875 48.65625 
Q 7.71875 49.859375 8.46875 51.171875 
Q 9.234375 52.484375 10.125 53.78125 
Q 11.03125 55.078125 11.765625 55.953125 
Q 12.109375 56.109375 12.671875 56 
Q 13.234375 55.90625 13.671875 55.71875 
Q 13.71875 54.59375 13.9375 53.875 
Q 14.15625 53.171875 14.6875 52.578125 
Q 15.234375 52 16.140625 51.4375 
Q 17.046875 50.875 18.5 50.046875 
Q 20.0625 49.125 21.0625 48.234375 
Q 22.078125 47.359375 22.359375 46.484375 
Q 23.828125 47.703125 25.0625 48.796875 
Q 26.3125 49.90625 27.4375 50.953125 
Q 28.5625 52 29.578125 53.015625 
Q 30.609375 54.046875 31.6875 55.171875 
Q 32.234375 55.28125 32.640625 55.34375 
Q 33.0625 55.421875 33.59375 55.328125 
Q 39.796875 52.25 43.703125 50.25 
Q 47.609375 48.25 48.53125 47.171875 
Q 49.5625 46 50.3125 43.28125 
Q 51.078125 40.578125 51.609375 36.9375 
Q 52.15625 33.296875 52.421875 29.015625 
Q 52.6875 24.75 52.6875 20.453125 
Q 52.6875 14.359375 51.921875 9.15625 
Q 51.171875 3.953125 50.203125 0.484375 
Q 50.09375 0.203125 49.796875 0.09375 
Q 49.515625 0 49.171875 0 
L 31.640625 0 
Q 29.78125 0 28.359375 -0.015625 
Q 26.953125 -0.046875 25.75 -0.1875 
Q 24.5625 -0.34375 23.484375 -0.65625 
Q 22.40625 -0.984375 21.296875 -1.515625 
Q 20.125 -1.375 19.53125 -0.53125 
Q 20.3125 1.125 21.359375 3.125 
Q 22.40625 5.125 23.78125 7.328125 
Q 24.21875 7.953125 24.828125 8.53125 
Q 25.4375 9.125 26.3125 9.515625 
Q 27.203125 9.90625 28.421875 10.15625 
Q 29.640625 10.40625 31.296875 10.40625 
L 41.609375 10.40625 
Q 43.65625 10.40625 44.75 11.1875 
Q 45.84375 11.96875 46.359375 13.328125 
Q 46.875 14.703125 46.96875 16.484375 
Q 47.078125 18.265625 47.078125 20.3125 
Q 47.078125 23.640625 46.734375 26.5625 
Q 46.390625 29.5 45.75 31.859375 
Q 45.125 34.234375 44.140625 35.96875 
Q 43.171875 37.703125 41.9375 38.578125 
Q 40.625 39.5 38.8125 40.46875 
Q 37.015625 41.453125 35.28125 42.234375 
Q 33.546875 43.015625 32.078125 43.53125 
Q 30.609375 44.046875 29.984375 44.046875 
Q 28.265625 44.046875 26.671875 43.4375 
Q 25.09375 42.828125 23.65625 41.84375 
Q 22.21875 40.875 21.015625 39.640625 
Q 19.828125 38.421875 18.890625 37.15625 
Q 17.484375 35.203125 16.625 33.34375 
Q 15.765625 31.5 15.296875 28.78125 
Q 14.84375 26.078125 14.59375 21.953125 
Q 14.359375 17.828125 14.15625 11.328125 
Q 14.109375 10.40625 14.03125 9.5625 
Q 13.96875 8.734375 13.578125 8.15625 
Q 12.890625 7.03125 12.125 5.78125 
Q 11.375 4.546875 10.671875 3.34375 
Q 9.96875 2.15625 9.34375 1.03125 
Q 8.734375 -0.09375 8.296875 -0.984375 
Q 6.9375 -1.125 5.609375 -0.984375 
z
" id="SBLBibLit-1502"/>
      <path d="M 23.6875 35.984375 
Q 24.03125 37.25 24.578125 39.15625 
Q 25.140625 41.0625 25.796875 43.0625 
Q 26.46875 45.0625 27.125 46.96875 
Q 27.78125 48.875 28.328125 50.140625 
Q 29.109375 51.3125 30.203125 52.125 
Q 31.296875 52.9375 32.484375 53.46875 
Q 33.6875 54 34.90625 54.25 
Q 36.140625 54.5 37.25 54.5 
Q 40.09375 54.5 42.328125 53.5625 
Q 44.578125 52.640625 46.3125 51.078125 
Q 48.046875 49.515625 49.234375 47.390625 
Q 50.4375 45.265625 51.21875 42.890625 
Q 52 40.53125 52.34375 38.015625 
Q 52.6875 35.5 52.6875 33.109375 
Q 52.6875 30.671875 52.34375 27.859375 
Q 52 25.046875 51.3125 22.1875 
Q 50.640625 19.34375 49.5625 16.546875 
Q 48.484375 13.765625 47.0625 11.375 
Q 45.65625 8.984375 43.828125 7.078125 
Q 42 5.171875 39.796875 4.109375 
Q 37.9375 3.21875 35.640625 2.4375 
Q 33.34375 1.65625 30.796875 0.96875 
Q 28.265625 0.296875 25.578125 -0.34375 
Q 22.90625 -0.984375 20.3125 -1.5625 
Q 19.34375 -1.421875 18.65625 -1.203125 
Q 17.96875 -0.984375 17.234375 -0.484375 
Q 15.234375 2.546875 13.578125 6.515625 
Q 11.921875 10.5 10.6875 14.53125 
Q 9.46875 18.5625 8.8125 22.09375 
Q 8.15625 25.640625 8.25 27.78125 
Q 8.25 28.90625 8.515625 30.25 
Q 8.796875 31.59375 9.1875 32.9375 
Q 9.578125 34.28125 10.015625 35.546875 
Q 10.453125 36.8125 10.796875 37.796875 
Q 10.984375 38.1875 10.984375 38.625 
Q 10.984375 39.203125 10.375 39.640625 
Q 9.765625 40.09375 8.203125 40.96875 
Q 6.984375 41.65625 5.953125 42.234375 
Q 4.9375 42.828125 4.203125 43.40625 
Q 3.46875 44 3.078125 44.671875 
Q 2.6875 45.359375 2.734375 46.234375 
Q 2.734375 47.015625 3.1875 48.21875 
Q 3.65625 49.421875 4.390625 50.734375 
Q 5.125 52.046875 5.984375 53.34375 
Q 6.84375 54.640625 7.625 55.671875 
Q 8.015625 55.765625 8.59375 55.765625 
Q 8.9375 55.765625 9.21875 55.734375 
Q 9.515625 55.71875 9.671875 55.609375 
Q 9.765625 54.828125 9.953125 54.296875 
Q 10.15625 53.765625 10.734375 53.25 
Q 11.328125 52.734375 12.421875 52.125 
Q 13.53125 51.515625 15.4375 50.59375 
Q 17.53125 49.5625 18.65625 48.5625 
Q 19.78125 47.5625 19.734375 46.578125 
Q 19.734375 45.796875 19.21875 44.703125 
Q 18.703125 43.609375 18.015625 42.234375 
Q 17.53125 41.265625 16.875 39.921875 
Q 16.21875 38.578125 15.625 37.078125 
Q 15.046875 35.59375 14.625 33.984375 
Q 14.203125 32.375 14.203125 30.8125 
Q 14.203125 29.4375 14.59375 27.5625 
Q 14.984375 25.6875 15.625 23.5625 
Q 16.265625 21.4375 17.09375 19.265625 
Q 17.921875 17.09375 18.796875 15.1875 
Q 19.671875 13.28125 20.546875 11.78125 
Q 21.4375 10.296875 22.171875 9.578125 
Q 24.125 9.90625 26.828125 10.46875 
Q 29.546875 11.03125 32.25 11.765625 
Q 34.96875 12.5 37.3125 13.328125 
Q 39.65625 14.15625 40.828125 15.09375 
Q 43.890625 17.578125 45.53125 21.4375 
Q 47.171875 25.296875 47.171875 29.4375 
Q 47.171875 32.171875 46.4375 34.6875 
Q 45.703125 37.203125 44.203125 39.109375 
Q 42.71875 41.015625 40.5 42.15625 
Q 38.28125 43.3125 35.359375 43.3125 
Q 34.328125 43.3125 33.078125 42.984375 
Q 31.84375 42.671875 30.59375 41.765625 
Q 29.34375 40.875 28.171875 39.25 
Q 27 37.640625 26.125 35.109375 
Q 25.4375 35.25 24.828125 35.4375 
Q 24.21875 35.640625 23.6875 35.984375 
z
" id="SBLBibLit-1496"/>
     </defs>
     <use xlink:href="#SBLBibLit-1488"/>
     <use x="57.568359" xlink:href="#SBLBibLit-1502"/>
     <use x="115.136719" xlink:href="#SBLBibLit-1496"/>
    </g>
   </g>
   <g id="text_18">
    <!-- רמׁש -->
    <g style="fill:#808080;" transform="translate(246.7339 295.998697)scale(0.15 -0.15)">
     <defs>
      <path d="M 6.296875 55.515625 
Q 6.9375 54.109375 7.640625 53.296875 
Q 8.34375 52.484375 9.265625 52.0625 
Q 10.203125 51.65625 11.421875 51.53125 
Q 12.640625 51.421875 14.3125 51.421875 
L 28.765625 51.421875 
Q 31.84375 51.421875 34.421875 50.78125 
Q 37.015625 50.140625 38.890625 48.671875 
Q 40.765625 47.21875 41.796875 44.875 
Q 42.828125 42.53125 42.828125 39.109375 
Q 42.828125 37.703125 42.671875 36.234375 
Q 42.578125 35.109375 42.5 33.765625 
Q 42.4375 32.421875 42.4375 30.375 
Q 42.4375 26.078125 42.9375 21.890625 
Q 43.453125 17.71875 44.046875 13.765625 
Q 44.34375 11.71875 44.65625 9.953125 
Q 44.96875 8.203125 44.96875 7.234375 
Q 44.96875 6.296875 44.765625 5.8125 
Q 44.578125 5.328125 44.09375 4.734375 
Q 43.015625 3.421875 41.890625 1.875 
Q 40.765625 0.34375 39.890625 -0.984375 
Q 38.53125 -1.125 37.203125 -0.984375 
Q 37.109375 -0.046875 37.015625 1.703125 
Q 36.921875 3.46875 36.8125 5.484375 
Q 36.71875 7.515625 36.671875 9.515625 
Q 36.625 11.53125 36.625 12.984375 
Q 36.625 17.578125 36.671875 20.4375 
Q 36.71875 23.296875 36.78125 25.21875 
Q 36.859375 27.15625 36.953125 28.5625 
Q 37.0625 29.984375 37.109375 31.734375 
Q 37.203125 35.984375 34.953125 38.25 
Q 32.71875 40.53125 27.546875 40.53125 
L 10.5 40.53125 
Q 8.734375 40.53125 7.09375 40.640625 
Q 5.46875 40.765625 4.21875 41.25 
Q 2.984375 41.75 2.21875 42.75 
Q 1.46875 43.75 1.46875 45.453125 
Q 1.46875 45.90625 1.65625 46.84375 
Q 1.859375 47.796875 2.203125 49.09375 
Q 2.546875 50.390625 3.03125 51.953125 
Q 3.515625 53.515625 4.109375 55.125 
Q 4.59375 55.375 5.171875 55.46875 
Q 5.765625 55.5625 6.296875 55.515625 
z
" id="SBLBibLit-1512"/>
     </defs>
     <use xlink:href="#SBLBibLit-1512"/>
     <use x="48.388672" xlink:href="#SBLBibLit-1502"/>
     <use x="105.957031" xlink:href="#SBLBibLit-1473"/>
     <use x="105.957031" xlink:href="#SBLBibLit-1513"/>
    </g>
   </g>
   <g id="text_19">
    <!-- ןיל -->
    <g style="fill:#808080;" transform="translate(239.640424 294.561889)scale(0.15 -0.15)">
     <defs>
      <path d="M 11.625 -19.234375 
Q 10.25 -19.390625 8.9375 -19.234375 
Q 8.796875 -16.890625 8.59375 -13.9375 
Q 8.40625 -10.984375 8.25 -7.6875 
Q 8.109375 -4.390625 8 -0.953125 
Q 7.90625 2.484375 7.90625 5.765625 
Q 7.90625 10.40625 7.953125 13.71875 
Q 8.015625 17.046875 8.171875 19.5625 
Q 8.34375 22.078125 8.703125 24.03125 
Q 9.078125 25.984375 9.65625 27.859375 
Q 10.25 29.734375 11.109375 31.8125 
Q 11.96875 33.890625 13.1875 36.671875 
Q 13.375 37.109375 13.390625 37.296875 
Q 13.421875 37.5 13.421875 37.703125 
Q 13.421875 38.421875 12.6875 38.890625 
Q 11.96875 39.359375 9.71875 39.984375 
Q 7.953125 40.484375 6.53125 40.9375 
Q 5.125 41.40625 4.140625 41.984375 
Q 3.171875 42.578125 2.65625 43.359375 
Q 2.15625 44.140625 2.15625 45.3125 
Q 2.15625 46 2.46875 47.28125 
Q 2.78125 48.578125 3.296875 50.0625 
Q 3.8125 51.5625 4.4375 53.03125 
Q 5.078125 54.5 5.671875 55.515625 
Q 6.0625 55.765625 6.71875 55.78125 
Q 7.375 55.8125 7.90625 55.71875 
Q 8.25 54.5 8.65625 53.765625 
Q 9.078125 53.03125 9.8125 52.53125 
Q 10.546875 52.046875 11.734375 51.65625 
Q 12.9375 51.265625 14.796875 50.734375 
Q 16.75 50.140625 18.046875 49.578125 
Q 19.34375 49.03125 20.09375 48.40625 
Q 20.84375 47.796875 21.140625 47.140625 
Q 21.4375 46.484375 21.4375 45.75 
Q 21.4375 44.34375 20.75 42.453125 
Q 20.0625 40.578125 18.953125 38.09375 
Q 17.671875 35.40625 16.765625 33.125 
Q 15.875 30.859375 15.28125 28.6875 
Q 14.703125 26.515625 14.421875 24.296875 
Q 14.15625 22.078125 14.15625 19.53125 
Q 14.15625 17.046875 14.34375 13.8125 
Q 14.546875 10.59375 14.890625 6.859375 
Q 15.234375 3.125 15.671875 -1 
Q 16.109375 -5.125 16.609375 -9.375 
Q 16.703125 -9.96875 16.765625 -10.59375 
Q 16.84375 -11.234375 16.84375 -11.671875 
Q 16.84375 -12.59375 16.640625 -13.109375 
Q 16.453125 -13.625 15.96875 -14.15625 
Q 14.84375 -15.4375 13.71875 -16.703125 
Q 12.59375 -17.96875 11.625 -19.234375 
z
" id="SBLBibLit-1503"/>
      <path d="M 7.125 56.296875 
Q 7.328125 54.984375 7.765625 54.15625 
Q 8.203125 53.328125 9.046875 52.734375 
Q 9.90625 52.15625 11.21875 51.65625 
Q 12.546875 51.171875 14.453125 50.59375 
Q 16.3125 50 17.71875 49.484375 
Q 19.140625 48.96875 20.109375 48.3125 
Q 21.09375 47.65625 21.578125 46.796875 
Q 22.078125 45.953125 22.078125 44.734375 
Q 22.078125 41.796875 20.53125 36.328125 
Q 19 30.859375 15.671875 22.953125 
Q 13.8125 23.34375 12.359375 24.125 
Q 12.84375 25.875 13.234375 27.625 
Q 13.625 29.390625 13.90625 30.953125 
Q 14.203125 32.515625 14.34375 33.8125 
Q 14.5 35.109375 14.5 35.9375 
Q 14.5 36.71875 14.28125 37.28125 
Q 14.0625 37.84375 13.578125 38.28125 
Q 13.09375 38.71875 12.28125 39.109375 
Q 11.46875 39.5 10.296875 39.890625 
Q 8.25 40.578125 6.640625 41.140625 
Q 5.03125 41.703125 3.921875 42.359375 
Q 2.828125 43.015625 2.265625 43.875 
Q 1.703125 44.734375 1.703125 46 
Q 1.703125 46.828125 2 48.125 
Q 2.296875 49.421875 2.75 50.828125 
Q 3.21875 52.25 3.78125 53.609375 
Q 4.34375 54.984375 4.890625 56 
Q 5.28125 56.25 5.9375 56.265625 
Q 6.59375 56.296875 7.125 56.296875 
z
" id="SBLBibLit-1497"/>
      <path d="M 20.0625 11.375 
Q 25.203125 13.875 28.328125 16.765625 
Q 31.453125 19.671875 33.171875 22.65625 
Q 34.90625 25.640625 35.484375 28.484375 
Q 36.078125 31.34375 36.078125 33.796875 
Q 36.078125 37.59375 34.390625 39.0625 
Q 32.71875 40.53125 29.5 40.53125 
L 11.96875 40.53125 
Q 9.234375 40.53125 7.390625 41.0625 
Q 5.5625 41.609375 4.46875 42.625 
Q 3.375 43.65625 2.90625 45.109375 
Q 2.4375 46.578125 2.4375 48.4375 
Q 2.4375 52.203125 2.609375 54.515625 
Q 2.78125 56.84375 3.296875 58.515625 
Q 3.8125 60.203125 4.703125 61.6875 
Q 5.609375 63.1875 7.125 65.234375 
Q 7.375 65.53125 7.421875 65.703125 
Q 7.46875 65.875 7.46875 65.96875 
Q 7.46875 66.453125 6.90625 66.921875 
Q 6.34375 67.390625 5.28125 68.21875 
Q 3.421875 69.671875 2.203125 70.9375 
Q 0.984375 72.21875 0.984375 73.53125 
Q 0.984375 74.265625 1.515625 75.234375 
Q 2.046875 76.21875 2.90625 77.3125 
Q 3.765625 78.421875 4.859375 79.59375 
Q 5.953125 80.765625 7.078125 81.890625 
Q 7.515625 81.890625 8.09375 81.6875 
Q 8.6875 81.5 9.078125 81.25 
Q 8.890625 80.328125 8.9375 79.71875 
Q 8.984375 79.109375 9.34375 78.546875 
Q 9.71875 77.984375 10.46875 77.375 
Q 11.234375 76.765625 12.5 75.78125 
Q 14.546875 74.21875 15.375 73.28125 
Q 16.21875 72.359375 16.21875 71.4375 
Q 16.21875 70.703125 15.765625 69.84375 
Q 15.328125 69 14.640625 68.109375 
Q 13.96875 67.234375 13.109375 66.296875 
Q 12.25 65.375 11.421875 64.5 
Q 10.59375 63.625 10.109375 62.8125 
Q 9.625 62.015625 9.328125 61.109375 
Q 9.03125 60.203125 8.9375 59.109375 
Q 8.84375 58.015625 8.84375 56.59375 
Q 8.84375 55.03125 9.03125 54.03125 
Q 9.234375 53.03125 9.84375 52.4375 
Q 10.453125 51.859375 11.59375 51.640625 
Q 12.75 51.421875 14.59375 51.421875 
L 31.34375 51.421875 
Q 34.375 51.421875 36.515625 50.484375 
Q 38.671875 49.5625 40.03125 47.96875 
Q 41.40625 46.390625 42.03125 44.3125 
Q 42.671875 42.234375 42.671875 39.890625 
Q 42.671875 35.359375 41.1875 29.953125 
Q 39.703125 24.5625 36.765625 19.09375 
Q 33.84375 13.625 29.5625 8.46875 
Q 25.296875 3.328125 19.734375 -0.78125 
Q 18.609375 -0.640625 17.71875 -0.25 
Q 18.171875 2.546875 18.78125 5.5625 
Q 19.390625 8.59375 20.0625 11.375 
z
" id="SBLBibLit-1500"/>
     </defs>
     <use xlink:href="#SBLBibLit-1503"/>
     <use x="23.876953" xlink:href="#SBLBibLit-1497"/>
     <use x="48.876953" xlink:href="#SBLBibLit-1500"/>
    </g>
   </g>
   <g id="text_20">
    <!-- הוצ -->
    <g style="fill:#808080;" transform="translate(217.783705 252.14059)scale(0.15 -0.15)">
     <defs>
      <path d="M 16.890625 27.546875 
Q 16.546875 26.3125 16.296875 25.390625 
Q 16.0625 24.46875 15.90625 23.625 
Q 15.765625 22.796875 15.6875 21.96875 
Q 15.625 21.140625 15.578125 20.171875 
L 15.1875 5.125 
Q 15.1875 4.6875 15.109375 4.296875 
Q 15.046875 3.90625 14.703125 3.65625 
Q 13.921875 3.078125 13.078125 2.421875 
Q 12.25 1.765625 11.5 1.140625 
Q 10.75 0.53125 10.078125 -0.03125 
Q 9.421875 -0.59375 8.984375 -0.984375 
Q 7.765625 -1.125 6.59375 -0.984375 
L 8.109375 17.578125 
Q 8.296875 20.0625 9.09375 22.140625 
Q 9.90625 24.21875 10.984375 25.34375 
Q 11.53125 25.921875 12.53125 26.78125 
Q 13.53125 27.640625 14.65625 28.328125 
Q 15.140625 28.21875 15.8125 28.015625 
Q 16.5 27.828125 16.890625 27.546875 
z
M 10.984375 55.515625 
Q 11.625 54.109375 12.328125 53.296875 
Q 13.03125 52.484375 13.953125 52.0625 
Q 14.890625 51.65625 16.109375 51.53125 
Q 17.328125 51.421875 19 51.421875 
L 39.0625 51.421875 
Q 42.140625 51.421875 44.21875 50.96875 
Q 46.296875 50.53125 47.53125 49.671875 
Q 48.78125 48.828125 49.296875 47.53125 
Q 49.8125 46.234375 49.8125 44.53125 
Q 49.8125 42.875 49.296875 40.890625 
Q 48.78125 38.921875 48.1875 36.578125 
Q 48.1875 29.34375 48.828125 23.703125 
Q 49.46875 18.0625 50.046875 13.765625 
Q 50.34375 11.71875 50.578125 10 
Q 50.828125 8.296875 50.828125 7.328125 
Q 50.828125 6.390625 50.625 5.859375 
Q 50.4375 5.328125 50 4.734375 
Q 48.96875 3.328125 48.046875 1.90625 
Q 47.125 0.484375 46.296875 -0.984375 
Q 44.921875 -1.125 43.609375 -0.984375 
Q 43.453125 -0.046875 43.28125 1.703125 
Q 43.109375 3.46875 42.96875 5.484375 
Q 42.828125 7.515625 42.71875 9.515625 
Q 42.625 11.53125 42.625 12.984375 
Q 42.625 17.234375 42.640625 20.3125 
Q 42.671875 23.390625 42.71875 25.5625 
Q 42.78125 27.734375 42.828125 29.203125 
Q 42.875 30.671875 42.921875 31.734375 
Q 42.96875 33.0625 42.984375 34.078125 
Q 43.015625 35.109375 43.015625 36.421875 
Q 43.015625 37.59375 42.859375 38.375 
Q 42.71875 39.15625 42.203125 39.640625 
Q 41.703125 40.140625 40.671875 40.328125 
Q 39.65625 40.53125 37.9375 40.53125 
L 15.484375 40.53125 
Q 13.71875 40.53125 12.0625 40.671875 
Q 10.40625 40.828125 9.109375 41.359375 
Q 7.8125 41.890625 7.03125 42.921875 
Q 6.25 43.953125 6.25 45.65625 
Q 6.25 46.09375 6.421875 47.015625 
Q 6.59375 47.953125 6.9375 49.1875 
Q 7.28125 50.4375 7.734375 51.96875 
Q 8.203125 53.515625 8.796875 55.125 
Q 9.28125 55.375 9.859375 55.46875 
Q 10.453125 55.5625 10.984375 55.515625 
z
" id="SBLBibLit-1492"/>
      <path d="M 14.890625 -0.984375 
Q 14.796875 0 14.6875 1.78125 
Q 14.59375 3.5625 14.5 5.59375 
Q 14.40625 7.625 14.359375 9.671875 
Q 14.3125 11.71875 14.3125 13.1875 
Q 14.3125 18.21875 14.453125 21.796875 
Q 14.59375 25.390625 14.78125 28.078125 
Q 14.984375 30.765625 15.125 32.8125 
Q 15.28125 34.859375 15.28125 36.8125 
Q 15.28125 37.546875 14.9375 38.015625 
Q 14.59375 38.484375 14 38.796875 
Q 13.421875 39.109375 12.671875 39.296875 
Q 11.921875 39.5 11.140625 39.75 
Q 9.234375 40.28125 7.6875 40.75 
Q 6.15625 41.21875 5.03125 41.828125 
Q 3.90625 42.4375 3.296875 43.265625 
Q 2.6875 44.09375 2.6875 45.3125 
Q 2.6875 46 3 47.28125 
Q 3.328125 48.578125 3.828125 50.0625 
Q 4.34375 51.5625 4.96875 53.03125 
Q 5.609375 54.5 6.203125 55.515625 
Q 6.59375 55.765625 7.25 55.78125 
Q 7.90625 55.8125 8.453125 55.71875 
Q 8.734375 54.546875 9.25 53.78125 
Q 9.765625 53.03125 10.640625 52.484375 
Q 11.53125 51.953125 12.796875 51.5625 
Q 14.0625 51.171875 15.921875 50.6875 
Q 17.578125 50.25 18.65625 49.859375 
Q 19.734375 49.46875 20.3125 49.046875 
Q 20.90625 48.640625 21.125 48.140625 
Q 21.34375 47.65625 21.34375 47.078125 
Q 21.34375 46.6875 21.1875 45.78125 
Q 21.046875 44.875 20.90625 43.84375 
Q 20.65625 42.1875 20.390625 39.8125 
Q 20.125 37.453125 20.125 33.796875 
Q 20.125 28.65625 20.578125 23.609375 
Q 21.046875 18.5625 21.734375 13.96875 
Q 22.015625 11.921875 22.265625 10.109375 
Q 22.515625 8.296875 22.515625 7.328125 
Q 22.515625 6.390625 22.3125 5.859375 
Q 22.125 5.328125 21.6875 4.734375 
Q 20.609375 3.328125 19.5 1.8125 
Q 18.40625 0.296875 17.578125 -0.984375 
Q 16.21875 -1.125 14.890625 -0.984375 
z
" id="SBLBibLit-1493"/>
      <path d="M 10.109375 55.671875 
Q 10.203125 54.984375 10.328125 54.375 
Q 10.453125 53.765625 10.9375 53.125 
Q 11.421875 52.484375 12.34375 51.796875 
Q 13.28125 51.125 14.984375 50.34375 
Q 17.484375 49.171875 18.71875 48.3125 
Q 19.96875 47.46875 19.96875 46.046875 
Q 19.96875 45.125 19.234375 43.484375 
Q 18.5 41.84375 17.671875 39.65625 
Q 17.140625 38.328125 16.921875 37.25 
Q 16.703125 36.1875 16.703125 35.0625 
Q 16.703125 33.890625 17.40625 32.5 
Q 18.109375 31.109375 19.359375 29.515625 
Q 20.609375 27.9375 22.28125 26.21875 
Q 23.96875 24.515625 25.875 22.75 
Q 27.734375 24.265625 29.515625 26.265625 
Q 31.296875 28.265625 32.65625 30.265625 
Q 34.03125 32.28125 34.859375 34.03125 
Q 35.6875 35.796875 35.6875 36.8125 
Q 35.6875 37.9375 35 38.765625 
Q 34.328125 39.59375 32.90625 40.71875 
Q 31.453125 41.890625 30.515625 42.671875 
Q 29.59375 43.453125 29.046875 44.109375 
Q 28.515625 44.78125 28.296875 45.390625 
Q 28.078125 46 28.078125 46.828125 
Q 28.078125 47.703125 28.703125 48.875 
Q 29.34375 50.046875 30.265625 51.296875 
Q 31.203125 52.546875 32.265625 53.765625 
Q 33.34375 54.984375 34.234375 55.953125 
Q 34.578125 56.0625 35.1875 55.9375 
Q 35.796875 55.8125 36.28125 55.609375 
Q 36.140625 54.546875 36.234375 53.78125 
Q 36.328125 53.03125 36.8125 52.34375 
Q 37.3125 51.65625 38.25 50.84375 
Q 39.203125 50.046875 40.765625 48.875 
Q 43.265625 47.015625 44.484375 45.75 
Q 45.703125 44.484375 45.703125 42.921875 
Q 45.703125 41.9375 45.015625 40.34375 
Q 44.34375 38.765625 43.171875 36.78125 
Q 42 34.8125 40.40625 32.5625 
Q 38.8125 30.328125 37 28.046875 
Q 35.203125 25.78125 33.25 23.609375 
Q 31.296875 21.4375 29.390625 19.578125 
Q 31.25 17.921875 33.125 16.421875 
Q 35.015625 14.9375 36.6875 13.671875 
Q 38.375 12.40625 39.8125 11.40625 
Q 41.265625 10.40625 42.28125 9.71875 
Q 42.484375 9.578125 42.390625 9.328125 
Q 42.09375 8.546875 41.671875 7.375 
Q 41.265625 6.203125 40.8125 4.90625 
Q 40.375 3.609375 39.984375 2.34375 
Q 39.59375 1.078125 39.359375 0.09375 
Q 39.3125 -0.09375 39.15625 -0.171875 
Q 39.015625 -0.25 38.875 -0.25 
Q 36.671875 -0.25 33.640625 -0.1875 
Q 30.609375 -0.140625 27.4375 -0.109375 
Q 24.265625 -0.09375 21.265625 -0.046875 
Q 18.265625 0 16.015625 0 
L 13.1875 0 
Q 11.765625 0 10.671875 -0.046875 
Q 9.578125 -0.09375 8.625 -0.265625 
Q 7.671875 -0.4375 6.78125 -0.703125 
Q 5.90625 -0.984375 4.890625 -1.421875 
Q 4.34375 -1.3125 3.796875 -1.109375 
Q 3.265625 -0.921875 2.9375 -0.53125 
Q 3.421875 1.125 4.21875 3.03125 
Q 5.03125 4.9375 6.0625 7.125 
Q 6.640625 8.453125 8.21875 9.421875 
Q 9.8125 10.40625 12.75 10.40625 
Q 13.1875 10.40625 14.59375 10.375 
Q 16.015625 10.359375 17.875 10.328125 
Q 19.734375 10.296875 21.734375 10.25 
Q 23.734375 10.203125 25.296875 10.15625 
Q 25.640625 10.15625 26.296875 10.125 
Q 26.953125 10.109375 27.6875 10.0625 
Q 28.421875 10.015625 29.09375 9.953125 
Q 29.78125 9.90625 30.21875 9.859375 
Q 29.890625 10.15625 29.390625 10.546875 
Q 28.90625 10.9375 28.359375 11.375 
Q 27.828125 11.8125 27.34375 12.203125 
Q 26.859375 12.59375 26.515625 12.890625 
Q 22.46875 16.546875 19.609375 19.359375 
Q 16.75 22.171875 14.9375 24.40625 
Q 13.140625 26.65625 12.296875 28.484375 
Q 11.46875 30.328125 11.46875 32.078125 
Q 11.46875 33.5 11.59375 34.765625 
Q 11.71875 36.03125 12.109375 37.75 
Q 12.203125 38.28125 11.390625 38.796875 
Q 10.59375 39.3125 8.25 40.53125 
Q 6.59375 41.40625 5.5625 42.0625 
Q 4.546875 42.71875 3.953125 43.296875 
Q 3.375 43.890625 3.171875 44.5 
Q 2.984375 45.125 2.984375 45.84375 
Q 2.984375 46.625 3.4375 47.890625 
Q 3.90625 49.171875 4.640625 50.578125 
Q 5.375 52 6.21875 53.40625 
Q 7.078125 54.828125 7.859375 55.859375 
Q 7.953125 55.90625 8.265625 55.921875 
Q 8.59375 55.953125 8.953125 55.90625 
Q 9.328125 55.859375 9.640625 55.8125 
Q 9.96875 55.765625 10.109375 55.671875 
z
" id="SBLBibLit-1510"/>
     </defs>
     <use xlink:href="#SBLBibLit-1492"/>
     <use x="55.224609" xlink:href="#SBLBibLit-1493"/>
     <use x="81.591797" xlink:href="#SBLBibLit-1510"/>
    </g>
   </g>
   <g id="text_21">
    <!-- היח -->
    <g style="fill:#808080;" transform="translate(293.094497 316.467709)scale(0.15 -0.15)">
     <defs>
      <path d="M 10.546875 55.515625 
Q 11.1875 54.109375 11.890625 53.296875 
Q 12.59375 52.484375 13.515625 52.0625 
Q 14.453125 51.65625 15.671875 51.53125 
Q 16.890625 51.421875 18.5625 51.421875 
L 41.546875 51.421875 
Q 44.625 51.421875 46.703125 50.96875 
Q 48.78125 50.53125 50.015625 49.671875 
Q 51.265625 48.828125 51.78125 47.53125 
Q 52.296875 46.234375 52.296875 44.53125 
Q 52.296875 42.875 51.78125 40.890625 
Q 51.265625 38.921875 50.6875 36.578125 
Q 50.6875 29.34375 51.3125 23.703125 
Q 51.953125 18.0625 52.546875 13.765625 
Q 52.828125 11.71875 53.078125 10 
Q 53.328125 8.296875 53.328125 7.328125 
Q 53.328125 6.390625 53.125 5.859375 
Q 52.9375 5.328125 52.484375 4.734375 
Q 51.46875 3.328125 50.53125 1.90625 
Q 49.609375 0.484375 48.78125 -0.984375 
Q 47.40625 -1.125 46.09375 -0.984375 
Q 45.953125 -0.046875 45.78125 1.703125 
Q 45.609375 3.46875 45.453125 5.484375 
Q 45.3125 7.515625 45.21875 9.515625 
Q 45.125 11.53125 45.125 12.984375 
Q 45.125 17.234375 45.140625 20.3125 
Q 45.171875 23.390625 45.21875 25.5625 
Q 45.265625 27.734375 45.3125 29.203125 
Q 45.359375 30.671875 45.40625 31.734375 
Q 45.453125 33.0625 45.484375 34.078125 
Q 45.515625 35.109375 45.515625 36.421875 
Q 45.515625 37.59375 45.359375 38.375 
Q 45.21875 39.15625 44.703125 39.640625 
Q 44.1875 40.140625 43.15625 40.328125 
Q 42.140625 40.53125 40.4375 40.53125 
L 17.28125 40.53125 
Q 17.046875 36.71875 16.96875 32.875 
Q 16.890625 29.046875 16.890625 25.25 
Q 16.890625 20.21875 16.984375 15.234375 
Q 17.09375 10.25 17.1875 5.125 
Q 17.1875 4.6875 17.109375 4.296875 
Q 17.046875 3.90625 16.703125 3.65625 
Q 15.96875 3.078125 15.140625 2.421875 
Q 14.3125 1.765625 13.546875 1.140625 
Q 12.796875 0.53125 12.125 -0.03125 
Q 11.46875 -0.59375 11.03125 -0.984375 
Q 9.8125 -1.125 8.640625 -0.984375 
Q 9.125 9.515625 9.8125 19.890625 
Q 10.5 30.28125 12.15625 40.578125 
Q 10.75 40.671875 9.546875 40.890625 
Q 8.34375 41.109375 7.46875 41.625 
Q 6.59375 42.140625 6.09375 43.015625 
Q 5.609375 43.890625 5.609375 45.3125 
Q 5.609375 45.75 5.796875 46.71875 
Q 6 47.703125 6.359375 49.015625 
Q 6.734375 50.34375 7.25 51.921875 
Q 7.765625 53.515625 8.34375 55.125 
Q 8.84375 55.375 9.421875 55.46875 
Q 10.015625 55.5625 10.546875 55.515625 
z
" id="SBLBibLit-1495"/>
     </defs>
     <use xlink:href="#SBLBibLit-1492"/>
     <use x="55.224609" xlink:href="#SBLBibLit-1497"/>
     <use x="80.224609" xlink:href="#SBLBibLit-1495"/>
    </g>
   </g>
   <g id="text_22">
    <!-- ללח -->
    <g style="fill:#808080;" transform="translate(197.306307 291.051509)scale(0.15 -0.15)">
     <use xlink:href="#SBLBibLit-1500"/>
     <use x="44.873047" xlink:href="#SBLBibLit-1500"/>
     <use x="89.746094" xlink:href="#SBLBibLit-1495"/>
    </g>
   </g>
   <g id="text_23">
    <!-- ןתנ -->
    <g style="fill:#808080;" transform="translate(204.07083 282.805566)scale(0.15 -0.15)">
     <defs>
      <path d="M 40.71875 40.53125 
L 21.34375 40.53125 
Q 20.265625 38.09375 19.578125 36.203125 
Q 18.890625 34.328125 18.46875 32.8125 
Q 18.0625 31.296875 17.921875 30.03125 
Q 17.78125 28.765625 17.78125 27.546875 
Q 17.78125 26.03125 18.09375 24.1875 
Q 18.40625 22.359375 19.109375 20.140625 
Q 19.828125 17.921875 20.890625 15.203125 
Q 21.96875 12.5 23.4375 9.1875 
Q 23.484375 8.984375 23.4375 8.796875 
Q 23.046875 7.625 22.71875 6.5625 
Q 22.40625 5.515625 22.140625 4.515625 
Q 21.875 3.515625 21.625 2.484375 
Q 21.390625 1.46875 21.09375 0.25 
Q 21.046875 0.046875 20.890625 -0.015625 
Q 20.75 -0.09375 20.609375 -0.09375 
Q 19.28125 -0.046875 17.1875 0.078125 
Q 15.09375 0.203125 12.890625 0.203125 
Q 10.5 0.203125 8.390625 -0.0625 
Q 6.296875 -0.34375 5.515625 -1.171875 
Q 4.984375 -1.078125 4.4375 -0.875 
Q 3.90625 -0.6875 3.5625 -0.296875 
Q 4.4375 3.078125 6.390625 7.375 
Q 6.6875 8.0625 7.203125 8.59375 
Q 7.71875 9.125 8.59375 9.484375 
Q 9.46875 9.859375 10.8125 10.109375 
Q 12.15625 10.359375 14.0625 10.453125 
Q 13.09375 13.484375 12.53125 15.59375 
Q 11.96875 17.71875 11.671875 19.25 
Q 11.375 20.796875 11.296875 21.875 
Q 11.234375 22.953125 11.234375 23.875 
Q 11.234375 25.046875 11.46875 26.515625 
Q 11.71875 27.984375 12.28125 29.9375 
Q 12.84375 31.890625 13.8125 34.46875 
Q 14.796875 37.0625 16.265625 40.53125 
Q 14.75 40.578125 13.359375 40.796875 
Q 11.96875 41.015625 10.890625 41.578125 
Q 9.8125 42.140625 9.15625 43.109375 
Q 8.5 44.09375 8.5 45.65625 
Q 8.5 46.09375 8.671875 47.015625 
Q 8.84375 47.953125 9.171875 49.1875 
Q 9.515625 50.4375 9.984375 51.96875 
Q 10.453125 53.515625 11.03125 55.125 
Q 11.53125 55.375 12.109375 55.46875 
Q 12.703125 55.5625 13.234375 55.515625 
Q 13.875 54.109375 14.578125 53.296875 
Q 15.28125 52.484375 16.203125 52.0625 
Q 17.140625 51.65625 18.359375 51.53125 
Q 19.578125 51.421875 21.234375 51.421875 
L 41.9375 51.421875 
Q 44.625 51.421875 46.828125 50.859375 
Q 49.03125 50.296875 50.59375 49 
Q 52.15625 47.703125 52.984375 45.625 
Q 53.8125 43.5625 53.8125 40.578125 
Q 53.8125 38.328125 53.53125 36.171875 
Q 53.265625 34.03125 53.265625 31.6875 
Q 53.265625 27.09375 53.78125 22.5 
Q 54.296875 17.921875 54.890625 13.765625 
Q 55.171875 11.71875 55.421875 10 
Q 55.671875 8.296875 55.671875 7.328125 
Q 55.671875 6.390625 55.46875 5.828125 
Q 55.28125 5.28125 54.828125 4.6875 
Q 53.765625 3.265625 52.859375 1.875 
Q 51.953125 0.484375 51.125 -0.984375 
Q 49.75 -1.125 48.4375 -0.984375 
Q 48.296875 -0.046875 48.125 1.703125 
Q 47.953125 3.46875 47.796875 5.484375 
Q 47.65625 7.515625 47.5625 9.515625 
Q 47.46875 11.53125 47.46875 12.984375 
Q 47.46875 17.96875 47.515625 21.046875 
Q 47.5625 24.125 47.609375 26.21875 
Q 47.65625 28.328125 47.71875 29.890625 
Q 47.796875 31.453125 47.859375 33.34375 
Q 47.90625 35.0625 47.609375 36.40625 
Q 47.3125 37.75 46.484375 38.640625 
Q 45.65625 39.546875 44.265625 40.03125 
Q 42.875 40.53125 40.71875 40.53125 
z
" id="SBLBibLit-1514"/>
      <path d="M 14.9375 55.765625 
Q 15.234375 54.546875 15.671875 53.8125 
Q 16.109375 53.078125 16.890625 52.5625 
Q 17.671875 52.046875 18.890625 51.625 
Q 20.125 51.21875 21.96875 50.6875 
Q 24.03125 50.09375 25.3125 49.5 
Q 26.609375 48.921875 27.34375 48.3125 
Q 28.078125 47.703125 28.34375 47.046875 
Q 28.609375 46.390625 28.609375 45.609375 
Q 28.609375 44.671875 28.34375 43.71875 
Q 28.078125 42.78125 27.59375 41.15625 
Q 26.953125 38.96875 26.53125 36.15625 
Q 26.125 33.34375 26.125 29.9375 
Q 26.125 26.3125 26.65625 22.71875 
Q 27.203125 19.140625 27.828125 16.203125 
Q 28.46875 13.28125 29 11.328125 
Q 29.546875 9.375 29.546875 9.078125 
Q 29.546875 9.03125 29.4375 8.734375 
Q 29.046875 7.5625 28.734375 6.53125 
Q 28.421875 5.515625 28.171875 4.53125 
Q 27.9375 3.5625 27.6875 2.5625 
Q 27.4375 1.5625 27.15625 0.34375 
Q 27.09375 0.140625 26.953125 0.0625 
Q 26.8125 0 26.65625 0 
L 12.5 0 
Q 10.75 0 9.453125 -0.015625 
Q 8.15625 -0.046875 7.078125 -0.171875 
Q 6 -0.296875 5.078125 -0.578125 
Q 4.15625 -0.875 3.171875 -1.421875 
Q 2.640625 -1.3125 2.09375 -1.109375 
Q 1.5625 -0.921875 1.21875 -0.53125 
Q 1.65625 1.125 2.453125 3.25 
Q 3.265625 5.375 4.25 7.5625 
Q 4.828125 8.9375 6.265625 9.765625 
Q 7.71875 10.59375 10.890625 10.59375 
L 21.34375 10.59375 
Q 21.046875 13.09375 20.796875 15.671875 
Q 20.5625 18.265625 20.5625 20.90625 
Q 20.5625 24.75 20.734375 27.578125 
Q 20.90625 30.421875 21.125 32.34375 
Q 21.34375 34.28125 21.53125 35.421875 
Q 21.734375 36.578125 21.734375 37.0625 
Q 21.734375 37.703125 21.40625 38.09375 
Q 21.09375 38.484375 20.5 38.765625 
Q 19.921875 39.0625 19.15625 39.28125 
Q 18.40625 39.5 17.53125 39.75 
Q 15.625 40.28125 14.078125 40.75 
Q 12.546875 41.21875 11.453125 41.828125 
Q 10.359375 42.4375 9.765625 43.265625 
Q 9.1875 44.09375 9.1875 45.3125 
Q 9.1875 46 9.5 47.28125 
Q 9.8125 48.578125 10.328125 50.09375 
Q 10.84375 51.609375 11.46875 53.078125 
Q 12.109375 54.546875 12.703125 55.5625 
Q 13.09375 55.8125 13.75 55.828125 
Q 14.40625 55.859375 14.9375 55.765625 
z
" id="SBLBibLit-1504"/>
     </defs>
     <use xlink:href="#SBLBibLit-1503"/>
     <use x="23.876953" xlink:href="#SBLBibLit-1514"/>
     <use x="82.958984" xlink:href="#SBLBibLit-1504"/>
    </g>
   </g>
   <g id="text_24">
    <!-- חקל -->
    <g style="fill:#808080;" transform="translate(199.903744 264.641233)scale(0.15 -0.15)">
     <defs>
      <path d="M 9.375 55.515625 
Q 10.015625 54.109375 10.71875 53.296875 
Q 11.421875 52.484375 12.34375 52.0625 
Q 13.28125 51.65625 14.5 51.53125 
Q 15.71875 51.421875 17.390625 51.421875 
L 38.28125 51.421875 
Q 41.65625 51.421875 44 50.21875 
Q 46.34375 49.03125 47.75 46.96875 
Q 49.171875 44.921875 49.796875 42.15625 
Q 50.4375 39.40625 50.4375 36.28125 
Q 50.4375 32.078125 49.625 28.046875 
Q 48.828125 24.03125 47.578125 20.453125 
Q 46.34375 16.890625 44.78125 14.03125 
Q 43.21875 11.1875 41.703125 9.375 
Q 39.65625 6.890625 35.578125 4.546875 
Q 31.5 2.203125 25.34375 -0.78125 
Q 24.21875 -0.640625 23.34375 -0.25 
Q 24.421875 5.171875 26.125 10.5 
Q 32.03125 12.84375 35.390625 14.625 
Q 38.765625 16.40625 40.234375 17.96875 
Q 41.3125 19.140625 42.109375 20.71875 
Q 42.921875 22.3125 43.453125 24.109375 
Q 44 25.921875 44.265625 27.84375 
Q 44.53125 29.78125 44.53125 31.640625 
Q 44.53125 33.453125 44.140625 35.0625 
Q 43.75 36.671875 42.890625 37.890625 
Q 42.046875 39.109375 40.71875 39.8125 
Q 39.40625 40.53125 37.5 40.53125 
L 13.875 40.53125 
Q 12.109375 40.53125 10.453125 40.671875 
Q 8.796875 40.828125 7.5 41.359375 
Q 6.203125 41.890625 5.421875 42.921875 
Q 4.640625 43.953125 4.640625 45.65625 
Q 4.640625 46.09375 4.8125 47.015625 
Q 4.984375 47.953125 5.328125 49.1875 
Q 5.671875 50.4375 6.125 51.96875 
Q 6.59375 53.515625 7.171875 55.125 
Q 7.671875 55.375 8.25 55.46875 
Q 8.84375 55.5625 9.375 55.515625 
z
M 15.28125 30.609375 
Q 14.75 28.125 14.578125 25.78125 
Q 14.40625 23.4375 14.40625 20.953125 
Q 14.40625 15.484375 14.71875 7.8125 
Q 15.046875 0.140625 15.921875 -9.078125 
Q 16.015625 -9.765625 16.0625 -10.390625 
Q 16.109375 -11.03125 16.109375 -11.671875 
Q 16.109375 -12.359375 15.9375 -12.984375 
Q 15.765625 -13.625 15.234375 -14.15625 
Q 12.84375 -16.703125 10.890625 -19.234375 
Q 9.578125 -19.390625 8.296875 -19.234375 
Q 8.25 -18.796875 8.21875 -17.640625 
Q 8.203125 -16.5 8.171875 -14.890625 
Q 8.15625 -13.28125 8.15625 -11.234375 
Q 8.15625 -9.234375 8.15625 -6.9375 
Q 8.15625 -3.953125 8.171875 0.078125 
Q 8.203125 4.109375 8.265625 8.375 
Q 8.34375 12.640625 8.4375 16.765625 
Q 8.546875 20.90625 8.640625 24.125 
Q 8.6875 25.296875 9.328125 26.21875 
Q 10.359375 27.6875 11.25 28.8125 
Q 12.15625 29.9375 13.421875 31.25 
Q 14.40625 31.109375 15.28125 30.609375 
z
" id="SBLBibLit-1511"/>
     </defs>
     <use xlink:href="#SBLBibLit-1495"/>
     <use x="57.714844" xlink:href="#SBLBibLit-1511"/>
     <use x="111.816406" xlink:href="#SBLBibLit-1500"/>
    </g>
   </g>
   <g id="text_25">
    <!-- היה -->
    <g style="fill:#808080;" transform="translate(200.117298 273.684298)scale(0.15 -0.15)">
     <use xlink:href="#SBLBibLit-1492"/>
     <use x="55.224609" xlink:href="#SBLBibLit-1497"/>
     <use x="80.224609" xlink:href="#SBLBibLit-1492"/>
    </g>
   </g>
  </g>
 </g>
 <defs>
  <clipPath id="p5cfe41aef8">
   <rect height="434.88" width="446.4" x="28.942188" y="7.2"/>
  </clipPath>
 </defs>
</svg>
