<?xml version="1.0" encoding="utf-8" standalone="no"?>
<!DOCTYPE svg PUBLIC "-//W3C//DTD SVG 1.1//EN"
  "http://www.w3.org/Graphics/SVG/1.1/DTD/svg11.dtd">
<!-- Created with matplotlib (https://matplotlib.org/) -->
<svg height="465.958125pt" version="1.1" viewBox="0 0 482.542187 465.958125" width="482.542187pt" xmlns="http://www.w3.org/2000/svg" xmlns:xlink="http://www.w3.org/1999/xlink">
 <metadata>
  <rdf:RDF xmlns:cc="http://creativecommons.org/ns#" xmlns:dc="http://purl.org/dc/elements/1.1/" xmlns:rdf="http://www.w3.org/1999/02/22-rdf-syntax-ns#">
   <cc:Work>
    <dc:type rdf:resource="http://purl.org/dc/dcmitype/StillImage"/>
    <dc:date>2021-05-05T16:41:55.078490</dc:date>
    <dc:format>image/svg+xml</dc:format>
    <dc:creator>
     <cc:Agent>
      <dc:title>Matplotlib v3.3.3, https://matplotlib.org/</dc:title>
     </cc:Agent>
    </dc:creator>
   </cc:Work>
  </rdf:RDF>
 </metadata>
 <defs>
  <style type="text/css">*{stroke-linecap:butt;stroke-linejoin:round;}</style>
 </defs>
 <g id="figure_1">
  <g id="patch_1">
   <path d="M 0 465.958125 
L 482.542187 465.958125 
L 482.542187 0 
L 0 0 
z
" style="fill:none;"/>
  </g>
  <g id="axes_1">
   <g id="patch_2">
    <path d="M 28.942188 442.08 
L 475.342187 442.08 
L 475.342187 7.2 
L 28.942188 7.2 
z
" style="fill:#ffffff;"/>
   </g>
   <g id="PathCollection_1"/>
   <g id="matplotlib.axis_1">
    <g id="xtick_1">
     <g id="line2d_1">
      <defs>
       <path d="M 0 0 
L 0 3.5 
" id="m7e0191219a" style="stroke:#000000;stroke-width:0.8;"/>
      </defs>
      <g>
       <use style="stroke:#000000;stroke-width:0.8;" x="89.917088" xlink:href="#m7e0191219a" y="442.08"/>
      </g>
     </g>
     <g id="text_1">
      <!-- −2 -->
      <g transform="translate(82.545995 456.678437)scale(0.1 -0.1)">
       <defs>
        <path d="M 10.59375 35.5 
L 73.1875 35.5 
L 73.1875 27.203125 
L 10.59375 27.203125 
z
" id="DejaVuSans-8722"/>
        <path d="M 19.1875 8.296875 
L 53.609375 8.296875 
L 53.609375 0 
L 7.328125 0 
L 7.328125 8.296875 
Q 12.9375 14.109375 22.625 23.890625 
Q 32.328125 33.6875 34.8125 36.53125 
Q 39.546875 41.84375 41.421875 45.53125 
Q 43.3125 49.21875 43.3125 52.78125 
Q 43.3125 58.59375 39.234375 62.25 
Q 35.15625 65.921875 28.609375 65.921875 
Q 23.96875 65.921875 18.8125 64.3125 
Q 13.671875 62.703125 7.8125 59.421875 
L 7.8125 69.390625 
Q 13.765625 71.78125 18.9375 73 
Q 24.125 74.21875 28.421875 74.21875 
Q 39.75 74.21875 46.484375 68.546875 
Q 53.21875 62.890625 53.21875 53.421875 
Q 53.21875 48.921875 51.53125 44.890625 
Q 49.859375 40.875 45.40625 35.40625 
Q 44.1875 33.984375 37.640625 27.21875 
Q 31.109375 20.453125 19.1875 8.296875 
z
" id="DejaVuSans-50"/>
       </defs>
       <use xlink:href="#DejaVuSans-8722"/>
       <use x="83.789062" xlink:href="#DejaVuSans-50"/>
      </g>
     </g>
    </g>
    <g id="xtick_2">
     <g id="line2d_2">
      <g>
       <use style="stroke:#000000;stroke-width:0.8;" x="167.363852" xlink:href="#m7e0191219a" y="442.08"/>
      </g>
     </g>
     <g id="text_2">
      <!-- −1 -->
      <g transform="translate(159.992759 456.678437)scale(0.1 -0.1)">
       <defs>
        <path d="M 12.40625 8.296875 
L 28.515625 8.296875 
L 28.515625 63.921875 
L 10.984375 60.40625 
L 10.984375 69.390625 
L 28.421875 72.90625 
L 38.28125 72.90625 
L 38.28125 8.296875 
L 54.390625 8.296875 
L 54.390625 0 
L 12.40625 0 
z
" id="DejaVuSans-49"/>
       </defs>
       <use xlink:href="#DejaVuSans-8722"/>
       <use x="83.789062" xlink:href="#DejaVuSans-49"/>
      </g>
     </g>
    </g>
    <g id="xtick_3">
     <g id="line2d_3">
      <g>
       <use style="stroke:#000000;stroke-width:0.8;" x="244.810616" xlink:href="#m7e0191219a" y="442.08"/>
      </g>
     </g>
     <g id="text_3">
      <!-- 0 -->
      <g transform="translate(241.629366 456.678437)scale(0.1 -0.1)">
       <defs>
        <path d="M 31.78125 66.40625 
Q 24.171875 66.40625 20.328125 58.90625 
Q 16.5 51.421875 16.5 36.375 
Q 16.5 21.390625 20.328125 13.890625 
Q 24.171875 6.390625 31.78125 6.390625 
Q 39.453125 6.390625 43.28125 13.890625 
Q 47.125 21.390625 47.125 36.375 
Q 47.125 51.421875 43.28125 58.90625 
Q 39.453125 66.40625 31.78125 66.40625 
z
M 31.78125 74.21875 
Q 44.046875 74.21875 50.515625 64.515625 
Q 56.984375 54.828125 56.984375 36.375 
Q 56.984375 17.96875 50.515625 8.265625 
Q 44.046875 -1.421875 31.78125 -1.421875 
Q 19.53125 -1.421875 13.0625 8.265625 
Q 6.59375 17.96875 6.59375 36.375 
Q 6.59375 54.828125 13.0625 64.515625 
Q 19.53125 74.21875 31.78125 74.21875 
z
" id="DejaVuSans-48"/>
       </defs>
       <use xlink:href="#DejaVuSans-48"/>
      </g>
     </g>
    </g>
    <g id="xtick_4">
     <g id="line2d_4">
      <g>
       <use style="stroke:#000000;stroke-width:0.8;" x="322.25738" xlink:href="#m7e0191219a" y="442.08"/>
      </g>
     </g>
     <g id="text_4">
      <!-- 1 -->
      <g transform="translate(319.07613 456.678437)scale(0.1 -0.1)">
       <use xlink:href="#DejaVuSans-49"/>
      </g>
     </g>
    </g>
    <g id="xtick_5">
     <g id="line2d_5">
      <g>
       <use style="stroke:#000000;stroke-width:0.8;" x="399.704145" xlink:href="#m7e0191219a" y="442.08"/>
      </g>
     </g>
     <g id="text_5">
      <!-- 2 -->
      <g transform="translate(396.522895 456.678437)scale(0.1 -0.1)">
       <use xlink:href="#DejaVuSans-50"/>
      </g>
     </g>
    </g>
   </g>
   <g id="matplotlib.axis_2">
    <g id="ytick_1">
     <g id="line2d_6">
      <defs>
       <path d="M 0 0 
L -3.5 0 
" id="mea2d63ba1f" style="stroke:#000000;stroke-width:0.8;"/>
      </defs>
      <g>
       <use style="stroke:#000000;stroke-width:0.8;" x="28.942188" xlink:href="#mea2d63ba1f" y="417.43239"/>
      </g>
     </g>
     <g id="text_6">
      <!-- −2 -->
      <g transform="translate(7.2 421.231609)scale(0.1 -0.1)">
       <use xlink:href="#DejaVuSans-8722"/>
       <use x="83.789062" xlink:href="#DejaVuSans-50"/>
      </g>
     </g>
    </g>
    <g id="ytick_2">
     <g id="line2d_7">
      <g>
       <use style="stroke:#000000;stroke-width:0.8;" x="28.942188" xlink:href="#mea2d63ba1f" y="324.344489"/>
      </g>
     </g>
     <g id="text_7">
      <!-- −1 -->
      <g transform="translate(7.2 328.143707)scale(0.1 -0.1)">
       <use xlink:href="#DejaVuSans-8722"/>
       <use x="83.789062" xlink:href="#DejaVuSans-49"/>
      </g>
     </g>
    </g>
    <g id="ytick_3">
     <g id="line2d_8">
      <g>
       <use style="stroke:#000000;stroke-width:0.8;" x="28.942188" xlink:href="#mea2d63ba1f" y="231.256587"/>
      </g>
     </g>
     <g id="text_8">
      <!-- 0 -->
      <g transform="translate(15.579688 235.055806)scale(0.1 -0.1)">
       <use xlink:href="#DejaVuSans-48"/>
      </g>
     </g>
    </g>
    <g id="ytick_4">
     <g id="line2d_9">
      <g>
       <use style="stroke:#000000;stroke-width:0.8;" x="28.942188" xlink:href="#mea2d63ba1f" y="138.168685"/>
      </g>
     </g>
     <g id="text_9">
      <!-- 1 -->
      <g transform="translate(15.579688 141.967904)scale(0.1 -0.1)">
       <use xlink:href="#DejaVuSans-49"/>
      </g>
     </g>
    </g>
    <g id="ytick_5">
     <g id="line2d_10">
      <g>
       <use style="stroke:#000000;stroke-width:0.8;" x="28.942188" xlink:href="#mea2d63ba1f" y="45.080784"/>
      </g>
     </g>
     <g id="text_10">
      <!-- 2 -->
      <g transform="translate(15.579688 48.880003)scale(0.1 -0.1)">
       <use xlink:href="#DejaVuSans-50"/>
      </g>
     </g>
    </g>
   </g>
   <g id="patch_3">
    <path d="M 28.942188 442.08 
L 28.942188 7.2 
" style="fill:none;stroke:#000000;stroke-linecap:square;stroke-linejoin:miter;stroke-width:0.8;"/>
   </g>
   <g id="patch_4">
    <path d="M 475.342187 442.08 
L 475.342187 7.2 
" style="fill:none;stroke:#000000;stroke-linecap:square;stroke-linejoin:miter;stroke-width:0.8;"/>
   </g>
   <g id="patch_5">
    <path d="M 28.942188 442.08 
L 475.342187 442.08 
" style="fill:none;stroke:#000000;stroke-linecap:square;stroke-linejoin:miter;stroke-width:0.8;"/>
   </g>
   <g id="patch_6">
    <path d="M 28.942188 7.2 
L 475.342187 7.2 
" style="fill:none;stroke:#000000;stroke-linecap:square;stroke-linejoin:miter;stroke-width:0.8;"/>
   </g>
   <g id="text_11">
    <!-- ׳ז.ה.ב -->
    <g style="fill:#0000ff;" transform="translate(254.035712 87.321578)scale(0.15 -0.15)">
     <defs>
      <path d="M 18.453125 53.71875 
Q 18.5625 53.171875 18.578125 52.734375 
Q 18.609375 52.296875 18.609375 51.765625 
Q 15.328125 47.3125 12.15625 42.640625 
Q 8.984375 37.984375 6.0625 33.453125 
Q 4.78125 33.546875 3.65625 34.078125 
Q 4.828125 39.203125 6.125 44.234375 
Q 7.421875 49.265625 8.890625 54.296875 
Q 9.28125 55.515625 10.5 55.515625 
Q 10.890625 55.515625 11.578125 55.375 
z
" id="SBLBibLit-1523"/>
      <path d="M 8.453125 55.90625 
Q 8.640625 54.734375 9.25 53.921875 
Q 9.859375 53.125 10.78125 52.53125 
Q 11.71875 51.953125 12.90625 51.53125 
Q 14.109375 51.125 15.53125 50.734375 
Q 16.84375 50.34375 18.328125 49.90625 
Q 19.828125 49.46875 21.28125 48.921875 
Q 22.75 48.390625 24.109375 47.703125 
Q 25.484375 47.015625 26.609375 46.140625 
Q 26.953125 45.953125 26.8125 45.515625 
Q 26.375 44.484375 25.875 43.203125 
Q 25.390625 41.9375 24.90625 40.625 
Q 24.421875 39.3125 23.96875 38.03125 
Q 23.53125 36.765625 23.1875 35.75 
Q 23.09375 35.5 22.859375 35.6875 
Q 21.4375 36.671875 20.09375 37.296875 
Q 18.75 37.9375 16.890625 38.484375 
Q 16.015625 33.203125 16.015625 27.78125 
Q 16.015625 22.703125 16.8125 17.75 
Q 17.625 12.796875 19.34375 8.109375 
Q 19.484375 7.71875 19.609375 7.375 
Q 19.734375 7.03125 19.734375 6.640625 
Q 19.734375 5.953125 18.84375 4.78125 
Q 17.71875 3.375 16.625 1.828125 
Q 15.53125 0.296875 14.703125 -0.984375 
Q 14.015625 -1.078125 13.578125 -1.078125 
Q 13.140625 -1.078125 12.453125 -0.984375 
Q 11.1875 3.46875 10.6875 7.546875 
Q 10.203125 11.625 10.203125 15.28125 
Q 10.203125 18.265625 10.390625 21.0625 
Q 10.59375 23.875 10.859375 26.359375 
Q 11.140625 28.859375 11.328125 31.03125 
Q 11.53125 33.203125 11.53125 34.96875 
Q 11.53125 37.25 11.078125 38.640625 
Q 10.640625 40.046875 8.9375 40.53125 
Q 5.8125 41.359375 4.25 42.453125 
Q 2.6875 43.5625 2.6875 45.65625 
Q 2.6875 46.34375 3 47.609375 
Q 3.328125 48.875 3.828125 50.34375 
Q 4.34375 51.8125 4.96875 53.25 
Q 5.609375 54.6875 6.203125 55.71875 
Q 6.59375 55.953125 7.25 55.96875 
Q 7.90625 56 8.453125 55.90625 
z
" id="SBLBibLit-1494"/>
      <path d="M 7.328125 5.71875 
Q 7.328125 8.34375 9.15625 10.328125 
Q 10.984375 12.3125 13.8125 12.3125 
Q 16.75 12.3125 18.59375 10.328125 
Q 20.453125 8.34375 20.453125 5.71875 
Q 20.453125 3.078125 18.59375 1.09375 
Q 16.75 -0.875 13.8125 -0.875 
Q 10.984375 -0.875 9.15625 1.09375 
Q 7.328125 3.078125 7.328125 5.71875 
z
" id="SBLBibLit-46"/>
      <path d="M 16.890625 27.546875 
Q 16.546875 26.3125 16.296875 25.390625 
Q 16.0625 24.46875 15.90625 23.625 
Q 15.765625 22.796875 15.6875 21.96875 
Q 15.625 21.140625 15.578125 20.171875 
L 15.1875 5.125 
Q 15.1875 4.6875 15.109375 4.296875 
Q 15.046875 3.90625 14.703125 3.65625 
Q 13.921875 3.078125 13.078125 2.421875 
Q 12.25 1.765625 11.5 1.140625 
Q 10.75 0.53125 10.078125 -0.03125 
Q 9.421875 -0.59375 8.984375 -0.984375 
Q 7.765625 -1.125 6.59375 -0.984375 
L 8.109375 17.578125 
Q 8.296875 20.0625 9.09375 22.140625 
Q 9.90625 24.21875 10.984375 25.34375 
Q 11.53125 25.921875 12.53125 26.78125 
Q 13.53125 27.640625 14.65625 28.328125 
Q 15.140625 28.21875 15.8125 28.015625 
Q 16.5 27.828125 16.890625 27.546875 
z
M 10.984375 55.515625 
Q 11.625 54.109375 12.328125 53.296875 
Q 13.03125 52.484375 13.953125 52.0625 
Q 14.890625 51.65625 16.109375 51.53125 
Q 17.328125 51.421875 19 51.421875 
L 39.0625 51.421875 
Q 42.140625 51.421875 44.21875 50.96875 
Q 46.296875 50.53125 47.53125 49.671875 
Q 48.78125 48.828125 49.296875 47.53125 
Q 49.8125 46.234375 49.8125 44.53125 
Q 49.8125 42.875 49.296875 40.890625 
Q 48.78125 38.921875 48.1875 36.578125 
Q 48.1875 29.34375 48.828125 23.703125 
Q 49.46875 18.0625 50.046875 13.765625 
Q 50.34375 11.71875 50.578125 10 
Q 50.828125 8.296875 50.828125 7.328125 
Q 50.828125 6.390625 50.625 5.859375 
Q 50.4375 5.328125 50 4.734375 
Q 48.96875 3.328125 48.046875 1.90625 
Q 47.125 0.484375 46.296875 -0.984375 
Q 44.921875 -1.125 43.609375 -0.984375 
Q 43.453125 -0.046875 43.28125 1.703125 
Q 43.109375 3.46875 42.96875 5.484375 
Q 42.828125 7.515625 42.71875 9.515625 
Q 42.625 11.53125 42.625 12.984375 
Q 42.625 17.234375 42.640625 20.3125 
Q 42.671875 23.390625 42.71875 25.5625 
Q 42.78125 27.734375 42.828125 29.203125 
Q 42.875 30.671875 42.921875 31.734375 
Q 42.96875 33.0625 42.984375 34.078125 
Q 43.015625 35.109375 43.015625 36.421875 
Q 43.015625 37.59375 42.859375 38.375 
Q 42.71875 39.15625 42.203125 39.640625 
Q 41.703125 40.140625 40.671875 40.328125 
Q 39.65625 40.53125 37.9375 40.53125 
L 15.484375 40.53125 
Q 13.71875 40.53125 12.0625 40.671875 
Q 10.40625 40.828125 9.109375 41.359375 
Q 7.8125 41.890625 7.03125 42.921875 
Q 6.25 43.953125 6.25 45.65625 
Q 6.25 46.09375 6.421875 47.015625 
Q 6.59375 47.953125 6.9375 49.1875 
Q 7.28125 50.4375 7.734375 51.96875 
Q 8.203125 53.515625 8.796875 55.125 
Q 9.28125 55.375 9.859375 55.46875 
Q 10.453125 55.5625 10.984375 55.515625 
z
" id="SBLBibLit-1492"/>
      <path d="M 10.359375 55.515625 
Q 10.984375 54.109375 11.6875 53.296875 
Q 12.40625 52.484375 13.328125 52.0625 
Q 14.265625 51.65625 15.484375 51.53125 
Q 16.703125 51.421875 18.359375 51.421875 
L 32.328125 51.421875 
Q 35.453125 51.421875 37.515625 50.703125 
Q 39.59375 50 40.796875 48.75 
Q 42 47.515625 42.484375 45.796875 
Q 42.96875 44.09375 42.96875 42.140625 
Q 42.96875 40.4375 42.875 38.96875 
Q 42.78125 37.5 42.65625 35.984375 
Q 42.53125 34.46875 42.421875 32.859375 
Q 42.328125 31.25 42.328125 29.296875 
Q 42.328125 28.765625 42.359375 27.4375 
Q 42.390625 26.125 42.453125 24.4375 
Q 42.53125 22.75 42.671875 20.84375 
Q 42.828125 18.953125 43.109375 17.15625 
Q 43.40625 15.375 43.8125 13.9375 
Q 44.234375 12.5 44.875 11.71875 
Q 45.65625 10.75 46.84375 10.421875 
Q 48.046875 10.109375 49.90625 10.109375 
Q 50.09375 10.109375 50.046875 9.8125 
Q 49.265625 7.328125 48.625 5.078125 
Q 48 2.828125 47.40625 0.34375 
Q 47.359375 0.140625 47.21875 0.0625 
Q 47.078125 0 46.921875 0 
L 14.9375 0 
Q 13.1875 0 11.84375 -0.015625 
Q 10.5 -0.046875 9.328125 -0.171875 
Q 8.15625 -0.296875 7.109375 -0.578125 
Q 6.0625 -0.875 4.890625 -1.421875 
Q 4.34375 -1.3125 3.796875 -1.109375 
Q 3.265625 -0.921875 2.9375 -0.53125 
Q 3.328125 1.125 4.03125 3.25 
Q 4.734375 5.375 5.609375 7.5625 
Q 6.15625 8.9375 7.71875 9.8125 
Q 9.28125 10.6875 12.453125 10.6875 
L 37.453125 10.6875 
Q 37.0625 13.328125 36.90625 15.671875 
Q 36.765625 18.015625 36.765625 20.3125 
Q 36.765625 22.125 36.84375 24.078125 
Q 36.921875 26.03125 37.03125 27.875 
Q 37.15625 29.734375 37.234375 31.375 
Q 37.3125 33.015625 37.3125 34.1875 
Q 37.3125 35.59375 36.984375 36.765625 
Q 36.671875 37.9375 35.8125 38.765625 
Q 34.96875 39.59375 33.546875 40.0625 
Q 32.125 40.53125 29.9375 40.53125 
L 14.84375 40.53125 
Q 13.09375 40.53125 11.421875 40.671875 
Q 9.765625 40.828125 8.46875 41.359375 
Q 7.171875 41.890625 6.390625 42.921875 
Q 5.609375 43.953125 5.609375 45.65625 
Q 5.609375 46.09375 5.78125 47.015625 
Q 5.953125 47.953125 6.296875 49.1875 
Q 6.640625 50.4375 7.09375 51.96875 
Q 7.5625 53.515625 8.15625 55.125 
Q 8.640625 55.375 9.21875 55.46875 
Q 9.8125 55.5625 10.359375 55.515625 
z
" id="SBLBibLit-1489"/>
     </defs>
     <use xlink:href="#SBLBibLit-1523"/>
     <use x="20.800781" xlink:href="#SBLBibLit-1494"/>
     <use x="49.609375" xlink:href="#SBLBibLit-46"/>
     <use x="77.441406" xlink:href="#SBLBibLit-1492"/>
     <use x="132.666016" xlink:href="#SBLBibLit-46"/>
     <use x="160.498047" xlink:href="#SBLBibLit-1489"/>
    </g>
   </g>
   <g id="text_12">
    <!-- אוה.׳ז.ה.ב -->
    <g style="fill:#0000ff;" transform="translate(306.449758 52.180908)scale(0.15 -0.15)">
     <defs>
      <path d="M 19.484375 -0.34375 
Q 18.359375 0.484375 17.3125 0.953125 
Q 16.265625 1.421875 14.796875 1.421875 
Q 13.234375 1.421875 11.15625 0.859375 
Q 9.078125 0.296875 5.859375 -0.828125 
Q 5.515625 -0.484375 5.140625 0.09375 
Q 4.78125 0.6875 4.640625 1.3125 
Q 6.15625 2.484375 8.03125 3.796875 
Q 9.90625 5.125 12.109375 6.5 
Q 10.40625 8.34375 9.234375 9.90625 
Q 8.0625 11.46875 7.328125 12.8125 
Q 6.59375 14.15625 6.265625 15.421875 
Q 5.953125 16.703125 5.953125 17.96875 
Q 5.953125 19.53125 6.421875 21.21875 
Q 6.890625 22.90625 7.890625 24.875 
Q 8.890625 26.859375 10.453125 29.171875 
Q 12.015625 31.5 14.203125 34.375 
Q 12.84375 35.84375 11.640625 37.0625 
Q 10.453125 38.28125 9.546875 39.40625 
Q 8.640625 40.53125 8.125 41.578125 
Q 7.625 42.625 7.625 43.796875 
Q 7.625 45.21875 8.25 46.53125 
Q 9.375 48.875 10.609375 51 
Q 11.859375 53.125 13.140625 55.328125 
Q 13.671875 55.46875 14.359375 55.390625 
Q 15.046875 55.328125 15.578125 55.078125 
Q 15.53125 54.6875 15.53125 54.25 
Q 15.53125 53.8125 15.53125 53.46875 
Q 15.53125 52.4375 15.671875 51.484375 
Q 15.828125 50.53125 16.21875 49.546875 
Q 16.609375 48.578125 17.28125 47.5 
Q 17.96875 46.4375 19.09375 45.171875 
Q 21.140625 42.96875 23.453125 40.640625 
Q 25.78125 38.328125 28.171875 36.0625 
Q 30.5625 33.796875 32.953125 31.609375 
Q 35.359375 29.4375 37.546875 27.4375 
Q 39.109375 29.109375 40.203125 30.390625 
Q 41.3125 31.6875 42.015625 32.65625 
Q 42.71875 33.640625 43.03125 34.421875 
Q 43.359375 35.203125 43.359375 35.9375 
Q 43.359375 37.0625 42.59375 38.0625 
Q 41.84375 39.0625 40.046875 40.625 
Q 38.578125 41.890625 37.640625 42.765625 
Q 36.71875 43.65625 36.203125 44.359375 
Q 35.6875 45.0625 35.515625 45.640625 
Q 35.359375 46.234375 35.359375 46.921875 
Q 35.359375 48.09375 36.796875 50.21875 
Q 38.234375 52.34375 41.75 55.5625 
Q 42.140625 55.671875 42.765625 55.46875 
Q 43.40625 55.28125 43.890625 55.03125 
Q 43.84375 54.546875 43.8125 54.203125 
Q 43.796875 53.859375 43.796875 53.5625 
Q 43.796875 53.03125 43.9375 52.59375 
Q 44.09375 52.15625 44.53125 51.640625 
Q 44.96875 51.125 45.75 50.390625 
Q 46.53125 49.65625 47.796875 48.53125 
Q 50.640625 46 51.75 44.5 
Q 52.875 43.015625 52.875 41.796875 
Q 52.875 40.875 52.453125 39.5 
Q 52.046875 38.140625 50.734375 36.109375 
Q 49.421875 34.078125 47 31.25 
Q 44.578125 28.421875 40.578125 24.5625 
Q 42.671875 22.65625 44.15625 21.265625 
Q 45.65625 19.875 46.71875 18.84375 
Q 47.796875 17.828125 48.546875 17.09375 
Q 49.3125 16.359375 49.953125 15.765625 
Q 51.859375 14.015625 52.875 12.59375 
Q 53.90625 11.1875 53.90625 10.0625 
Q 53.90625 9.1875 53.515625 8.25 
Q 52.546875 6 51.65625 3.84375 
Q 50.78125 1.703125 49.859375 -0.6875 
Q 48.640625 -0.78125 47.703125 -0.53125 
Q 46.96875 1.421875 45.96875 3.078125 
Q 44.96875 4.734375 43.8125 6.203125 
Q 42.671875 7.671875 41.40625 8.984375 
Q 40.140625 10.296875 38.875 11.578125 
Q 36.28125 14.109375 33.28125 16.9375 
Q 30.28125 19.78125 27.34375 22.453125 
Q 24.421875 25.140625 21.796875 27.484375 
Q 19.1875 29.828125 17.328125 31.453125 
Q 15.1875 28.609375 14.46875 26.578125 
Q 13.765625 24.5625 13.765625 22.75 
Q 13.765625 21.296875 14.421875 19.78125 
Q 15.09375 18.265625 16.53125 16.453125 
Q 17.96875 14.65625 20.265625 12.453125 
Q 22.5625 10.25 25.875 7.328125 
Q 25.984375 7.078125 25.875 6.84375 
z
" id="SBLBibLit-1488"/>
      <path d="M 14.890625 -0.984375 
Q 14.796875 0 14.6875 1.78125 
Q 14.59375 3.5625 14.5 5.59375 
Q 14.40625 7.625 14.359375 9.671875 
Q 14.3125 11.71875 14.3125 13.1875 
Q 14.3125 18.21875 14.453125 21.796875 
Q 14.59375 25.390625 14.78125 28.078125 
Q 14.984375 30.765625 15.125 32.8125 
Q 15.28125 34.859375 15.28125 36.8125 
Q 15.28125 37.546875 14.9375 38.015625 
Q 14.59375 38.484375 14 38.796875 
Q 13.421875 39.109375 12.671875 39.296875 
Q 11.921875 39.5 11.140625 39.75 
Q 9.234375 40.28125 7.6875 40.75 
Q 6.15625 41.21875 5.03125 41.828125 
Q 3.90625 42.4375 3.296875 43.265625 
Q 2.6875 44.09375 2.6875 45.3125 
Q 2.6875 46 3 47.28125 
Q 3.328125 48.578125 3.828125 50.0625 
Q 4.34375 51.5625 4.96875 53.03125 
Q 5.609375 54.5 6.203125 55.515625 
Q 6.59375 55.765625 7.25 55.78125 
Q 7.90625 55.8125 8.453125 55.71875 
Q 8.734375 54.546875 9.25 53.78125 
Q 9.765625 53.03125 10.640625 52.484375 
Q 11.53125 51.953125 12.796875 51.5625 
Q 14.0625 51.171875 15.921875 50.6875 
Q 17.578125 50.25 18.65625 49.859375 
Q 19.734375 49.46875 20.3125 49.046875 
Q 20.90625 48.640625 21.125 48.140625 
Q 21.34375 47.65625 21.34375 47.078125 
Q 21.34375 46.6875 21.1875 45.78125 
Q 21.046875 44.875 20.90625 43.84375 
Q 20.65625 42.1875 20.390625 39.8125 
Q 20.125 37.453125 20.125 33.796875 
Q 20.125 28.65625 20.578125 23.609375 
Q 21.046875 18.5625 21.734375 13.96875 
Q 22.015625 11.921875 22.265625 10.109375 
Q 22.515625 8.296875 22.515625 7.328125 
Q 22.515625 6.390625 22.3125 5.859375 
Q 22.125 5.328125 21.6875 4.734375 
Q 20.609375 3.328125 19.5 1.8125 
Q 18.40625 0.296875 17.578125 -0.984375 
Q 16.21875 -1.125 14.890625 -0.984375 
z
" id="SBLBibLit-1493"/>
     </defs>
     <use xlink:href="#SBLBibLit-1488"/>
     <use x="57.568359" xlink:href="#SBLBibLit-1493"/>
     <use x="83.935547" xlink:href="#SBLBibLit-1492"/>
     <use x="139.160156" xlink:href="#SBLBibLit-46"/>
     <use x="166.992188" xlink:href="#SBLBibLit-1523"/>
     <use x="187.792969" xlink:href="#SBLBibLit-1494"/>
     <use x="216.601562" xlink:href="#SBLBibLit-46"/>
     <use x="244.433594" xlink:href="#SBLBibLit-1492"/>
     <use x="299.658203" xlink:href="#SBLBibLit-46"/>
     <use x="327.490234" xlink:href="#SBLBibLit-1489"/>
    </g>
   </g>
   <g id="text_13">
    <!-- איה.׳ז.ה.ב -->
    <g style="fill:#0000ff;" transform="translate(150.485544 153.877447)scale(0.15 -0.15)">
     <defs>
      <path d="M 7.125 56.296875 
Q 7.328125 54.984375 7.765625 54.15625 
Q 8.203125 53.328125 9.046875 52.734375 
Q 9.90625 52.15625 11.21875 51.65625 
Q 12.546875 51.171875 14.453125 50.59375 
Q 16.3125 50 17.71875 49.484375 
Q 19.140625 48.96875 20.109375 48.3125 
Q 21.09375 47.65625 21.578125 46.796875 
Q 22.078125 45.953125 22.078125 44.734375 
Q 22.078125 41.796875 20.53125 36.328125 
Q 19 30.859375 15.671875 22.953125 
Q 13.8125 23.34375 12.359375 24.125 
Q 12.84375 25.875 13.234375 27.625 
Q 13.625 29.390625 13.90625 30.953125 
Q 14.203125 32.515625 14.34375 33.8125 
Q 14.5 35.109375 14.5 35.9375 
Q 14.5 36.71875 14.28125 37.28125 
Q 14.0625 37.84375 13.578125 38.28125 
Q 13.09375 38.71875 12.28125 39.109375 
Q 11.46875 39.5 10.296875 39.890625 
Q 8.25 40.578125 6.640625 41.140625 
Q 5.03125 41.703125 3.921875 42.359375 
Q 2.828125 43.015625 2.265625 43.875 
Q 1.703125 44.734375 1.703125 46 
Q 1.703125 46.828125 2 48.125 
Q 2.296875 49.421875 2.75 50.828125 
Q 3.21875 52.25 3.78125 53.609375 
Q 4.34375 54.984375 4.890625 56 
Q 5.28125 56.25 5.9375 56.265625 
Q 6.59375 56.296875 7.125 56.296875 
z
" id="SBLBibLit-1497"/>
     </defs>
     <use xlink:href="#SBLBibLit-1488"/>
     <use x="57.568359" xlink:href="#SBLBibLit-1497"/>
     <use x="82.568359" xlink:href="#SBLBibLit-1492"/>
     <use x="137.792969" xlink:href="#SBLBibLit-46"/>
     <use x="165.625" xlink:href="#SBLBibLit-1523"/>
     <use x="186.425781" xlink:href="#SBLBibLit-1494"/>
     <use x="215.234375" xlink:href="#SBLBibLit-46"/>
     <use x="243.066406" xlink:href="#SBLBibLit-1492"/>
     <use x="298.291016" xlink:href="#SBLBibLit-46"/>
     <use x="326.123047" xlink:href="#SBLBibLit-1489"/>
    </g>
   </g>
   <g id="text_14">
    <!-- םה.׳ז.ה.ב -->
    <g style="fill:#0000ff;" transform="translate(157.601929 302.997668)scale(0.15 -0.15)">
     <defs>
      <path d="M 10.296875 40.671875 
Q 6.6875 40.765625 5.34375 41.96875 
Q 4 43.171875 4 45.3125 
Q 4 45.75 4.1875 46.71875 
Q 4.390625 47.703125 4.75 49.015625 
Q 5.125 50.34375 5.640625 51.921875 
Q 6.15625 53.515625 6.734375 55.125 
Q 7.234375 55.375 7.8125 55.46875 
Q 8.40625 55.5625 8.9375 55.515625 
Q 9.578125 54.109375 10.28125 53.296875 
Q 10.984375 52.484375 11.90625 52.0625 
Q 12.84375 51.65625 14.0625 51.53125 
Q 15.28125 51.421875 16.9375 51.421875 
L 37.40625 51.421875 
Q 41.75 51.421875 44.21875 49.96875 
Q 46.6875 48.53125 47.875 45.796875 
Q 49.078125 43.0625 49.34375 39.03125 
Q 49.609375 35.015625 49.609375 29.890625 
Q 49.609375 26.21875 49.40625 22.21875 
Q 49.21875 18.21875 48.828125 14.3125 
Q 48.4375 10.40625 47.78125 6.828125 
Q 47.125 3.265625 46.234375 0.484375 
Q 46.09375 0 45.515625 0 
L 9.96875 0 
Q 8.84375 0 8.546875 0.984375 
Q 7.71875 4.34375 7.203125 8.09375 
Q 6.6875 11.859375 6.6875 15.71875 
Q 6.6875 22.65625 7.78125 28.828125 
Q 8.890625 35.015625 10.296875 40.671875 
z
M 14.796875 40.53125 
Q 13.375 33.203125 12.984375 28.1875 
Q 12.59375 23.1875 12.59375 19.828125 
Q 12.59375 16.703125 12.890625 14.890625 
Q 13.1875 13.09375 13.859375 12.15625 
Q 14.546875 11.234375 15.59375 10.953125 
Q 16.65625 10.6875 18.21875 10.6875 
L 39.265625 10.6875 
Q 41.0625 10.6875 42.015625 11.640625 
Q 42.96875 12.59375 43.40625 14.15625 
Q 43.84375 15.71875 43.890625 17.796875 
Q 43.953125 19.875 43.953125 22.171875 
Q 43.953125 27.34375 43.75 30.859375 
Q 43.5625 34.375 42.75 36.515625 
Q 41.9375 38.671875 40.328125 39.59375 
Q 38.71875 40.53125 35.84375 40.53125 
z
" id="SBLBibLit-1501"/>
     </defs>
     <use xlink:href="#SBLBibLit-1501"/>
     <use x="54.589844" xlink:href="#SBLBibLit-1492"/>
     <use x="109.814453" xlink:href="#SBLBibLit-46"/>
     <use x="137.646484" xlink:href="#SBLBibLit-1523"/>
     <use x="158.447266" xlink:href="#SBLBibLit-1494"/>
     <use x="187.255859" xlink:href="#SBLBibLit-46"/>
     <use x="215.087891" xlink:href="#SBLBibLit-1492"/>
     <use x="270.3125" xlink:href="#SBLBibLit-46"/>
     <use x="298.144531" xlink:href="#SBLBibLit-1489"/>
    </g>
   </g>
   <g id="text_15">
    <!-- המה.׳ז.ה.ב -->
    <g style="fill:#0000ff;" transform="translate(321.435522 287.831343)scale(0.15 -0.15)">
     <defs>
      <path d="M 5.609375 -0.984375 
L 5.609375 0.640625 
Q 5.609375 3.90625 5.828125 7.171875 
Q 6.0625 10.453125 6.390625 13.46875 
Q 6.734375 16.5 7.140625 19.203125 
Q 7.5625 21.921875 7.984375 24.046875 
Q 8.40625 26.171875 8.734375 27.609375 
Q 9.078125 29.046875 9.28125 29.59375 
Q 10.0625 31.640625 11.328125 33.515625 
Q 12.59375 35.40625 13.875 37.25 
Q 14.40625 38.09375 14.40625 38.8125 
Q 14.40625 39.5 13.890625 40.109375 
Q 13.375 40.71875 12.109375 41.453125 
Q 9.578125 42.828125 8.109375 43.96875 
Q 6.640625 45.125 6.640625 46.734375 
Q 6.640625 47.46875 7.171875 48.65625 
Q 7.71875 49.859375 8.46875 51.171875 
Q 9.234375 52.484375 10.125 53.78125 
Q 11.03125 55.078125 11.765625 55.953125 
Q 12.109375 56.109375 12.671875 56 
Q 13.234375 55.90625 13.671875 55.71875 
Q 13.71875 54.59375 13.9375 53.875 
Q 14.15625 53.171875 14.6875 52.578125 
Q 15.234375 52 16.140625 51.4375 
Q 17.046875 50.875 18.5 50.046875 
Q 20.0625 49.125 21.0625 48.234375 
Q 22.078125 47.359375 22.359375 46.484375 
Q 23.828125 47.703125 25.0625 48.796875 
Q 26.3125 49.90625 27.4375 50.953125 
Q 28.5625 52 29.578125 53.015625 
Q 30.609375 54.046875 31.6875 55.171875 
Q 32.234375 55.28125 32.640625 55.34375 
Q 33.0625 55.421875 33.59375 55.328125 
Q 39.796875 52.25 43.703125 50.25 
Q 47.609375 48.25 48.53125 47.171875 
Q 49.5625 46 50.3125 43.28125 
Q 51.078125 40.578125 51.609375 36.9375 
Q 52.15625 33.296875 52.421875 29.015625 
Q 52.6875 24.75 52.6875 20.453125 
Q 52.6875 14.359375 51.921875 9.15625 
Q 51.171875 3.953125 50.203125 0.484375 
Q 50.09375 0.203125 49.796875 0.09375 
Q 49.515625 0 49.171875 0 
L 31.640625 0 
Q 29.78125 0 28.359375 -0.015625 
Q 26.953125 -0.046875 25.75 -0.1875 
Q 24.5625 -0.34375 23.484375 -0.65625 
Q 22.40625 -0.984375 21.296875 -1.515625 
Q 20.125 -1.375 19.53125 -0.53125 
Q 20.3125 1.125 21.359375 3.125 
Q 22.40625 5.125 23.78125 7.328125 
Q 24.21875 7.953125 24.828125 8.53125 
Q 25.4375 9.125 26.3125 9.515625 
Q 27.203125 9.90625 28.421875 10.15625 
Q 29.640625 10.40625 31.296875 10.40625 
L 41.609375 10.40625 
Q 43.65625 10.40625 44.75 11.1875 
Q 45.84375 11.96875 46.359375 13.328125 
Q 46.875 14.703125 46.96875 16.484375 
Q 47.078125 18.265625 47.078125 20.3125 
Q 47.078125 23.640625 46.734375 26.5625 
Q 46.390625 29.5 45.75 31.859375 
Q 45.125 34.234375 44.140625 35.96875 
Q 43.171875 37.703125 41.9375 38.578125 
Q 40.625 39.5 38.8125 40.46875 
Q 37.015625 41.453125 35.28125 42.234375 
Q 33.546875 43.015625 32.078125 43.53125 
Q 30.609375 44.046875 29.984375 44.046875 
Q 28.265625 44.046875 26.671875 43.4375 
Q 25.09375 42.828125 23.65625 41.84375 
Q 22.21875 40.875 21.015625 39.640625 
Q 19.828125 38.421875 18.890625 37.15625 
Q 17.484375 35.203125 16.625 33.34375 
Q 15.765625 31.5 15.296875 28.78125 
Q 14.84375 26.078125 14.59375 21.953125 
Q 14.359375 17.828125 14.15625 11.328125 
Q 14.109375 10.40625 14.03125 9.5625 
Q 13.96875 8.734375 13.578125 8.15625 
Q 12.890625 7.03125 12.125 5.78125 
Q 11.375 4.546875 10.671875 3.34375 
Q 9.96875 2.15625 9.34375 1.03125 
Q 8.734375 -0.09375 8.296875 -0.984375 
Q 6.9375 -1.125 5.609375 -0.984375 
z
" id="SBLBibLit-1502"/>
     </defs>
     <use xlink:href="#SBLBibLit-1492"/>
     <use x="55.224609" xlink:href="#SBLBibLit-1502"/>
     <use x="112.792969" xlink:href="#SBLBibLit-1492"/>
     <use x="168.017578" xlink:href="#SBLBibLit-46"/>
     <use x="195.849609" xlink:href="#SBLBibLit-1523"/>
     <use x="216.650391" xlink:href="#SBLBibLit-1494"/>
     <use x="245.458984" xlink:href="#SBLBibLit-46"/>
     <use x="273.291016" xlink:href="#SBLBibLit-1492"/>
     <use x="328.515625" xlink:href="#SBLBibLit-46"/>
     <use x="356.347656" xlink:href="#SBLBibLit-1489"/>
    </g>
   </g>
   <g id="text_16">
    <!-- הז.׳ז.ה.ב -->
    <g style="fill:#0000ff;" transform="translate(285.249068 195.990591)scale(0.15 -0.15)">
     <use xlink:href="#SBLBibLit-1492"/>
     <use x="55.224609" xlink:href="#SBLBibLit-1494"/>
     <use x="84.033203" xlink:href="#SBLBibLit-46"/>
     <use x="111.865234" xlink:href="#SBLBibLit-1523"/>
     <use x="132.666016" xlink:href="#SBLBibLit-1494"/>
     <use x="161.474609" xlink:href="#SBLBibLit-46"/>
     <use x="189.306641" xlink:href="#SBLBibLit-1492"/>
     <use x="244.53125" xlink:href="#SBLBibLit-46"/>
     <use x="272.363281" xlink:href="#SBLBibLit-1489"/>
    </g>
   </g>
   <g id="text_17">
    <!-- ׳ס.׳ז.ה.ב -->
    <g style="fill:#0000ff;" transform="translate(254.478835 116.125938)scale(0.15 -0.15)">
     <defs>
      <path d="M 16.359375 -1.125 
Q 14.75 0.78125 13.1875 3.96875 
Q 11.625 7.171875 10.375 10.765625 
Q 9.125 14.359375 8.34375 17.796875 
Q 7.5625 21.234375 7.5625 23.578125 
Q 7.5625 25.34375 8 27.46875 
Q 8.453125 29.59375 9.15625 31.828125 
Q 9.859375 34.078125 10.734375 36.34375 
Q 11.625 38.625 12.453125 40.671875 
Q 8.59375 40.875 6.984375 41.984375 
Q 5.375 43.109375 5.375 45.3125 
Q 5.375 45.75 5.5625 46.71875 
Q 5.765625 47.703125 6.125 49.015625 
Q 6.5 50.34375 7 51.921875 
Q 7.515625 53.515625 8.109375 55.125 
Q 8.59375 55.375 9.171875 55.46875 
Q 9.765625 55.5625 10.296875 55.515625 
Q 10.9375 54.109375 11.640625 53.296875 
Q 12.359375 52.484375 13.28125 52.0625 
Q 14.203125 51.65625 15.421875 51.53125 
Q 16.65625 51.421875 18.3125 51.421875 
L 37.640625 51.421875 
Q 41.609375 51.421875 44.265625 49.90625 
Q 46.921875 48.390625 48.53125 45.921875 
Q 50.140625 43.453125 50.796875 40.28125 
Q 51.46875 37.109375 51.46875 33.734375 
Q 51.46875 29.890625 50.78125 25.515625 
Q 50.09375 21.140625 48.546875 17.03125 
Q 47.015625 12.9375 44.578125 9.515625 
Q 42.140625 6.109375 38.671875 4.15625 
Q 37.453125 3.46875 35.640625 2.78125 
Q 33.84375 2.09375 31.765625 1.453125 
Q 29.6875 0.828125 27.5625 0.28125 
Q 25.4375 -0.25 23.578125 -0.65625 
Q 21.734375 -1.078125 20.34375 -1.34375 
Q 18.953125 -1.609375 18.359375 -1.65625 
Q 17.234375 -1.515625 16.359375 -1.125 
z
M 17.4375 40.53125 
Q 16.84375 39.109375 16.203125 37.375 
Q 15.578125 35.640625 15.015625 33.78125 
Q 14.453125 31.9375 14.109375 30.046875 
Q 13.765625 28.171875 13.765625 26.46875 
Q 13.765625 24.515625 14.34375 22.265625 
Q 14.9375 20.015625 15.890625 17.75 
Q 16.84375 15.484375 18.015625 13.328125 
Q 19.1875 11.1875 20.359375 9.46875 
Q 21.046875 9.515625 22.484375 9.765625 
Q 23.921875 10.015625 25.75 10.40625 
Q 27.59375 10.796875 29.640625 11.328125 
Q 31.6875 11.859375 33.5625 12.4375 
Q 35.453125 13.03125 36.96875 13.671875 
Q 38.484375 14.3125 39.265625 14.9375 
Q 40.828125 16.21875 42.046875 17.9375 
Q 43.265625 19.671875 44.09375 21.65625 
Q 44.921875 23.640625 45.359375 25.78125 
Q 45.796875 27.9375 45.796875 29.984375 
Q 45.796875 32.234375 45.234375 34.1875 
Q 44.671875 36.140625 43.5 37.53125 
Q 42.328125 38.921875 40.5 39.71875 
Q 38.671875 40.53125 36.140625 40.53125 
z
" id="SBLBibLit-1505"/>
     </defs>
     <use xlink:href="#SBLBibLit-1523"/>
     <use x="20.800781" xlink:href="#SBLBibLit-1505"/>
     <use x="76.416016" xlink:href="#SBLBibLit-46"/>
     <use x="104.248047" xlink:href="#SBLBibLit-1523"/>
     <use x="125.048828" xlink:href="#SBLBibLit-1494"/>
     <use x="153.857422" xlink:href="#SBLBibLit-46"/>
     <use x="181.689453" xlink:href="#SBLBibLit-1492"/>
     <use x="236.914062" xlink:href="#SBLBibLit-46"/>
     <use x="264.746094" xlink:href="#SBLBibLit-1489"/>
    </g>
   </g>
   <g id="text_18">
    <!-- ׳ז.ב -->
    <g style="fill:#0000ff;" transform="translate(263.975138 328.86078)scale(0.15 -0.15)">
     <use xlink:href="#SBLBibLit-1523"/>
     <use x="20.800781" xlink:href="#SBLBibLit-1494"/>
     <use x="49.609375" xlink:href="#SBLBibLit-46"/>
     <use x="77.441406" xlink:href="#SBLBibLit-1489"/>
    </g>
   </g>
   <g id="text_19">
    <!-- ׳ז.׳מ.ב -->
    <g style="fill:#0000ff;" transform="translate(92.915536 219.867736)scale(0.15 -0.15)">
     <use xlink:href="#SBLBibLit-1523"/>
     <use x="20.800781" xlink:href="#SBLBibLit-1494"/>
     <use x="49.609375" xlink:href="#SBLBibLit-46"/>
     <use x="77.441406" xlink:href="#SBLBibLit-1523"/>
     <use x="98.242188" xlink:href="#SBLBibLit-1502"/>
     <use x="155.810547" xlink:href="#SBLBibLit-46"/>
     <use x="183.642578" xlink:href="#SBLBibLit-1489"/>
    </g>
   </g>
   <g id="text_20">
    <!-- ׳ז.ה.ןיב -->
    <g style="fill:#0000ff;" transform="translate(415.221713 268.754666)scale(0.15 -0.15)">
     <defs>
      <path d="M 11.625 -19.234375 
Q 10.25 -19.390625 8.9375 -19.234375 
Q 8.796875 -16.890625 8.59375 -13.9375 
Q 8.40625 -10.984375 8.25 -7.6875 
Q 8.109375 -4.390625 8 -0.953125 
Q 7.90625 2.484375 7.90625 5.765625 
Q 7.90625 10.40625 7.953125 13.71875 
Q 8.015625 17.046875 8.171875 19.5625 
Q 8.34375 22.078125 8.703125 24.03125 
Q 9.078125 25.984375 9.65625 27.859375 
Q 10.25 29.734375 11.109375 31.8125 
Q 11.96875 33.890625 13.1875 36.671875 
Q 13.375 37.109375 13.390625 37.296875 
Q 13.421875 37.5 13.421875 37.703125 
Q 13.421875 38.421875 12.6875 38.890625 
Q 11.96875 39.359375 9.71875 39.984375 
Q 7.953125 40.484375 6.53125 40.9375 
Q 5.125 41.40625 4.140625 41.984375 
Q 3.171875 42.578125 2.65625 43.359375 
Q 2.15625 44.140625 2.15625 45.3125 
Q 2.15625 46 2.46875 47.28125 
Q 2.78125 48.578125 3.296875 50.0625 
Q 3.8125 51.5625 4.4375 53.03125 
Q 5.078125 54.5 5.671875 55.515625 
Q 6.0625 55.765625 6.71875 55.78125 
Q 7.375 55.8125 7.90625 55.71875 
Q 8.25 54.5 8.65625 53.765625 
Q 9.078125 53.03125 9.8125 52.53125 
Q 10.546875 52.046875 11.734375 51.65625 
Q 12.9375 51.265625 14.796875 50.734375 
Q 16.75 50.140625 18.046875 49.578125 
Q 19.34375 49.03125 20.09375 48.40625 
Q 20.84375 47.796875 21.140625 47.140625 
Q 21.4375 46.484375 21.4375 45.75 
Q 21.4375 44.34375 20.75 42.453125 
Q 20.0625 40.578125 18.953125 38.09375 
Q 17.671875 35.40625 16.765625 33.125 
Q 15.875 30.859375 15.28125 28.6875 
Q 14.703125 26.515625 14.421875 24.296875 
Q 14.15625 22.078125 14.15625 19.53125 
Q 14.15625 17.046875 14.34375 13.8125 
Q 14.546875 10.59375 14.890625 6.859375 
Q 15.234375 3.125 15.671875 -1 
Q 16.109375 -5.125 16.609375 -9.375 
Q 16.703125 -9.96875 16.765625 -10.59375 
Q 16.84375 -11.234375 16.84375 -11.671875 
Q 16.84375 -12.59375 16.640625 -13.109375 
Q 16.453125 -13.625 15.96875 -14.15625 
Q 14.84375 -15.4375 13.71875 -16.703125 
Q 12.59375 -17.96875 11.625 -19.234375 
z
" id="SBLBibLit-1503"/>
     </defs>
     <use xlink:href="#SBLBibLit-1523"/>
     <use x="20.800781" xlink:href="#SBLBibLit-1494"/>
     <use x="49.609375" xlink:href="#SBLBibLit-46"/>
     <use x="77.441406" xlink:href="#SBLBibLit-1492"/>
     <use x="132.666016" xlink:href="#SBLBibLit-46"/>
     <use x="160.498047" xlink:href="#SBLBibLit-1503"/>
     <use x="184.375" xlink:href="#SBLBibLit-1497"/>
     <use x="209.375" xlink:href="#SBLBibLit-1489"/>
    </g>
   </g>
   <g id="text_21">
    <!-- ׳ז.ה -->
    <g style="fill:#8b0000;" transform="translate(260.374245 219.183901)scale(0.15 -0.15)">
     <use xlink:href="#SBLBibLit-1523"/>
     <use x="20.800781" xlink:href="#SBLBibLit-1494"/>
     <use x="49.609375" xlink:href="#SBLBibLit-46"/>
     <use x="77.441406" xlink:href="#SBLBibLit-1492"/>
    </g>
   </g>
   <g id="text_22">
    <!-- ׳ז.ה -->
    <g style="fill:#0000ff;" transform="translate(186.246676 332.042247)scale(0.15 -0.15)">
     <use xlink:href="#SBLBibLit-1523"/>
     <use x="20.800781" xlink:href="#SBLBibLit-1494"/>
     <use x="49.609375" xlink:href="#SBLBibLit-46"/>
     <use x="77.441406" xlink:href="#SBLBibLit-1492"/>
    </g>
   </g>
   <g id="text_23">
    <!-- הז.׳ז.ה -->
    <g style="fill:#0000ff;" transform="translate(206.34436 362.096775)scale(0.15 -0.15)">
     <use xlink:href="#SBLBibLit-1492"/>
     <use x="55.224609" xlink:href="#SBLBibLit-1494"/>
     <use x="84.033203" xlink:href="#SBLBibLit-46"/>
     <use x="111.865234" xlink:href="#SBLBibLit-1523"/>
     <use x="132.666016" xlink:href="#SBLBibLit-1494"/>
     <use x="161.474609" xlink:href="#SBLBibLit-46"/>
     <use x="189.306641" xlink:href="#SBLBibLit-1492"/>
    </g>
   </g>
   <g id="text_24">
    <!-- ׳ז -->
    <g style="fill:#8b0000;" transform="translate(273.295651 182.30766)scale(0.15 -0.15)">
     <use xlink:href="#SBLBibLit-1523"/>
     <use x="20.800781" xlink:href="#SBLBibLit-1494"/>
    </g>
   </g>
   <g id="text_25">
    <!-- ׳ז -->
    <g style="fill:#0000ff;" transform="translate(328.213868 316.139316)scale(0.15 -0.15)">
     <use xlink:href="#SBLBibLit-1523"/>
     <use x="20.800781" xlink:href="#SBLBibLit-1494"/>
    </g>
   </g>
   <g id="text_26">
    <!-- ׳ז.ה.כ -->
    <g style="fill:#0000ff;" transform="translate(362.063935 367.588737)scale(0.15 -0.15)">
     <defs>
      <path d="M 9.90625 55.515625 
Q 10.546875 54.109375 11.25 53.296875 
Q 11.96875 52.484375 12.890625 52.0625 
Q 13.8125 51.65625 15.03125 51.53125 
Q 16.265625 51.421875 17.921875 51.421875 
L 29.5 51.421875 
Q 33.0625 51.421875 35.9375 50 
Q 38.8125 48.578125 40.859375 45.578125 
Q 42.921875 42.578125 44.015625 37.890625 
Q 45.125 33.203125 45.125 26.703125 
Q 45.125 23.484375 44.65625 19.8125 
Q 44.1875 16.15625 43.453125 12.609375 
Q 42.71875 9.078125 41.796875 5.90625 
Q 40.875 2.734375 39.9375 0.484375 
Q 39.796875 0.140625 39.578125 0.0625 
Q 39.359375 0 38.96875 0 
L 15.140625 0 
Q 13.28125 0 11.890625 -0.015625 
Q 10.5 -0.046875 9.328125 -0.171875 
Q 8.15625 -0.296875 7.109375 -0.578125 
Q 6.0625 -0.875 4.890625 -1.421875 
Q 4.34375 -1.3125 3.796875 -1.109375 
Q 3.265625 -0.921875 2.9375 -0.53125 
Q 3.328125 1.125 4.03125 3.25 
Q 4.734375 5.375 5.609375 7.5625 
Q 6.15625 8.9375 7.734375 9.8125 
Q 9.328125 10.6875 12.640625 10.6875 
L 36.078125 10.6875 
Q 36.671875 10.6875 36.859375 11.03125 
Q 37.25 11.921875 37.640625 13.3125 
Q 38.03125 14.703125 38.34375 16.40625 
Q 38.671875 18.109375 38.859375 20.09375 
Q 39.0625 22.078125 39.0625 24.125 
Q 39.0625 27.640625 38.34375 30.640625 
Q 37.640625 33.640625 36.265625 35.828125 
Q 34.90625 38.03125 32.90625 39.28125 
Q 30.90625 40.53125 28.375 40.53125 
L 14.40625 40.53125 
Q 12.640625 40.53125 10.984375 40.671875 
Q 9.328125 40.828125 8.03125 41.359375 
Q 6.734375 41.890625 5.953125 42.921875 
Q 5.171875 43.953125 5.171875 45.65625 
Q 5.171875 46.09375 5.34375 47.015625 
Q 5.515625 47.953125 5.859375 49.1875 
Q 6.203125 50.4375 6.65625 51.96875 
Q 7.125 53.515625 7.71875 55.125 
Q 8.203125 55.375 8.78125 55.46875 
Q 9.375 55.5625 9.90625 55.515625 
z
" id="SBLBibLit-1499"/>
     </defs>
     <use xlink:href="#SBLBibLit-1523"/>
     <use x="20.800781" xlink:href="#SBLBibLit-1494"/>
     <use x="49.609375" xlink:href="#SBLBibLit-46"/>
     <use x="77.441406" xlink:href="#SBLBibLit-1492"/>
     <use x="132.666016" xlink:href="#SBLBibLit-46"/>
     <use x="160.498047" xlink:href="#SBLBibLit-1499"/>
    </g>
   </g>
   <g id="text_27">
    <!-- הז.׳ז.ה.כ -->
    <g style="fill:#0000ff;" transform="translate(68.727842 168.616015)scale(0.15 -0.15)">
     <use xlink:href="#SBLBibLit-1492"/>
     <use x="55.224609" xlink:href="#SBLBibLit-1494"/>
     <use x="84.033203" xlink:href="#SBLBibLit-46"/>
     <use x="111.865234" xlink:href="#SBLBibLit-1523"/>
     <use x="132.666016" xlink:href="#SBLBibLit-1494"/>
     <use x="161.474609" xlink:href="#SBLBibLit-46"/>
     <use x="189.306641" xlink:href="#SBLBibLit-1492"/>
     <use x="244.53125" xlink:href="#SBLBibLit-46"/>
     <use x="272.363281" xlink:href="#SBLBibLit-1499"/>
    </g>
   </g>
   <g id="text_28">
    <!-- ׳ז.כ -->
    <g style="fill:#0000ff;" transform="translate(133.355012 313.408721)scale(0.15 -0.15)">
     <use xlink:href="#SBLBibLit-1523"/>
     <use x="20.800781" xlink:href="#SBLBibLit-1494"/>
     <use x="49.609375" xlink:href="#SBLBibLit-46"/>
     <use x="77.441406" xlink:href="#SBLBibLit-1499"/>
    </g>
   </g>
   <g id="text_29">
    <!-- ׳ז.ה.ל -->
    <g style="fill:#0000ff;" transform="translate(353.679347 150.9239)scale(0.15 -0.15)">
     <defs>
      <path d="M 20.0625 11.375 
Q 25.203125 13.875 28.328125 16.765625 
Q 31.453125 19.671875 33.171875 22.65625 
Q 34.90625 25.640625 35.484375 28.484375 
Q 36.078125 31.34375 36.078125 33.796875 
Q 36.078125 37.59375 34.390625 39.0625 
Q 32.71875 40.53125 29.5 40.53125 
L 11.96875 40.53125 
Q 9.234375 40.53125 7.390625 41.0625 
Q 5.5625 41.609375 4.46875 42.625 
Q 3.375 43.65625 2.90625 45.109375 
Q 2.4375 46.578125 2.4375 48.4375 
Q 2.4375 52.203125 2.609375 54.515625 
Q 2.78125 56.84375 3.296875 58.515625 
Q 3.8125 60.203125 4.703125 61.6875 
Q 5.609375 63.1875 7.125 65.234375 
Q 7.375 65.53125 7.421875 65.703125 
Q 7.46875 65.875 7.46875 65.96875 
Q 7.46875 66.453125 6.90625 66.921875 
Q 6.34375 67.390625 5.28125 68.21875 
Q 3.421875 69.671875 2.203125 70.9375 
Q 0.984375 72.21875 0.984375 73.53125 
Q 0.984375 74.265625 1.515625 75.234375 
Q 2.046875 76.21875 2.90625 77.3125 
Q 3.765625 78.421875 4.859375 79.59375 
Q 5.953125 80.765625 7.078125 81.890625 
Q 7.515625 81.890625 8.09375 81.6875 
Q 8.6875 81.5 9.078125 81.25 
Q 8.890625 80.328125 8.9375 79.71875 
Q 8.984375 79.109375 9.34375 78.546875 
Q 9.71875 77.984375 10.46875 77.375 
Q 11.234375 76.765625 12.5 75.78125 
Q 14.546875 74.21875 15.375 73.28125 
Q 16.21875 72.359375 16.21875 71.4375 
Q 16.21875 70.703125 15.765625 69.84375 
Q 15.328125 69 14.640625 68.109375 
Q 13.96875 67.234375 13.109375 66.296875 
Q 12.25 65.375 11.421875 64.5 
Q 10.59375 63.625 10.109375 62.8125 
Q 9.625 62.015625 9.328125 61.109375 
Q 9.03125 60.203125 8.9375 59.109375 
Q 8.84375 58.015625 8.84375 56.59375 
Q 8.84375 55.03125 9.03125 54.03125 
Q 9.234375 53.03125 9.84375 52.4375 
Q 10.453125 51.859375 11.59375 51.640625 
Q 12.75 51.421875 14.59375 51.421875 
L 31.34375 51.421875 
Q 34.375 51.421875 36.515625 50.484375 
Q 38.671875 49.5625 40.03125 47.96875 
Q 41.40625 46.390625 42.03125 44.3125 
Q 42.671875 42.234375 42.671875 39.890625 
Q 42.671875 35.359375 41.1875 29.953125 
Q 39.703125 24.5625 36.765625 19.09375 
Q 33.84375 13.625 29.5625 8.46875 
Q 25.296875 3.328125 19.734375 -0.78125 
Q 18.609375 -0.640625 17.71875 -0.25 
Q 18.171875 2.546875 18.78125 5.5625 
Q 19.390625 8.59375 20.0625 11.375 
z
" id="SBLBibLit-1500"/>
     </defs>
     <use xlink:href="#SBLBibLit-1523"/>
     <use x="20.800781" xlink:href="#SBLBibLit-1494"/>
     <use x="49.609375" xlink:href="#SBLBibLit-46"/>
     <use x="77.441406" xlink:href="#SBLBibLit-1492"/>
     <use x="132.666016" xlink:href="#SBLBibLit-46"/>
     <use x="160.498047" xlink:href="#SBLBibLit-1500"/>
    </g>
   </g>
   <g id="text_30">
    <!-- ׳ז.ל -->
    <g style="fill:#8b0000;" transform="translate(400.013521 315.285452)scale(0.15 -0.15)">
     <use xlink:href="#SBLBibLit-1523"/>
     <use x="20.800781" xlink:href="#SBLBibLit-1494"/>
     <use x="49.609375" xlink:href="#SBLBibLit-46"/>
     <use x="77.441406" xlink:href="#SBLBibLit-1500"/>
    </g>
   </g>
   <g id="text_31">
    <!-- ׳ז.ל -->
    <g style="fill:#0000ff;" transform="translate(253.476946 198.202859)scale(0.15 -0.15)">
     <use xlink:href="#SBLBibLit-1523"/>
     <use x="20.800781" xlink:href="#SBLBibLit-1494"/>
     <use x="49.609375" xlink:href="#SBLBibLit-46"/>
     <use x="77.441406" xlink:href="#SBLBibLit-1500"/>
    </g>
   </g>
   <g id="text_32">
    <!-- ׳ז.׳מ.ל -->
    <g style="fill:#8b0000;" transform="translate(74.608968 78.441673)scale(0.15 -0.15)">
     <use xlink:href="#SBLBibLit-1523"/>
     <use x="20.800781" xlink:href="#SBLBibLit-1494"/>
     <use x="49.609375" xlink:href="#SBLBibLit-46"/>
     <use x="77.441406" xlink:href="#SBLBibLit-1523"/>
     <use x="98.242188" xlink:href="#SBLBibLit-1502"/>
     <use x="155.810547" xlink:href="#SBLBibLit-46"/>
     <use x="183.642578" xlink:href="#SBLBibLit-1500"/>
    </g>
   </g>
   <g id="text_33">
    <!-- ׳ז.ןמ -->
    <g style="fill:#8b0000;" transform="translate(49.671199 417.078694)scale(0.15 -0.15)">
     <use xlink:href="#SBLBibLit-1523"/>
     <use x="20.800781" xlink:href="#SBLBibLit-1494"/>
     <use x="49.609375" xlink:href="#SBLBibLit-46"/>
     <use x="77.441406" xlink:href="#SBLBibLit-1503"/>
     <use x="101.318359" xlink:href="#SBLBibLit-1502"/>
    </g>
   </g>
   <g id="text_34">
    <!-- ׳ז.׳מ -->
    <g style="fill:#8b0000;" transform="translate(186.798705 172.859404)scale(0.15 -0.15)">
     <use xlink:href="#SBLBibLit-1523"/>
     <use x="20.800781" xlink:href="#SBLBibLit-1494"/>
     <use x="49.609375" xlink:href="#SBLBibLit-46"/>
     <use x="77.441406" xlink:href="#SBLBibLit-1523"/>
     <use x="98.242188" xlink:href="#SBLBibLit-1502"/>
    </g>
   </g>
   <g id="text_35">
    <!-- ׳ז.׳מ -->
    <g style="fill:#0000ff;" transform="translate(240.410015 395.059993)scale(0.15 -0.15)">
     <use xlink:href="#SBLBibLit-1523"/>
     <use x="20.800781" xlink:href="#SBLBibLit-1494"/>
     <use x="49.609375" xlink:href="#SBLBibLit-46"/>
     <use x="77.441406" xlink:href="#SBLBibLit-1523"/>
     <use x="98.242188" xlink:href="#SBLBibLit-1502"/>
    </g>
   </g>
   <g id="text_36">
    <!-- ׳ז.ה.דע -->
    <g style="fill:#8b0000;" transform="translate(394.571868 21.73324)scale(0.15 -0.15)">
     <defs>
      <path d="M 43.015625 41.109375 
Q 39.5 41.109375 38.078125 39.34375 
Q 36.671875 37.59375 36.671875 34.03125 
Q 36.671875 31.546875 36.796875 28.921875 
Q 36.921875 26.3125 37.140625 23.71875 
Q 37.359375 21.140625 37.640625 18.625 
Q 37.9375 16.109375 38.28125 13.875 
Q 38.578125 11.859375 38.84375 9.9375 
Q 39.109375 8.015625 39.109375 7.171875 
Q 39.109375 5.8125 38.234375 4.734375 
Q 37.15625 3.375 36.109375 1.90625 
Q 35.0625 0.4375 34.125 -0.984375 
Q 32.765625 -1.125 31.453125 -0.984375 
Q 31.109375 2.15625 30.984375 6.125 
Q 30.859375 10.109375 30.859375 14.5 
Q 30.859375 18.3125 30.921875 22.171875 
Q 31 26.03125 31.125 29.484375 
Q 31.25 32.953125 31.390625 35.8125 
Q 31.546875 38.671875 31.6875 40.53125 
L 10.6875 40.53125 
Q 8.9375 40.53125 7.265625 40.671875 
Q 5.609375 40.828125 4.3125 41.359375 
Q 3.03125 41.890625 2.25 42.921875 
Q 1.46875 43.953125 1.46875 45.65625 
Q 1.46875 46.09375 1.640625 47.015625 
Q 1.8125 47.953125 2.140625 49.1875 
Q 2.484375 50.4375 2.953125 51.96875 
Q 3.421875 53.515625 4 55.125 
Q 4.5 55.375 5.078125 55.46875 
Q 5.671875 55.5625 6.203125 55.515625 
Q 6.84375 54.109375 7.546875 53.296875 
Q 8.25 52.484375 9.171875 52.0625 
Q 10.109375 51.65625 11.328125 51.53125 
Q 12.546875 51.421875 14.203125 51.421875 
L 45.515625 51.421875 
Q 45.796875 51.421875 45.75 51.078125 
Q 45.015625 48.390625 44.484375 46.1875 
Q 43.953125 44 43.40625 41.453125 
Q 43.359375 41.109375 43.015625 41.109375 
z
" id="SBLBibLit-1491"/>
      <path d="M 35.15625 55.71875 
Q 35.296875 54.640625 35.5625 53.953125 
Q 35.84375 53.265625 36.453125 52.734375 
Q 37.0625 52.203125 38.15625 51.703125 
Q 39.265625 51.21875 41.0625 50.53125 
Q 42.625 49.953125 43.875 49.4375 
Q 45.125 48.921875 46 48.328125 
Q 46.875 47.75 47.328125 47.015625 
Q 47.796875 46.296875 47.796875 45.265625 
Q 47.796875 44.28125 47.359375 41.96875 
Q 46.921875 39.65625 46.1875 36.625 
Q 45.453125 33.59375 44.46875 30.09375 
Q 43.5 26.609375 42.46875 23.28125 
Q 41.453125 19.96875 40.40625 17.0625 
Q 39.359375 14.15625 38.484375 12.3125 
Q 37.75 10.84375 36.90625 9.640625 
Q 36.078125 8.453125 35 7.34375 
Q 33.9375 6.25 32.515625 5.203125 
Q 31.109375 4.15625 29.15625 2.984375 
Q 27.6875 2.09375 25.921875 1.140625 
Q 24.171875 0.203125 22 -0.9375 
Q 19.828125 -2.09375 17.265625 -3.484375 
Q 14.703125 -4.890625 11.625 -6.640625 
Q 10.0625 -7.515625 9.03125 -8.21875 
Q 8.015625 -8.9375 7.28125 -9.609375 
Q 6.546875 -10.296875 5.953125 -11.046875 
Q 5.375 -11.8125 4.78125 -12.75 
Q 3.65625 -12.890625 2.6875 -12.359375 
Q 2.734375 -11.28125 2.796875 -10.328125 
Q 2.875 -9.375 2.96875 -8.4375 
Q 3.078125 -7.515625 3.21875 -6.515625 
Q 3.375 -5.515625 3.5625 -4.34375 
Q 3.71875 -3.65625 4 -2.828125 
Q 4.296875 -2 4.875 -1.125 
Q 5.46875 -0.25 6.390625 0.609375 
Q 7.328125 1.46875 8.796875 2.203125 
Q 11.140625 3.421875 13.109375 4.515625 
Q 15.09375 5.609375 16.9375 6.59375 
Q 15.09375 10.546875 13.796875 13.421875 
Q 12.5 16.3125 11.6875 18.328125 
Q 10.890625 20.359375 10.453125 21.71875 
Q 10.015625 23.09375 9.796875 24.0625 
Q 9.578125 25.046875 9.546875 25.796875 
Q 9.515625 26.5625 9.515625 27.390625 
Q 9.515625 28.765625 10.203125 31.203125 
Q 10.890625 33.640625 12.40625 37.203125 
Q 12.59375 37.640625 12.59375 37.984375 
Q 12.59375 38.53125 11.828125 39.015625 
Q 11.078125 39.5 9.03125 40.53125 
Q 7.375 41.40625 6.34375 42.0625 
Q 5.328125 42.71875 4.734375 43.296875 
Q 4.15625 43.890625 3.953125 44.5 
Q 3.765625 45.125 3.765625 45.84375 
Q 3.765625 46.625 4.21875 47.890625 
Q 4.6875 49.171875 5.421875 50.578125 
Q 6.15625 52 7 53.40625 
Q 7.859375 54.828125 8.640625 55.859375 
Q 8.734375 55.90625 9.046875 55.921875 
Q 9.375 55.953125 9.734375 55.90625 
Q 10.109375 55.859375 10.421875 55.8125 
Q 10.75 55.765625 10.890625 55.671875 
Q 10.984375 54.984375 11.109375 54.375 
Q 11.234375 53.765625 11.71875 53.125 
Q 12.203125 52.484375 13.125 51.796875 
Q 14.0625 51.125 15.765625 50.34375 
Q 18.265625 49.171875 19.53125 48.3125 
Q 20.796875 47.46875 20.796875 46.046875 
Q 20.796875 44.78125 19.984375 42.890625 
Q 19.1875 41.015625 18.234375 38.9375 
Q 17.28125 36.859375 16.46875 34.828125 
Q 15.671875 32.8125 15.671875 31.34375 
Q 15.671875 30.609375 15.75 29.953125 
Q 15.828125 29.296875 16.09375 28.359375 
Q 16.359375 27.4375 16.890625 26.0625 
Q 17.4375 24.703125 18.390625 22.625 
Q 19.34375 20.5625 20.78125 17.609375 
Q 22.21875 14.65625 24.265625 10.546875 
Q 25.984375 11.46875 27.265625 12.171875 
Q 28.5625 12.890625 29.5625 13.546875 
Q 30.5625 14.203125 31.34375 14.8125 
Q 32.125 15.4375 32.8125 16.15625 
Q 34.078125 17.53125 35.328125 19.828125 
Q 36.578125 22.125 37.546875 24.828125 
Q 38.53125 27.546875 39.140625 30.4375 
Q 39.75 33.34375 39.75 35.984375 
Q 39.75 37.015625 39.546875 37.671875 
Q 39.359375 38.328125 38.921875 38.8125 
Q 38.484375 39.3125 37.71875 39.703125 
Q 36.96875 40.09375 35.890625 40.53125 
Q 34.125 41.265625 32.90625 41.828125 
Q 31.6875 42.390625 30.90625 42.96875 
Q 30.125 43.5625 29.78125 44.265625 
Q 29.4375 44.96875 29.4375 45.953125 
Q 29.4375 46.875 29.796875 48.140625 
Q 30.171875 49.421875 30.703125 50.78125 
Q 31.25 52.15625 31.875 53.46875 
Q 32.515625 54.78125 33.0625 55.8125 
Q 33.546875 55.90625 34.078125 55.859375 
Q 34.625 55.8125 35.15625 55.71875 
z
" id="SBLBibLit-1506"/>
     </defs>
     <use xlink:href="#SBLBibLit-1523"/>
     <use x="20.800781" xlink:href="#SBLBibLit-1494"/>
     <use x="49.609375" xlink:href="#SBLBibLit-46"/>
     <use x="77.441406" xlink:href="#SBLBibLit-1492"/>
     <use x="132.666016" xlink:href="#SBLBibLit-46"/>
     <use x="160.498047" xlink:href="#SBLBibLit-1491"/>
     <use x="209.472656" xlink:href="#SBLBibLit-1506"/>
    </g>
   </g>
   <g id="text_37">
    <!-- הז.׳ז.ה.דע -->
    <g style="fill:#8b0000;" transform="translate(97.63705 132.105721)scale(0.15 -0.15)">
     <use xlink:href="#SBLBibLit-1492"/>
     <use x="55.224609" xlink:href="#SBLBibLit-1494"/>
     <use x="84.033203" xlink:href="#SBLBibLit-46"/>
     <use x="111.865234" xlink:href="#SBLBibLit-1523"/>
     <use x="132.666016" xlink:href="#SBLBibLit-1494"/>
     <use x="161.474609" xlink:href="#SBLBibLit-46"/>
     <use x="189.306641" xlink:href="#SBLBibLit-1492"/>
     <use x="244.53125" xlink:href="#SBLBibLit-46"/>
     <use x="272.363281" xlink:href="#SBLBibLit-1491"/>
     <use x="321.337891" xlink:href="#SBLBibLit-1506"/>
    </g>
   </g>
   <g id="text_38">
    <!-- ׳ז.דע -->
    <g style="fill:#8b0000;" transform="translate(369.078307 260.885753)scale(0.15 -0.15)">
     <use xlink:href="#SBLBibLit-1523"/>
     <use x="20.800781" xlink:href="#SBLBibLit-1494"/>
     <use x="49.609375" xlink:href="#SBLBibLit-46"/>
     <use x="77.441406" xlink:href="#SBLBibLit-1491"/>
     <use x="126.416016" xlink:href="#SBLBibLit-1506"/>
    </g>
   </g>
  </g>
 </g>
</svg>
