<?xml version="1.0" encoding="utf-8" standalone="no"?>
<!DOCTYPE svg PUBLIC "-//W3C//DTD SVG 1.1//EN"
  "http://www.w3.org/Graphics/SVG/1.1/DTD/svg11.dtd">
<!-- Created with matplotlib (https://matplotlib.org/) -->
<svg height="465.958125pt" version="1.1" viewBox="0 0 482.542187 465.958125" width="482.542187pt" xmlns="http://www.w3.org/2000/svg" xmlns:xlink="http://www.w3.org/1999/xlink">
 <metadata>
  <rdf:RDF xmlns:cc="http://creativecommons.org/ns#" xmlns:dc="http://purl.org/dc/elements/1.1/" xmlns:rdf="http://www.w3.org/1999/02/22-rdf-syntax-ns#">
   <cc:Work>
    <dc:type rdf:resource="http://purl.org/dc/dcmitype/StillImage"/>
    <dc:date>2021-05-05T16:43:11.859941</dc:date>
    <dc:format>image/svg+xml</dc:format>
    <dc:creator>
     <cc:Agent>
      <dc:title>Matplotlib v3.3.3, https://matplotlib.org/</dc:title>
     </cc:Agent>
    </dc:creator>
   </cc:Work>
  </rdf:RDF>
 </metadata>
 <defs>
  <style type="text/css">*{stroke-linecap:butt;stroke-linejoin:round;}</style>
 </defs>
 <g id="figure_1">
  <g id="patch_1">
   <path d="M 0 465.958125 
L 482.542187 465.958125 
L 482.542187 0 
L 0 0 
z
" style="fill:none;"/>
  </g>
  <g id="axes_1">
   <g id="patch_2">
    <path d="M 28.942188 442.08 
L 475.342187 442.08 
L 475.342187 7.2 
L 28.942188 7.2 
z
" style="fill:#ffffff;"/>
   </g>
   <g id="PathCollection_1">
    <defs>
     <path d="M 0 4.1833 
C 1.109424 4.1833 2.173559 3.742521 2.95804 2.95804 
C 3.742521 2.173559 4.1833 1.109424 4.1833 0 
C 4.1833 -1.109424 3.742521 -2.173559 2.95804 -2.95804 
C 2.173559 -3.742521 1.109424 -4.1833 0 -4.1833 
C -1.109424 -4.1833 -2.173559 -3.742521 -2.95804 -2.95804 
C -3.742521 -2.173559 -4.1833 -1.109424 -4.1833 0 
C -4.1833 1.109424 -3.742521 2.173559 -2.95804 2.95804 
C -2.173559 3.742521 -1.109424 4.1833 0 4.1833 
z
" id="m5ebddaff0d" style="stroke:#000000;"/>
    </defs>
    <g clip-path="url(#pb77e0f0d54)">
     <use style="fill:#ff0000;fill-opacity:0.75;stroke:#000000;" x="260.007623" xlink:href="#m5ebddaff0d" y="206.590492"/>
     <use style="fill:#ff0000;fill-opacity:0.75;stroke:#000000;" x="273.159609" xlink:href="#m5ebddaff0d" y="187.541693"/>
     <use style="fill:#ff0000;fill-opacity:0.75;stroke:#000000;" x="399.674569" xlink:href="#m5ebddaff0d" y="320.519485"/>
     <use style="fill:#ff0000;fill-opacity:0.75;stroke:#000000;" x="73.974873" xlink:href="#m5ebddaff0d" y="83.675706"/>
     <use style="fill:#ff0000;fill-opacity:0.75;stroke:#000000;" x="49.233097" xlink:href="#m5ebddaff0d" y="422.312727"/>
     <use style="fill:#ff0000;fill-opacity:0.75;stroke:#000000;" x="186.36752" xlink:href="#m5ebddaff0d" y="178.093437"/>
     <use style="fill:#ff0000;fill-opacity:0.75;stroke:#000000;" x="393.852458" xlink:href="#m5ebddaff0d" y="26.967273"/>
     <use style="fill:#ff0000;fill-opacity:0.75;stroke:#000000;" x="96.608663" xlink:href="#m5ebddaff0d" y="137.339754"/>
     <use style="fill:#ff0000;fill-opacity:0.75;stroke:#000000;" x="396.10073" xlink:href="#m5ebddaff0d" y="266.119787"/>
    </g>
   </g>
   <g id="PathCollection_2">
    <defs>
     <path d="M 0 4.1833 
C 1.109424 4.1833 2.173559 3.742521 2.95804 2.95804 
C 3.742521 2.173559 4.1833 1.109424 4.1833 0 
C 4.1833 -1.109424 3.742521 -2.173559 2.95804 -2.95804 
C 2.173559 -3.742521 1.109424 -4.1833 0 -4.1833 
C -1.109424 -4.1833 -2.173559 -3.742521 -2.95804 -2.95804 
C -3.742521 -2.173559 -4.1833 -1.109424 -4.1833 0 
C -4.1833 1.109424 -3.742521 2.173559 -2.95804 2.95804 
C -2.173559 3.742521 -1.109424 4.1833 0 4.1833 
z
" id="m11dcbf0515" style="stroke:#000000;"/>
    </defs>
    <g clip-path="url(#pb77e0f0d54)">
     <use style="fill:#0000ff;fill-opacity:0.75;stroke:#000000;" x="253.450039" xlink:href="#m11dcbf0515" y="92.555611"/>
     <use style="fill:#0000ff;fill-opacity:0.75;stroke:#000000;" x="305.402925" xlink:href="#m11dcbf0515" y="57.414941"/>
     <use style="fill:#0000ff;fill-opacity:0.75;stroke:#000000;" x="149.441016" xlink:href="#m11dcbf0515" y="159.11148"/>
     <use style="fill:#0000ff;fill-opacity:0.75;stroke:#000000;" x="156.635799" xlink:href="#m11dcbf0515" y="308.231701"/>
     <use style="fill:#0000ff;fill-opacity:0.75;stroke:#000000;" x="383.716183" xlink:href="#m11dcbf0515" y="275.237935"/>
     <use style="fill:#0000ff;fill-opacity:0.75;stroke:#000000;" x="284.354418" xlink:href="#m11dcbf0515" y="201.224624"/>
     <use style="fill:#0000ff;fill-opacity:0.75;stroke:#000000;" x="253.602631" xlink:href="#m11dcbf0515" y="121.359971"/>
     <use style="fill:#0000ff;fill-opacity:0.75;stroke:#000000;" x="263.620045" xlink:href="#m11dcbf0515" y="334.094813"/>
     <use style="fill:#0000ff;fill-opacity:0.75;stroke:#000000;" x="92.265301" xlink:href="#m11dcbf0515" y="225.101769"/>
     <use style="fill:#0000ff;fill-opacity:0.75;stroke:#000000;" x="455.051278" xlink:href="#m11dcbf0515" y="273.988699"/>
     <use style="fill:#0000ff;fill-opacity:0.75;stroke:#000000;" x="185.880054" xlink:href="#m11dcbf0515" y="319.448838"/>
     <use style="fill:#0000ff;fill-opacity:0.75;stroke:#000000;" x="205.66876" xlink:href="#m11dcbf0515" y="349.503367"/>
     <use style="fill:#0000ff;fill-opacity:0.75;stroke:#000000;" x="328.077826" xlink:href="#m11dcbf0515" y="303.545908"/>
     <use style="fill:#0000ff;fill-opacity:0.75;stroke:#000000;" x="361.482874" xlink:href="#m11dcbf0515" y="372.822771"/>
     <use style="fill:#0000ff;fill-opacity:0.75;stroke:#000000;" x="67.837803" xlink:href="#m11dcbf0515" y="173.850048"/>
     <use style="fill:#0000ff;fill-opacity:0.75;stroke:#000000;" x="133.00453" xlink:href="#m11dcbf0515" y="318.642754"/>
     <use style="fill:#0000ff;fill-opacity:0.75;stroke:#000000;" x="353.109815" xlink:href="#m11dcbf0515" y="156.157933"/>
     <use style="fill:#0000ff;fill-opacity:0.75;stroke:#000000;" x="253.137993" xlink:href="#m11dcbf0515" y="203.436892"/>
     <use style="fill:#0000ff;fill-opacity:0.75;stroke:#000000;" x="239.97883" xlink:href="#m11dcbf0515" y="400.294026"/>
    </g>
   </g>
   <g id="patch_3">
    <path clip-path="url(#pb77e0f0d54)" d="M 296.310485 187.408154 
L 296.310485 187.408154 
L 296.332868 187.446134 
L 244.833 231.294567 
L 244.788233 231.218607 
L 296.288101 187.370173 
L 296.310485 187.408154 
z
" style="fill:#808080;stroke:#808080;stroke-linejoin:miter;"/>
   </g>
   <g id="patch_4">
    <path clip-path="url(#pb77e0f0d54)" d="M 183.650483 282.999211 
L 183.650483 282.999211 
L 183.628194 282.96115 
L 244.788328 231.218526 
L 244.832905 231.294648 
L 183.672771 283.037272 
L 183.650483 282.999211 
z
" style="fill:#808080;stroke:#808080;stroke-linejoin:miter;"/>
   </g>
   <g id="patch_5">
    <path clip-path="url(#pb77e0f0d54)" d="M 201.925938 155.878779 
L 201.925938 155.878779 
L 201.957902 155.852506 
L 244.842581 231.230314 
L 244.778652 231.28286 
L 201.893974 155.905052 
L 201.925938 155.878779 
z
" style="fill:#808080;stroke:#808080;stroke-linejoin:miter;"/>
   </g>
   <g id="patch_6">
    <path clip-path="url(#pb77e0f0d54)" d="M 314.530279 262.671273 
L 314.530279 262.671273 
L 314.516686 262.714855 
L 244.797024 231.300169 
L 244.824209 231.213005 
L 314.543871 262.62769 
L 314.530279 262.671273 
z
" style="fill:#808080;stroke:#808080;stroke-linejoin:miter;"/>
   </g>
   <g id="matplotlib.axis_1">
    <g id="xtick_1">
     <g id="line2d_1">
      <defs>
       <path d="M 0 0 
L 0 3.5 
" id="m2e77db8984" style="stroke:#000000;stroke-width:0.8;"/>
      </defs>
      <g>
       <use style="stroke:#000000;stroke-width:0.8;" x="89.917088" xlink:href="#m2e77db8984" y="442.08"/>
      </g>
     </g>
     <g id="text_1">
      <!-- −2 -->
      <g transform="translate(82.545995 456.678437)scale(0.1 -0.1)">
       <defs>
        <path d="M 10.59375 35.5 
L 73.1875 35.5 
L 73.1875 27.203125 
L 10.59375 27.203125 
z
" id="DejaVuSans-8722"/>
        <path d="M 19.1875 8.296875 
L 53.609375 8.296875 
L 53.609375 0 
L 7.328125 0 
L 7.328125 8.296875 
Q 12.9375 14.109375 22.625 23.890625 
Q 32.328125 33.6875 34.8125 36.53125 
Q 39.546875 41.84375 41.421875 45.53125 
Q 43.3125 49.21875 43.3125 52.78125 
Q 43.3125 58.59375 39.234375 62.25 
Q 35.15625 65.921875 28.609375 65.921875 
Q 23.96875 65.921875 18.8125 64.3125 
Q 13.671875 62.703125 7.8125 59.421875 
L 7.8125 69.390625 
Q 13.765625 71.78125 18.9375 73 
Q 24.125 74.21875 28.421875 74.21875 
Q 39.75 74.21875 46.484375 68.546875 
Q 53.21875 62.890625 53.21875 53.421875 
Q 53.21875 48.921875 51.53125 44.890625 
Q 49.859375 40.875 45.40625 35.40625 
Q 44.1875 33.984375 37.640625 27.21875 
Q 31.109375 20.453125 19.1875 8.296875 
z
" id="DejaVuSans-50"/>
       </defs>
       <use xlink:href="#DejaVuSans-8722"/>
       <use x="83.789062" xlink:href="#DejaVuSans-50"/>
      </g>
     </g>
    </g>
    <g id="xtick_2">
     <g id="line2d_2">
      <g>
       <use style="stroke:#000000;stroke-width:0.8;" x="167.363852" xlink:href="#m2e77db8984" y="442.08"/>
      </g>
     </g>
     <g id="text_2">
      <!-- −1 -->
      <g transform="translate(159.992759 456.678437)scale(0.1 -0.1)">
       <defs>
        <path d="M 12.40625 8.296875 
L 28.515625 8.296875 
L 28.515625 63.921875 
L 10.984375 60.40625 
L 10.984375 69.390625 
L 28.421875 72.90625 
L 38.28125 72.90625 
L 38.28125 8.296875 
L 54.390625 8.296875 
L 54.390625 0 
L 12.40625 0 
z
" id="DejaVuSans-49"/>
       </defs>
       <use xlink:href="#DejaVuSans-8722"/>
       <use x="83.789062" xlink:href="#DejaVuSans-49"/>
      </g>
     </g>
    </g>
    <g id="xtick_3">
     <g id="line2d_3">
      <g>
       <use style="stroke:#000000;stroke-width:0.8;" x="244.810616" xlink:href="#m2e77db8984" y="442.08"/>
      </g>
     </g>
     <g id="text_3">
      <!-- 0 -->
      <g transform="translate(241.629366 456.678437)scale(0.1 -0.1)">
       <defs>
        <path d="M 31.78125 66.40625 
Q 24.171875 66.40625 20.328125 58.90625 
Q 16.5 51.421875 16.5 36.375 
Q 16.5 21.390625 20.328125 13.890625 
Q 24.171875 6.390625 31.78125 6.390625 
Q 39.453125 6.390625 43.28125 13.890625 
Q 47.125 21.390625 47.125 36.375 
Q 47.125 51.421875 43.28125 58.90625 
Q 39.453125 66.40625 31.78125 66.40625 
z
M 31.78125 74.21875 
Q 44.046875 74.21875 50.515625 64.515625 
Q 56.984375 54.828125 56.984375 36.375 
Q 56.984375 17.96875 50.515625 8.265625 
Q 44.046875 -1.421875 31.78125 -1.421875 
Q 19.53125 -1.421875 13.0625 8.265625 
Q 6.59375 17.96875 6.59375 36.375 
Q 6.59375 54.828125 13.0625 64.515625 
Q 19.53125 74.21875 31.78125 74.21875 
z
" id="DejaVuSans-48"/>
       </defs>
       <use xlink:href="#DejaVuSans-48"/>
      </g>
     </g>
    </g>
    <g id="xtick_4">
     <g id="line2d_4">
      <g>
       <use style="stroke:#000000;stroke-width:0.8;" x="322.25738" xlink:href="#m2e77db8984" y="442.08"/>
      </g>
     </g>
     <g id="text_4">
      <!-- 1 -->
      <g transform="translate(319.07613 456.678437)scale(0.1 -0.1)">
       <use xlink:href="#DejaVuSans-49"/>
      </g>
     </g>
    </g>
    <g id="xtick_5">
     <g id="line2d_5">
      <g>
       <use style="stroke:#000000;stroke-width:0.8;" x="399.704145" xlink:href="#m2e77db8984" y="442.08"/>
      </g>
     </g>
     <g id="text_5">
      <!-- 2 -->
      <g transform="translate(396.522895 456.678437)scale(0.1 -0.1)">
       <use xlink:href="#DejaVuSans-50"/>
      </g>
     </g>
    </g>
   </g>
   <g id="matplotlib.axis_2">
    <g id="ytick_1">
     <g id="line2d_6">
      <defs>
       <path d="M 0 0 
L -3.5 0 
" id="mb6e56e009d" style="stroke:#000000;stroke-width:0.8;"/>
      </defs>
      <g>
       <use style="stroke:#000000;stroke-width:0.8;" x="28.942188" xlink:href="#mb6e56e009d" y="417.43239"/>
      </g>
     </g>
     <g id="text_6">
      <!-- −2 -->
      <g transform="translate(7.2 421.231609)scale(0.1 -0.1)">
       <use xlink:href="#DejaVuSans-8722"/>
       <use x="83.789062" xlink:href="#DejaVuSans-50"/>
      </g>
     </g>
    </g>
    <g id="ytick_2">
     <g id="line2d_7">
      <g>
       <use style="stroke:#000000;stroke-width:0.8;" x="28.942188" xlink:href="#mb6e56e009d" y="324.344489"/>
      </g>
     </g>
     <g id="text_7">
      <!-- −1 -->
      <g transform="translate(7.2 328.143707)scale(0.1 -0.1)">
       <use xlink:href="#DejaVuSans-8722"/>
       <use x="83.789062" xlink:href="#DejaVuSans-49"/>
      </g>
     </g>
    </g>
    <g id="ytick_3">
     <g id="line2d_8">
      <g>
       <use style="stroke:#000000;stroke-width:0.8;" x="28.942188" xlink:href="#mb6e56e009d" y="231.256587"/>
      </g>
     </g>
     <g id="text_8">
      <!-- 0 -->
      <g transform="translate(15.579688 235.055806)scale(0.1 -0.1)">
       <use xlink:href="#DejaVuSans-48"/>
      </g>
     </g>
    </g>
    <g id="ytick_4">
     <g id="line2d_9">
      <g>
       <use style="stroke:#000000;stroke-width:0.8;" x="28.942188" xlink:href="#mb6e56e009d" y="138.168685"/>
      </g>
     </g>
     <g id="text_9">
      <!-- 1 -->
      <g transform="translate(15.579688 141.967904)scale(0.1 -0.1)">
       <use xlink:href="#DejaVuSans-49"/>
      </g>
     </g>
    </g>
    <g id="ytick_5">
     <g id="line2d_10">
      <g>
       <use style="stroke:#000000;stroke-width:0.8;" x="28.942188" xlink:href="#mb6e56e009d" y="45.080784"/>
      </g>
     </g>
     <g id="text_10">
      <!-- 2 -->
      <g transform="translate(15.579688 48.880003)scale(0.1 -0.1)">
       <use xlink:href="#DejaVuSans-50"/>
      </g>
     </g>
    </g>
   </g>
   <g id="patch_7">
    <path d="M 28.942188 442.08 
L 28.942188 7.2 
" style="fill:none;stroke:#000000;stroke-linecap:square;stroke-linejoin:miter;stroke-width:0.8;"/>
   </g>
   <g id="patch_8">
    <path d="M 475.342187 442.08 
L 475.342187 7.2 
" style="fill:none;stroke:#000000;stroke-linecap:square;stroke-linejoin:miter;stroke-width:0.8;"/>
   </g>
   <g id="patch_9">
    <path d="M 28.942188 442.08 
L 475.342187 442.08 
" style="fill:none;stroke:#000000;stroke-linecap:square;stroke-linejoin:miter;stroke-width:0.8;"/>
   </g>
   <g id="patch_10">
    <path d="M 28.942188 7.2 
L 475.342187 7.2 
" style="fill:none;stroke:#000000;stroke-linecap:square;stroke-linejoin:miter;stroke-width:0.8;"/>
   </g>
   <g id="text_11">
    <!-- wqtl -->
    <g style="fill:#808080;" transform="translate(296.310485 187.408154)scale(0.15 -0.15)">
     <defs>
      <path d="M 46.1875 -0.53125 
L 36.1875 27.296875 
Q 33.796875 21.734375 30.953125 15.09375 
Q 28.125 8.453125 24.90625 0.484375 
L 20.796875 -0.53125 
L 6.84375 36.328125 
Q 6.25 37.84375 5.6875 38.8125 
Q 5.125 39.796875 4.34375 40.40625 
Q 3.5625 41.015625 2.34375 41.375 
Q 1.125 41.75 -0.828125 42 
Q -1.078125 43.40625 -0.828125 44.921875 
Q 1.953125 44.921875 4.59375 44.828125 
Q 7.234375 44.734375 10.359375 44.734375 
Q 12.984375 44.734375 15.796875 44.828125 
Q 18.609375 44.921875 20.796875 44.921875 
Q 21 43.5625 20.796875 42.046875 
Q 17.71875 41.796875 16.5 41.328125 
Q 15.28125 40.875 15.28125 39.5 
Q 15.28125 38.8125 15.515625 37.8125 
Q 15.765625 36.8125 16.265625 35.453125 
Q 18.40625 29.390625 20.59375 23.328125 
Q 22.796875 17.28125 25.296875 11.078125 
L 34.328125 32.46875 
L 32.953125 36.328125 
Q 32.421875 37.84375 31.90625 38.8125 
Q 31.390625 39.796875 30.6875 40.40625 
Q 29.984375 41.015625 28.875 41.375 
Q 27.78125 41.75 26.03125 42 
Q 25.78125 43.40625 26.03125 44.921875 
Q 28.71875 44.921875 31.25 44.828125 
Q 33.796875 44.734375 36.625 44.734375 
Q 39.0625 44.734375 41.71875 44.828125 
Q 44.390625 44.921875 46.4375 44.921875 
Q 46.625 43.5625 46.4375 42.046875 
Q 43.3125 41.796875 42.0625 41.328125 
Q 40.828125 40.875 40.828125 39.5 
Q 40.828125 38.8125 41.0625 37.8125 
Q 41.3125 36.8125 41.796875 35.453125 
Q 43.796875 29.390625 45.84375 23.328125 
Q 47.90625 17.28125 50.203125 11.078125 
Q 52.828125 17.234375 55.296875 23.140625 
Q 57.765625 29.046875 60.015625 35.15625 
Q 60.5 36.53125 60.84375 37.546875 
Q 61.1875 38.578125 61.1875 39.3125 
Q 61.1875 40.53125 59.9375 41.140625 
Q 58.6875 41.75 55.515625 42.046875 
Q 55.28125 43.5625 55.515625 44.921875 
Q 57.765625 44.921875 60.109375 44.828125 
Q 62.453125 44.734375 65.140625 44.734375 
Q 67.671875 44.734375 69.28125 44.828125 
Q 70.90625 44.921875 72.75 44.921875 
Q 72.953125 43.5625 72.75 42 
Q 70.84375 41.84375 69.59375 41.421875 
Q 68.359375 41.015625 67.484375 40.25 
Q 66.609375 39.5 65.984375 38.40625 
Q 65.375 37.3125 64.75 35.84375 
L 49.859375 0.390625 
z
" id="SBLBibLit-119"/>
      <path d="M 36.859375 5.171875 
Q 30.21875 -0.875 21.96875 -0.875 
Q 13.765625 -0.875 8.546875 5.390625 
Q 3.328125 11.671875 3.328125 20.953125 
Q 3.328125 31.9375 9.9375 39.0625 
Q 16.546875 46.1875 26.953125 46.1875 
Q 33.15625 46.1875 38.671875 43.265625 
Q 41.265625 44.4375 43.5625 45.953125 
Q 44.671875 45.75 45.5625 45.265625 
Q 45.359375 41.5 45.359375 34.078125 
L 45.359375 -14.109375 
Q 45.359375 -16.84375 45.578125 -18.359375 
Q 45.796875 -19.875 46.53125 -20.625 
Q 47.265625 -21.390625 48.734375 -21.609375 
Q 50.203125 -21.828125 52.6875 -21.96875 
Q 52.875 -23.4375 52.6875 -24.90625 
Q 49.75 -24.90625 46.8125 -24.796875 
Q 43.890625 -24.703125 40.484375 -24.703125 
Q 37.15625 -24.703125 34.375 -24.796875 
Q 31.59375 -24.90625 28.609375 -24.90625 
Q 28.375 -23.484375 28.609375 -22.015625 
Q 31.390625 -21.875 33.03125 -21.625 
Q 34.671875 -21.390625 35.5 -20.703125 
Q 36.328125 -20.015625 36.59375 -18.703125 
Q 36.859375 -17.390625 36.859375 -15.09375 
z
M 36.96875 36.234375 
Q 32.8125 42.4375 26.078125 42.4375 
Q 19.046875 42.4375 15.578125 37.640625 
Q 12.109375 32.859375 12.109375 24.46875 
Q 12.109375 15.828125 15.71875 10.40625 
Q 19.34375 4.984375 26.265625 4.984375 
Q 33.109375 4.984375 36.96875 8.890625 
z
" id="SBLBibLit-113"/>
      <path d="M 32.28125 3.265625 
Q 26.703125 -0.875 19.828125 -0.875 
Q 14.59375 -0.875 11.515625 1.828125 
Q 8.453125 4.546875 8.453125 9.578125 
Q 8.453125 15.28125 8.59375 23.234375 
Q 8.734375 31.203125 8.9375 39.703125 
L 1.953125 39.703125 
Q 1.703125 41.015625 1.953125 42.1875 
Q 10.890625 46.1875 14.84375 55.03125 
Q 16.546875 55.03125 17.671875 54.78125 
Q 17.390625 48.875 17.390625 44 
L 31.6875 44 
Q 31.984375 41.890625 31.6875 39.703125 
L 17.4375 39.703125 
Q 17.28125 33.203125 17.203125 27.90625 
Q 17.140625 22.609375 17.140625 11.921875 
Q 17.140625 8.203125 19.328125 6.265625 
Q 21.53125 4.34375 25.296875 4.34375 
Q 28.609375 4.34375 31.453125 5.859375 
Q 32.03125 4.640625 32.28125 3.265625 
z
" id="SBLBibLit-116"/>
      <path d="M 24.703125 -0.046875 
Q 22.015625 -0.046875 19.3125 0.046875 
Q 16.609375 0.140625 13.484375 0.140625 
Q 10.25 0.140625 7.609375 0.046875 
Q 4.984375 -0.046875 2.15625 -0.046875 
Q 1.90625 1.375 2.15625 2.828125 
Q 4.546875 2.984375 5.953125 3.21875 
Q 7.375 3.46875 8.109375 4.140625 
Q 8.84375 4.828125 9.0625 6.140625 
Q 9.28125 7.46875 9.28125 9.765625 
L 9.28125 58.203125 
Q 9.28125 60.9375 9.15625 62.5625 
Q 9.03125 64.203125 8.328125 65.15625 
Q 7.625 66.109375 6.171875 66.546875 
Q 4.734375 67 1.703125 67.328125 
Q 1.46875 68.5625 1.703125 69.828125 
Q 9.125 70.84375 17.09375 73.96875 
L 18.0625 73.578125 
Q 17.875 69.4375 17.875 63.28125 
L 17.875 10.75 
Q 17.875 8.015625 18.0625 6.5 
Q 18.265625 4.984375 18.9375 4.21875 
Q 19.625 3.46875 20.984375 3.25 
Q 22.359375 3.03125 24.703125 2.875 
Q 24.90625 1.421875 24.703125 -0.046875 
z
" id="SBLBibLit-108"/>
     </defs>
     <use xlink:href="#SBLBibLit-119"/>
     <use x="71.240234" xlink:href="#SBLBibLit-113"/>
     <use x="124.804688" xlink:href="#SBLBibLit-116"/>
     <use x="157.8125" xlink:href="#SBLBibLit-108"/>
    </g>
   </g>
   <g id="text_12">
    <!-- qtl -->
    <g style="fill:#808080;" transform="translate(183.650483 282.999211)scale(0.15 -0.15)">
     <use xlink:href="#SBLBibLit-113"/>
     <use x="53.564453" xlink:href="#SBLBibLit-116"/>
     <use x="86.572266" xlink:href="#SBLBibLit-108"/>
    </g>
   </g>
   <g id="text_13">
    <!-- wayq -->
    <g style="fill:#808080;" transform="translate(201.925938 155.878779)scale(0.15 -0.15)">
     <defs>
      <path d="M 44.484375 6.15625 
Q 45.125 5.171875 45.265625 4.25 
Q 43.015625 1.609375 40.375 0.4375 
Q 37.75 -0.734375 35.25 -0.734375 
Q 29.6875 -0.734375 28.265625 5.515625 
Q 21.828125 -0.875 14.796875 -0.875 
Q 9.90625 -0.875 6.75 1.96875 
Q 3.609375 4.828125 3.609375 9.515625 
Q 3.609375 16.015625 9.640625 19.84375 
Q 15.671875 23.6875 28.421875 25.25 
L 28.515625 34.765625 
Q 28.515625 38.140625 26.078125 39.96875 
Q 23.640625 41.796875 19.921875 41.796875 
Q 17.28125 41.796875 15.578125 41.015625 
Q 15.578125 37.015625 13.5 34.25 
Q 11.421875 31.5 8.59375 31.5 
Q 6.9375 31.5 5.875 32.5625 
Q 4.828125 33.640625 4.828125 35.25 
Q 4.828125 39.3125 11.28125 42.828125 
Q 14.59375 44.625 18.109375 45.40625 
Q 21.625 46.1875 24.46875 46.1875 
Q 30.28125 46.1875 33.734375 43.1875 
Q 37.203125 40.1875 37.15625 34.96875 
L 36.71875 8.0625 
Q 36.625 4.984375 39.359375 4.984375 
Q 41.109375 4.984375 44.484375 6.15625 
z
M 28.375 21.921875 
Q 19.390625 20.75 16.09375 18.234375 
Q 12.796875 15.71875 12.796875 11.625 
Q 12.796875 8.40625 14.5 6.78125 
Q 16.21875 5.171875 19.140625 5.171875 
Q 22.46875 5.171875 28.21875 7.90625 
z
" id="SBLBibLit-97"/>
      <path d="M 6.15625 38.8125 
Q 5.609375 39.796875 4.796875 40.421875 
Q 4 41.0625 2.78125 41.40625 
Q 1.5625 41.75 -0.390625 42 
Q -0.59375 43.359375 -0.390625 44.875 
Q 2.390625 44.875 5.03125 44.765625 
Q 7.671875 44.671875 10.796875 44.671875 
Q 13.484375 44.671875 16.359375 44.765625 
Q 19.234375 44.875 21.484375 44.875 
Q 21.6875 43.5 21.484375 42.046875 
Q 18.359375 41.796875 17.0625 41.328125 
Q 15.765625 40.875 15.765625 39.5 
Q 15.765625 38.8125 16.015625 37.78125 
Q 16.265625 36.765625 16.75 35.359375 
Q 18.84375 29.15625 21.046875 23 
Q 23.09375 17.28125 25.734375 10.5 
Q 29.046875 18.265625 30.953125 22.859375 
Q 33.453125 28.859375 35.796875 35.15625 
Q 36.328125 36.625 36.59375 37.59375 
Q 36.859375 38.578125 36.859375 39.3125 
Q 36.859375 40.625 35.4375 41.15625 
Q 34.03125 41.703125 30.46875 42.046875 
Q 30.28125 43.5 30.46875 44.875 
Q 32.8125 44.875 35.25 44.765625 
Q 37.703125 44.671875 40.484375 44.671875 
Q 42.328125 44.671875 44.578125 44.765625 
Q 46.828125 44.875 48.578125 44.875 
Q 48.78125 43.5 48.578125 42 
Q 46.6875 41.84375 45.4375 41.421875 
Q 44.1875 41.015625 43.328125 40.25 
Q 42.484375 39.5 41.875 38.40625 
Q 41.265625 37.3125 40.625 35.84375 
L 29.828125 10.203125 
Q 26.703125 2.875 24.703125 -1.734375 
Q 22.703125 -6.34375 18.265625 -15.4375 
Q 15.765625 -20.515625 13 -23.09375 
Q 10.25 -25.6875 7.5625 -25.6875 
Q 5.609375 -25.6875 4.34375 -24.515625 
Q 3.078125 -23.34375 3.078125 -21.484375 
Q 3.078125 -18.703125 6.125 -16.53125 
Q 9.1875 -14.359375 14.203125 -14.359375 
Q 15.53125 -12.203125 17.28125 -8.609375 
Q 19.046875 -5.03125 21.046875 -0.4375 
L 7.28125 36.328125 
Q 6.6875 37.84375 6.15625 38.8125 
z
" id="SBLBibLit-121"/>
     </defs>
     <use xlink:href="#SBLBibLit-119"/>
     <use x="71.240234" xlink:href="#SBLBibLit-97"/>
     <use x="116.992188" xlink:href="#SBLBibLit-121"/>
     <use x="164.501953" xlink:href="#SBLBibLit-113"/>
    </g>
   </g>
   <g id="text_14">
    <!-- yqtl -->
    <g style="fill:#808080;" transform="translate(314.530279 262.671273)scale(0.15 -0.15)">
     <use xlink:href="#SBLBibLit-121"/>
     <use x="47.509766" xlink:href="#SBLBibLit-113"/>
     <use x="101.074219" xlink:href="#SBLBibLit-116"/>
     <use x="134.082031" xlink:href="#SBLBibLit-108"/>
    </g>
   </g>
  </g>
 </g>
 <defs>
  <clipPath id="pb77e0f0d54">
   <rect height="434.88" width="446.4" x="28.942188" y="7.2"/>
  </clipPath>
 </defs>
</svg>
