<?xml version="1.0" encoding="utf-8"?>
<!-- Generator: Adobe Illustrator 24.1.2, SVG Export Plug-In . SVG Version: 6.00 Build 0)  -->
<svg version="1.1" id="Layer_1" xmlns="http://www.w3.org/2000/svg" xmlns:xlink="http://www.w3.org/1999/xlink" x="0px" y="0px"
	 viewBox="0 0 353.6 879.3" style="enable-background:new 0 0 353.6 879.3;" xml:space="preserve">
<style type="text/css">
	.st0{fill:none;stroke:#000000;stroke-width:0.7571;}
	.st1{fill:none;stroke:#000000;stroke-width:1.9786;}
	.st2{fill:none;stroke:#000000;stroke-width:1.1429;}
	.st3{fill:none;stroke:#000000;stroke-width:2.2357;}
	.st4{fill:none;stroke:#000000;stroke-width:1.6571;}
	.st5{fill:none;stroke:#000000;stroke-width:0.8857;}
	.st6{fill:none;stroke:#000000;stroke-width:0.5643;}
	.st7{fill:none;stroke:#000000;stroke-width:2.3;}
	.st8{fill:none;stroke:#000000;stroke-width:1.5929;}
	.st9{fill:none;stroke:#000000;stroke-width:4.7429;}
	.st10{fill:none;stroke:#000000;stroke-width:2.1714;}
	.st11{fill:none;stroke:#000000;stroke-width:1.7214;}
	.st12{fill:none;stroke:#000000;stroke-width:1.0143;}
	.st13{fill:none;stroke:#000000;stroke-width:3.0071;}
	.st14{fill:none;stroke:#000000;stroke-width:0.8214;}
	.st15{fill:none;stroke:#000000;stroke-width:1.0786;}
	.st16{fill:none;stroke:#000000;stroke-width:0.6929;}
	.st17{fill:none;stroke:#000000;stroke-width:0.5;}
	.st18{fill:none;stroke:#000000;stroke-width:5;}
	.st19{font-family:'ArialMT';}
	.st20{font-size:24px;}
</style>
<g id="edges">
	<path class="st0" d="M139.1,97.9c20.5,50.2-24.2,156.3-74.5,176.7"/>
	<path class="st1" d="M139.1,97.9c-17.8-12.3-26-57.5-13.6-75.3"/>
	<path class="st0" d="M139.1,97.9c84.9,54.9,129.8,264.6,74.8,349.4"/>
	<path class="st2" d="M139.1,97.9c47.8,1.5,117.4,75.4,115.9,123.2"/>
	<path class="st3" d="M64.6,274.6c-20.5-50.2,24.2-156.3,74.5-176.7"/>
	<path class="st4" d="M64.6,274.6c96.7,50.5,166.1,271.3,115.6,368"/>
	<path class="st5" d="M64.6,274.6C92,225.8,206.2,193.8,255,221.1"/>
	<path class="st4" d="M166,803.2c27.2-8.7,81,18.9,89.7,46.1"/>
	<path class="st0" d="M166,803.2c-15.8,31.4-86.7,54.9-118.1,39.1"/>
	<path class="st3" d="M166,803.2c-29.3-34.9-20.8-131.3,14.2-160.6"/>
	<path class="st6" d="M166,803.2C67.4,669,120.8,319.8,255,221.1"/>
	<path class="st7" d="M255.8,849.3c-27.2,8.7-81-18.9-89.7-46.1"/>
	<path class="st8" d="M255.8,849.3C199.3,823,154,699.1,180.2,642.6"/>
	<path class="st9" d="M125.4,22.6c17.8,12.3,26,57.5,13.6,75.3"/>
	<path class="st10" d="M47.9,842.3c15.8-31.4,86.7-54.9,118.1-39.1"/>
	<path class="st11" d="M47.9,842.3c-13.5-66.4,65.9-186.2,132.3-199.6"/>
	<path class="st12" d="M213.9,447.3c-84.9-54.9-129.8-264.6-74.8-349.4"/>
	<path class="st13" d="M213.9,447.3c32.3,45.8,12.1,163-33.7,195.3"/>
	<path class="st14" d="M213.9,447.3c-37-53.5-12.4-189.2,41.1-226.2"/>
	<path class="st6" d="M180.2,642.6c-96.7-50.5-166.1-271.3-115.6-368"/>
	<path class="st1" d="M180.2,642.6c29.3,34.9,20.8,131.3-14.2,160.6"/>
	<path class="st15" d="M180.2,642.6c56.4,26.2,101.8,150.2,75.6,206.6"/>
	<path class="st16" d="M180.2,642.6c13.5,66.4-65.9,186.2-132.3,199.6"/>
	<path class="st2" d="M180.2,642.6c-32.3-45.8-12.1-163,33.7-195.3"/>
	<path class="st17" d="M180.2,642.6c18.3-16.1,69.9-13,86,5.3"/>
	<path class="st18" d="M266.2,647.9c-18.3,16.1-69.9,13-86-5.3"/>
	<path class="st7" d="M255,221.1c-47.8-1.5-117.4-75.4-115.9-123.2"/>
	<path class="st16" d="M255,221.1c-27.4,48.8-141.6,80.9-190.4,53.5"/>
	<path class="st5" d="M255,221.1c98.6,134.2,45.2,483.4-89,582.1"/>
	<path class="st12" d="M255,221.1c37,53.5,12.4,189.2-41.1,226.2"/>
</g>
<g id="node-labels">
	<text transform="matrix(1 0 0 1 100.3991 103.389)" class="st19 st20">time_pl</text>
	<text transform="matrix(1 0 0 1 16.8203 280.18)" class="st19 st20">time_sffx</text>
	<text transform="matrix(1 0 0 1 127.3199 807.6375)" class="st19 st20">definite</text>
	<text transform="matrix(1 0 0 1 180.3884 853.6226)" class="st19 st20">demonstrative</text>
	<text transform="matrix(1 0 0 1 83.421 26.9605)" class="st19 st20">cardinal</text>
	<text transform="matrix(1 0 0 1 11.8643 846.6214)" class="st19 st20">ordinal</text>
	<text transform="matrix(1 0 0 1 172.5596 452.8909)" class="st19 st20">genitive</text>
	<text transform="matrix(1 0 0 1 121.4767 648.1169)" class="st19 st20">preposition</text>
	<text transform="matrix(1 0 0 1 242.1756 652.2596)" class="st19 st20">bare</text>
	<text transform="matrix(1 0 0 1 200.9681 226.6278)" class="st19 st20">qualitative</text>
</g>
</svg>
